<svg xmlns="http://www.w3.org/2000/svg" viewBox="0 0 98 98"><defs><style>.cls-1{fill:#7dc363;}.cls-2{fill:#fff;}</style></defs><title>add</title><g id="圖層_2" data-name="圖層 2"><g id="圖層_1-2" data-name="圖層 1"><circle class="cls-1" cx="49" cy="49" r="49"/><path class="cls-2" d="M49.16,43.6V45H28.22V43.6H40.55a77.64,77.64,0,0,0,2.28-12.38l2.85.69a60.37,60.37,0,0,1-4,11.69Zm-.88-13.68H29.17V28.69h9.08c-.69-1.52-1.74-3.7-2.53-5l.71-.57a20.33,20.33,0,0,1,4.39,4.76l-1.4.83h8.86ZM31.85,31.73l.93-.32a33.92,33.92,0,0,1,4,10.62L34,42.6A54.64,54.64,0,0,0,31.85,31.73Z"/><path class="cls-2" d="M59.88,36.71a25.37,25.37,0,0,1,4.31,6.67l-2.33,1c-.24-.89-.61-2-1-3.14a40.06,40.06,0,0,1-7.6,3.23L52.3,42l1.89-.29V24.62H63V35.26H56.4v6c1.37-.3,2.74-.64,4-1-.44-1.16-.91-2.26-1.3-3.07ZM56.4,29.38h4.48V25.73H56.4Zm0,4.78h4.48V30.43H56.4ZM73,24.65V40.12c0,2.6-3.11,2.45-5.61.88l.22-.83c2.62.49,3.24.32,3.24-.86V25.75H67V46.3H64.83V24.65Z"/><path class="cls-2" d="M34.15,57.66h5c-.12,8.73-.44,13.29-.83,15.1-.47,2.13-2.75,3.14-6.47.12l.34-.8c3.31,1,3.68,1,4-.79a95.42,95.42,0,0,0,.57-12.53H34.1c-.27,7.55-1.32,13.29-5.88,17l-.62-.64c3.41-3.82,4-9.59,4.15-16.33H28.12v-1.1h3.65c0-1.55,0-3.12,0-4.74h2.4C34.2,54.57,34.18,56.14,34.15,57.66Zm14.39-1.2v17.7h-2.2V71.93H42.91v2.52H40.75v-18Zm-2.2,1.1H42.91V70.82h3.43Z"/><path class="cls-2" d="M62.55,55.67h-6.3V54.44h8.07c0,9.37,4,14.91,10.22,18.35l-2,2.72c-3.75-2.6-7.21-6.26-8.48-14a21.27,21.27,0,0,1-11.38,14l-.49-.79C58.06,71.07,62,64.35,62.55,55.67Z"/></g></g></svg>