<svg xmlns="http://www.w3.org/2000/svg" viewBox="0 0 57.33 121.73"><defs><style>.cls-1{fill:#395064;}.cls-2{fill:#ffd54d;}.cls-3{fill:#ffc70c;}.cls-4{fill:#ffe07b;}.cls-5{fill:#ffebad;}</style></defs><title>balloon</title><g id="圖層_2" data-name="圖層 2"><g id="圖層_1-2" data-name="圖層 1"><path class="cls-1" d="M28.61,121.73h0a.27.27,0,0,1-.24-.29A5,5,0,0,0,27,118c-.89-1.23-1.82-2.51-1-4.26s2.06-2.1,3.44-2.53a6.2,6.2,0,0,0,3.88-2.56,5,5,0,0,0,.12-4.67h0c-.47.08-3.84.27-4.87-1.11a1.85,1.85,0,0,1,0-2,1.5,1.5,0,0,1,1.34-1h.05c1.13,0,2.6,1.22,3.59,3q.14.25.26.49a5.25,5.25,0,0,0,3.57-3.66A6.89,6.89,0,0,0,36,92.85a4,4,0,0,0-.53-.46,8.93,8.93,0,0,1-1.64,1.41c-1.36.9-2.66,1.2-3.39.78a1.35,1.35,0,0,1-.61-1.37,2.23,2.23,0,0,1,1.59-2,4.84,4.84,0,0,1,4,.43,5.55,5.55,0,0,0,1.38-4.17c-.62-4.91-4.44-6.54-7.53-7a.27.27,0,0,1-.22-.3.27.27,0,0,1,.3-.22c3.27.52,7.31,2.25,8,7.49A6.06,6.06,0,0,1,35.83,92a4.64,4.64,0,0,1,.56.49,7.43,7.43,0,0,1,1.37,7.37,5.78,5.78,0,0,1-3.85,4,5.43,5.43,0,0,1-.21,5.08,6.72,6.72,0,0,1-4.17,2.77c-1.32.41-2.46.76-3.11,2.23s.11,2.53,1,3.74a5.47,5.47,0,0,1,1.46,3.83A.27.27,0,0,1,28.61,121.73Zm1.24-21.34h0a1,1,0,0,0-.88.66,1.35,1.35,0,0,0,0,1.46c.75,1,3.39,1,4.24.92l-.18-.34C32.09,101.52,30.78,100.39,29.85,100.39Zm3-8.84a3.62,3.62,0,0,0-1.24.21,1.73,1.73,0,0,0-1.24,1.49.87.87,0,0,0,.34.88c.54.31,1.68,0,2.83-.77A8.41,8.41,0,0,0,35,92.1,4.58,4.58,0,0,0,32.86,91.55Z"/><path class="cls-2" d="M57.33,34.41c0,22-20.6,45.32-28.66,45.32S0,56.42,0,34.41,12.83,0,28.66,0,57.33,12.39,57.33,34.41Z"/><path class="cls-3" d="M32.82,84.27a8.07,8.07,0,0,1-4.16,1.28,8.07,8.07,0,0,1-4.16-1.28l4.16-6.63Z"/><path class="cls-3" d="M57.33,34.41a42.28,42.28,0,0,0-4-18.87C59.2,43.39,45.4,58.65,33.86,65.82c-15.37,9.55-30-15.66-33-23.65,3.87,19.4,20.74,37.55,27.86,37.55C36.73,79.72,57.33,56.42,57.33,34.41Z"/><path class="cls-4" d="M39,3.61C46.11,8.22,46.72,21.68,38.6,32S11.77,51,4.67,43.85C.24,39.43.62,20.52,8.75,10.18S33.54.08,39,3.61Z"/><path class="cls-5" d="M31.52,6c2.23,3-2.15,8.22-8.32,12.76s-11.82,6.7-14,3.67S6.92,12.59,15.48,6.31C23.15.67,29.29,3,31.52,6Z"/><path class="cls-5" d="M6.69,33.32a4.78,4.78,0,0,0,3.89-5.22C10,24.13,4.91,23,3.42,27,2.42,29.71,3.25,33.93,6.69,33.32Z"/><path class="cls-1" d="M28.83,80.17a4,4,0,0,1-1.63-.35.26.26,0,0,1,.23-.48A3.34,3.34,0,0,0,30,79.4a.26.26,0,1,1,.21.48A3.35,3.35,0,0,1,28.83,80.17Z"/></g></g></svg>