<svg xmlns="http://www.w3.org/2000/svg" viewBox="0 0 65.96 70.02"><defs><style>.cls-1{fill:#7dc363;}</style></defs><title>balloon-clover-1</title><g id="圖層_2" data-name="圖層 2"><g id="圖層_1-2" data-name="圖層 1"><path class="cls-1" d="M4.2,27.7c7.34-2.52,17.62,2,18.11.5s-2.94-2.52-2.94-2.52C10.56,21.14,7.14,15.09,7.63,12.57S10.56,5.51,17.42,6,27.7-2.06,33.08.47,37,9.54,37,13.58s-3.43,9.08-.49,9.58,3.43-5.55,11.26-12.61,10.77,6.05,10.77,6.05a11.9,11.9,0,0,0,.73,4.79c1,3,8.32,4,6.36,12.11s-14.68,4-17.62,3-3.92-.5-4.41,1,2,2,2,2-.49-.5,8.81,5.55,2.94,15.13-4.89,14.63-9.3,3-9.3,3c-11.26,6.56-11.26-5-11.75-8.57C28,51.36,30.15,46,30,43.39a63,63,0,0,1-4.7,10.77C20,63.61,13.07,69.09,5.25,70l-.14-1.17c15-1.78,22.08-20.41,24.11-26.85-2-.41-6.17,7.63-6.17,7.63C14.72,61.75,7.63,54.43,7.63,51.41s-1-8.07-3.92-10.59S-3.14,30.22,4.2,27.7Z"/></g></g></svg>