<svg xmlns="http://www.w3.org/2000/svg" viewBox="0 0 47.6 42.55"><defs><style>.cls-1{fill:#f6f291;}.cls-2{fill:#fcdd7c;}.cls-3{fill:#f9f5c0;}.cls-4{fill:#725e4e;}</style></defs><title>butterfly</title><g id="圖層_2" data-name="圖層 2"><g id="圖層_1-2" data-name="圖層 1"><path class="cls-1" d="M13.23,31S7.95,20.67,11.55,13s5.29-8.29,5.53-13A75.77,75.77,0,0,0,26,7.81c5.29,4,7.45,14.42,0,19.1,0,0,7.63-3.3,13.46.84,5.48,3.9,6.13,7.81,8.17,7.21C47.6,35,27.29,53,13.23,31Z"/><path class="cls-2" d="M15.16,6.12A12,12,0,0,0,17.08,0,75.77,75.77,0,0,0,26,7.81c5.29,4,7.45,14.42,0,19.1,0,0,7.63-3.3,13.46.84,5.48,3.9,6.13,7.81,8.17,7.21a31.92,31.92,0,0,1-5.73,3.83C38.09,27.47,23.58,28.05,23.58,28.05,30.79,14.7,15.17,6.12,15.16,6.12Z"/><circle class="cls-3" cx="19.36" cy="5.77" r="1.32"/><circle class="cls-3" cx="23.84" cy="9.8" r="1.32"/><circle class="cls-3" cx="27.63" cy="15.2" r="1.32"/><circle class="cls-3" cx="27.63" cy="21.16" r="1.32"/><circle class="cls-3" cx="34.12" cy="27.92" r="1.32"/><circle class="cls-3" cx="38.77" cy="30.29" r="1.32"/><circle class="cls-3" cx="42.49" cy="34.25" r="1.32"/><path class="cls-2" d="M12.9,30.29s-2.35-16.48,1.34-19.64S20.11,24,13.79,31.22Z"/><path class="cls-2" d="M14.53,31s6.57-8.6,3.8-17.69c0,0,2.77.59,3.36,5.07S17.11,30,14.53,31.61Z"/><path class="cls-2" d="M15.41,32s7.15-7,7.11-12.2c0,0,5.18,6.23-7.11,13.09Z"/><path class="cls-2" d="M17.89,36.7s16.3,4.66,20,2.28-12.64-6.91-20.79-3.13Z"/><path class="cls-2" d="M17.42,35.29s9.55-3.74,18.34,0c0,0-.23-2.29-4.67-3.53s-12.32,1.66-14.31,3.42Z"/><path class="cls-2" d="M16.46,34.42s8-4.48,13.25-3.56c0,0-5.59-5.17-14.14,3.41Z"/><path class="cls-4" d="M9.65,26.92s7.3,3.39,11,15.63C20.67,42.55,11.39,36.76,9.65,26.92Z"/><circle class="cls-4" cx="10.01" cy="27.51" r="1.41" transform="translate(-14.03 10.8) rotate(-35.2)"/><path class="cls-4" d="M9,27.13C6.79,24.74,3.5,22.63.17,22.81c-.21,0-.24-.31,0-.32,3.46-.19,6.83,2,9.09,4.46.14.15-.13.34-.26.19Z"/><path class="cls-4" d="M9.66,27.08C8,24.29,5.24,21.55,1.94,21c-.21,0-.17-.35,0-.32,3.42.52,6.28,3.34,8,6.23.11.18-.19.3-.3.13Z"/></g></g></svg>