<svg xmlns="http://www.w3.org/2000/svg" viewBox="0 0 78.32 80.79"><defs><style>.cls-1{fill:#96b94c;}.cls-2{fill:#6d943d;}.cls-3{fill:#86a242;}.cls-4{fill:#b1cb76;}</style></defs><title>c-1</title><g id="圖層_2" data-name="圖層 2"><g id="圖層_1-2" data-name="圖層 1"><path class="cls-1" d="M3.24,38.31C.89,47.45,1.9,57.56,6.72,65.67s13.59,14,23,14.51A53.23,53.23,0,0,0,41.59,79.1l31.09-5.2A6.74,6.74,0,0,0,75.53,73c1.7-1.19,2-3.56,2-5.63.66-14,1.26-28.37-3.45-41.55S58,.82,44.06,0C29.39-.79,15.48,12.52,15.67,27.22,9.67,25.7,4.78,32.32,3.24,38.31Z"/><path class="cls-2" d="M13.8,27.43c10.49,3,20.11,9.25,28.87,15.63,9,6.57,16.6,14.29,24.58,22a.47.47,0,0,0,.74-.57C65.37,60,61.5,56.19,57.7,52.69A145.69,145.69,0,0,0,44,41.58C35,35.08,25,29.22,14.12,26.24a.62.62,0,0,0-.32,1.19Z"/><path class="cls-3" d="M77.35,71.33c2.39-18.67,1-39-11.33-54.17C56.55,5.45,37-4.74,23.51,6.73c-6,5.07-9.59,13.9-7.27,21.61a.83.83,0,0,0,1.6-.44A21,21,0,0,1,24.3,8.55c6.43-5.86,15.29-5.79,23.12-3C62.51,11.09,72.06,25.82,75.36,41c2.18,10,2.08,20.27,1,30.37-.07.66.94.64,1,0Z"/><path class="cls-3" d="M15.88,25.53C8.94,26,3.25,32,1.15,38.27c-2.66,8-.46,16.88,4,23.78C14,75.81,31,81.7,46.75,80.67c10.73-.69,21-4.14,30.72-8.68,1-.46.12-1.92-.85-1.46-18.3,8.57-40.41,13-58.62,1.74C10.13,67.42,3.8,59.79,2,50.55,0,39.65,5.27,29.74,16,26.7c.63-.18.53-1.22-.16-1.17Z"/><path class="cls-4" d="M36,73.8c6.52-1.08,13.8-2.56,19.56-6a.34.34,0,0,0-.26-.63C48.74,69.14,42.58,71.72,35.79,73c-.55.1-.32.92.23.83Z"/><path class="cls-4" d="M26,68.6c6.54-2,13.68-4.52,19.14-8.73a.33.33,0,0,0-.33-.57c-6.36,3-12.28,6.32-19.05,8.42a.46.46,0,0,0,.24.88Z"/><path class="cls-4" d="M16.91,60.25c6.09-1.47,12.48-3.63,17.62-7.31a.24.24,0,0,0-.24-.42c-5.8,2.72-11.35,5.38-17.62,6.88-.54.13-.31,1,.24.85Z"/><path class="cls-4" d="M12.21,52.38c4.73-1.91,9.81-3.53,14.3-6a.31.31,0,0,0-.24-.56C21.39,47.2,16.65,49.55,12,51.46c-.56.22-.32,1.15.26.92Z"/><path class="cls-4" d="M13.72,45.61a81.17,81.17,0,0,0,6.72-5.38A.4.4,0,0,0,20,39.6a81.31,81.31,0,0,0-6.81,5c-.57.44,0,1.43.57,1Z"/><path class="cls-4" d="M28.09,16.69c2.36,4.27,4.53,8.76,7.24,12.82a.31.31,0,0,0,.54-.32c-2-4.45-4.64-8.68-7-13-.28-.51-1.06-.06-.78.45Z"/><path class="cls-4" d="M37.91,14.89c1.88,3.74,3.62,7.53,5.18,11.41,1.33,3.3,2.28,6.86,3.91,10,.2.39.73.1.67-.29-.6-3.64-2.31-7.24-3.76-10.62-1.59-3.73-3.35-7.38-5.24-11-.26-.5-1-.06-.76.45Z"/><path class="cls-4" d="M49.28,18.74A96,96,0,0,1,54.4,31.23c1.3,4,2,8.23,3.4,12.17.13.35.69.32.68-.09-.14-4.35-1.68-8.8-3.08-12.88A99.46,99.46,0,0,0,50.21,18.2c-.31-.61-1.23-.07-.93.54Z"/><path class="cls-4" d="M61.58,30.55c2.77,7,4.12,14.14,5.92,21.41a.44.44,0,0,0,.87-.12c-.43-7.33-3-14.81-5.76-21.57-.25-.63-1.29-.36-1,.28Z"/></g></g></svg>