<svg xmlns="http://www.w3.org/2000/svg" viewBox="0 0 80.11 77.15"><defs><style>.cls-1{fill:#96b94c;}.cls-2{fill:#6d943d;}.cls-3{fill:#86a242;}.cls-4{fill:#b1cb76;}</style></defs><title>c-2</title><g id="圖層_2" data-name="圖層 2"><g id="圖層_1-2" data-name="圖層 1"><path class="cls-1" d="M46.42,18.13C52.53,14.78,60.48,16,66.14,20S75.35,30.57,77,37.33c2.24,9.08,1.07,19.47-5.14,26.46-7.57,8.53-20.16,9.92-31.53,10.75-8.64.62-17.38,1.24-25.92-.22-2.32-.4-4.73-1-6.46-2.61s-2.48-3.84-3.14-6A113.77,113.77,0,0,1,.07,28.8c.2-5.4.84-11,3.61-15.63,2.67-4.47,7.1-7.66,11.81-9.89C22,.22,29.6-1.23,36.3,1.29S48.12,11.17,46.42,18.13Z"/><path class="cls-2" d="M15.55,63.4C20.53,55.72,25.9,48.32,31.4,41S42.68,26.48,47.18,18.57c.57-1-.86-1.78-1.51-.88-5.38,7.4-10.35,15.07-15.81,22.42S19.07,54.86,14.12,62.57c-.57.89.85,1.71,1.43.83Z"/><path class="cls-3" d="M7.82,72.34c8.77,4.47,20.37,5.59,30,4.33,10-1.31,19.59-5.53,28.46-10.18,8-4.17,13.23-10.61,13.76-19.82.52-9-3.94-17.46-9.83-24s-16.36-13.17-25-7.17A.82.82,0,0,0,46.09,17c8.58-4.84,17.1.45,23,6.92,5.61,6.19,9.85,14.23,9.36,22.79a21.46,21.46,0,0,1-3.63,11c-2.61,3.75-6.58,6.08-10.59,8.1-7.93,4-16.27,7.7-25.08,9.14a54.22,54.22,0,0,1-15.37.22c-5.36-.66-10.35-2.4-15.57-3.6-.5-.11-.85.6-.36.85Z"/><path class="cls-3" d="M7.76,72.05c-1-4.84-2.62-9.55-3.6-14.42A126.21,126.21,0,0,1,2,42.14c-.7-9.5-.15-19.68,5-28,4.29-7,11.86-12.57,20.4-11.81A20.63,20.63,0,0,1,45.05,16.87a.73.73,0,0,0,1.4-.38C43.15,4.07,28.32-2.44,16.9,3.15,2.29,10.3-.29,28.12.88,42.64A131.33,131.33,0,0,0,2.94,57.42c1,5,2,10.3,4.05,15,.2.45.86.11.77-.33Z"/><path class="cls-4" d="M14.08,58.56A45.48,45.48,0,0,0,6.54,43.32c-.23-.3-.6.08-.47.36,1.13,2.57,2.61,5,3.84,7.52s2.2,5.17,3.52,7.64c.19.37.76.11.65-.28Z"/><path class="cls-4" d="M17.94,51.44c-1-5.33-1.91-10.65-2.9-16s-1.57-10.8-3.29-15.87c-.09-.25-.52-.23-.5.07.25,5.21,1.67,10.44,2.67,15.55,1.07,5.48,2.18,11,3.27,16.43.1.49.84.28.75-.21Z"/><path class="cls-4" d="M22.6,37.75q-.6-6.54-1-13.09c-.24-4.35-.13-8.79-.63-13.12a.3.3,0,0,0-.6,0c-.65,8.59.52,17.65,1.31,26.21.05.57.94.57.89,0Z"/><path class="cls-4" d="M31.19,30.12c.33-5.22.89-10.49.81-15.72,0-.38-.62-.49-.68-.1-.75,5.23-.87,10.56-1.21,15.82-.05.7,1,.7,1.08,0Z"/><path class="cls-4" d="M20.62,65.7c7.84,1.83,16.8,3.79,24.88,3,.39,0,.56-.68.1-.75-3.79-.57-7.66-.57-11.47-1A123.46,123.46,0,0,1,20.9,64.69c-.65-.15-.93.85-.28,1Z"/><path class="cls-4" d="M30.07,59c4.69.64,9.4,1.17,14.13,1.53,5,.38,10.16.93,15.12.37a.34.34,0,0,0,0-.68c-4.8-.64-9.75-.5-14.58-.84s-9.7-.84-14.52-1.48c-.62-.08-.78,1-.15,1.1Z"/><path class="cls-4" d="M36.47,50.37c7.39.92,15.65,1.46,22.94-.43a.35.35,0,0,0-.1-.68c-7.72.34-15.09,1.14-22.84.28-.53-.06-.52.76,0,.83Z"/><path class="cls-4" d="M42.64,43.08c6.64,0,13.42.46,20-.26a.3.3,0,0,0,0-.6c-6.6-.72-13.38-.29-20-.26a.56.56,0,0,0,0,1.12Z"/><path class="cls-4" d="M49,31.94c3.81-.7,7.71-1.23,11.44-2.29.43-.12.37-.85-.11-.81-3.91.35-7.79,1.24-11.65,1.95-.75.14-.43,1.29.32,1.15Z"/></g></g></svg>