<svg xmlns="http://www.w3.org/2000/svg" viewBox="0 0 70.88 68.53"><defs><style>.cls-1{fill:#96b94c;}.cls-2{fill:#6d943d;}.cls-3{fill:#86a242;}.cls-4{fill:#b1cb76;}</style></defs><title>c-3</title><g id="圖層_2" data-name="圖層 2"><g id="圖層_1-2" data-name="圖層 1"><path class="cls-1" d="M69.94,39.17a26.85,26.85,0,0,0,0-14.17A29,29,0,0,0,52.5,5.52c-16-6.25-34-4.13-50.84-.47A174.51,174.51,0,0,0,5.29,36.37C6.71,43.15,8.58,50,12.23,55.83s9.31,10.81,16.09,12.24,14.59-1.28,18-7.32c1.57-2.8,2.34-6.33,5.07-8,1.45-.89,3.21-1.08,4.82-1.6C62.87,49,67.88,45.89,69.94,39.17Z"/><path class="cls-2" d="M49.18,51.52A297,297,0,0,1,24.06,30.61C20.17,27,16.39,23.22,12.71,19.38c-1.84-1.92-3.66-3.87-5.44-5.85-1.53-1.69-3-4-5-5a.55.55,0,0,0-.8.62C2.05,11.32,4,13,5.5,14.6q2.65,3,5.4,5.89C14.78,24.6,18.82,28.56,23,32.4A250.29,250.29,0,0,0,48.32,53c.9.64,1.72-.82.86-1.47Z"/><path class="cls-3" d="M.4,8.57A113.88,113.88,0,0,0,3.14,38.35c1.78,8.43,4,17.07,10.54,23.09A26.12,26.12,0,0,0,34.61,68.3C41,67.39,48.21,62.74,49,55.8a.51.51,0,0,0-.94-.25C46.51,59,44.78,62,41.59,64.11A18.6,18.6,0,0,1,30.94,67a25.44,25.44,0,0,1-19.29-9.93c-4.9-6.34-6.46-15-7.89-22.74A183.94,183.94,0,0,1,1.3,8.57a.45.45,0,0,0-.9,0Z"/><path class="cls-3" d="M49,53.37C64.56,51.85,74.59,35.52,69,20.92,63.42,6.55,46.22,1.19,32.25.19A75.87,75.87,0,0,0,.62,4.73c-1.09.4-.62,2.17.49,1.76A75.37,75.37,0,0,1,31.74,1.94c9.15.57,18.7,2.62,26.4,7.84,8.13,5.53,12.71,14.94,10.59,24.78C66.64,44.2,58.48,51,48.91,52.42c-.54.08-.42,1,.13.95Z"/><path class="cls-4" d="M12.36,29.07c-.41,5.91-.8,12.38.4,18.22.08.41.68.28.7-.1.45-6-.12-12.13-.1-18.12a.5.5,0,0,0-1,0Z"/><path class="cls-4" d="M20,41.46c.11,5-.21,10.37.61,15.33.05.34.53.22.56-.08.47-5-.22-10.26-.46-15.25a.36.36,0,0,0-.71,0Z"/><path class="cls-4" d="M26.32,44.8c.22,5.47.44,11.84,2.82,16.86a.33.33,0,0,0,.61-.16c-.61-5.62-2.42-11-2.86-16.7,0-.37-.59-.38-.57,0Z"/><path class="cls-4" d="M36.69,53.15c.34.76.69,1.53,1,2.29a5.62,5.62,0,0,0,1.11,2,.3.3,0,0,0,.51-.21,5.49,5.49,0,0,0-.72-2.08l-1.11-2.44c-.26-.56-1.09-.07-.83.49Z"/><path class="cls-4" d="M48.61,46c3.79-1.11,7.8-1.65,11.54-2.9a.36.36,0,0,0-.1-.71c-3.93,0-8,1.39-11.72,2.59a.53.53,0,0,0,.28,1Z"/><path class="cls-4" d="M44,38.31c5.21-1.42,10.62-2.59,15.68-4.48a.29.29,0,0,0-.16-.56c-5.32.95-10.56,2.7-15.77,4.12a.48.48,0,0,0,.25.92Z"/><path class="cls-4" d="M33.33,31.14c6.46-2.43,13.19-4.06,19.62-6.48a.33.33,0,0,0-.17-.64c-6.7,1.15-13.36,3.86-19.67,6.3-.51.19-.29,1,.22.82Z"/><path class="cls-4" d="M28.18,24.71c4.29-1.62,9-3,13-5.24a.33.33,0,0,0-.26-.59c-4.43,1.05-8.75,3.21-13,4.93-.55.22-.32,1.12.25.9Z"/><path class="cls-4" d="M23,18.08c3.49-1.3,7.16-2.43,10.52-4,.43-.21.12-.88-.32-.76-3.56,1-7,2.52-10.47,3.83-.6.22-.34,1.19.27,1Z"/></g></g></svg>