<svg xmlns="http://www.w3.org/2000/svg" viewBox="0 0 70.23 72.5"><defs><style>.cls-1{fill:#96b94c;}.cls-2{fill:#6d943d;}.cls-3{fill:#86a242;}.cls-4{fill:#b1cb76;}</style></defs><title>c-4</title><g id="圖層_2" data-name="圖層 2"><g id="圖層_1-2" data-name="圖層 1"><path class="cls-1" d="M24.42,54.75c1.38.08,2.9.17,3.88,1.13a6.52,6.52,0,0,1,1.28,2.48C32.74,66.82,43,71.86,51.66,69.17c9.8-3.06,15.07-13.77,17.11-23.84A75.18,75.18,0,0,0,63.7,0L29.1,6.19C22.06,7.45,14.47,9,9.74,14.37A27.5,27.5,0,0,0,5,23.21c-2.44,6.58-4.09,14.12-1,20.44C7.49,51,16.29,54.24,24.42,54.75Z"/><path class="cls-2" d="M28.76,56.34A210.14,210.14,0,0,0,45.08,31.53q3.73-6.54,7.23-13.2c2.2-4.16,5.27-8.64,6.37-13.25.1-.4-.44-.79-.74-.43-2.87,3.39-4.55,8-6.6,12-2.4,4.59-4.85,9.15-7.4,13.66a238.72,238.72,0,0,1-16.2,25.27c-.44.59.57,1.38,1,.79Z"/><path class="cls-3" d="M60.85,1.66C50.94,3.11,41.13,5.14,31.3,7.07c-4.67.92-9.36,1.78-14,2.83a30.35,30.35,0,0,0-9.93,3.76c-6.3,4.13-7.86,11.92-7.26,19C.73,40,3.85,47.2,9.62,51.86S24,58.76,31.11,55.75c1-.42.27-1.93-.71-1.68-8.89,2.36-18-.38-23.5-8.06-5.06-7.13-7.2-19.45-2-27.09,5-7.3,16.94-7.87,24.78-9.47,10.5-2.15,21-4.24,31.39-6.94.56-.15.31-.93-.23-.85Z"/><path class="cls-3" d="M28.61,55.83c-.88,12.49,17.74,21.09,27.45,14.24,5.53-3.89,8.07-11.28,9.81-17.52a76.89,76.89,0,0,0,2.58-23.44A115.47,115.47,0,0,0,63.8,1.64a.88.88,0,0,0-1.69.47C66.9,18.83,69,37.1,63.64,54c-2.64,8.32-7,17.59-17.29,16.58C38.72,69.78,29.79,64.37,30,55.83c0-.88-1.3-.86-1.36,0Z"/><path class="cls-4" d="M56.44,22.3c2.28,4.76,3.93,9.79,6.18,14.55.15.31.59.09.53-.22-1.11-5.14-3.6-10.11-6-14.77-.25-.5-1-.06-.74.44Z"/><path class="cls-4" d="M51.9,29.21C53,32.42,54.06,35.65,55,38.93s1.42,6.69,2.58,9.86c.14.36.74.34.72-.1C58,42.07,55.14,35.1,52.81,29c-.21-.56-1.11-.32-.91.25Z"/><path class="cls-4" d="M47.32,40.25c.83,5.35,1.19,10.84,2.35,16.13.08.37.65.27.66-.09.11-5.44-1-11-2.06-16.3-.12-.63-1.05-.35-1,.26Z"/><path class="cls-4" d="M41.29,53.58c.64,3.6,1,7.42,2.08,10.92.15.47.93.41.9-.12-.21-3.71-1.2-7.46-1.87-11.11-.13-.73-1.24-.42-1.11.31Z"/><path class="cls-4" d="M15.68,48.24c3.91-1,8.05-2.31,11.43-4.59.28-.19.11-.73-.25-.59a96.87,96.87,0,0,1-11.45,4.21.5.5,0,0,0,.27,1Z"/><path class="cls-4" d="M18.49,35.19c4.43-1.42,9-2.67,13.32-4.37a.32.32,0,0,0-.17-.61c-4.51,1.16-8.93,2.8-13.36,4.24-.47.15-.27.89.21.74Z"/><path class="cls-4" d="M14.61,25.48c7.14-.91,14.51-1.41,21.53-3a.32.32,0,0,0-.08-.62c-7.2.29-14.44,1.73-21.58,2.7-.51.07-.39,1,.13.91Z"/><path class="cls-4" d="M39.37,16.84a36.1,36.1,0,0,0,4.29-.11.47.47,0,0,0,0-.94,34.1,34.1,0,0,0-4.29-.1.58.58,0,0,0,0,1.15Z"/></g></g></svg>