<svg xmlns="http://www.w3.org/2000/svg" xmlns:xlink="http://www.w3.org/1999/xlink" viewBox="0 0 369.2 294.89"><defs><style>.cls-1{fill:none;}.cls-2{fill:#fff;}.cls-3{fill:#344853;}.cls-4{clip-path:url(#clip-path);}.cls-5{clip-path:url(#clip-path-2);}.cls-6{fill:#7c7565;}.cls-7{fill:#c1c1c1;}.cls-8{fill:#77706a;}.cls-9{fill:#ccc;}.cls-10{fill:#333;}</style><clipPath id="clip-path"><path class="cls-1" d="M.53,103.46s7-50,54-64,41-49,80-37,49,47,146,23,103,75,72,114-29,15-88,51-54-15-131-3S-6.47,170.46.53,103.46Z"/></clipPath><clipPath id="clip-path-2"><rect class="cls-1" x="114.53" y="66.41" width="215" height="154.06"/></clipPath></defs><title>cloud-1</title><g id="圖層_2" data-name="圖層 2"><g id="圖層_1-2" data-name="圖層 1"><path class="cls-2" d="M.53,103.46s7-50,54-64,41-49,80-37,49,47,146,23,103,75,72,114-29,15-88,51-54-15-131-3S-6.47,170.46.53,103.46Z"/><path class="cls-3" d="M229.53,210.24c-9.33,0-16.87-3.3-25.3-7-14.32-6.27-32.13-14.08-66.76-8.69C90.27,201.91,50,193.57,27,171.68,11.38,156.87,4.49,136.23,7,112v0c.07-.49,7.41-49.3,53.08-62.91C80.45,43,90.68,32.77,98.9,24.56,109.48,14,117.12,6.34,138.52,12.93c10.21,3.14,18.21,7.78,26.68,12.7C188,38.84,211.57,52.52,280.83,35.38,326,24.21,347.45,40.59,357.54,56.3c17.8,27.72,11.32,69.54-5.89,91.2-17,21.44-24.09,23.54-36.89,27.36-10.07,3-23.86,7.12-49.17,22.56C250,206.94,238.86,210.24,229.53,210.24Zm-70.21-18.49c21.17,0,34.28,5.74,45.32,10.58,17.23,7.55,29.67,13,60.43-5.76,25.42-15.51,39.29-19.64,49.41-22.66,12.6-3.76,19.55-5.83,36.39-27,8.64-10.88,14.42-26.67,15.83-43.34,1.51-17.73-2-34.31-10-46.69-9.91-15.43-31.08-31.52-75.63-20.49-69.65,17.23-93.4,3.46-116.36-9.86-8.42-4.88-16.37-9.5-26.48-12.61-20.82-6.41-28.29,1.06-38.62,11.38C91.3,33.56,81,43.89,60.39,50,15.53,63.38,8.14,111.22,8,112.1,5.52,136,12.31,156.37,27.64,171c22.8,21.68,62.79,29.92,109.68,22.62A142.78,142.78,0,0,1,159.32,191.75Z"/><g class="cls-4"><g class="cls-5"><rect class="cls-6" x="135.76" y="102.43" width="171.21" height="172.95" rx="9.16" ry="9.16" transform="translate(67.58 -58.15) rotate(17.62)"/><rect class="cls-2" x="142.22" y="110.92" width="159.25" height="155.52" rx="4.79" ry="4.79" transform="translate(67.53 -58.31) rotate(17.62)"/><path class="cls-7" d="M283.39,141.7a7.84,7.84,0,0,1-2.37-.37l-72-22.86a7.81,7.81,0,0,1-5.08-9.8l1.61-5.07a7.81,7.81,0,0,1,9.8-5.08l72,22.86a7.82,7.82,0,0,1,5.08,9.8l-1.61,5.07a7.82,7.82,0,0,1-7.43,5.45ZM213,102.16a3.81,3.81,0,0,0-3.63,2.65l-1.61,5.07a3.8,3.8,0,0,0,2.48,4.78l72,22.86A3.81,3.81,0,0,0,287,135l1.61-5.07a3.81,3.81,0,0,0-2.48-4.78l-72-22.86A3.8,3.8,0,0,0,213,102.16Z"/><path class="cls-8" d="M206.89,104.86a13.49,13.49,0,0,0,1.44.48,1.54,1.54,0,0,1,1,2L208,111.26a1.55,1.55,0,0,0,1,2l3.48,1.16a1.55,1.55,0,0,1,1,2l-.31.93a1.55,1.55,0,0,1-2,1l-7.45-2.48a1.55,1.55,0,0,1-1-1.87l2.16-8A1.55,1.55,0,0,1,206.89,104.86Z"/><path class="cls-8" d="M277.28,138.6a13.49,13.49,0,0,0,.54-1.41,1.54,1.54,0,0,1,2-1l3.86,1.56a1.55,1.55,0,0,0,2-.88l1.31-3.42a1.55,1.55,0,0,1,2-.89l.91.35a1.55,1.55,0,0,1,.89,2l-2.81,7.33a1.55,1.55,0,0,1-1.91.92l-7.91-2.51A1.55,1.55,0,0,1,277.28,138.6Z"/><rect class="cls-9" x="163.08" y="181.3" width="123.75" height="0.86" transform="translate(68.87 -61.72) rotate(18.4)"/><rect class="cls-9" x="161.37" y="186.02" width="123.75" height="0.86" transform="translate(70.27 -60.94) rotate(18.4)"/><rect class="cls-9" x="159.65" y="190.74" width="123.75" height="0.86" transform="translate(71.67 -60.15) rotate(18.4)"/><rect class="cls-9" x="157.93" y="195.46" width="123.75" height="0.86" transform="translate(73.07 -59.37) rotate(18.4)"/><rect class="cls-9" x="156.22" y="200.18" width="123.75" height="0.86" transform="translate(74.48 -58.59) rotate(18.4)"/><rect class="cls-9" x="154.5" y="204.9" width="123.75" height="0.86" transform="translate(75.88 -57.8) rotate(18.4)"/><rect class="cls-9" x="152.78" y="209.62" width="123.75" height="0.86" transform="translate(77.28 -57.02) rotate(18.4)"/><rect class="cls-9" x="151.07" y="214.34" width="123.75" height="0.86" transform="translate(78.68 -56.24) rotate(18.4)"/><rect class="cls-9" x="149.35" y="219.06" width="123.75" height="0.86" transform="translate(80.09 -55.45) rotate(18.4)"/><rect class="cls-9" x="147.63" y="223.78" width="123.75" height="0.86" transform="translate(81.49 -54.67) rotate(18.4)"/><rect class="cls-9" x="145.92" y="228.51" width="123.75" height="0.86" transform="translate(82.89 -53.89) rotate(18.4)"/><rect class="cls-9" x="144.2" y="233.23" width="123.75" height="0.86" transform="translate(84.29 -53.1) rotate(18.4)"/><path class="cls-10" d="M189.87,134.59a8.55,8.55,0,0,0-1.18-.48l-2.49-.87c-.47-.16-.77-.26-1.08-.35a7.06,7.06,0,0,0,.46-1.09l1.53-4.37a8.67,8.67,0,0,0,.37-1.27l1.27.44a8.22,8.22,0,0,0-.5,1.22l-1.56,4.45,2.36.82a9.43,9.43,0,0,0,1.22.36Z"/><path class="cls-10" d="M191.33,132.32a2.65,2.65,0,1,1,1.62,3.45A2.51,2.51,0,0,1,191.33,132.32Zm1.09.38a1.53,1.53,0,0,0,.83,2.17c.88.31,1.64-.14,2-1.17s.08-1.89-.81-2.2S192.78,131.65,192.41,132.7Z"/><path class="cls-10" d="M199.93,137.42a1.92,1.92,0,0,1-1.08.22,3.17,3.17,0,0,1-.82-.17c-1-.36-1.47-1.11-1.16-2a1.59,1.59,0,0,1,1.43-1,6.76,6.76,0,0,1,2.49.49l.15-.43c.17-.49-.07-.86-.71-1.08a1.61,1.61,0,0,0-1-.06,1,1,0,0,0-.52.42l-1-.57a1.86,1.86,0,0,1,1-.7,2.67,2.67,0,0,1,1.76.13,2.32,2.32,0,0,1,1.49,1.08,1.5,1.5,0,0,1,0,1.3l-.79,2.27a7.21,7.21,0,0,0-.3,1.08l-1.14-.4Zm.61-1.75c-1.62-.53-2.35-.47-2.58.18-.14.4.07.74.54.91a1.82,1.82,0,0,0,1.33,0,1.07,1.07,0,0,0,.56-.64Z"/><path class="cls-10" d="M202.09,138.79a7.34,7.34,0,0,0,.45-1.07l.92-2.65a7.38,7.38,0,0,0,.32-1.12l1.14.4-.16.45c0,.13-.05.15-.14.36a2,2,0,0,1,2-.29,1.77,1.77,0,0,1,1.21,1.13,2,2,0,0,1-.13,1.28l-.71,2a7,7,0,0,0-.32,1.12L205.5,140a9.3,9.3,0,0,0,.44-1.07l.65-1.87a1.45,1.45,0,0,0,.11-.79.84.84,0,0,0-.59-.59c-.61-.21-1.25,0-1.91.74l-.6,1.7a7.94,7.94,0,0,0-.32,1.12Z"/><path class="cls-10" d="M215.8,143.58a5.9,5.9,0,0,0,.07-1l0-1-2.7-.94-.66.8a4.44,4.44,0,0,0-.56.8l-1.38-.48a9.71,9.71,0,0,0,.79-.84l3.55-4.21a5.18,5.18,0,0,0,.57-.76l1.47.51a5.9,5.9,0,0,0,0,1l.17,5.52a9.3,9.3,0,0,0,.08,1.14Zm.06-5.89c0-.1,0-.21,0-.53l-.33.42-1.75,2.19,2.09.73Z"/><path class="cls-10" d="M220.67,140.32c0,.09-.07.19-.11.29a2.08,2.08,0,0,1,2-.22,2.31,2.31,0,0,1,1.4,1.15,2.78,2.78,0,0,1,0,2.17,2.33,2.33,0,0,1-3.15,1.69,2.09,2.09,0,0,1-1.42-1.4c0,.1,0,.1-.09.27a3.84,3.84,0,0,1-.12.37l-.22.64a8.71,8.71,0,0,0-.33,1.14l-1.19-.42a10.26,10.26,0,0,0,.45-1.09l1.48-4.24a9.57,9.57,0,0,0,.34-1.15l1.12.39Zm1.38.9a1.72,1.72,0,0,0-1.09,3.24c.83.29,1.56-.16,1.91-1.15A1.48,1.48,0,0,0,222,141.22Z"/><path class="cls-10" d="M226.84,142.48c0,.09-.07.19-.11.29a2.08,2.08,0,0,1,2-.22,2.31,2.31,0,0,1,1.4,1.15,2.79,2.79,0,0,1,0,2.17,2.33,2.33,0,0,1-3.15,1.69,2.09,2.09,0,0,1-1.42-1.4c0,.1,0,.1-.09.27a3.84,3.84,0,0,1-.12.37l-.22.64a8.71,8.71,0,0,0-.33,1.14l-1.19-.42a10.26,10.26,0,0,0,.45-1.09l1.48-4.24a9.53,9.53,0,0,0,.34-1.15l1.12.39Zm1.38.9a1.72,1.72,0,0,0-1.09,3.24c.83.29,1.56-.16,1.91-1.15A1.48,1.48,0,0,0,228.22,143.38Z"/><path class="cls-10" d="M233.91,142.39a8.42,8.42,0,0,0-.44,1.08L231.89,148a9.27,9.27,0,0,0-.32,1.12l-1.22-.43a8.81,8.81,0,0,0,.44-1.07l1.58-4.52a8.2,8.2,0,0,0,.32-1.12Z"/><path class="cls-10" d="M235.76,145.13a8.08,8.08,0,0,0-.45,1.08l-.92,2.63a9.19,9.19,0,0,0-.33,1.12l-1.23-.43a8,8,0,0,0,.45-1.07l.92-2.65a7.23,7.23,0,0,0,.32-1.12Zm.66-1.87-.37,1.07-1.24-.43.37-1.07Z"/><path class="cls-10" d="M239.82,148.37a1.58,1.58,0,0,0-.08-.61,1.12,1.12,0,0,0-.73-.69c-.83-.29-1.57.18-1.93,1.23s-.07,1.88.78,2.18a1.19,1.19,0,0,0,1.13-.13,1.26,1.26,0,0,0,.32-.36l1,.58a2.44,2.44,0,0,1-.6.59,2.32,2.32,0,0,1-2.15.2,2.49,2.49,0,0,1-1.55-3.42,2.89,2.89,0,0,1,1.4-1.7,2.45,2.45,0,0,1,1.92,0,2.31,2.31,0,0,1,1.57,1.57,3,3,0,0,1,.08.72Z"/><path class="cls-10" d="M244.2,152.9a1.93,1.93,0,0,1-1.08.22,3.13,3.13,0,0,1-.82-.17c-1-.36-1.46-1.11-1.16-2a1.58,1.58,0,0,1,1.43-1,6.78,6.78,0,0,1,2.5.49l.15-.43c.17-.49-.07-.86-.71-1.08a1.61,1.61,0,0,0-1-.06,1,1,0,0,0-.53.42l-1-.57a1.87,1.87,0,0,1,1-.7,2.68,2.68,0,0,1,1.76.13,2.32,2.32,0,0,1,1.49,1.08,1.5,1.5,0,0,1,0,1.3l-.79,2.27a7.33,7.33,0,0,0-.3,1.08l-1.14-.4Zm.61-1.75c-1.62-.53-2.35-.47-2.58.19-.14.4.07.74.54.91a1.82,1.82,0,0,0,1.33,0,1.07,1.07,0,0,0,.56-.64Z"/><path class="cls-10" d="M250.27,148.75a10.11,10.11,0,0,0-.42,1l-.09.26.35.12a5,5,0,0,0,.87.25l-.35,1a4.93,4.93,0,0,0-.81-.34l-.38-.13-.91,2.61c-.14.41,0,.62.36.76a1.18,1.18,0,0,0,.68,0l-.16.95a2.77,2.77,0,0,1-1.11-.19c-1-.34-1.24-.82-.93-1.7l1-2.83-.32-.11a4.61,4.61,0,0,0-.77-.21l.35-1a4,4,0,0,0,.74.32l.31.11.09-.26a10.09,10.09,0,0,0,.3-1.06Z"/><path class="cls-10" d="M253.15,151.21a8.12,8.12,0,0,0-.45,1.08l-.92,2.63a9.25,9.25,0,0,0-.33,1.13l-1.23-.43a8,8,0,0,0,.45-1.07l.92-2.65a7.26,7.26,0,0,0,.32-1.12Zm.66-1.87-.37,1.07L252.2,150l.37-1.07Z"/><path class="cls-10" d="M253.36,154a2.65,2.65,0,1,1,1.62,3.45A2.51,2.51,0,0,1,253.36,154Zm1.09.38a1.53,1.53,0,0,0,.83,2.17c.88.31,1.64-.14,2-1.17s.08-1.89-.81-2.2S254.81,153.34,254.45,154.39Z"/><path class="cls-10" d="M258.57,158.54a7.37,7.37,0,0,0,.45-1.07l.92-2.65a7.37,7.37,0,0,0,.32-1.12l1.14.4-.16.45c0,.13-.05.15-.14.36a2,2,0,0,1,2-.29,1.77,1.77,0,0,1,1.21,1.12,2,2,0,0,1-.13,1.28l-.71,2a7.08,7.08,0,0,0-.32,1.12l-1.22-.43a9.49,9.49,0,0,0,.44-1.08l.65-1.87a1.46,1.46,0,0,0,.12-.79.84.84,0,0,0-.59-.59c-.61-.21-1.25,0-1.91.74l-.6,1.7a7.9,7.9,0,0,0-.32,1.12Z"/><path class="cls-10" d="M269.16,160.87a7.76,7.76,0,0,0-.36,1.24l-1.26-.44a7.46,7.46,0,0,0,.49-1.17l1.55-4.44a7.68,7.68,0,0,0,.32-1.12c.34.14.55.22,1.06.4l2.36.83a9.27,9.27,0,0,0,1.17.35l-.4,1.14a8.33,8.33,0,0,0-1.13-.46l-2.24-.78-.62,1.79,1.8.63a8.76,8.76,0,0,0,1.17.34l-.39,1.12a8.68,8.68,0,0,0-1.12-.46l-1.8-.63Z"/><path class="cls-10" d="M273.74,161.13a2.65,2.65,0,1,1,1.62,3.45A2.52,2.52,0,0,1,273.74,161.13Zm1.09.38a1.53,1.53,0,0,0,.83,2.17c.88.31,1.64-.14,2-1.16s.08-1.89-.81-2.2S275.2,160.46,274.83,161.51Z"/><path class="cls-10" d="M283.51,163a2.68,2.68,0,0,0-.7-.4,1.27,1.27,0,0,0-1.12.07,1.44,1.44,0,0,0-.64.72L280.5,165a9.47,9.47,0,0,0-.32,1.12l-1.21-.42a9.61,9.61,0,0,0,.44-1.07l.92-2.65a7.12,7.12,0,0,0,.32-1.12l1.15.4-.28.79a1.71,1.71,0,0,1,1.89-.33,4.69,4.69,0,0,1,.75.37Z"/><path class="cls-10" d="M283.31,167.18a9.16,9.16,0,0,0,.44-1.07l.92-2.65a7.94,7.94,0,0,0,.32-1.12l1.13.39-.15.43c0,.05-.06.18-.12.31a1.8,1.8,0,0,1,1.86-.29,1.61,1.61,0,0,1,1,.76,1.16,1.16,0,0,1,.14.62,2.06,2.06,0,0,1,.94-.42,2,2,0,0,1,1,.11,1.76,1.76,0,0,1,1.1.92,1.85,1.85,0,0,1-.05,1.42l-.73,2.08a7.39,7.39,0,0,0-.32,1.12l-1.23-.43a7.08,7.08,0,0,0,.45-1.07l.66-1.89c.26-.74.12-1.17-.45-1.37a1,1,0,0,0-.78,0,1.7,1.7,0,0,0-.9.86l-.58,1.67a8.77,8.77,0,0,0-.32,1.12l-1.21-.42a7.29,7.29,0,0,0,.45-1.07l.66-1.89c.25-.71.1-1.16-.45-1.35a1.1,1.1,0,0,0-1,.14,2,2,0,0,0-.66.71l-.58,1.67a9.11,9.11,0,0,0-.32,1.12Z"/><rect class="cls-9" x="242.97" y="176.04" width="47.39" height="0.86" transform="translate(69.34 -75.15) rotate(18.4)"/><rect class="cls-9" x="241.34" y="180.79" width="47.39" height="0.86" transform="translate(70.75 -74.39) rotate(18.4)"/><rect class="cls-9" x="239.7" y="185.54" width="47.39" height="0.86" transform="translate(72.17 -73.64) rotate(18.4)"/></g></g></g></g></svg>