<svg xmlns="http://www.w3.org/2000/svg" viewBox="0 0 149.14 144.13"><defs><style>.cls-1{fill:#96b94c;}.cls-2{fill:#55624e;}</style></defs><title>clover-2</title><g id="圖層_2" data-name="圖層 2"><g id="圖層_1-2" data-name="圖層 1"><path class="cls-1" d="M25.5,34s6.2-26.88,22.75-12.41S65.82,48.51,72,47.48s-1-11.37-1-19.64S67.89,6.12,79.27,1s18.61,12.41,33.09,11.37S132,20.6,133,25.77s-6.2,17.58-24.81,26.88c0,0-7.24,2.07-6.2,5.17s22.75-6.2,38.25-1,7.24,21.71,1,26.88S133,99.18,133,105.38s-15,21.2-32.57-3.62c0,0-9.31-17.58-13.44-15.51s3.1,17.58,2.07,24.81c-1,7-1,29.18-22.12,19a12.26,12.26,0,0,1-3.69-2.82c-1.87-2-6.83-5.53-18.64-4.79-16.54,1-30-17.58-10.34-30S52.9,81.08,52.9,81.08s5.17-1,4.14-4.14-3.1-4.14-9.31-2.07-33.09,10.34-37.22-6.2S21.88,50.06,24,43.86,25.5,34,25.5,34Z"/><path class="cls-2" d="M67.2,135.24c-3.09,0-6.73-1.08-10.88-3.23a7.34,7.34,0,0,1-2.37-2c-1.4-1.78-6-5.83-18.6-5.05-9,.56-17.56-4.64-20-12.11-2.2-6.81,1.2-13.66,9.34-18.8C39,85.09,42.49,83,43.51,82.7v0s2.81-.58,3.65-2a1.7,1.7,0,0,0,.11-1.46c-.9-2.71-2.55-3.79-8.67-1.75C32.11,79.58,16.05,84.06,6.91,79A12.36,12.36,0,0,1,.72,70.86c-2.86-11.45,3.4-16.15,8.43-19.92,2.36-1.77,4.39-3.29,5-5.17a24.85,24.85,0,0,0,1.55-9.37h0a2.14,2.14,0,0,1,.06-.71c.6-2.33,3.95-14.06,11.39-16.37,3.68-1.15,7.75.21,12.1,4a82.89,82.89,0,0,1,16,19c3,4.64,4.68,7.2,7.42,6.74a2.32,2.32,0,0,0,1.72-1c.94-1.52-.06-4.77-1.12-8.22-1-3.14-2.05-6.7-2.05-9.95,0-1.37-.09-2.88-.18-4.49-.47-8.2-1-18.4,8.74-22.85,6.17-2.8,11.17.79,16.46,4.6,4.92,3.54,10,7.21,16.8,6.72,17.64-1.26,20.89,12.29,21.2,13.84,1.09,5.43-6.09,17.88-24.93,27.35a2.07,2.07,0,0,1-.36.15c-2.14.66-4.9,1.93-5.63,3.35a1.42,1.42,0,0,0-.11,1.15c.26.79,4.61,0,8.45-.76,7.92-1.51,19.89-3.78,29.48-.58,5.16,1.72,8.19,4.78,9,9.09,1.35,7.16-3.86,15.36-7.81,18.65-6.39,5.32-8.09,15.91-8.09,21.33,0,3.37-3.74,8.32-9.1,10-4.53,1.45-13.7,1.64-24.3-13.27a2.16,2.16,0,0,1-.16-.25C87,97.13,80.57,87.44,77.94,88.77c-2,1-.67,6.53.6,11.89,1.08,4.57,2.2,9.3,1.74,12.55-.09.66-.18,1.46-.28,2.35-.61,5.68-1.63,15.19-7.83,18.52A10.36,10.36,0,0,1,67.2,135.24ZM38.42,123.91c10.72,0,14.94,3.79,16.32,5.53a6.33,6.33,0,0,0,2,1.69c6.33,3.29,11.35,4,14.92,2.07,5.74-3.08,6.72-12.26,7.31-17.74.1-.91.18-1.72.28-2.39.44-3.06-.66-7.69-1.72-12.18-1.48-6.26-2.76-11.67-.07-13,1.05-.52,5.17-.95,14.05,15.62l.09.14c10.24,14.39,18.92,14.26,23.19,12.9,5.21-1.66,8.4-6.41,8.4-9.08,0-5.59,1.78-16.54,8.45-22.1,3.91-3.26,8.68-11.22,7.46-17.7-.74-3.93-3.55-6.73-8.33-8.33-9.35-3.12-21.16-.87-29,.62-5.84,1.11-9,1.72-9.59.1a2.4,2.4,0,0,1,.17-1.92c1.09-2.13,5-3.48,6.23-3.84l.2-.08c19-9.57,25.29-21.83,24.4-26.26-.29-1.46-3.32-14.24-20.15-13-7.13.51-12.62-3.43-17.45-6.91C80.36,4.19,75.81.92,70.17,3.48,61,7.64,61.56,17.47,62,25.36c.09,1.62.18,3.15.18,4.54,0,3.1,1.07,6.58,2,9.66,1.17,3.83,2.19,7.14,1,9A3.3,3.3,0,0,1,62.8,50c-3.39.57-5.29-2.35-8.42-7.19A82,82,0,0,0,38.61,24.08c-4.07-3.56-7.82-4.84-11.14-3.81-6.93,2.15-10.14,13.42-10.71,15.66a1.16,1.16,0,0,0,0,.39h0a25.83,25.83,0,0,1-1.6,9.77c-.73,2.18-2.88,3.79-5.37,5.66C5,55.34-1,59.82,1.69,70.62a11.39,11.39,0,0,0,5.7,7.54c8.8,4.83,24.52.42,30.87-1.69,6-2,8.69-1.35,9.94,2.38a2.68,2.68,0,0,1-.2,2.28c-1.07,1.84-4.18,2.48-4.31,2.51l-.08,0c-.54.26-3.39,1.83-18.36,11.29-7.72,4.88-11,11.31-8.92,17.64,2.28,7,10.42,11.94,19,11.42Q36.94,123.91,38.42,123.91Z"/><path class="cls-2" d="M124.7,144.13C89.61,140,76.84,89.47,76.71,89l1-.24c.12.5,12.73,50.37,47.13,54.42Z"/></g></g></svg>