<svg xmlns="http://www.w3.org/2000/svg" xmlns:xlink="http://www.w3.org/1999/xlink" viewBox="0 0 59.58 124.97"><defs><style>.cls-1{fill:none;}.cls-2{clip-path:url(#clip-path);}.cls-3{fill:url(#linear-gradient);}.cls-4{fill:url(#linear-gradient-2);}.cls-5{fill:#55624e;}</style><clipPath id="clip-path"><path class="cls-1" d="M45.07,61.73s-2-8.54-7.22-3.94S32.27,66.32,30.3,66s.33-3.61.33-6.24,1-6.89-2.63-8.54-5.91,3.94-10.51,3.61-6.24,2.63-6.57,4.27,2,5.58,7.88,8.54c0,0,2.3.66,2,1.64s-7.22-2-12.15-.33-2.3,6.89-.33,8.54,2.63,4.92,2.63,6.89,4.76,6.73,10.34-1.15c0,0,3-5.58,4.27-4.92s-1,5.58-.66,7.88.33,9.52,7.4,5.84a2,2,0,0,0,.67-.55c.47-.61,2-1.94,6.06-1.68,5.25.33,9.52-5.58,3.28-9.52s-5.91-3.61-5.91-3.61-1.64-.33-1.31-1.31,1-1.31,3-.66,10.51,3.28,11.82-2-3.61-5.91-4.27-7.88A7.54,7.54,0,0,1,45.07,61.73Z"/></clipPath><linearGradient id="linear-gradient" x1="-3146.36" y1="110.65" x2="-3146.36" gradientTransform="matrix(-1, 0, 0, 1, -3117.72, 0)" gradientUnits="userSpaceOnUse"><stop offset="0" stop-color="#49a187"/><stop offset="1" stop-color="#274040"/></linearGradient><linearGradient id="linear-gradient-2" x1="-3150.19" y1="124.97" x2="-3150.19" y2="33.69" gradientTransform="matrix(-1, 0, 0, 1, -3117.72, 0)" gradientUnits="userSpaceOnUse"><stop offset="0" stop-color="#274040"/><stop offset="0.18" stop-color="#325f57"/><stop offset="0.39" stop-color="#3c7c6c"/><stop offset="0.6" stop-color="#43907b"/><stop offset="0.8" stop-color="#489d84"/><stop offset="1" stop-color="#49a187"/></linearGradient></defs><title>clover-1</title><g id="圖層_2" data-name="圖層 2"><g id="圖層_1-2" data-name="圖層 1"><g class="cls-2"><path class="cls-3" d="M43.23,0c-.53,0-26,5-22.05,16.72,3.46,10.37,13.79,9,10.49,15.83-4,8.36-20.77-4-22.23,10.85-.89,9.07,11.38,16.36,24.9,22.77,5.34,2.53,8,20.28-18.5,12.45-15.91-4.7-22.23,18-7.65,26.5S49.81,116,53.9,84.66s5.69-62.78-2.31-68.3S43.23,0,43.23,0Z"/><path id="_複合路徑_" data-name="&lt;複合路徑&gt;" class="cls-4" d="M7.69,94.73C.57,113.58,10,124.79,32.05,125c23.45.19,31.13-15.2,26-26.5-3.64-8,8-22.52-4.09-32.55-6.1-5.06-9.42-9.28-6.4-15.47C51.66,42,44.22,32.58,33.26,33.8c-13.95,1.55-7.39,14.55-16.21,17.91-4.33,1.65-12.18,9.14-11.57,19A14.08,14.08,0,0,0,16.14,83.25a12,12,0,0,1,5.6,2.94c1.44,1.51,2.43,7.37-2.85,8.18A7.31,7.31,0,0,1,13,93a3.58,3.58,0,0,0-5.34,1.72ZM44.26,95.8c4.77-.42,7.1-1.28,9.45,1a8.58,8.58,0,0,1,2.58,5.72,6.62,6.62,0,0,1-4.56,7c-6.94,2.67-7.83-5.87-10.67-4.45S38.21,96.33,44.26,95.8Zm6.6-27.46c5.47,3.4,2.25,6.21,2.25,6.21s-4.35,3.63-7.67,0-7.14-2.44-7.66-5.33S45.39,64.94,50.86,68.34Z"/></g><path class="cls-5" d="M31.83,94.21a3.61,3.61,0,0,1-1.78-.43c-2.09-1.16-2.43-4.27-2.63-6.12,0-.28-.06-.53-.09-.74a12.73,12.73,0,0,1,.56-4.11c.26-1.12.76-3.2.37-3.39s-1.65,1.14-3.51,4.53a4,4,0,0,1-.27.43C21,89.14,18,89,16.49,88.54A4.37,4.37,0,0,1,13.38,85c0-2.15-.77-5.11-2.45-6.51-1.32-1.1-3-3.84-2.6-6.25a4.12,4.12,0,0,1,3.09-3.15c3.13-1,7-.31,9.53.17a21.42,21.42,0,0,0,2.27.34,3,3,0,0,0-1.41-.81,4,4,0,0,1-.54-.23c-6-3.08-8.24-7.16-7.89-8.95.1-.52,1.22-5.1,7.09-4.67,2,.14,3.6-1,5.11-2.07,1.69-1.21,3.43-2.46,5.57-1.5,3.32,1.51,3.12,5,3,7.58,0,.5-.06,1-.06,1.41a11.63,11.63,0,0,1-.67,3.26c-.28.93-.61,2-.39,2.33,0,0,.07.12.31.16.63.1,1.07-.54,2-2a26.62,26.62,0,0,1,5.13-6.1c1.45-1.27,2.83-1.72,4.09-1.37,2.14.61,3.28,3.34,3.77,4.92a3.84,3.84,0,0,1,.18,1.14A8.38,8.38,0,0,0,49,65.34c.17.5.77,1,1.47,1.48,1.59,1.19,3.77,2.83,2.8,6.68a4.25,4.25,0,0,1-2.13,2.81c-2.91,1.6-7.72.38-10.33-.49a3.6,3.6,0,0,0-1.8-.28c-.21.06-.37.18-.52.62a.2.2,0,0,0,0,.18,1.68,1.68,0,0,0,.93.48v0c.57.18,2,1.06,6.08,3.66,2.73,1.72,3.86,4,3.11,6.36-.81,2.51-3.69,4.26-6.69,4.08-3.7-.24-5.1.89-5.54,1.38a4.11,4.11,0,0,1-1.27,1A7.68,7.68,0,0,1,31.83,94.21ZM28.28,78.41a1,1,0,0,1,.44.1c1.1.55.66,2.39.16,4.52a12.3,12.3,0,0,0-.54,3.74c0,.22.06.48.09.77.18,1.66.48,4.45,2.12,5.36,1,.54,2.36.37,4.13-.49a3.14,3.14,0,0,0,1-.74c.66-.75,2.37-2,6.35-1.71,2.55.15,5-1.3,5.68-3.39.6-1.85-.38-3.75-2.69-5.21-4.55-2.87-5.55-3.44-5.76-3.55a2.57,2.57,0,0,1-1.58-1,1.19,1.19,0,0,1-.09-1,1.75,1.75,0,0,1,1.21-1.27,4.21,4.21,0,0,1,2.38.29c2,.66,6.86,2,9.53.56a3.25,3.25,0,0,0,1.64-2.18c.8-3.21-.92-4.5-2.43-5.64a4.65,4.65,0,0,1-1.82-2,9.38,9.38,0,0,1-.54-2.91,2.83,2.83,0,0,0-.13-.84C47,60.8,46,58.16,44.3,57.66c-.93-.26-2,.13-3.16,1.16a25.74,25.74,0,0,0-4.95,5.89c-1,1.6-1.72,2.65-3,2.43a1.38,1.38,0,0,1-1-.62c-.46-.74-.11-1.85.29-3.15a10.91,10.91,0,0,0,.62-3c0-.45,0-.94.06-1.46.14-2.53.31-5.39-2.39-6.62-1.61-.73-2.92.21-4.57,1.4S22.79,56.15,20.41,56c-5.06-.38-6,3.43-6,3.87-.25,1.25,1.71,5,7.36,7.86a3,3,0,0,0,.41.17c2.19.75,2.23,1.7,2.07,2.2-.27.8-1.32.6-3.43.2-2.45-.47-6.15-1.17-9-.21a3.19,3.19,0,0,0-2.42,2.38c-.36,1.93,1.07,4.31,2.25,5.29,2.21,1.85,2.81,5.44,2.81,7.28a3.47,3.47,0,0,0,2.42,2.55c2.15.7,4.6-.65,6.89-3.81a2.87,2.87,0,0,0,.2-.32C25.72,80.11,27.2,78.41,28.28,78.41Z"/><path class="cls-5" d="M13.61,97l-.12-1c10.7-1.26,14.64-16.87,14.68-17l1,.24a36.09,36.09,0,0,1-3.42,8.34C22.53,93.2,18.34,96.47,13.61,97Z"/></g></g></svg>