<svg xmlns="http://www.w3.org/2000/svg" viewBox="0 0 43 30.23"><defs><style>.cls-1{fill:#ffba0d;}</style></defs><title>deco-yellow</title><g id="圖層_2" data-name="圖層 2"><g id="圖層_1-2" data-name="圖層 1"><path class="cls-1" d="M.59,16.39C3.13,18.57,6,21,11.59,21s8.46-2.47,11-4.65,4.48-3.85,8.82-3.85,6.41,1.78,8.82,3.85a1.68,1.68,0,1,0,2.19-2.55c-2.54-2.18-5.43-4.65-11-4.65s-8.46,2.47-11,4.65-4.48,3.85-8.82,3.85-6.41-1.78-8.82-3.85A1.68,1.68,0,0,0,.59,16.39Z"/><path class="cls-1" d="M.59,7.2c2.54,2.18,5.43,4.65,11,4.65S20,9.39,22.59,7.2s4.48-3.85,8.82-3.85,6.41,1.78,8.82,3.85a1.68,1.68,0,0,0,2.19-2.55C39.87,2.47,37,0,31.41,0s-8.46,2.47-11,4.65S15.92,8.5,11.59,8.5,5.18,6.72,2.77,4.65A1.68,1.68,0,1,0,.59,7.2Z"/><path class="cls-1" d="M42.41,23c-2.54-2.18-5.43-4.65-11-4.65s-8.46,2.47-11,4.65-4.48,3.85-8.82,3.85S5.18,25.09,2.77,23h0A1.68,1.68,0,0,0,.59,25.58c2.54,2.18,5.43,4.65,11,4.65s8.46-2.47,11-4.65,4.48-3.85,8.82-3.85,6.41,1.78,8.82,3.85A1.68,1.68,0,1,0,42.41,23Z"/></g></g></svg>