<svg xmlns="http://www.w3.org/2000/svg" viewBox="0 0 9.25 12.1"><defs><style>.cls-1{fill:#c3e7fc;}.cls-2{fill:#fef7f3;}</style></defs><title>drip-2</title><g id="圖層_2" data-name="圖層 2"><g id="圖層_1-2" data-name="圖層 1"><path class="cls-1" d="M9.25,8.51a3.59,3.59,0,0,1-7.18,0c0-1.62,2.41-6,3.28-7.6A.36.36,0,0,1,6,.91C6.84,2.46,9.25,6.89,9.25,8.51Z"/><path d="M4.09.19a1,1,0,0,0-.84.49c-.39.7-1.15,2.07-1.8,3.46a.64.64,0,1,0,1.15.54C3.1,3.61,3.68,2.53,4.09,1.79c1.6,2.9,2.62,5.26,2.62,6.09a2.62,2.62,0,1,1-5.24,0,2.52,2.52,0,0,1,.1-.61A.64.64,0,0,0,.34,6.95a3.75,3.75,0,0,0-.15.94A3.89,3.89,0,0,0,8,7.88C8,6.34,6.06,2.71,4.92.68A1,1,0,0,0,4.09.19Z"/><path class="cls-2" d="M4.09,12A4.09,4.09,0,0,1,0,7.88a4,4,0,0,1,.15-1,.83.83,0,0,1,1.61.42,2.31,2.31,0,0,0-.1.56,2.42,2.42,0,0,0,4.85,0c0-.76-.95-3-2.42-5.69-.38.69-.87,1.63-1.32,2.57a.83.83,0,1,1-1.5-.71C1.93,2.66,2.69,1.28,3.08.59a1.15,1.15,0,0,1,2,0c1.15,2,3.08,5.71,3.08,7.3A4.09,4.09,0,0,1,4.09,12ZM1,6.67A.44.44,0,0,0,.53,7a3.6,3.6,0,0,0-.14.89,3.7,3.7,0,0,0,7.39,0c0-1.5-1.9-5.09-3-7.1a.77.77,0,0,0-1.33,0C3,1.47,2.28,2.84,1.62,4.23a.44.44,0,0,0,.8.38c.52-1.1,1.1-2.19,1.5-2.9l.17-.31.17.31C5.89,4.65,6.9,7,6.9,7.88a2.81,2.81,0,1,1-5.63,0,2.76,2.76,0,0,1,.11-.66.44.44,0,0,0-.31-.54Z"/></g></g></svg>