<svg xmlns="http://www.w3.org/2000/svg" viewBox="0 0 11.89 15.55"><defs><style>.cls-1{fill:#c3e7fc;}.cls-2{fill:#fef7f3;}</style></defs><title>drip-1</title><g id="圖層_2" data-name="圖層 2"><g id="圖層_1-2" data-name="圖層 1"><path class="cls-1" d="M11.89,10.93a4.61,4.61,0,0,1-9.23,0c0-2.09,3.09-7.77,4.21-9.76a.46.46,0,0,1,.8,0C8.8,3.17,11.89,8.85,11.89,10.93Z"/><path d="M5.25.25A1.24,1.24,0,0,0,4.18.88c-.5.9-1.48,2.67-2.32,4.45A.82.82,0,1,0,3.33,6C4,4.64,4.73,3.25,5.25,2.31,7.31,6,8.62,9.07,8.62,10.13a3.37,3.37,0,1,1-6.73,0A3.23,3.23,0,0,1,2,9.34.82.82,0,0,0,.44,8.93a4.81,4.81,0,0,0-.19,1.2,5,5,0,0,0,10,0c0-2-2.46-6.65-3.93-9.25A1.23,1.23,0,0,0,5.25.25Z"/><path class="cls-2" d="M5.25,15.38A5.26,5.26,0,0,1,0,10.13,5.08,5.08,0,0,1,.19,8.86a1.07,1.07,0,0,1,2.06.54,3,3,0,0,0-.12.72,3.12,3.12,0,0,0,6.23,0c0-1-1.21-3.82-3.12-7.31-.49.89-1.12,2.09-1.69,3.3a1.07,1.07,0,1,1-1.93-.91C2.48,3.42,3.45,1.65,4,.76a1.48,1.48,0,0,1,2.58,0c1.48,2.63,4,7.34,4,9.38A5.26,5.26,0,0,1,5.25,15.38Zm-4-6.81A.57.57,0,0,0,.68,9,4.63,4.63,0,0,0,.5,10.13a4.75,4.75,0,0,0,9.5,0C10,8.21,7.56,3.58,6.11,1A1,1,0,0,0,4.39,1c-.5.89-1.47,2.65-2.31,4.43a.57.57,0,0,0,1,.48C3.78,4.5,4.52,3.1,5,2.18l.22-.4.22.4C7.56,6,8.87,9,8.87,10.13a3.62,3.62,0,0,1-7.23,0,3.55,3.55,0,0,1,.14-.85.57.57,0,0,0-.4-.69Z"/></g></g></svg>