<svg xmlns="http://www.w3.org/2000/svg" viewBox="0 0 44.66 324"><defs><style>.cls-1{fill:#2b6060;}.cls-2{fill:#e1ede0;}</style></defs><title>gift-deco</title><g id="圖層_2" data-name="圖層 2"><g id="圖層_1-2" data-name="圖層 1"><rect class="cls-1" x="21.41" width="1" height="199"/><rect class="cls-1" x="21.91" y="261" width="0.71" height="63"/><rect class="cls-1" x="12.41" y="244" width="0.71" height="54"/><rect class="cls-1" x="30.69" y="242" width="0.71" height="54"/><rect class="cls-1" x="30.69" y="300" width="0.71" height="5"/><rect class="cls-1" x="21.91" y="252" width="0.71" height="5"/><path class="cls-1" d="M43.5,198.19H24.45c1.68-1.2,4.44-2,8.14-2.49,7.29-.86,7.17-5.31,7.17-5.5a.9.9,0,0,0-.9-.86H35.54v-2a.91.91,0,0,0-1.8-.14c0,.08-.43,1.73-5.09,3.65a12.5,12.5,0,0,0-6.81,6.88,7.27,7.27,0,0,1-1.11-1,3.56,3.56,0,0,1-.76-4,5.51,5.51,0,0,0-.43-5.35A7.77,7.77,0,0,0,13.38,184a.9.9,0,0,0-.88,1.11l.35,1.48-2.23,1.22A.9.9,0,0,0,11,189.5a4.38,4.38,0,0,1,2.61,1.25,2.1,2.1,0,0,1,.37,1.68,5,5,0,0,0,1.37,4,10.16,10.16,0,0,0,2.07,1.78H1.15a.9.9,0,0,0-.9.9v9.14a.9.9,0,0,0,.9.9H2.61v29a.9.9,0,0,0,.9.9H41.14a.9.9,0,0,0,.9-.9v-29H43.5a.9.9,0,0,0,.9-.9v-9.14A.9.9,0,0,0,43.5,198.19ZM29.34,192.5A16.89,16.89,0,0,0,33.73,190v.23a.9.9,0,0,0,.9.9h3.1c-.42.93-1.67,2.32-5.36,2.76a24.05,24.05,0,0,0-7.33,1.86,10.46,10.46,0,0,1,4.29-3.26ZM19,224.69H4.42v-3.06H19Zm0-4.86H4.42V209.13H19Zm-2.31-24.6a3.19,3.19,0,0,1-1-2.53,3.86,3.86,0,0,0-.73-3.05,4.64,4.64,0,0,0-1.62-1.28l.95-.52a.9.9,0,0,0,.45-1l-.21-.89A6,6,0,0,1,18,188.3a3.66,3.66,0,0,1,.28,3.65,5.2,5.2,0,0,0,.31,4.88,8.49,8.49,0,0,1-1.93-1.61ZM2.06,207.32V200H19v7.33Zm2.36,29.87V226.5H19v10.69Zm19.44-16.47v16.47H20.8V209.13h3.06Zm0-13.4H20.8V200h3.06Zm16.38,29.87H25.66V226.5H40.24Zm0-12.5H25.66v-3.06H40.24Zm0-4.86H25.66V209.13H40.24Zm2.36-12.5H25.66V200H42.6Z"/><path class="cls-2" d="M41.14,239.25H3.51a1.15,1.15,0,0,1-1.15-1.15V209.38H1.15A1.16,1.16,0,0,1,0,208.23v-9.14a1.16,1.16,0,0,1,1.15-1.15H16.6a10.39,10.39,0,0,1-1.47-1.37,5.19,5.19,0,0,1-1.43-4.16,1.87,1.87,0,0,0-.32-1.5,4.18,4.18,0,0,0-2.43-1.15,1.15,1.15,0,0,1-.44-2.16l2.07-1.13-.31-1.29a1.13,1.13,0,0,1,0-.27,1.16,1.16,0,0,1,1.15-1.16,8.06,8.06,0,0,1,6.37,3.42,5.8,5.8,0,0,1,.45,5.6,3.32,3.32,0,0,0,.73,3.75,7.13,7.13,0,0,0,.82.78,12.83,12.83,0,0,1,6.81-6.71c4.21-1.74,4.86-3.21,4.94-3.49a1.16,1.16,0,0,1,2.29.21v1.77h3.06a1.15,1.15,0,0,1,1.15,1.1c0,.2.14,4.87-7.39,5.76a20.16,20.16,0,0,0-7.31,2H43.5a1.16,1.16,0,0,1,1.15,1.15v9.14a1.15,1.15,0,0,1-1.15,1.15H42.29V238.1A1.16,1.16,0,0,1,41.14,239.25Zm-40-40.81a.66.66,0,0,0-.65.65v9.14a.65.65,0,0,0,.65.65H2.86V238.1a.65.65,0,0,0,.65.65H41.14a.65.65,0,0,0,.65-.65V208.88H43.5a.65.65,0,0,0,.65-.65v-9.14a.65.65,0,0,0-.65-.65H23.67l.63-.45c1.73-1.24,4.51-2.09,8.26-2.53,7.07-.84,7-5.06,6.95-5.24a.65.65,0,0,0-.65-.62H35.29v-2.27a.61.61,0,0,0-.65-.61.58.58,0,0,0-.64.49l0,.06c-.14.44-.92,2-5.23,3.8a12.32,12.32,0,0,0-6.67,6.74l-.12.3-.26-.19a7.56,7.56,0,0,1-1.15-1.05,3.79,3.79,0,0,1-.81-4.29,5.3,5.3,0,0,0-.41-5.12,7.56,7.56,0,0,0-6-3.2.65.65,0,0,0-.65.66.62.62,0,0,0,0,.15l.4,1.67L10.74,188a.65.65,0,0,0-.26.89.65.65,0,0,0,.51.34h0a4.65,4.65,0,0,1,2.78,1.35,2.36,2.36,0,0,1,.42,1.88,4.69,4.69,0,0,0,1.31,3.75,9.87,9.87,0,0,0,2,1.75l.71.46Zm39.33,39H25.41V226.25H40.49Zm-14.57-.5H40V226.75H25.91Zm-1.81.5H20.55V208.88h3.56Zm-3.06-.5h2.56V209.38H21Zm-1.81.5H4.17V226.25H19.24Zm-14.57-.5H18.74V226.75H4.67Zm35.82-12H25.41v-3.56H40.49Zm-14.57-.5H40v-2.56H25.91Zm-6.67.5H4.17v-3.56H19.24Zm-14.57-.5H18.74v-2.56H4.67Zm35.82-4.36H25.41V208.88H40.49Zm-14.57-.5H40V209.38H25.91Zm-6.67.5H4.17V208.88H19.24Zm-14.57-.5H18.74V209.38H4.67Zm38.18-12H25.41v-7.83H42.85Zm-16.93-.5H42.35v-6.83H25.91Zm-1.81.5H20.55v-7.83h3.56Zm-3.06-.5h2.56v-6.83H21Zm-1.81.5H1.81v-7.83H19.24Zm-16.93-.5H18.74v-6.83H2.31Zm17.06-9.5-.89-.54a8.7,8.7,0,0,1-2-1.65,3.43,3.43,0,0,1-1-2.72,3.64,3.64,0,0,0-.68-2.88,4.43,4.43,0,0,0-1.53-1.2l-.44-.21,1.38-.76a.66.66,0,0,0,.32-.73l-.31-1.28.4.09a6.23,6.23,0,0,1,3.62,2.45,3.92,3.92,0,0,1,.3,3.9,4.94,4.94,0,0,0,.29,4.64Zm-5.47-9.21a5,5,0,0,1,1.29,1.12,4.13,4.13,0,0,1,.79,3.25,2.92,2.92,0,0,0,.88,2.3h0a8.24,8.24,0,0,0,1.09,1,5.44,5.44,0,0,1,.12-4.23,3.42,3.42,0,0,0-.26-3.4,5.74,5.74,0,0,0-2.93-2.13l.11.48a1.16,1.16,0,0,1-.57,1.28Zm10.36,8,.59-.77a10.73,10.73,0,0,1,4.39-3.34h0a16.61,16.61,0,0,0,4.32-2.45l.4-.32v.75a.66.66,0,0,0,.65.65h3.49l-.16.35c-.5,1.08-1.86,2.47-5.55,2.9A23.81,23.81,0,0,0,25.15,196Zm5.17-3.64a10.22,10.22,0,0,0-3.52,2.41,24.25,24.25,0,0,1,6.44-1.49c3.14-.37,4.43-1.46,5-2.26H34.64a1.16,1.16,0,0,1-1.13-.9A17.1,17.1,0,0,1,29.44,192.73Z"/></g></g></svg>