<svg xmlns="http://www.w3.org/2000/svg" viewBox="0 0 36.36 24.58"><defs><style>.cls-1{fill:#f47973;}</style></defs><title>gift-box</title><g id="圖層_2" data-name="圖層 2"><g id="圖層_1-2" data-name="圖層 1"><path class="cls-1" d="M36.23,7.7,32.82,1a1.73,1.73,0,0,0-1.53-1H5.07A1.73,1.73,0,0,0,3.54,1L.12,7.7a1.16,1.16,0,0,0,0,1.12,1,1,0,0,0,.87.5H3.82V22.84a1.68,1.68,0,0,0,1.61,1.74H30.93a1.68,1.68,0,0,0,1.61-1.74V17a.55.55,0,1,0-1.1,0v5.8a.59.59,0,0,1-.51.64H18.73V2.86l2.88,5.67a1.42,1.42,0,0,0,1.26.8h8.56v5.14a.55.55,0,0,0,1.1,0V9.33h2.78a1,1,0,0,0,.87-.5A1.16,1.16,0,0,0,36.23,7.7ZM1.1,8.22v0L4.52,1.48a.64.64,0,0,1,.55-.38H17.28L13.77,8h0a.33.33,0,0,1-.28.2ZM17.63,23.48H5.43a.59.59,0,0,1-.51-.64V9.33h8.56a1.42,1.42,0,0,0,1.26-.8l2.88-5.67ZM22.87,8.22a.33.33,0,0,1-.28-.2L19.08,1.1H31.29a.64.64,0,0,1,.55.38L35.25,8.2v0Z"/></g></g></svg>