<svg xmlns="http://www.w3.org/2000/svg" viewBox="0 0 42.96 45.61"><defs><style>.cls-1{fill:#e5b52e;}</style></defs><title>gold-clover</title><g id="圖層_2" data-name="圖層 2"><g id="圖層_1-2" data-name="圖層 1"><path class="cls-1" d="M40.22,18c-4.78-1.64-11.48,1.31-11.8.33s1.91-1.64,1.91-1.64c5.74-3,8-6.9,7.65-8.54s-1.91-4.6-6.38-4.27S24.92-1.34,21.42.3s-2.55,5.91-2.55,8.54,2.23,5.91.32,6.24S17,11.47,11.85,6.87s-7,3.94-7,3.94a7.75,7.75,0,0,1-.48,3.12c-.64,2-5.42,2.63-4.14,7.88s9.56,2.63,11.48,2,2.55-.33,2.87.66-1.28,1.31-1.28,1.31.32-.33-5.74,3.61-1.91,9.86,3.19,9.53,6.06,2,6.06,2c7.33,4.27,7.33-3.29,7.65-5.58.25-1.84-1.12-5.35-1-7a41,41,0,0,0,3.06,7c3.45,6.15,8,9.72,13.06,10.33l.09-.76c-9.75-1.16-14.38-13.3-15.7-17.49,1.33-.27,4,5,4,5,5.42,7.88,10,3.12,10,1.15s.64-5.26,2.55-6.9S45,19.68,40.22,18Z"/></g></g></svg>