<svg xmlns="http://www.w3.org/2000/svg" viewBox="0 0 30.39 41.84"><defs><style>.cls-1{fill:#a8e059;}.cls-2{stroke:#fef7f3;stroke-miterlimit:10;stroke-width:0.5px;}</style></defs><title>grow</title><g id="圖層_2" data-name="圖層 2"><g id="圖層_1-2" data-name="圖層 1"><path class="cls-1" d="M6.18,10C3.61,8.34,2.2.86,2.2.86S9.59-1,12.16.69a5.53,5.53,0,1,1-6,9.3Z"/><path class="cls-1" d="M19.86,6.26c2.5-1.75,10-.23,10-.23s-1.12,7.53-3.62,9.28a5.53,5.53,0,1,1-6.34-9.06Z"/><path class="cls-2" d="M15.4,41.84V20.59A5.48,5.48,0,0,1,17,16.84l.2.31a6.4,6.4,0,0,0,8.9,1.57c2.73-1.91,3.86-9.06,4-9.87a.86.86,0,0,0-.68-1c-.8-.16-7.91-1.54-10.63.37a6.4,6.4,0,0,0-2.51,6.89,10.57,10.57,0,0,0-.91,1V16a9.24,9.24,0,0,0-1.73-5.37,6.4,6.4,0,0,0-2.13-8.48C8.75.33,1.7,2,.91,2.18a.86.86,0,0,0-.64,1c.15.8,1.57,7.9,4.37,9.7a6.35,6.35,0,0,0,3.44,1,6.43,6.43,0,0,0,1.37-.15,6.34,6.34,0,0,0,3.11-1.68A7.4,7.4,0,0,1,13.68,16V41.84M19.81,9.67A7.07,7.07,0,0,1,23.46,9a30.34,30.34,0,0,1,4.83.44c-.51,2.81-1.68,6.87-3.13,7.88a4.67,4.67,0,0,1-6.5-1.14,4.57,4.57,0,0,1-.3-.5,24,24,0,0,1,7.44-3.45.86.86,0,1,0-.42-1.68,25.63,25.63,0,0,0-7.54,3.37A4.67,4.67,0,0,1,19.81,9.67ZM9.08,12.06a4.63,4.63,0,0,1-3.51-.63c-1.49-1-2.81-5-3.43-7.75,2.8-.59,7-1,8.48-.09a4.67,4.67,0,0,1,1.84,5.57,14.39,14.39,0,0,0-2-1.7A18.84,18.84,0,0,0,5.57,5a.86.86,0,0,0-.5,1.65,16.26,16.26,0,0,1,6.43,4A4.63,4.63,0,0,1,9.08,12.06Z"/></g></g></svg>