<svg xmlns="http://www.w3.org/2000/svg" viewBox="0 0 445.94 19"><title>hi-txt</title><g id="圖層_2" data-name="圖層 2"><g id="圖層_1-2" data-name="圖層 1"><path d="M3.93,18.91c-.2,0-.29-.14-.29-.43.2-1.44.32-3.08.4-4.9l.13-3.85V8.95c-.13.16-.25.32-.4.49a11.33,11.33,0,0,1-1.58,1.44,2.47,2.47,0,0,1-1.57.67c-.32,0-.49-.38-.49-1.1,0-.32,0-.85.07-1.6Q.25,7.36.25,7c0-.25,0-.54,0-.86s0-.65-.07-1S.07,4.27,0,3.94c0-.14.09-.23.23-.31a.86.86,0,0,1,.32-.07c.05,0,.13.05.2.14a4.79,4.79,0,0,1,.27,1A9,9,0,0,1,1.15,6c0,.72,0,1.44-.09,2.2C1,9.25,1,9.94,1,10.28s0,.29.05.29A14.69,14.69,0,0,0,3.15,8.71c.47-.43.79-.74,1-.9l0-2.47c0-1.31,0-2.74.05-4.29a.45.45,0,0,1,.5-.5c.29,0,.43.2.43.56-.05,1.55-.07,2.75-.07,3.58L5,9.33C5,10.82,5,12.06,5,13a29.08,29.08,0,0,1-.54,5.44A.48.48,0,0,1,3.93,18.91Zm9.9-14.46a11.43,11.43,0,0,1-1.62.85l0,0a8.93,8.93,0,0,1,.29,2.54,8.34,8.34,0,0,1-1.62,4.74q1.16,1,2.59,1.94c.27.2.85.59,1.71,1.19a13.54,13.54,0,0,1,1.51,1.35,2,2,0,0,1,.05.45.28.28,0,0,1-.22.31.54.54,0,0,1-.38-.18L14,16.19c-1-.63-1.87-1.26-2.74-1.91-.36-.25-.7-.52-1-.77a14.24,14.24,0,0,1-2.72,3,.47.47,0,0,1-.36.31H7.06a.31.31,0,0,1-.25-.32.48.48,0,0,1,.05-.22c.85-.85,1.69-1.76,2.56-2.79A3.29,3.29,0,0,0,9.71,13a14.17,14.17,0,0,1-2.23-2.36A2.92,2.92,0,0,1,6.7,9.33.32.32,0,0,1,7,9a.53.53,0,0,1,.34.13,5.68,5.68,0,0,1,1.28,1.17,21,21,0,0,0,1.69,1.8A10,10,0,0,0,11.65,8.3V7.69a5.56,5.56,0,0,0-.16-1.31l-.14-.7a11,11,0,0,1-1.31.4,7,7,0,0,1-2,.31,1,1,0,0,1-.23,0,.64.64,0,0,1-.56-.72,1,1,0,0,1,.18-.49c.18-.29.36-.59.56-.94s.29-.67.4-1,.25-.54.34-.74a.36.36,0,0,1,.36-.27c.32,0,.49.14.5.36v.14a3.85,3.85,0,0,1-.38.9c-.22.43-.45.85-.68,1.26a5.07,5.07,0,0,0-.32.56,12.81,12.81,0,0,0,5.6-2A.69.69,0,0,1,14,3.29l.13,0a.4.4,0,0,1,.34.4.76.76,0,0,1-.05.29A4.26,4.26,0,0,1,13.83,4.45Z"/><path d="M24.64,1.91a.35.35,0,0,1,.31.18c0,.07,0,.14.05.2a.47.47,0,0,1-.16.38,11.17,11.17,0,0,1-2.47,1,.8.8,0,0,1,0,.18V4a8.12,8.12,0,0,1-.52,1.31c-.31.7-.61,1.37-.9,2-.16.36-.31.65-.43.9A1.83,1.83,0,0,0,21.22,8a13.29,13.29,0,0,0,1.4-.85,11,11,0,0,0,1.58-1.44.17.17,0,0,1,0-.09c0-.22.16-.36.45-.42a.58.58,0,0,1,.4.18c.13.18.32.43.58.79.38.63.81,1.31,1.31,2A.58.58,0,0,1,27,8.5a.31.31,0,0,1-.27.31.39.39,0,0,1-.32-.13,8.54,8.54,0,0,1-1.85-2.27,1.35,1.35,0,0,0-.16.18,8,8,0,0,1-1.31,1.15,7.9,7.9,0,0,1-1.44.94,3.31,3.31,0,0,1-1.37.43H20a.52.52,0,0,1-.54-.58,1.82,1.82,0,0,1,.25-.81,10.86,10.86,0,0,0,.72-1.39c.25-.54.49-1.06.68-1.55.14-.32.27-.63.38-.9L21.24,4a7.44,7.44,0,0,1-1.69.23.53.53,0,0,1-.4-.16A.54.54,0,0,1,19,3.66a.33.33,0,0,1,.31-.38A14.89,14.89,0,0,0,21.08,3,16.22,16.22,0,0,0,24.5,1.94.35.35,0,0,1,24.64,1.91Zm.67,8.3a.35.35,0,0,1,.29.14.41.41,0,0,0,.07.18.37.37,0,0,1-.18.31,8.85,8.85,0,0,1-2.16,1.28v.18c0,.65,0,1.24-.09,1.82-.07.36-.13.67-.16.9.61-.27,1.17-.54,1.69-.83a4.83,4.83,0,0,1,1-.58.29.29,0,0,1,.16-.05.47.47,0,0,1,.29.16s0,.11,0,.18a.75.75,0,0,1-.16.34,15.85,15.85,0,0,1-2.43,1.58,16.34,16.34,0,0,1-3.29,1.35.61.61,0,0,1-.18.07.37.37,0,0,1-.31-.18.86.86,0,0,1-.11-.47.32.32,0,0,1,.25-.31c.68-.29,1.28-.5,1.76-.67.16-.07.31-.14.41-.18a8.6,8.6,0,0,1,.23-.92c0-.72.05-1.33.05-1.8V12.5a2.77,2.77,0,0,1-.36.16,6.38,6.38,0,0,1-1.62.34.52.52,0,0,1-.41-.18.7.7,0,0,1-.18-.41.37.37,0,0,1,.32-.4,14.91,14.91,0,0,0,1.69-.34,3.59,3.59,0,0,0,.47-.14l-.05-.38c0-.25-.09-.47-.13-.68a1.3,1.3,0,0,1-.09-.41.47.47,0,0,1,.22-.38.64.64,0,0,1,.34-.09c.18,0,.32.13.41.38a6,6,0,0,1,.2,1.24,10.14,10.14,0,0,0,1.93-1Zm4.12-4.79a11.61,11.61,0,0,1,.27,1.91c0,.63.07,1.1.07,1.42a10.2,10.2,0,0,1-.05,1.06,5.91,5.91,0,0,1-.16.79c-.07.31-.22.45-.47.45s-.34-.13-.34-.4a5.24,5.24,0,0,1,.13-.54c0-.38,0-.7,0-1a17.84,17.84,0,0,0-.2-2.25c-.05-.36-.11-.68-.16-1a1.21,1.21,0,0,1-.07-.38.42.42,0,0,1,.2-.36A.5.5,0,0,1,29,5C29.18,5,29.33,5.17,29.43,5.42Zm3.62,13.11A6.59,6.59,0,0,1,31,17l-.25-.27c0-.11.13-.16.42-.16a4.72,4.72,0,0,1,2.11,1,2.28,2.28,0,0,0,0-.43c0-1.12,0-2.56-.07-4.32S33.11,9,33.11,7q0-1.86.05-4.11V1.08a2.31,2.31,0,0,0-.11-.59.62.62,0,0,1,.4-.4h.18c.27.07.41.31.41.7v6c0,1,0,1.94,0,2.77s0,1.93.09,3.19c.05,2.38.09,4.14.09,5.37,0,.36-.14.56-.38.58A1.6,1.6,0,0,1,33.05,18.53Z"/><path d="M41.38,14.89a38.76,38.76,0,0,0,4.74.79c.63.07,1.33.14,2.11.2s1.21,0,1.71,0,1,0,1.53-.05.88-.11,1.39-.2a5,5,0,0,1,.83-.09c.22,0,.32.05.32.16A.57.57,0,0,1,54,16a1.74,1.74,0,0,1-.27.2,16.68,16.68,0,0,1-4.47.52,41.46,41.46,0,0,1-9.27-1.22c-.61-.16-1.15-.32-1.66-.5a3.61,3.61,0,0,1-.77-.31.29.29,0,0,1-.09-.25A.58.58,0,0,1,37.6,14a.49.49,0,0,1,.29-.09.89.89,0,0,1,.27.05c.29.07.61.18,1,.29a2.14,2.14,0,0,0,.56-1.42,1.42,1.42,0,0,0-.32-.77,1.25,1.25,0,0,1-.23-.68,2.2,2.2,0,0,1,.52-1.26c.16-.18.25-.31.25-.41A1.72,1.72,0,0,0,39.6,9c-.18-.23-.4-.49-.63-.77,0-.25.16-.4.49-.4a.73.73,0,0,1,.36.16,1.92,1.92,0,0,1,.9,1.6,3.84,3.84,0,0,1-.7,1.75A2.91,2.91,0,0,1,40.54,13a1.91,1.91,0,0,1-.61,1.5A14.85,14.85,0,0,0,41.38,14.89ZM40.65,6.1c-.18,0-.36-.13-.54-.38a3.07,3.07,0,0,0-1.35-.9c-.14-.05-.23-.09-.23-.13a.55.55,0,0,1,0-.27.63.63,0,0,1,0-.16c0-.14.18-.23.43-.25a1.71,1.71,0,0,1,1,.38,3.5,3.5,0,0,1,.94,1,.83.83,0,0,1,.05.31C40.86,6,40.79,6.1,40.65,6.1Zm7.44,2.07a8.2,8.2,0,0,1-2.72,1.31l-.25.07s0,.09,0,.13a7,7,0,0,1-.11,1l.58,0a2.39,2.39,0,0,1,1.82.58.93.93,0,0,1,.2.58,2.9,2.9,0,0,1-.7,1.69,5,5,0,0,1-1.15,1.15.69.69,0,0,1-.45.22c-.23,0-.34-.11-.34-.36a.54.54,0,0,1,.2-.32,6.64,6.64,0,0,0,1.08-.92A2.33,2.33,0,0,0,47,11.85q0-.57-1.24-.59l-.79,0s-.07,0-.07,0a4.9,4.9,0,0,1-1.55,2.36.58.58,0,0,1-.32.11c-.16,0-.25-.09-.25-.27a.35.35,0,0,1,.09-.27c.09-.11.22-.29.4-.52a4.62,4.62,0,0,0,1-2.21c0-.22,0-.43,0-.65-.43.14-.85.29-1.22.4a2,2,0,0,1-.49.11l-.32,0c-.18,0-.29-.13-.31-.36s.09-.18.27-.29l.36-.11c.88-.25,1.75-.52,2.59-.83a.6.6,0,0,0,.16-.07,4.84,4.84,0,0,1-.81-.9,2,2,0,0,1-.43.14,5.29,5.29,0,0,1-1,.16.4.4,0,0,1-.34-.14.52.52,0,0,1-.14-.34c0-.11,0-.18.09-.22v0c0-.52,0-1.1,0-1.71,0-1,0-1.93,0-2.68a.68.68,0,0,0,0-.11l-.29.07a.42.42,0,0,1-.34-.16.51.51,0,0,1-.16-.36.3.3,0,0,1,.29-.32,5.4,5.4,0,0,0,1-.29A5.61,5.61,0,0,0,45,.58l.18,0a.37.37,0,0,1,.34.2c0,.07.05.14.07.18a.61.61,0,0,1-.18.45,6,6,0,0,1-1.78,1.17c0,.05,0,.11,0,.14s0,.22,0,.36,0,.11,0,.14A6.39,6.39,0,0,1,44.37,3a5.13,5.13,0,0,1,1.31-.16A2.45,2.45,0,0,1,47,3.12a1.45,1.45,0,0,1,.67.72,2.1,2.1,0,0,1,.16.85,2.3,2.3,0,0,1-.41,1.12,4.73,4.73,0,0,1-1.21,1.28.38.38,0,0,1-.11.07.51.51,0,0,1-.34.16,1.52,1.52,0,0,1-.4.16c.13.18.25.34.38.5s.32.34.4.43A17.18,17.18,0,0,0,48,7.6a.28.28,0,0,1,.23.13s0,.09,0,.13A.47.47,0,0,1,48.08,8.17ZM46.75,5.26a2.49,2.49,0,0,0,.18-.7c0-.68-.38-1-1.13-1A5.94,5.94,0,0,0,43.56,4v.05c0,.43,0,.79,0,1.12.38-.13.86-.27,1.46-.41a13.49,13.49,0,0,1,1.53-.29.28.28,0,0,1,.22.13.44.44,0,0,1,.07.2.2.2,0,0,1-.13.18c-.79.27-1.84.58-3.13.9q0,.62.05,1.3l.32-.05a7.88,7.88,0,0,0,1.87-.65A4.26,4.26,0,0,0,46.75,5.26ZM51.59,9.6q.7,1,1.46,2.27a2.14,2.14,0,0,1,.42.79c0,.29-.13.43-.36.43a.42.42,0,0,1-.4-.27c-.58-.67-1.13-1.35-1.66-2a14,14,0,0,1-1.8,2.9.43.43,0,0,1-.38.25h-.16c-.14,0-.22-.11-.22-.29a.62.62,0,0,1,.05-.23c.5-.74,1-1.58,1.57-2.52a6.53,6.53,0,0,0,.4-.79c-.36-.47-.7-.92-1-1.39A2.48,2.48,0,0,1,49.22,8c0-.27.09-.43.31-.49a.4.4,0,0,1,.32.14A10.6,10.6,0,0,1,51,8.82a15.57,15.57,0,0,0,.5-2.54V5.85a6,6,0,0,0-.09-1V4.83a3,3,0,0,1-.68.23,4.12,4.12,0,0,1-1.3.23.75.75,0,0,1-.2,0,.59.59,0,0,1-.56-.67,1.08,1.08,0,0,1,.11-.41c.13-.27.25-.56.38-.85s.18-.59.25-.85.14-.49.22-.68A.39.39,0,0,1,50,1.57c.29,0,.45.14.47.38v.13a4.94,4.94,0,0,1-.23.77c-.14.4-.29.76-.43,1.12-.07.18-.14.34-.2.49A7.14,7.14,0,0,0,53,2.93a.42.42,0,0,1,.22-.18l.11,0a.44.44,0,0,1,.36.41.52.52,0,0,1-.07.25c-.11.11-.23.25-.4.4a8.12,8.12,0,0,1-.92.59q.05.59.05,1.46A10,10,0,0,1,51.59,9.6Z"/><path d="M56.74,5.22a.41.41,0,0,1,.4-.45,55.6,55.6,0,0,0,5.56-.72c.25,0,.4.07.43.18s0,.14,0,.22a.55.55,0,0,1-.22.27A9.37,9.37,0,0,1,61,5.24a26.38,26.38,0,0,1-3.89.54C56.86,5.78,56.74,5.6,56.74,5.22Zm.54,3.06a.37.37,0,0,1,.36-.41,27.66,27.66,0,0,0,4.52-1c.23,0,.38.07.41.18s0,.13,0,.18a.46.46,0,0,1-.22.23,6.19,6.19,0,0,1-1.5.68,19.17,19.17,0,0,1-3.19.65C57.4,8.79,57.28,8.62,57.28,8.28ZM62.44,9.9A10.75,10.75,0,0,1,60.61,11a16.23,16.23,0,0,1-2.52.94.55.55,0,0,1-.2,0,.33.33,0,0,1-.29-.18.7.7,0,0,1-.09-.43.39.39,0,0,1,.23-.34c.5-.18,1-.32,1.33-.43.83-.32,1.6-.63,2.3-1a4.79,4.79,0,0,1,.72-.4.3.3,0,0,1,.18-.05.72.72,0,0,1,.31.16s0,.11,0,.18A.6.6,0,0,1,62.44,9.9ZM62.79,15a4.54,4.54,0,0,1-.68,1,10.9,10.9,0,0,1-1,.76l-.05,0a9.3,9.3,0,0,1-1.48.79,1.1,1.1,0,0,1,0,.18c0,.25-.18.38-.5.38-.14,0-.29-.16-.45-.45A18.26,18.26,0,0,1,58,15.34a11.4,11.4,0,0,1-.2-2c0-.38.14-.58.47-.59s.45.14.45.41a2.54,2.54,0,0,0,0,.4c.36,0,.81-.05,1.39-.07a6.2,6.2,0,0,1,1.84.27c.61.2.92.45.92.74A1.88,1.88,0,0,1,62.79,15ZM58.34,2.56A.86.86,0,0,1,58.12,2a.67.67,0,0,1,.29-.34h.25a12.14,12.14,0,0,1,3.4.5.49.49,0,0,1,.18.31c0,.23-.09.38-.27.41Zm.56,12.55a9.93,9.93,0,0,0,.34,1.71c.29-.14.52-.25.74-.34l.85-.43a6,6,0,0,0,.63-.54c.4-.4.59-.65.59-.74a3.87,3.87,0,0,0-1.85-.34l-1.35,0A4,4,0,0,0,58.9,15.11Zm14-9.72c-.58.61-2.09,1.33-4.52,2.2-1.33.47-2.57.88-3.75,1.24L63.88,9a2,2,0,0,1-.45,0c-.25,0-.38-.18-.41-.5,0-.14.11-.29.34-.4s.31-.11.52-.18c.81-.22,1.6-.45,2.39-.72a2,2,0,0,0,.2-.2,5.58,5.58,0,0,0,.61-1.1,7.62,7.62,0,0,0,.29-.85c-.4.14-.76.27-1.12.38a1.71,1.71,0,0,1-.47.14H65.7a.53.53,0,0,1-.34-.5c0-.11.07-.2.22-.29A1.3,1.3,0,0,1,66,4.7c.58-.18,1.1-.36,1.58-.54,0-.16,0-.34.07-.56s0-.4,0-.59V2.67a23.75,23.75,0,0,1-2.41.49c-.25,0-.38-.16-.38-.52a.37.37,0,0,1,.36-.41,10.28,10.28,0,0,0,2.3-.56l-.05-.2a2.83,2.83,0,0,1-.22-.85.37.37,0,0,1,.2-.36A.32.32,0,0,1,67.7.14c.2,0,.38.14.52.43s.16.56.22.81c.67-.22,1.44-.47,2.3-.77.27,0,.43.07.47.2s0,.14,0,.22a.8.8,0,0,1-.25.29,8.69,8.69,0,0,1-1.84.92,3.69,3.69,0,0,1-.5.14c0,.22,0,.41,0,.59a5.75,5.75,0,0,1-.07.79c.32-.14.61-.27.9-.41a1.73,1.73,0,0,1,.67-.25.38.38,0,0,1,.23.09c.11.05.16.11.18.18a.62.62,0,0,1-.18.36,4.05,4.05,0,0,1-1.17.61,8,8,0,0,1-.81.36q-.16.59-.38,1.19a6.58,6.58,0,0,1-.52,1l.68-.23A48.46,48.46,0,0,0,72.8,4.74a.3.3,0,0,1,.27.14s0,.09,0,.13A.59.59,0,0,1,72.92,5.38ZM66,16.17c-.09.76-.14,1.39-.16,1.85a1.57,1.57,0,0,1-.11.54.5.5,0,0,1-.4.22.32.32,0,0,1-.32-.29,2.36,2.36,0,0,1,0-.4q0-.49.38-3.46.3-2.65.32-4V9.88A.44.44,0,0,1,66,9.43h.27a.35.35,0,0,1,.31.25c.63-.25,1.51-.56,2.65-.9a4.09,4.09,0,0,1,.94-.14c.5,0,.79.32.83.92,0,.16,0,1.21,0,3.12,0,1,0,2.14.07,3.51,0,.5,0,1.08,0,1.73q0,.68-.43.7a2.68,2.68,0,0,1-1.12-.31,3.3,3.3,0,0,1-1.28-1.21.92.92,0,0,1-.09-.31.32.32,0,0,1,.25-.34c.31,0,.88.36,1.73,1.12,0-1,0-2.11,0-3.31a12.11,12.11,0,0,1-2.74,1.24,8.79,8.79,0,0,1-1.4.23h0A3.59,3.59,0,0,0,66,16.17ZM67.54,13a7.14,7.14,0,0,1-1.26.2c-.07.58-.14,1.17-.22,1.8a12.16,12.16,0,0,0,1.21-.25,9.82,9.82,0,0,0,2.83-1.21h.05V12A13.4,13.4,0,0,1,67.54,13Zm-1-2.11-.14,1.24a2.53,2.53,0,0,0,0,.34,8,8,0,0,0,1-.18,9.78,9.78,0,0,0,2.65-1l.11,0V9.72a.24.24,0,0,0-.22-.23,17.81,17.81,0,0,0-3.38,1.13C66.55,10.73,66.53,10.8,66.53,10.88Z"/><path d="M84,12.23c0,1.3,0,2.58-.09,3.87-.07,1-.14,1.75-.2,2.39-.11.32-.25.5-.43.5a.33.33,0,0,1-.38-.36c0-.47.05-1.15.13-2.07.07-1.58.11-2.86.11-3.82,0-.79,0-1.91-.07-3.31,0-.4,0-.81-.05-1.22A.74.74,0,0,1,83,8c-1.57.2-2.86.41-3.87.63-.52.13-1.1.29-1.73.47a1.18,1.18,0,0,1-.58.14c-.2,0-.31-.16-.32-.45a.49.49,0,0,1,.13-.36A1.17,1.17,0,0,1,77,8.23a12.05,12.05,0,0,1,1.51-.41,35.19,35.19,0,0,1,4.5-.68,14.31,14.31,0,0,0,.23-2.45,15.39,15.39,0,0,0-.13-1.82,5.45,5.45,0,0,0-.45-1.58,1.39,1.39,0,0,1-.13-.47.52.52,0,0,1,.16-.38.4.4,0,0,1,.31-.16c.13,0,.27.13.41.38A8.11,8.11,0,0,1,84,2.34c0,.27.05.52.09.74h0a16.67,16.67,0,0,0,3.11-.86.43.43,0,0,1,.41.18c0,.07,0,.14,0,.18a.7.7,0,0,1-.23.27,3.54,3.54,0,0,1-1,.61,8.82,8.82,0,0,1-2.2.61v.18a21.45,21.45,0,0,1-.25,2.81h.05c2.18-.22,3.85-.41,5-.63.4-.09.74-.18,1-.27q.76-.22,1.08-.27a.5.5,0,0,1,.27.14,1,1,0,0,1,.18.45c0,.13-.09.22-.27.29A3.36,3.36,0,0,1,90,7.09c-.32.07-.86.16-1.6.27l-4.2.5a1.33,1.33,0,0,1-.25,0c0,.22,0,.45,0,.68,0,.68,0,1.42.05,2.23V11a.49.49,0,0,1,.13,0,1.27,1.27,0,0,1,.23,0,23.66,23.66,0,0,1,3.24,2,2.33,2.33,0,0,1,.2.23.68.68,0,0,1,.09.27.27.27,0,0,1-.05.18l-.07.05a.22.22,0,0,1-.16.11.54.54,0,0,1-.34-.13,17.18,17.18,0,0,1-3.24-2Z"/><path d="M98.59,5.85a2.68,2.68,0,0,1,1.39.34,2.66,2.66,0,0,1,.86,2.07l.22,7.62c0,.27-.22.41-.65.43a5,5,0,0,1-1.76-.38l-1.35.4c-.34.05-.65.09-.94.11a.6.6,0,0,1-.07.22.43.43,0,0,1-.31.16.3.3,0,0,1-.25-.11.5.5,0,0,1-.14-.36c0-.65,0-1.53,0-2.67s0-2.32,0-3.33,0-2.11.05-3.29c0-.58,0-1.21,0-1.87a1,1,0,0,1,0-.23.31.31,0,0,1,0-.13s0,0-.05,0a4.34,4.34,0,0,1-.45,0c-.25,0-.38-.16-.4-.49,0-.13.11-.25.32-.36s.31-.11.52-.18c.58-.14,1.15-.31,1.71-.5a15.66,15.66,0,0,0,1.87-.68.31.31,0,0,1,.25.13s0,.07,0,.14a.52.52,0,0,1-.14.32,5.31,5.31,0,0,1-1.85,1c-.34.14-.67.25-1,.34a.22.22,0,0,1,.05.07,1.68,1.68,0,0,1,.09.54c0,.29,0,.7,0,1.21A6.55,6.55,0,0,1,98.59,5.85Zm1.53,9.58c0-1.66,0-3.13,0-4.45-.2.09-.43.18-.68.27-.94.32-1.89.63-2.9.9a.24.24,0,0,1-.14,0c0,.43,0,.94,0,1.51s0,1.3,0,1.91c.23,0,.47-.05.72-.09a9.41,9.41,0,0,0,2-.58h.16a.32.32,0,0,1,.27.16.84.84,0,0,0,.05.16.46.46,0,0,1-.09.29A3,3,0,0,1,100.12,15.43ZM100,8.26c-.13-1-.67-1.58-1.62-1.58a3.36,3.36,0,0,0-.9.22l-1,.47a1.9,1.9,0,0,0,0,.32c-.07,1.28-.11,2.27-.13,3v.76a30.11,30.11,0,0,0,3.31-1.06l.4-.13C100,9.51,100,8.86,100,8.26Zm9.15.83c0-1.48.05-3.31.13-5.53,0-.36,0-.56-.09-.56a11.64,11.64,0,0,0-1.85.65q-1.19.43-2.38.76a7,7,0,0,1-1.91.31h-.29a.63.63,0,0,1-.58-.29.75.75,0,0,1-.13-.49A14.75,14.75,0,0,0,103.45.38a.6.6,0,0,1,.47-.2.5.5,0,0,1,.22.09.45.45,0,0,1,.14.36,2.51,2.51,0,0,1-.29.9c-.5,1.26-.79,2-.86,2.2A12,12,0,0,0,106.69,3c.77-.25,1.57-.54,2.38-.88a2.38,2.38,0,0,1,.49-.09c.14,0,.31.2.45.56a3.12,3.12,0,0,1,.14,1c0,.58,0,1.48-.05,2.67C110,8.39,110,10.19,110,11.7q0,3,.05,6.43a.62.62,0,0,1-.31.47l-.34.07a3.26,3.26,0,0,1-1.89-.77,8.49,8.49,0,0,1-1.6-1.78.71.71,0,0,1-.07-.32c0-.18.07-.27.25-.27a.67.67,0,0,1,.38.16,18.07,18.07,0,0,0,2.81,2.09c-.07-1.58-.13-3.67-.13-6.3C109.14,10.82,109.14,10,109.16,9.09Zm-2.48,2.47a.74.74,0,0,1-.32-.09c-.22-.11-.49-.23-.79-.42a12.23,12.23,0,0,1-2.11-1.26l-.27-.27a.47.47,0,0,1-.05-.22.36.36,0,0,1,.11-.25.42.42,0,0,1,.22-.18l.22,0a.83.83,0,0,1,.25.09c.11.07.25.18.43.29a13.42,13.42,0,0,0,1.51,1c.31.18.59.38.88.56a.71.71,0,0,1,.2.45c0,.2-.07.31-.2.34Z"/><path d="M117.2,4.65c-.13.85-.25,1.85-.38,3q-.16,2.24-.16,4.05c0,1.35,0,2.81.09,4.39,0,.38-.18.58-.5.58s-.34-.18-.38-.54c0-1.33,0-2.74,0-4.23a48.68,48.68,0,0,1,.59-8.1.85.85,0,0,1,.25-.54.53.53,0,0,1,.32-.09.37.37,0,0,1,.32.38A6.9,6.9,0,0,1,117.2,4.65Zm7.53,11.83a.89.89,0,0,1-.13-.41c0-.13.11-.18.2-.18L127.5,17A8.54,8.54,0,0,1,127,15.2c-.16-1-.29-2.48-.4-4.37,0-3,0-6,.09-8.86,0-.25-.05-.38-.13-.4a26.44,26.44,0,0,0-8.12,1.75c-.2,0-.31-.16-.31-.47a.41.41,0,0,1,.31-.4,15.15,15.15,0,0,1,3.58-1.12,26.08,26.08,0,0,1,3.67-.56c.47,0,.88,0,1.26,0s.59.43.59,1.08c0,.86,0,2.45-.09,4.77,0,1.15-.05,2.5-.05,4.07q0,1.62.16,3.62a13.21,13.21,0,0,0,.77,3.42c0,.29-.16.45-.49.47A4,4,0,0,1,124.73,16.47Zm-.54-11.24a.5.5,0,0,1,.2.38.38.38,0,0,1-.23.36,31.89,31.89,0,0,0-5.29,1.37c-.14,0-.25-.09-.36-.27a.52.52,0,0,1-.11-.34c0-.11.09-.22.29-.29a19.32,19.32,0,0,1,2.94-1,14.43,14.43,0,0,1,2.23-.36A.68.68,0,0,1,124.19,5.24ZM121.54,9a7.49,7.49,0,0,1,2.32-.4.83.83,0,0,1,.41.11.61.61,0,0,1,.18.4,4,4,0,0,1-1,2.47A6.17,6.17,0,0,1,123,12a.39.39,0,0,0,.14-.05.82.82,0,0,1,.18,0,.55.55,0,0,1,.29.14c0,.05,0,.11,0,.18a.73.73,0,0,1-.16.36,8.26,8.26,0,0,1-1.4.77,9.54,9.54,0,0,1-1.93.68.5.5,0,0,1-.2,0,.3.3,0,0,1-.25-.18c-.07-.07-.09-.2-.09-.4a.38.38,0,0,1,.13-.25,11.2,11.2,0,0,0-.25-1.53c-.25-.86-.47-1.6-.63-2.2a.34.34,0,0,1,.14-.27c.07-.11.14-.18.25-.18l.25,0a.65.65,0,0,1,.27.27,1.53,1.53,0,0,0,.09.27Q120.67,9.31,121.54,9Zm-.68,4c.22-.07.43-.16.65-.25a.55.55,0,0,1,.14-.23,16.62,16.62,0,0,0,1.75-3,12.89,12.89,0,0,0-3.33,1.08,6.18,6.18,0,0,0,.14.61,13.94,13.94,0,0,1,.29,1.93Z"/><path d="M137.05,12.41a14.71,14.71,0,0,1-2.25.63,7.52,7.52,0,0,1-1.21.13.44.44,0,0,1-.36-.14.51.51,0,0,1-.16-.36.32.32,0,0,1,.14-.31s0,0,0-.07A11.68,11.68,0,0,0,134,8.66q.05-1,.05-2.11c0-.68,0-1.4-.05-2.14a.41.41,0,0,1,.42-.41h.09c.23,0,.38.14.45.41v.2c.2-.05.4-.11.59-.18a2.31,2.31,0,0,1,.7-.16c.76,0,1.31.59,1.66,1.75a11.49,11.49,0,0,1,.38,2.74c0,1,0,1.8-.09,2.34a5.48,5.48,0,0,1-.16,1,2,2,0,0,1-.59,1.06c-.11.22-.23.31-.38.31a.33.33,0,0,1-.32-.16.37.37,0,0,1-.09-.29A4,4,0,0,0,137.05,12.41Zm-2.47-.22a11.27,11.27,0,0,0,2.4-.63l.16,0a.38.38,0,0,1,.22.07,15.6,15.6,0,0,0,.18-2.67c0-.22,0-.41-.05-.59l-.59.25c-.63.23-1.28.45-1.94.63a.42.42,0,0,1-.2,0c0,.18,0,.34-.05.49a15.85,15.85,0,0,1-.59,2.48A2.49,2.49,0,0,0,134.59,12.19ZM137,7.74a2.85,2.85,0,0,1,.4-.13,6.05,6.05,0,0,0-.67-2.12.8.8,0,0,0-.68-.31,2.37,2.37,0,0,0-.59.18c-.22.07-.36.13-.45.14V6.57c0,.61-.07,1.22-.13,1.8A13.69,13.69,0,0,0,137,7.74Zm9.2,1c0,.36,0,.74,0,1.13.94-.43,1.75-.83,2.39-1.19a.28.28,0,0,1,.22.13s0,.07,0,.11a.41.41,0,0,1-.14.29,6.94,6.94,0,0,1-2.48,1.62c0,.52,0,1.08,0,1.69,0,1,.07,1.8.07,2.52s0,1.35-.07,1.75a2.8,2.8,0,0,1-.2.86.76.76,0,0,1-.45.38h-.2a2.83,2.83,0,0,1-1.75-1c-.16-.18-.23-.31-.23-.38s.13-.14.4-.14a2.48,2.48,0,0,1,1.62.65c0-.27,0-.74,0-1.39,0-.18,0-.45,0-.79l-.11-2.74c0-.4-.05-.72-.05-1-.34.14-.7.31-1.08.45-.86.34-1.67.65-2.45.92v0a7.06,7.06,0,0,0,.36,2,.32.32,0,0,1,0,.13.35.35,0,0,1-.22.38.34.34,0,0,1-.13,0,.42.42,0,0,1-.38-.27,3.54,3.54,0,0,1-.22-.56,6.59,6.59,0,0,1-.29-1.42,3.66,3.66,0,0,1-.47.16c-.38.11-.63.16-.77.2a3.7,3.7,0,0,1-.41,0c-.22,0-.34-.14-.36-.41,0-.11.09-.23.31-.34l.47-.14c.4-.13.79-.27,1.19-.41a5.55,5.55,0,0,1,0-.77.59.59,0,0,1,.43-.38h.11c.22,0,.34.16.34.43v.43c.76-.27,1.49-.56,2.21-.88.47-.18.92-.36,1.33-.54,0-.18,0-.36,0-.5a3.39,3.39,0,0,1,.16-1.17c.11-.22.25-.34.43-.34A.42.42,0,0,1,146.2,8.71Zm-2.14-5.49a1.13,1.13,0,0,1-.23.07V3.6a12.86,12.86,0,0,1-.18,1.87,6.32,6.32,0,0,1-.36,1.33.06.06,0,0,1,0,0,17.38,17.38,0,0,0,2.2-1.08,3.81,3.81,0,0,1,.34-.23.87.87,0,0,1,.36.11c.14.09.23.18.23.25a.69.69,0,0,1-.11.31.87.87,0,0,1-.36.27,12,12,0,0,1-1.93,1,13.18,13.18,0,0,1-2.18.79,4.06,4.06,0,0,1-.9.11h-.31a.35.35,0,0,1-.32-.4v-.2a.53.53,0,0,1,.36-.38,1.49,1.49,0,0,0,.31,0,4.73,4.73,0,0,0,1.46-.23,2.62,2.62,0,0,1,.13-.56A11.33,11.33,0,0,0,142.89,5,9.14,9.14,0,0,0,143,3.83V3.58a12.06,12.06,0,0,1-1.58.43,4.42,4.42,0,0,1-1.08.14H140a.35.35,0,0,1-.31-.4v-.2c0-.14.13-.25.34-.36a1.4,1.4,0,0,0,.29,0,7.89,7.89,0,0,0,2.48-.45.41.41,0,0,0,.16-.05,6.49,6.49,0,0,0-.29-1.22,1.7,1.7,0,0,1-.22-.68.56.56,0,0,1,.14-.41.47.47,0,0,1,.27-.11.49.49,0,0,1,.31.11,1.86,1.86,0,0,1,.23.32,7.68,7.68,0,0,1,.4,1.73,22.25,22.25,0,0,0,2.09-.9,1.88,1.88,0,0,1,.4-.23,1,1,0,0,1,.36.09c.13.11.2.2.2.29a.6.6,0,0,1-.09.25.84.84,0,0,1-.31.25A18.52,18.52,0,0,1,144.06,3.22Z"/><path d="M159.84,10.53A14.8,14.8,0,0,1,158,13.25a.56.56,0,0,1-.41.2c-.32,0-.49-.16-.49-.5a.72.72,0,0,1,.2-.5A11.8,11.8,0,0,0,159,9.87c.09-1.22.43-1.84,1-1.84.36,0,.54.22.54.61A5.07,5.07,0,0,1,159.84,10.53Z"/><path d="M176.28,1.75a6.39,6.39,0,0,1-.52,1.17c-.36.59-.79,1.3-1.33,2.12q.08.86.11,2.43a42.41,42.41,0,0,1-.59,7.27c-.14,1-.29,1.85-.47,2.65-.07.23-.2.36-.38.36s-.32-.14-.32-.41a25.31,25.31,0,0,1,.58-4.14A25.18,25.18,0,0,0,173.68,9V6.18c-.41.61-.85,1.24-1.28,1.89s-.79,1.22-1.26,2a.41.41,0,0,1-.32.2c-.22,0-.32-.09-.32-.29a.5.5,0,0,1,.13-.32c.22-.38.5-.86.86-1.44.43-.74,1-1.67,1.66-2.83l1.76-3c.2-.36.38-.74.56-1.12.05-.11.11-.22.16-.34a1.7,1.7,0,0,1,.47-.07.39.39,0,0,1,.34.4A1.23,1.23,0,0,1,176.28,1.75Zm.31,14.06c-.16,0-.23-.09-.23-.25a.57.57,0,0,1,.07-.22c.14-.58.31-1.19.45-1.84a12.83,12.83,0,0,0,.34-2.21c0-.22,0-.41,0-.63a4.62,4.62,0,0,1-.11-.68c0-.22.13-.34.4-.36h.16c.11,0,.22.09.32.25a7.61,7.61,0,0,1,.09,1.31,10.91,10.91,0,0,1-.32,2.54c-.18.61-.38,1.22-.61,1.84A.67.67,0,0,1,176.58,15.81Zm1.49-.25a.33.33,0,0,1,.27-.13.43.43,0,0,1,.25.09,8.41,8.41,0,0,0,.88,1.76c.29.36.56.56.79.56.61,0,.94-1.93.94-5.74v-.83a24.86,24.86,0,0,0-.13-2.5c-.05-.63-.11-1.21-.18-1.71a3.72,3.72,0,0,1-.07-.54.52.52,0,0,1,.11-.27.4.4,0,0,1,.27-.14.49.49,0,0,1,.5.38c0,.16.09.36.13.61l.32-.23a9,9,0,0,0,2.59-3.66A29.89,29.89,0,0,1,180.6,5.6a5.08,5.08,0,0,1-1.82.5c-.61,0-.9-.34-.9-1a7.22,7.22,0,0,1,.58-2.29,11.53,11.53,0,0,1,1-2.12.52.52,0,0,1,.4-.23l.14,0a.77.77,0,0,1,.25.16.63.63,0,0,1,.05.29A18.93,18.93,0,0,1,179.52,3a8.57,8.57,0,0,0-.74,2.14c0,.07.07.09.18.09a6.4,6.4,0,0,0,2.18-1,20.55,20.55,0,0,0,2.23-1.33,4.47,4.47,0,0,1,1.49-.56h.36a.49.49,0,0,1,.41.5,3.24,3.24,0,0,1-.2,1,6.67,6.67,0,0,1-.85,1.67,8.08,8.08,0,0,1-2.16,2,1.64,1.64,0,0,1-.5.25c0,.32.05.67.09,1q0,.92.05,1.84c0,.41,0,.79,0,1.13,0,1.73,0,2.92-.09,3.6a8.36,8.36,0,0,1-.68,2.7,1.17,1.17,0,0,1-.94.65c-.58,0-1.15-.49-1.75-1.44a5.48,5.48,0,0,1-.59-1.17.48.48,0,0,1-.09-.27A.45.45,0,0,1,178.08,15.56Zm8.55-.16a.38.38,0,0,1-.22.07.94.94,0,0,1-.23,0,2.38,2.38,0,0,1-.43-.7A18.4,18.4,0,0,1,184,10.46a1.51,1.51,0,0,1,0-.38.5.5,0,0,1,.07-.22.9.9,0,0,1,.23-.2l.22,0a.44.44,0,0,1,.29.23c.36.92.74,1.87,1.1,2.86s.74,1.89.88,2.36v.09A.29.29,0,0,1,186.63,15.39Z"/><path d="M197.21,7.67a35,35,0,0,1-3.51,1.71,1.64,1.64,0,0,1-.52.22c0,.68,0,1.42,0,2.21a8,8,0,0,0,.32,2.56c.38,1.31,1.62,2,3.71,2.13a22.7,22.7,0,0,0,2.68-.13,5.76,5.76,0,0,0,2.27-.85A1.94,1.94,0,0,0,202.7,14a5.61,5.61,0,0,0-.32-1.82,7.68,7.68,0,0,1-.43-1.91c0-.2.05-.31.2-.32a.38.38,0,0,1,.25.13,7.4,7.4,0,0,1,.81,1.89,7.9,7.9,0,0,1,.38,2.2,2.47,2.47,0,0,1-.32,1.39,3.4,3.4,0,0,1-1.6,1.21,12.45,12.45,0,0,1-4.27.61,7.89,7.89,0,0,1-2.54-.36c-1.76-.63-2.65-2.39-2.65-5.31,0-.88,0-1.71,0-2.5s0-1.75.05-2.81a.42.42,0,0,1,.11-.31.47.47,0,0,1,.34-.16h.09c.25.05.38.18.4.4,0,.79-.05,1.55-.05,2.3a1,1,0,0,0,.22-.07,24,24,0,0,0,4.11-2.18c.47-.65.88-1.21,1.21-1.71a3.18,3.18,0,0,0,.59-1.26c0-.4-.61-.65-1.82-.77-.74-.05-1.91-.09-3.49-.09h-.54a.54.54,0,0,1-.23-.45c0-.14.09-.25.27-.36a.77.77,0,0,1,.43-.11c1.51,0,2.52,0,3.06.09a4.76,4.76,0,0,1,2.83.79,1.18,1.18,0,0,1,.34.86,3.55,3.55,0,0,1-.77,1.8c-.25.32-.5.61-.76.9a.64.64,0,0,1,.13.18.56.56,0,0,1-.16.4A5.7,5.7,0,0,1,197.21,7.67Z"/><path d="M211.77,4.92l.72-1.12c.18-.32.34-.63.49-.94s.23-.38.38-.38a.44.44,0,0,1,.29.11.47.47,0,0,1,.18.36.81.81,0,0,1-.16.45,12.53,12.53,0,0,1-.79,1.37c-.18.31-.38.59-.58.88a10.35,10.35,0,0,1,1,2.81,20.3,20.3,0,0,1,.2,2.88,14.18,14.18,0,0,1-.52,3.87c-.47,1.49-1.08,2.25-1.84,2.25s-1.15-.59-1.26-1.78a.7.7,0,0,1,.16-.5.31.31,0,0,1,.25-.16c.27,0,.58.54.92,1.64a9.25,9.25,0,0,0,1.42-5.24c0-.5,0-1-.07-1.4a1.91,1.91,0,0,1-.22.34,26,26,0,0,1-2.59,3.55c-.27.31-.52.56-.74.77a.54.54,0,0,1-.34.16.26.26,0,0,1-.29-.29.54.54,0,0,1,.18-.4A26.07,26.07,0,0,0,212,9.38q.22-.43.43-.81a7.76,7.76,0,0,0-.7-2.12c-.47.61-1,1.22-1.51,1.82l-.77.79a.58.58,0,0,1-.34.14.28.28,0,0,1-.32-.27.48.48,0,0,1,.2-.4,21.46,21.46,0,0,0,2.32-2.83,4.28,4.28,0,0,0-1-.94A.49.49,0,0,1,210,4.3a.44.44,0,0,1,.22-.32l.18,0a1,1,0,0,1,.29.07A3,3,0,0,1,211.77,4.92Zm6.16-.68a2.71,2.71,0,0,1-.27.58l-.07.13c.5-.11.9-.18,1.19-.25l1.46-.34a2.43,2.43,0,0,1-.72-.2c-.4-.2-.59-.34-.59-.43a.73.73,0,0,1,.05-.27.38.38,0,0,1,.36-.2,7.29,7.29,0,0,1,1.51.61.36.36,0,0,1,.14.31l.63-.16c.43-.11.76-.2,1-.23l.18,0a.31.31,0,0,1,.23.09c0,.07,0,.14,0,.18s-.07.18-.22.31a8.55,8.55,0,0,1-2.09.7,1.53,1.53,0,0,1-.34.11c0,.11.05.22.09.34l.05.23c0,.2.07.43.11.68,0,.07,0,.14,0,.18.43-.11.86-.25,1.33-.4s.81-.23,1.06-.29l.16,0a.16.16,0,0,1,.14.07c0,.05,0,.11,0,.14a.65.65,0,0,1-.14.27,11.48,11.48,0,0,1-2.25.81l-.31.09c0,.45-.05.9-.09,1.33.63-.16,1.21-.34,1.75-.52a2.89,2.89,0,0,1,.86-.22.22.22,0,0,1,.16.05.42.42,0,0,1,.11.16.36.36,0,0,1-.11.25,9.09,9.09,0,0,1-1.5.58c-.45.14-.9.29-1.35.4a.18.18,0,0,0,0,.09l-.27,1.35c.9-.23,1.93-.54,3-.92a.73.73,0,0,1,.4-.29.28.28,0,0,1,.25.27.9.9,0,0,1-.22.5,21,21,0,0,1-3.89,1.4,17,17,0,0,1-2.43.49,1,1,0,0,1-.29,0,.08.08,0,0,1,0,.05.37.37,0,0,1-.34.16c-.22,0-.34-.14-.4-.43a2.12,2.12,0,0,1,0-.34c0-.29,0-.67.05-1.1s.07-1.21.14-2.14.07-1.55.09-2.05c-.22.32-.45.63-.67.94s-.41.59-.67,1a.41.41,0,0,1-.34.2c-.22,0-.32-.09-.32-.27a.53.53,0,0,1,.13-.34,5.18,5.18,0,0,1,.47-.68c.22-.36.5-.81.86-1.37s.61-.92,1-1.42q.13-.24.27-.54a1.51,1.51,0,0,0,.13-.29,1.35,1.35,0,0,1,.41-.05.3.3,0,0,1,.27.32A.82.82,0,0,1,217.93,4.23ZM216.81.52A.4.4,0,0,1,217,.23a.32.32,0,0,1,.27-.16l.27,0a.59.59,0,0,1,.29.27c.05.2.14.59.25,1.19a12.41,12.41,0,0,1,.18,1.37c0,.34-.14.52-.4.52s-.36-.11-.36-.34a8.45,8.45,0,0,0-.2-1,4.13,4.13,0,0,1-.68.38,5.23,5.23,0,0,1-1.13.38.44.44,0,0,1-.18,0A.35.35,0,0,1,215,2.7a.59.59,0,0,1-.13-.43.41.41,0,0,1,.27-.36l.59-.14a8.74,8.74,0,0,0,1-.34.93.93,0,0,0,.29-.11C217,1,216.89.74,216.81.52Zm7.87,17.79c0,.13-.11.22-.29.27H224a5.71,5.71,0,0,1-.9-.14,10,10,0,0,1-1.93-.63,16.11,16.11,0,0,1-1.75-.88c-.34.32-.67.61-1,.85a10.72,10.72,0,0,1-1.44,1,1.08,1.08,0,0,1-.36.05.28.28,0,0,1-.27-.32.36.36,0,0,1,.05-.2,19.59,19.59,0,0,0,2.2-1.85c-.54-.32-1.1-.7-1.67-1.1a.6.6,0,0,1-.18-.25.54.54,0,0,1,.18-.43.33.33,0,0,1,.29-.16.44.44,0,0,1,.32.11,2,2,0,0,1,.38.2l1.13.7a1,1,0,0,0,.27.18,13.83,13.83,0,0,0,1.8-2.61,12.33,12.33,0,0,0-3.4,1,.33.33,0,0,1-.34-.31.39.39,0,0,1,.18-.38,7.15,7.15,0,0,1,1.85-.79,9.14,9.14,0,0,1,2-.29.59.59,0,0,1,.56.65,5.87,5.87,0,0,1-1.44,2.75c-.18.18-.32.34-.45.49l.25.16a16.72,16.72,0,0,0,3.37,1.46,3.33,3.33,0,0,1,.61.18C224.56,18.06,224.68,18.17,224.68,18.31Zm-5.06-8.54a1,1,0,0,1,0-.25c-.52.14-1,.27-1.55.38a2.05,2.05,0,0,1-.59.13h-.09a.32.32,0,0,1-.18-.16c0,.54-.05,1-.07,1.33,0,.09,0,.16,0,.22l.67-.16a14.07,14.07,0,0,0,1.62-.36C219.5,10.62,219.55,10.25,219.62,9.78Zm-2.3-.41c.14,0,.32-.09.54-.13.68-.14,1.31-.29,1.91-.43.05-.5.09-1,.13-1.33a14.57,14.57,0,0,1-2.18.45.82.82,0,0,1-.23.05c-.07,0-.11,0-.13,0,0,.29,0,.59-.05.88s0,.41,0,.59Zm2.43-3.11c0-.14-.05-.27-.09-.4a1.53,1.53,0,0,1-.07-.43.22.22,0,0,1,0-.11,15.69,15.69,0,0,1-1.95.4.42.42,0,0,1-.16.05c0,.5-.07,1.06-.11,1.64l.05,0c.67-.14,1.19-.27,1.55-.38l.85-.2C219.8,6.63,219.78,6.43,219.75,6.25Zm1.15-5.1L222,1c.77-.11,1.24-.16,1.39-.16a.38.38,0,0,1,.31.13.52.52,0,0,1,.11.31.34.34,0,0,1-.18.27c-.72.18-1.67.36-2.86.58a2,2,0,0,1-.13.27.81.81,0,0,1-.31.34.65.65,0,0,1-.5.32q-.32,0-.32-.27a.38.38,0,0,1,.05-.22.81.81,0,0,0,.14-.2,2,2,0,0,0,.27-.86s0-.4.09-1c0-.27.13-.41.34-.43h.18a.38.38,0,0,1,.38.43A5.42,5.42,0,0,1,220.9,1.15Z"/><path d="M233.37,5.85a4.13,4.13,0,0,1-.49.83l-1,1.21a.74.74,0,0,1,.05.29c-.05.83-.07,1.46-.07,1.89l-.05,2.36c0,.76-.05,1.39-.09,1.87a8.56,8.56,0,0,1-.5,2.79c-.07.29-.23.45-.49.45s-.27-.16-.27-.45a17.28,17.28,0,0,0,.36-2.38l.11-1.89,0-2.12c0-.54,0-1.12,0-1.71-.38.45-.77.9-1.19,1.37s-.74.86-1.17,1.41a.41.41,0,0,1-.32.2c-.22,0-.32-.09-.32-.29a.49.49,0,0,1,.13-.32q.32-.38.81-1c.4-.5.9-1.19,1.55-2,.5-.65,1-1.35,1.64-2.09a7.27,7.27,0,0,1,.49-.79,1,1,0,0,0,.16-.31.94.94,0,0,1,.41-.09q.32.11.32.38A1.15,1.15,0,0,1,233.37,5.85Zm-.61-3.28a7.26,7.26,0,0,1-1,1.24l-2.5,2.88a.69.69,0,0,1-.29.05c-.13,0-.18-.05-.18-.14a.72.72,0,0,1,.09-.36A.87.87,0,0,1,229,6a3,3,0,0,1,.36-.52c.07-.13,1-1.33,2.9-3.64a.67.67,0,0,1,.29-.09.54.54,0,0,1,.32.14.59.59,0,0,1,.11.38C233,2.38,232.92,2.48,232.76,2.57Zm8.14,7.06c0,.45,0,.94,0,1.44a20.65,20.65,0,0,0,2.54-1l.14,0a.43.43,0,0,1,.32.18,1,1,0,0,1,0,.16.48.48,0,0,1-.18.38A17.72,17.72,0,0,1,240.86,12c0,.4,0,.83,0,1.26,0,.94.07,1.75.07,2.41a14.64,14.64,0,0,1-.07,1.53,3.86,3.86,0,0,1-.16.79.87.87,0,0,1-.45.34h-.23a3,3,0,0,1-1.73-.88c-.22-.2-.31-.34-.31-.41s.16-.18.49-.18a2.57,2.57,0,0,1,1.64.67,9.32,9.32,0,0,0,.05-1.19c0-.18,0-.43,0-.76s-.05-1.31-.13-2.61c0-.29,0-.52,0-.7-.94.29-2,.58-3.1.86a21.73,21.73,0,0,1-3.22.4.57.57,0,0,1-.42-.16.54.54,0,0,1-.18-.38.37.37,0,0,1,.32-.4c1-.09,2.18-.25,3.44-.47a28.54,28.54,0,0,0,3.13-.77c0-.25,0-.47,0-.68a2.75,2.75,0,0,1,.16-1.1c.09-.23.22-.36.38-.36A.41.41,0,0,1,240.9,9.63Zm-5.26-8.35,0,0,.14-.05c.92-.09,2-.14,3.24-.14a6.23,6.23,0,0,1,1.69.23,1.37,1.37,0,0,1,1,1.35,4.36,4.36,0,0,1-1.08,2.23.15.15,0,0,0,.11,0h.13a.39.39,0,0,1,.29.13,1,1,0,0,0,.05.18.39.39,0,0,1-.16.34A15.5,15.5,0,0,1,237.3,7a12.12,12.12,0,0,1-1.8.27.52.52,0,0,1-.38-.16.56.56,0,0,1-.16-.4c0-.18.09-.29.31-.32a.31.31,0,0,0,.13,0,3.66,3.66,0,0,1,.05-.61c0-.61,0-1.13,0-1.53a6.31,6.31,0,0,0-.34-1.71q-.13-.43-.27-.76a1.41,1.41,0,0,1-.07-.38A.44.44,0,0,1,235,1a.88.88,0,0,1,.32-.07C235.44.94,235.57,1.06,235.64,1.28ZM238,15.36a.28.28,0,0,1-.25.29A10.73,10.73,0,0,1,236,15.5a2.29,2.29,0,0,1-1.13-.38.83.83,0,0,1-.09-.45c0-.2.09-.31.27-.31a4.77,4.77,0,0,1,1,.22c.58.13,1.15.25,1.71.4A.4.4,0,0,1,238,15.36Zm-2.61-6.21a.37.37,0,0,1,.36-.4,25.81,25.81,0,0,0,4.72-1.17c.23,0,.38.05.41.16s0,.14,0,.2a.45.45,0,0,1-.2.27,7.09,7.09,0,0,1-1.57.72,17.4,17.4,0,0,1-3.31.72C235.52,9.65,235.39,9.49,235.39,9.15Zm3.89-3.89a8.67,8.67,0,0,0,1.55-2.09,2.25,2.25,0,0,0,.14-.59c-.25-.47-.86-.7-1.82-.7s-2.05.09-3.13.2c.05.22.11.43.14.65a8.08,8.08,0,0,1,.11,1.1v0a6.22,6.22,0,0,0,.9-.23c.47-.11,1.06-.27,1.78-.5l.61-.16.18,0a.23.23,0,0,1,.2.09c0,.05,0,.11,0,.16s-.07.16-.18.29a6.22,6.22,0,0,1-1.3.58,10.92,10.92,0,0,1-1.89.52.63.63,0,0,1-.31.09h0c0,.25,0,.5,0,.72s-.05.65-.09.86c.32,0,.67-.09,1-.16a16.12,16.12,0,0,0,2-.56A.66.66,0,0,1,239.28,5.26Z"/><path d="M256.72,15.61a14.79,14.79,0,0,0-.22-1.82c-.4.09-.79.16-1.19.23q-1.92.38-3.62.65l.14.07.68.45a2.71,2.71,0,0,1,.56.5.77.77,0,0,1,.11.43.38.38,0,0,1-.22.31h-.05a.65.65,0,0,1-.23-.09c-.41-.29-.74-.5-1-.65s-.54-.29-.77-.43-.22-.2-.22-.41c-.4.07-.76.14-1.1.18q-.81.13-1.19.16a4.27,4.27,0,0,1-.47,0c-.25,0-.38-.18-.41-.5,0-.14.11-.27.34-.38a2.66,2.66,0,0,1,.54-.18c2.23-.31,4.41-.67,6.54-1.06.49-.07,1-.16,1.39-.25a2.63,2.63,0,0,1-.07-.4,2.83,2.83,0,0,1-.09-.49c0-.25.16-.41.45-.45s.41.16.49.45.09.47.14.72c2-.38,3.56-.72,4.79-1a.31.31,0,0,1,.25.14s0,.07,0,.14a.5.5,0,0,1-.18.32,19.87,19.87,0,0,1-4.75,1.39c.07.56.13,1.13.18,1.71s.07,1.1.07,1.8a2.91,2.91,0,0,1-.18,1.1.73.73,0,0,1-.65.43,4,4,0,0,1-1.46-.31,2.87,2.87,0,0,1-1.17-.83.35.35,0,0,1-.09-.27c.07-.2.18-.29.34-.29a2.75,2.75,0,0,1,.85.36,3.9,3.9,0,0,0,1.26.4c.14-.05.23-.25.23-.58C256.77,16.58,256.75,16.06,256.72,15.61ZM256,2l-.54.09q.05.65.05,1.3a13.86,13.86,0,0,1,1.46-.09A8.49,8.49,0,0,1,258,3.4a1.68,1.68,0,0,1,1,.5,1.21,1.21,0,0,1,.25.72,4.14,4.14,0,0,1-.43,1.55,8.52,8.52,0,0,1-1,1.46c-.11.13-.2.22-.27.29a1,1,0,0,1,0,.16.21.21,0,0,1-.14.18c-.68.22-1.46.43-2.36.67-.05.34-.11.67-.14,1s-.05.38-.09.52c1.39-.4,2.52-.74,3.42-1.06a1.75,1.75,0,0,1-.22-.56.31.31,0,0,1,.13-.23.42.42,0,0,1,.29-.16.44.44,0,0,1,.47.27c.23.5.45,1,.65,1.48a4.94,4.94,0,0,1,.18.81c0,.23-.07.38-.22.41l-.09,0c-.2,0-.32-.11-.38-.34l-.54-1.15a17.83,17.83,0,0,1-4.32,1.58c-1.37.36-2.63.68-3.8,1-.36.07-.63.11-.79.13a3.51,3.51,0,0,1-.41,0c-.22,0-.32-.14-.36-.41s.09-.25.31-.36l.47-.14c1.48-.29,2.92-.63,4.3-1l.11,0a10.36,10.36,0,0,1,.14-1.12,2.52,2.52,0,0,1,0-.34l-1.64.45a.37.37,0,0,1-.13.2.36.36,0,0,1-.23.07.24.24,0,0,1-.23-.13.34.34,0,0,1-.14-.2,2.75,2.75,0,0,1-.54-1.44,6.72,6.72,0,0,0-.16-1c-.13-.58-.23-1.1-.34-1.57a5,5,0,0,1-.25-1.17c0-.23.13-.36.4-.38h.23c.11,0,.2.09.29.25a.08.08,0,0,0,0,.05,18.11,18.11,0,0,1,2.68-.7l.36-.05c0-.47-.05-.88-.09-1.24-.79.14-1.6.23-2.43.31a11.94,11.94,0,0,1-1.6.11h-.52a.37.37,0,0,1-.34-.4v-.2a.57.57,0,0,1,.38-.38,1.32,1.32,0,0,0,.29,0A28.57,28.57,0,0,0,254,1.46l.32-.05a2.13,2.13,0,0,1-.13-.63.58.58,0,0,1,.14-.43.47.47,0,0,1,.27-.11.5.5,0,0,1,.32.11,1.3,1.3,0,0,1,.22.32c0,.22.09.41.13.61q1.59-.22,3.4-.59l.61-.13a1.33,1.33,0,0,1,.32.07c.11.11.18.18.18.25a.64.64,0,0,1-.05.23.85.85,0,0,1-.32.22A30.1,30.1,0,0,1,256,2Zm-1.58,2.38a19.08,19.08,0,0,0-2.58.65s-.05,0-.07,0,0,.16,0,.22q.13.81.27,1.4c.54-.18,1.39-.41,2.52-.68,0-.59.05-1.15.05-1.66Zm-2.16,3.24c.11.47.2.86.29,1.19.45-.14,1.06-.32,1.85-.52,0-.52.09-1.06.13-1.62-.34.11-.7.2-1.08.29a8.07,8.07,0,0,1-1.26.34A1.11,1.11,0,0,0,252.22,7.65Zm4.54.05a4.43,4.43,0,0,0,.88-1.1,4.92,4.92,0,0,0,.76-1.87q0-.59-1.13-.65a13.28,13.28,0,0,0-1.76.13c0,.54,0,1.08-.05,1.64l.67-.14a6.89,6.89,0,0,1,1.06-.13.6.6,0,0,1,.16.07.36.36,0,0,1,.05.14c0,.05-.05.11-.16.14-.5.14-1.1.32-1.82.5,0,.32-.07.67-.09,1s-.05.47-.07.67c.59-.13,1.06-.22,1.42-.27A.85.85,0,0,1,256.75,7.71Z"/><path d="M276.47,2.3a9.64,9.64,0,0,1-1.75.81,2.52,2.52,0,0,1-.32.13,3.7,3.7,0,0,1,.5,1.42A9.59,9.59,0,0,1,275,5.8,7.72,7.72,0,0,1,274.94,7c0,.22-.07.38-.11.52a31.16,31.16,0,0,1,3.58-.56h.2a.83.83,0,0,1,.45.13.53.53,0,0,1,.23.41,2.49,2.49,0,0,1-.32,1,2.11,2.11,0,0,1-.25.45.47.47,0,0,1,.18.07.24.24,0,0,1,.13.14.56.56,0,0,1-.13.31,10.13,10.13,0,0,1-1.75.52c-1.44.34-2.92.65-4.43.9l-.36.09c0,.18-.11.29-.22.32l-.09,0h0a2.28,2.28,0,0,1-.13.63,2.52,2.52,0,0,0-.13.32,5.66,5.66,0,0,0,.65-.16c2.21-.52,4.05-.92,5.53-1.17a6.78,6.78,0,0,1,1.06-.11c.79,0,1.21.56,1.21,1.64a48.22,48.22,0,0,1-.68,5.94.43.43,0,0,1-.45.42,1.5,1.5,0,0,1-1.35-1.13.77.77,0,0,1-.09-.36c0-.14.05-.22.2-.22s.07,0,.14.07c.31.47.58.72.83.76.14-1.12.25-2.09.34-2.93a24,24,0,0,0,.23-2.74.68.68,0,0,0-.77-.68,35.4,35.4,0,0,0-4.07.79l0,0a7.38,7.38,0,0,1,.16,1l.94-.18c.47,0,.88-.07,1.24-.07a.6.6,0,0,1,.41.11.41.41,0,0,1,.14.25,1.76,1.76,0,0,1-.23.7,3.88,3.88,0,0,1-.38.63l.07.07a1.26,1.26,0,0,0,.05.14.42.42,0,0,1-.13.27,14.1,14.1,0,0,1-2.25.85,3.54,3.54,0,0,1-.27.52,7,7,0,0,1-.58.92,2.29,2.29,0,0,0-.22.23l.49-.09a9.72,9.72,0,0,0,2.4-1v-.05a3.8,3.8,0,0,1,0-.45c0-.16.13-.25.32-.29h.11c.18,0,.27.13.27.36s0,.38,0,.59a2.93,2.93,0,0,0,.14.88.26.26,0,0,1,0,.11.29.29,0,0,1-.16.29l-.09,0a.44.44,0,0,1-.32-.2.86.86,0,0,1-.14-.25,1.19,1.19,0,0,1-.07-.34,15.06,15.06,0,0,1-2.38,1.12,6.33,6.33,0,0,1-1.3.25.35.35,0,0,1-.29-.14.44.44,0,0,1-.14-.31.26.26,0,0,1,.22-.29.88.88,0,0,1,.22,0,.39.39,0,0,1,.07-.11,5.08,5.08,0,0,0,.61-.85c.11-.22.23-.45.36-.67l-1,.11c0,.22-.11.32-.27.34a.22.22,0,0,1-.25-.23,7.49,7.49,0,0,0-.22-1c-.23-.58-.41-1-.54-1.44a.34.34,0,0,1,.13-.23.27.27,0,0,1,.25-.16l.22,0a.79.79,0,0,1,.25.23.08.08,0,0,0,0,.05c.27-.11.65-.22,1.15-.36a3.6,3.6,0,0,0,.43-.13c0-.18-.05-.36-.09-.54a1.54,1.54,0,0,1-.09-.49c-.77.18-1.6.4-2.49.63-.22.43-.45.86-.7,1.31s-.7,1-1.13,1.62a.53.53,0,0,1-.31.11.31.31,0,0,1-.23-.14.62.62,0,0,1-.05-.23.28.28,0,0,1,.11-.2,19.92,19.92,0,0,0,1.37-2.58c.31-.65.61-1.33.9-2.05a.21.21,0,0,1,.2-.14l.07,0-.59-2a3.66,3.66,0,0,1-.16-.72.41.41,0,0,1,.13-.25.55.55,0,0,1,.31-.14.45.45,0,0,1,.47.29v0l2.3-.49c0-.11.07-.23.13-.38q.05-.65.05-1.08c0-.09,0-.16,0-.23a7,7,0,0,1-1.39,1,4.7,4.7,0,0,1-1,.45.45.45,0,0,1-.22,0c-.18,0-.27-.11-.31-.32a.29.29,0,0,1,.05-.2,1.59,1.59,0,0,1,.47-.27,4.75,4.75,0,0,0,.77-.29,15.36,15.36,0,0,0,1.6-.94c-.05-.34-.13-.7-.22-1.1l-.27-.81v0c-1.12.4-2.27.76-3.42,1.08a1.25,1.25,0,0,1-.41.13v.23a26.78,26.78,0,0,1-.74,6.63c-.36,1.39-.76,2.61-1.15,3.69a16.45,16.45,0,0,1-1,2.21.52.52,0,0,1-.45.31c-.18,0-.25-.13-.25-.34a1.06,1.06,0,0,1,.11-.36,16.42,16.42,0,0,0,1-2.2,19.66,19.66,0,0,0,1-3.17A30.92,30.92,0,0,0,269,5.17a16.09,16.09,0,0,0-.32-3,.53.53,0,0,1,.43-.56.56.56,0,0,1,.56.47c.09.65.16,1.26.2,1.84l.18-.05a36.32,36.32,0,0,0,5.24-1.75L275.4,2c.47-.27.72-.49.72-.63s-.72-.25-1.87-.25c-.31,0-.68,0-1.15.07s-.86.05-1.3.11c-.68.09-1.1.14-1.21.14a.33.33,0,0,1-.29-.11.46.46,0,0,1-.13-.34.39.39,0,0,1,.25-.36l1-.16A21,21,0,0,1,274.2.34,7.2,7.2,0,0,1,276,.52c.61.18.92.45.92.85a1.39,1.39,0,0,1-.34.67A.47.47,0,0,1,276.47,2.3Zm-4.61,3.06c-.4-.11-.59-.2-.59-.25a.3.3,0,0,1,.07-.2.29.29,0,0,1,.29-.2,8.75,8.75,0,0,1,1.55.4.25.25,0,0,1,.11.23c0,.11-.07.18-.16.18A4.45,4.45,0,0,1,271.86,5.37Zm.61,4.93,1.8-.32a3.33,3.33,0,0,1-.49-1c-.07-.14-.16-.32-.27-.52a.33.33,0,0,1-.07-.09l-1.49.31c.11.43.2.83.29,1.21a2.18,2.18,0,0,0,.07.43Zm1.58,5.44.07,0a3.24,3.24,0,0,0,.07-.52c0-.4,0-.74,0-1.06-.54.14-1,.31-1.51.47,0,.18.05.34.09.52s.09.59.13.81Zm1.66-6.1c0-.14.05-.31.09-.49a8.74,8.74,0,0,0,.13-.88c0-.11,0-.23,0-.34v0l-1.46.27-.16,0a.82.82,0,0,1-.18,0c0,.05.07.09.09.13a5.91,5.91,0,0,1,.52,1.37c0,.07,0,.13.05.13A7.87,7.87,0,0,0,275.71,9.63Zm-.85,5.49a2.62,2.62,0,0,1,0,.4,10,10,0,0,0,1.24-.43l.27-.38a6.89,6.89,0,0,0,.52-1,15.05,15.05,0,0,0-1.95.27l-.11,0C274.85,14.39,274.86,14.76,274.86,15.12ZM277,3a1.07,1.07,0,0,1,.16-.27.28.28,0,0,1,.2-.14.6.6,0,0,1,.31.09.36.36,0,0,1,.16.32.41.41,0,0,1-.05.2.82.82,0,0,1-.16.22,4.54,4.54,0,0,1-1.17,1.1.61.61,0,0,1-.36.11c-.18,0-.27-.09-.27-.23V4.3a.19.19,0,0,1,.09-.13A6.7,6.7,0,0,0,277,3Zm.13,3.13a4.56,4.56,0,0,1-1.17-.45.19.19,0,0,1-.11-.2c0-.07,0-.13,0-.16a.25.25,0,0,1,.25-.14q1.19.27,2.81.59a.36.36,0,0,1,.2.32c0,.22-.11.32-.29.32A6.61,6.61,0,0,1,277.11,6.16Zm.59,3,.09,0a11,11,0,0,0,.72-1.58,15.48,15.48,0,0,0-2,.23,1.71,1.71,0,0,0,0,.31,3.16,3.16,0,0,1-.16,1.1,2.77,2.77,0,0,1-.14.34C276.77,9.42,277.26,9.29,277.71,9.15Z"/><path d="M300.89,1.85a10.74,10.74,0,0,1-1.13-.09l-1.12-.07c-.65,0-1,.4-1,1.17V6.75c0,.4,0,1.91.09,4.5s.09,4,.09,4.2,0,.7.07,1.24.07.85.07.9a1.14,1.14,0,0,1-.18.58.61.61,0,0,1-.43.25c-.4,0-.59-.31-.61-.92-.07-1.91-.11-2.93-.11-3.15,0-1.3,0-3.12-.05-5.44s-.05-3.6-.05-3.89,0-.65,0-1.53V1.91q0-1.05.7-1.24A11.79,11.79,0,0,1,299.67.5c1.19,0,1.8.23,1.8.7S301.27,1.85,300.89,1.85Z"/><path d="M310.54,11.25a13.9,13.9,0,0,1-2.05.5h-.13c-.07,0-.14-.07-.22-.2a.4.4,0,0,1-.09-.29.63.63,0,0,1,.23-.49,15.25,15.25,0,0,1,1.66-.58,3.05,3.05,0,0,1-.61-1.58c0-.43,0-.9,0-1.4-.65.16-1.28.31-1.85.43a8.9,8.9,0,0,1-1,.18c-.2,0-.36,0-.49,0s-.38-.18-.41-.5c0-.14.11-.27.36-.4s.31-.11.54-.18q2.43-.43,4.75-1c.07-.32.13-.63.16-.92a8,8,0,0,0,.09-1.19c0-.11,0-.22,0-.31a25.15,25.15,0,0,1-3.42.59c-.27,0-.4-.16-.4-.52A.41.41,0,0,1,308,3a17.22,17.22,0,0,0,3.29-.63,2.51,2.51,0,0,1-.07-.31,7.5,7.5,0,0,0-.49-1.15,2,2,0,0,1-.11-.31.47.47,0,0,1,.4-.38h.13c.16,0,.31.16.42.45a2.8,2.8,0,0,1,.54,1.19c0,.11,0,.22.05.29.88-.22,1.89-.47,3-.79.25,0,.4.07.43.2s0,.14,0,.22a.63.63,0,0,1-.23.25A9.73,9.73,0,0,1,313,3a6.88,6.88,0,0,1-.72.16c0,.14,0,.27,0,.4a8,8,0,0,1-.22,2c2.59-.63,4.59-1.19,6-1.69a.29.29,0,0,1,.25.14s0,.09,0,.16a.54.54,0,0,1-.16.34,11.37,11.37,0,0,1-3.33,1.37,1.75,1.75,0,0,1,.2.77,4.24,4.24,0,0,1-.68,2.12l-.29.36a.75.75,0,0,0,.29-.05,6.84,6.84,0,0,1,1.53-.22.55.55,0,0,1,.31.18.57.57,0,0,1,.13.29c0,.14-.11.25-.32.34-.83.25-1.87.56-3.15.92,0,.49,0,1,0,1.4V13A48.5,48.5,0,0,0,318,11.49a.34.34,0,0,1,.25.13s0,.09,0,.14a.47.47,0,0,1-.16.32c-.68.58-2.43,1.24-5.24,2,0,.54,0,1,0,1.5,0,1.19-.05,2.09-.13,2.72-.09.31-.25.47-.47.47s-.31-.13-.31-.38c0-.63.07-1.46.07-2.5,0-.45,0-1,0-1.6-1.28.36-2.48.67-3.64.92l-.9.18-.47,0c-.25,0-.38-.18-.42-.52,0-.13.11-.25.34-.38a5.08,5.08,0,0,1,.54-.16c1.55-.31,3.06-.67,4.54-1.1V12c0-.36,0-.76-.05-1.15ZM314,6.09c-.54.16-1.1.31-1.69.43s-1.4.34-2.07.49a.22.22,0,0,0,0,.09,9.28,9.28,0,0,0-.07,1.24,3.06,3.06,0,0,0,.34,1.15,3,3,0,0,0,.2.49l1.84-.49.16-.11a4.72,4.72,0,0,0,.72-.74,4.2,4.2,0,0,0,.65-1.57,3.59,3.59,0,0,0,0-.43A1.21,1.21,0,0,0,314,6.09Z"/><path d="M326.29,15.68A27.69,27.69,0,0,0,331,17c.61.11,1.3.22,2.05.29s1.19.07,1.69.07a12.41,12.41,0,0,0,1.55-.11,7.43,7.43,0,0,0,1.46-.29,4.28,4.28,0,0,1,.85-.13c.2,0,.31.05.32.16a.5.5,0,0,1-.05.23,1.75,1.75,0,0,1-.27.2,13.09,13.09,0,0,1-4.57.72,26.65,26.65,0,0,1-9.09-1.91,15.5,15.5,0,0,1-1.64-.76,4.6,4.6,0,0,1-.76-.52.26.26,0,0,1-.09-.23.59.59,0,0,1,.18-.43.41.41,0,0,1,.29-.11,1,1,0,0,1,.27.07c.29.14.61.31,1,.49a3.8,3.8,0,0,0,.52-2,1.38,1.38,0,0,0-.32-.77,1.3,1.3,0,0,1-.23-.68,2.19,2.19,0,0,1,.52-1.26.89.89,0,0,0,.23-.41,2.58,2.58,0,0,0-.23-.88c-.14-.25-.31-.56-.47-.88,0-.25.16-.4.49-.4a.55.55,0,0,1,.32.16,2.69,2.69,0,0,1,.68,1.87,3.82,3.82,0,0,1-.7,1.76,2.79,2.79,0,0,1,.54,1.64,3.36,3.36,0,0,1-.65,2.2A14.28,14.28,0,0,0,326.29,15.68ZM325.75,6a.8.8,0,0,1-.56-.32,3.77,3.77,0,0,0-1.57-.79c-.14-.05-.23-.09-.25-.13a.66.66,0,0,1,0-.29.8.8,0,0,1,0-.18c0-.18.2-.27.47-.29a2.47,2.47,0,0,1,1.08.31,3.68,3.68,0,0,1,1.08.9,1.16,1.16,0,0,1,.07.34C326,5.83,325.93,6,325.75,6ZM335.47,10a6.8,6.8,0,0,1-1.42.63,5.1,5.1,0,0,1-.58.18c0,.59-.05,1.13-.09,1.64,2.12-.52,3.78-1,5-1.39a.34.34,0,0,1,.27.14s0,.09,0,.14a.61.61,0,0,1-.18.36,16.83,16.83,0,0,1-4.93,1.71.78.78,0,0,1-.25.05c-.11.85-.25,1.6-.4,2.29,0,.29-.18.43-.41.43s-.36-.14-.36-.43c.11-.74.22-1.42.31-2.07l-3,.7c-.4.07-.68.11-.85.13a2.21,2.21,0,0,1-.47,0q-.32,0-.38-.49c0-.13.09-.25.31-.36s.31-.11.54-.18c1.37-.25,2.68-.54,4-.86.05-.5.09-1,.11-1.58a22.69,22.69,0,0,1-2.21.65,2.76,2.76,0,0,1-.58.14h-.09a.44.44,0,0,1-.23-.41.34.34,0,0,1,.14-.23l.16-.05a11.58,11.58,0,0,1-.25-2.41,2.42,2.42,0,0,0-.79-1.3c-.07,0-.09-.11-.09-.23a.43.43,0,0,1,.18-.32.62.62,0,0,1,.32-.09,1.08,1.08,0,0,1,.23,0,1.72,1.72,0,0,1,.32.31,3.8,3.8,0,0,1,.54-.25,13.36,13.36,0,0,1,2.14-.67c0-.07,0-.13,0-.18-.07-.41-.13-.81-.18-1.17l-1.42.45a2.31,2.31,0,0,1-.45.09,2.24,2.24,0,0,1-.34,0c-.18,0-.27-.13-.29-.36s.07-.18.25-.29l.38-.11c.58-.14,1.15-.32,1.73-.5-.05-.25-.11-.49-.18-.72a.72.72,0,0,1-.07-.27c.05-.23.18-.36.36-.38h.11c.18,0,.32.16.43.43s.13.43.2.67c.9-.31,1.6-.58,2.14-.79a14.79,14.79,0,0,0,1.42-2c-.86.14-3,.63-6.57,1.5a2.11,2.11,0,0,1-.59.11V3a6.08,6.08,0,0,1-.16,1.28,5.41,5.41,0,0,1-.36.94,1.61,1.61,0,0,1-.23.43.47.47,0,0,1-.4.14c-.16,0-.23-.09-.23-.27a1.92,1.92,0,0,1,.13-.49,4.38,4.38,0,0,0,.32-1,4.3,4.3,0,0,0,.09-.79A4.57,4.57,0,0,0,328.36,2a.71.71,0,0,1-.13-.36.53.53,0,0,1,.16-.4.39.39,0,0,1,.27-.13.56.56,0,0,1,.31.13,1.12,1.12,0,0,1,.22.31c0,.14.05.29.09.43a1.71,1.71,0,0,1,.4-.14c1.17-.31,2.92-.68,5.22-1.12a12.82,12.82,0,0,1,2.29-.36l.22,0a.47.47,0,0,1,.25.38c0,.63-.61,1.48-1.84,2.56l-.43.34a.55.55,0,0,1-.27.13,10.1,10.1,0,0,1-2,.86c.07.36.13.77.18,1.21,0,.09,0,.18,0,.25.18,0,.38-.05.56-.09L334.93,6h.43c1.12.11,1.69.63,1.69,1.6A2.9,2.9,0,0,1,335.51,10Zm-4.79-1c.72-.18,1.37-.36,2-.54,0-.54-.07-1.06-.13-1.58a15.74,15.74,0,0,0-2.43.77.37.37,0,0,0,.05.09,4.09,4.09,0,0,1,.29,1.3A1.44,1.44,0,0,0,330.68,9Zm2,1.42V9.69c0-.23,0-.47,0-.68l-1.76.52a4,4,0,0,1-.45.09c0,.13,0,.25,0,.36,0,.36,0,.7,0,1.06C331.28,10.86,332,10.66,332.68,10.46Zm.81-.25c.36-.11.68-.23,1-.36l.32-.11a3.56,3.56,0,0,0,1.26-1.37,2.1,2.1,0,0,0,.16-.74,1.19,1.19,0,0,0-1.22-1c-.54,0-1.1.07-1.64.14,0,.5.05,1,.09,1.48a4.24,4.24,0,0,0,.72-.27,1.81,1.81,0,0,1,.67-.22.16.16,0,0,1,.13.05.33.33,0,0,1,.11.13.34.34,0,0,1-.13.22,5.84,5.84,0,0,1-1.13.5l-.36.13c0,.29,0,.56,0,.83Z"/><path d="M346.5,2.09A16.8,16.8,0,0,1,345.3,4c-.14.22-.31.41-.47.61a5.65,5.65,0,0,1,.36,2A10.29,10.29,0,0,1,344.9,9c-.07.32-.14.59-.22.83s-.2.38-.38.38-.38-.13-.38-.41a5.68,5.68,0,0,1,.25-1.31,6.62,6.62,0,0,0,.14-1.35V6.68a6.14,6.14,0,0,0-.14-1.31l-1,1a5.26,5.26,0,0,1-.54.49.36.36,0,0,1-.14.14.41.41,0,0,1-.16,0c-.13,0-.2-.09-.22-.27a.49.49,0,0,1,.07-.25A3.65,3.65,0,0,1,342.5,6c.2-.22.47-.54.83-1s.94-1.21,1.42-1.91a14.9,14.9,0,0,0,.85-1.31q.3-.54.54-.92a.36.36,0,0,1,.38-.22l.16,0a.38.38,0,0,1,.25.34A2.74,2.74,0,0,1,346.5,2.09Zm-.09,14.08a.52.52,0,0,1-.32-.13.58.58,0,0,1-.16-.36c0-.16.09-.25.27-.29a2,2,0,0,1,.32,0l0-.05q-.05-.81-.05-2.27c0-.61,0-1.19,0-1.71s0-1.08.07-1.69c0-.31,0-.63,0-1a1.08,1.08,0,0,1,0-.25.76.76,0,0,1,0-.2c0-.07.05-.14.14-.23a.67.67,0,0,1,.36-.13.52.52,0,0,1,.4.25,1.15,1.15,0,0,1,.07.36,18.17,18.17,0,0,1,2.41-.74,12.32,12.32,0,0,1,2.59-.38c.18,0,.34.13.52.34a7,7,0,0,1,.36,2.68,22.71,22.71,0,0,1-.16,2.68,5.37,5.37,0,0,1-.36,1.82.44.44,0,0,1-.45.32c-.27,0-.4-.09-.4-.31a.77.77,0,0,1,0-.16,16.38,16.38,0,0,1-2.5.88s0,.05,0,.07a1.25,1.25,0,0,1-.27.5,17.58,17.58,0,0,1-1.75,1.73,3.83,3.83,0,0,1-.65.45.76.76,0,0,1-.18,0,.26.26,0,0,1-.27-.29.23.23,0,0,1,.07-.18,11.77,11.77,0,0,1,1.12-1.15l.77-.88A13.74,13.74,0,0,1,346.41,16.17Zm10.17-14.1a.35.35,0,0,1,.31.18.85.85,0,0,1,.07.2.5.5,0,0,1-.18.34,19.43,19.43,0,0,1-4.32,1.75,22.78,22.78,0,0,0,2.3,2.9,17.59,17.59,0,0,0,2.05,1.84c0-.5.07-1.22.07-2.18a.36.36,0,0,1,.18-.36h.14c.22.09.34.43.36,1,0,.4,0,.9-.09,1.55s-.16,1-.38,1.15h-.18c-.2,0-.65-.31-1.33-.9a14.3,14.3,0,0,1-1.44-1.37,25,25,0,0,1-2.72-3.35c-.45.13-.9.25-1.37.36a17.9,17.9,0,0,1-3.17.45.56.56,0,0,1-.4-.16.48.48,0,0,1-.16-.36.35.35,0,0,1,.27-.36A30,30,0,0,0,350,4.27a6.71,6.71,0,0,0,.9-.22c-.63-1-1.28-2-1.93-3.13a.68.68,0,0,1-.14-.34.45.45,0,0,1,.31-.41h.2a.53.53,0,0,1,.36.29q.3.32,1.78,2.65c.16.25.32.47.47.68a25.62,25.62,0,0,0,4.48-1.69Zm-8.07,10.5q1.24-.27,3-.76a7.64,7.64,0,0,1,.94-.25c0-.47,0-1,0-1.48a3.62,3.62,0,0,1-.63.23c-1,.31-2,.56-2.83.76a17.09,17.09,0,0,1-1.76.34v.07c0,.14,0,.61,0,1.39C347.78,12.77,348.19,12.66,348.52,12.57Zm3.73,1.13a9.88,9.88,0,0,0,.22-1.66,11.8,11.8,0,0,1-2,.68,24,24,0,0,1-3.24.76c0,.59,0,1.17,0,1.75.31,0,.63-.09,1-.16a15.47,15.47,0,0,0,4-1.33h0Zm-4.2-3.12c2.5-.58,4-.88,4.45-.94,0-1-.13-1.57-.27-1.58a23.23,23.23,0,0,0-2.83.68,6.17,6.17,0,0,1-1.93.43c0,.23-.05.49-.07.74s-.05.59-.07.83Zm5.2,6.82-2-1.12a.91.91,0,0,1-.05-.31.42.42,0,0,1,.13-.31.2.2,0,0,1,.2-.13c.07,0,.13,0,.16,0a14.35,14.35,0,0,1,2,1.08,20.78,20.78,0,0,1,1.87,1.15.53.53,0,0,1,.18.25.77.77,0,0,1,0,.09.59.59,0,0,1-.13.27.37.37,0,0,1-.16.09.53.53,0,0,1-.25-.13Zm.92-15.29a.86.86,0,0,1-.58-.25,4.29,4.29,0,0,0-1.51-.58.74.74,0,0,1-.27-.09.61.61,0,0,1,0-.27.46.46,0,0,1,0-.13c0-.16.2-.25.45-.27a2.82,2.82,0,0,1,1,.25,3.85,3.85,0,0,1,1.06.67.85.85,0,0,1,.07.31C354.41,2,354.32,2.13,354.17,2.13Z"/><path d="M364.9,15.43c0,.86,0,1.39,0,1.58q0,1.05-.7,1.24a12.14,12.14,0,0,1-2.39.16c-1.21,0-1.8-.23-1.8-.68s.18-.67.58-.67a11.12,11.12,0,0,1,1.13.09c.59.05,1,.09,1.12.09q1,0,1-1.19V12.17c0-.4,0-1.89-.09-4.5s-.09-4-.09-4.2,0-.7-.07-1.24-.07-.85-.07-.9a1,1,0,0,1,.18-.58.55.55,0,0,1,.43-.25c.38,0,.58.31.61.92.07,1.91.11,3,.11,3.15,0,1.33,0,3.13.05,5.44s.05,3.62.05,3.89Z"/><path d="M384.86,3.73a6.2,6.2,0,0,1-.54,1.13c-.32.56-.76,1.22-1.26,2a5.3,5.3,0,0,1,.5,2.32,33.09,33.09,0,0,1-.47,5.67c-.11.74-.25,1.42-.4,2.05-.05.25-.2.4-.41.4s-.38-.16-.38-.45a21,21,0,0,1,.43-3.21,20.74,20.74,0,0,0,.25-3.24V9.2a6.13,6.13,0,0,0-.18-1.39c-.43.63-.86,1.28-1.31,1.94s-.79,1.15-1.24,1.85a.44.44,0,0,1-.32.22c-.23,0-.36-.09-.36-.31a.5.5,0,0,1,.13-.32,13,13,0,0,1,.85-1.37q.62-1.05,1.62-2.7l1.69-2.84c.18-.34.36-.68.56-1,.05-.11.11-.23.16-.38a1.56,1.56,0,0,1,.49-.07.4.4,0,0,1,.32.43A1.56,1.56,0,0,1,384.86,3.73ZM386,11.24a4.76,4.76,0,0,1-.22.67,1.08,1.08,0,0,1-.13.29.45.45,0,0,1-.32.13.22.22,0,0,1-.25-.25,1.47,1.47,0,0,1,.05-.32,3.46,3.46,0,0,0,.16-.68c0-.2,0-.38,0-.54a4.51,4.51,0,0,0-.2-1.46,1.31,1.31,0,0,1-.11-.45.5.5,0,0,1,.13-.38.93.93,0,0,1,.27-.09.54.54,0,0,1,.29.09,2.65,2.65,0,0,1,.2.29c0,.09,0,.16.05.23a2.2,2.2,0,0,1,.36-.14c.27-.05.56-.13.88-.22,0-.4,0-1,0-1.64,0-.5,0-1,0-1.37s0-.88,0-1.39c0-.23,0-.49,0-.77a.88.88,0,0,1,0-.22.51.51,0,0,1,0-.18.28.28,0,0,1,.11-.2.5.5,0,0,1,.32-.11.41.41,0,0,1,.34.2l0,.05a4.83,4.83,0,0,1,.77-.34c.36-.29.67-.56,1-.77s.59-.47.59-.52a4.58,4.58,0,0,0-1.13-.05,6.45,6.45,0,0,0-2.38.67c-.27,0-.4-.14-.4-.43a.36.36,0,0,1,.16-.31,3.9,3.9,0,0,1,1.08-.47,6,6,0,0,1,1.62-.25,7.7,7.7,0,0,1,1.24.09,1.91,1.91,0,0,1,.67.22c.11.09.16.16.16.23a1.65,1.65,0,0,1-.45.86l-.29.27c.25,0,.52-.05.81-.07H392c.13,0,.23.18.31.4a8.22,8.22,0,0,1,.13.9c0,.32,0,.7,0,1.13,0,.9,0,1.89.07,2.93a.77.77,0,0,0,.18,0,16.07,16.07,0,0,1,2.75-.41l.22,0a.35.35,0,0,1,.22.32q0,.92-1.67,2.43a1.68,1.68,0,0,1-.43.32.48.48,0,0,1-.27.14.18.18,0,0,1-.18-.14c-.07,0-.09-.05-.09-.13a.31.31,0,0,1,.16-.25,15.73,15.73,0,0,0,1.48-2c-1.08.16-3.83.79-8.25,1.89a2.72,2.72,0,0,1-.52.13c0,.25,0,.52,0,.81A4.49,4.49,0,0,1,386,11.24ZM391.31,16a4.69,4.69,0,0,0-.4.49,19.56,19.56,0,0,0,2,.92,18.32,18.32,0,0,0,2.14.67.33.33,0,0,1,.2.34.39.39,0,0,1-.38.38h-.22a7.43,7.43,0,0,1-2.63-.72c-.59-.25-1.19-.56-1.78-.88-.25.25-.49.49-.7.67a11.38,11.38,0,0,1-1.22.9,1.13,1.13,0,0,1-.34.05.35.35,0,0,1-.32-.36.25.25,0,0,1,.09-.2,17.07,17.07,0,0,0,1.67-1.51l-.27-.14-1.42-.86c-.05.05-.09.09-.09.11-.14.18-.27.32-.38.47l-.36.27a.51.51,0,0,1-.23.07.23.23,0,0,1-.2-.25.31.31,0,0,1,.07-.23,1.12,1.12,0,0,1,.22-.29c.13-.14.25-.31.4-.49a2.12,2.12,0,0,1-.45-.38.4.4,0,0,1-.09-.25.36.36,0,0,1,.11-.27.39.39,0,0,1,.29-.13.75.75,0,0,1,.29.07l.32.16,0,0a3.83,3.83,0,0,0,.34-.81,2.92,2.92,0,0,0,.11-.74c0-.14.11-.25.31-.31l.25,0c.18,0,.29.22.31.58a1.16,1.16,0,0,1-.05.36c.32-.14.7-.27,1.13-.41a9.13,9.13,0,0,1,1.89-.25.6.6,0,0,1,.59.58A5.24,5.24,0,0,1,391.31,16ZM387,13.13a.19.19,0,0,1-.2-.14,1.31,1.31,0,0,1-.07-.5,10.26,10.26,0,0,1,.14-1.37c0-.41.07-.79.09-1.12,0-.11.13-.18.31-.2a.37.37,0,0,1,.41.38,10.51,10.51,0,0,1-.11,1.31,7.16,7.16,0,0,1-.31,1.42C387.24,13.05,387.15,13.13,387,13.13Zm4.61-7.54c0-1.44,0-2.32,0-2.65s0-.27,0-.27a10,10,0,0,0-3.53.83c0,.22,0,.47-.07.76a3,3,0,0,0,0,.38,18.65,18.65,0,0,0,1.84-.4,1.88,1.88,0,0,1,.38-.05.93.93,0,0,1,.22,0,.38.38,0,0,1,.11.18.61.61,0,0,1-.13.32,2.93,2.93,0,0,1-.63.23,14.1,14.1,0,0,1-1.57.41.55.55,0,0,1-.23.05h0a.19.19,0,0,0,0,.09c0,.11,0,.4,0,.85a3.16,3.16,0,0,0,.5-.09c.36-.05.81-.14,1.35-.25l.49-.07.18,0a.23.23,0,0,1,.2.09c0,.07,0,.14,0,.18a.66.66,0,0,1-.2.32,5.8,5.8,0,0,1-1,.29c-.52.11-1,.2-1.4.25a.42.42,0,0,1-.16.05c0,.38,0,.74,0,1.1,1-.22,2.29-.49,3.75-.77ZM388.3,15l1.26.76.52.32a11.38,11.38,0,0,0,1.55-2.36,11.89,11.89,0,0,0-3,.83A2.15,2.15,0,0,1,388.3,15Zm3.58-5a.92.92,0,0,1-.25.07,3.51,3.51,0,0,1,.56.63,1.78,1.78,0,0,1,.14.58.91.91,0,0,1-.45.81,1.72,1.72,0,0,1-1,.25,2.15,2.15,0,0,1-1.4-.49,2.41,2.41,0,0,1-.81-1.24.79.79,0,0,1-.07-.34.58.58,0,0,1,.11-.31.69.69,0,0,1,.31-.11.37.37,0,0,1,.34.22,2.71,2.71,0,0,0,.16.29A2.17,2.17,0,0,0,390,11a1.24,1.24,0,0,0,.94.49c.52,0,.79-.13.83-.38a.77.77,0,0,0-.23-.5,3.22,3.22,0,0,0-.68-.43h-.05c-.25,0-.4-.05-.45-.18a.42.42,0,0,1-.05-.16c0-.22.07-.34.23-.4a5,5,0,0,0,.59-.13,6.5,6.5,0,0,0,1.39-.4l.5-.2a.61.61,0,0,1,.27-.05c.18,0,.27.13.29.32a.59.59,0,0,1-.07.23A5,5,0,0,1,391.88,10Z"/><path d="M401.06,18.58a.47.47,0,0,1-.25.13.53.53,0,0,1-.34-.18.76.76,0,0,1-.16-.25,2.14,2.14,0,0,1-.25-.83,4.25,4.25,0,0,0-.09-.59c-.07-.34-.13-.65-.18-.9a3.32,3.32,0,0,1-.13-.65c0-.29.14-.43.45-.45h.23c.14,0,.25.11.36.29a2,2,0,0,1,.11.61c.07.5.14,1,.22,1.33s.14.7.22,1S401.17,18.51,401.06,18.58ZM406,2.7a.2.2,0,0,1-.09,0c0,.41.07.85.09,1.28.49,0,1-.07,1.48-.07a3.28,3.28,0,0,1,1.39.29,1.38,1.38,0,0,1,.74.72,1.77,1.77,0,0,1,.16.79,4.68,4.68,0,0,1-.38,1.51,6.64,6.64,0,0,1-.79,1.28s.07.05.09.09a.38.38,0,0,1,.09.23.23.23,0,0,1-.13.22c-.86.29-1.89.61-3.08,1-.09.5-.18,1-.29,1.46a3.78,3.78,0,0,1-.11.43c1.12-.41,2.12-.83,3-1.24l1-.58a.33.33,0,0,1-.07-.16.64.64,0,0,1-.07-.31c0-.23.18-.4.5-.47a.65.65,0,0,1,.47.2c.11.2.31.5.59.94.4.72.83,1.49,1.33,2.32a.77.77,0,0,1,.14.41.4.4,0,0,1-.32.38.56.56,0,0,1-.41-.14,9.47,9.47,0,0,1-1.8-2.47,23.76,23.76,0,0,1-3.08,1.64A25.79,25.79,0,0,1,402,14a.44.44,0,0,1-.18,0,.33.33,0,0,1-.29-.14.8.8,0,0,1-.11-.45.36.36,0,0,1,.25-.32L404,12.3a.26.26,0,0,0,.11,0,9.25,9.25,0,0,1,.23-1.26c0-.23.09-.47.13-.7l-1.93.54a.38.38,0,0,1-.4-.34v-.14c0-.07.05-.14.16-.23l.22-.09c-.13-.22-.25-.5-.4-.83a10.26,10.26,0,0,1-.56-3.28c0-.47,0-.94,0-1.4a.45.45,0,0,1,.43-.34h.11a.35.35,0,0,1,.34.4V5a12.51,12.51,0,0,1,2-.72l.5-.09c0-.45-.05-.85-.09-1.21a22.14,22.14,0,0,1-2.21.43,11.46,11.46,0,0,1-1.37.09h-.41a.39.39,0,0,1-.38-.43V2.83a.73.73,0,0,1,.41-.43.89.89,0,0,0,.32,0,14.41,14.41,0,0,0,3.12-.36,2.22,2.22,0,0,0,.34-.07,2.63,2.63,0,0,1-.09-.31,3,3,0,0,1-.25-1,.79.79,0,0,1,.16-.49,1,1,0,0,1,.32-.09.75.75,0,0,1,.34.09,2.6,2.6,0,0,1,.27.4,9.73,9.73,0,0,1,.29,1.19q1.19-.27,2.48-.7c.2-.07.36-.14.5-.18a.86.86,0,0,1,.38.11c.16.09.25.18.25.29a.89.89,0,0,1-.09.31.89.89,0,0,1-.4.23A20.36,20.36,0,0,1,406,2.7Zm-3.49,4c0,.25,0,.49.07.7a4.93,4.93,0,0,1,.5-.18c.63-.14,1.26-.29,1.87-.47,0-.58.07-1.13.07-1.67V5a19.51,19.51,0,0,0-2.54.86C402.46,6.16,402.46,6.43,402.48,6.68Zm.77,3.08c.4-.14.86-.29,1.4-.45.07-.52.13-1.06.2-1.64-.5.16-1,.31-1.4.41a3.22,3.22,0,0,1-.4.07,2.61,2.61,0,0,1-.34,0A6.81,6.81,0,0,0,403.26,9.76Zm7.6,5.4-.49.11a3.15,3.15,0,0,1,.9.68,1.19,1.19,0,0,1,.34.72,1.65,1.65,0,0,1-.86,1.46,3.8,3.8,0,0,1-1.95.5,4.65,4.65,0,0,1-2.52-.85,5.31,5.31,0,0,1-1.87-2.21.57.57,0,0,1-.13-.32.42.42,0,0,1,.09-.29.48.48,0,0,1,.41-.23.61.61,0,0,1,.45.2,4.84,4.84,0,0,0,3.6,2.61c1.19,0,1.8-.36,1.84-1a1,1,0,0,0-.47-.68,3.44,3.44,0,0,0-.61-.36.72.72,0,0,0-.23,0,9,9,0,0,1-1.08.13c-.25,0-.41-.16-.45-.47l0-.2a.44.44,0,0,1,.25-.4c.34,0,.81-.11,1.42-.22a31.54,31.54,0,0,0,3.15-.7L414,13.2a.78.78,0,0,1,.25-.07.35.35,0,0,1,.34.36.52.52,0,0,1-.09.31A11.65,11.65,0,0,1,410.85,15.16Zm-3.4-6.72a6.28,6.28,0,0,0,1.17-1.94,4.12,4.12,0,0,0,.16-.9c0-.58-.41-.88-1.22-.88a9.59,9.59,0,0,0-1.57.14c0,.5,0,1-.05,1.6a15.25,15.25,0,0,0,1.93-.63.39.39,0,0,1,.29.13s0,.09,0,.16a.58.58,0,0,1-.18.34,6.41,6.41,0,0,1-2.12.92c0,.43-.07.88-.13,1.31,0,.13,0,.23-.05.34q1-.22,1.57-.38A2.2,2.2,0,0,1,407.45,8.44Z"/><path d="M422.32,7.38a3.84,3.84,0,0,1-.54,1.21l.09-.05a.81.81,0,0,1,.18,0,.34.34,0,0,1,.22.13s0,.07,0,.14a.81.81,0,0,1-.11.29,9.54,9.54,0,0,1-1.64,1.24,10.18,10.18,0,0,1-2.21,1.06l-.2.05a.3.3,0,0,1-.27-.18.67.67,0,0,1-.09-.41c0-.13.09-.22.23-.29a8.28,8.28,0,0,0,.77-.32c-.05-.54-.14-1.17-.29-1.89-.29-1.15-.54-2.12-.74-2.92a.34.34,0,0,1,.14-.27.32.32,0,0,1,.27-.16l.23,0a.42.42,0,0,1,.27.25c.05.18.11.41.18.7.34,0,.83-.07,1.46-.09a5,5,0,0,1,1.42.22c.47.18.7.36.7.58A3.2,3.2,0,0,1,422.32,7.38Zm-2.45,2.3V9.63a.32.32,0,0,1,.13-.25A5,5,0,0,0,421.09,8a4.41,4.41,0,0,0,.45-1,2.09,2.09,0,0,0-1.21-.29L419,6.7c0,.29.09.56.14.85.18,1,.29,1.82.34,2.32A2.3,2.3,0,0,0,419.87,9.69Zm10.07-6.88a4.59,4.59,0,0,1-1.22.94,29.1,29.1,0,0,1-3.15,1.64,1.86,1.86,0,0,1-.27.13,19.83,19.83,0,0,1-.92,6c-.47,1.33-.94,2.54-1.44,3.62a14.65,14.65,0,0,1-1.3,2.14.53.53,0,0,1-.49.31c-.18,0-.27-.14-.27-.38a1.06,1.06,0,0,1,.09-.38,13.15,13.15,0,0,0,1.3-2.12,16.82,16.82,0,0,0,1.3-3.08,22.32,22.32,0,0,0,.83-6.28,15.69,15.69,0,0,0-.34-3,.52.52,0,0,1,.45-.58c.27,0,.45.16.54.49a21.15,21.15,0,0,1,.23,2.21h0A20.4,20.4,0,0,0,429,2.43l.4-.31a.53.53,0,0,0,.14-.31c-.07-.14-.56-.23-1.49-.23a3.64,3.64,0,0,0-.59.05,4.16,4.16,0,0,0-.68.11l-.65.11a.39.39,0,0,1-.31-.09.43.43,0,0,1-.18-.38A.43.43,0,0,1,425.9,1a4.78,4.78,0,0,1,.54-.16A7.64,7.64,0,0,1,428,.67a5.46,5.46,0,0,1,1.69.2c.56.16.85.47.85.9a1.7,1.7,0,0,1-.45.92A.86.86,0,0,1,429.94,2.81Zm1.48,9.63a5.81,5.81,0,0,1-1.78.94v0c0,.61,0,1.21-.07,1.75-.05.38-.11.68-.14.94l.49-.09,2.65-.4a8,8,0,0,1,.86-.13,1.16,1.16,0,0,1,.27,0,.35.35,0,0,1,.18.31.47.47,0,0,1-.22.43,10.54,10.54,0,0,1-2.59.67l-3.24.43-1.78.31a5,5,0,0,1-.67.11.46.46,0,0,1-.29-.18.48.48,0,0,1-.14-.31.9.9,0,0,1,0-.22c0-.13.07-.22.25-.29a7.86,7.86,0,0,1,1.82-.38c.41,0,.92-.11,1.51-.18a5.87,5.87,0,0,1,.16-.65c0-.7.05-1.28.05-1.71v-.16l-1.69.52a2.2,2.2,0,0,1-.42.09,2.37,2.37,0,0,1-.49,0c-.23,0-.36-.2-.4-.52q0-.19.32-.38a2.86,2.86,0,0,1,.56-.18c.65-.16,1.3-.34,1.93-.56l-.05-.22a6,6,0,0,1-.18-.61,1.06,1.06,0,0,1-.09-.38.48.48,0,0,1,.2-.4.64.64,0,0,1,.34-.09c.2,0,.34.13.41.38a3.85,3.85,0,0,1,.32,1,17.61,17.61,0,0,0,1.75-.68.35.35,0,0,1,.31.16.53.53,0,0,1,0,.18A.67.67,0,0,1,431.41,12.44ZM430.19,5a1.6,1.6,0,0,1-.32.77c-.79,1.12-1.67,2.39-2.65,3.8.52-.22,1.08-.47,1.66-.76s1.1-.61,1.57-.9a.1.1,0,0,0,.07,0,.27.27,0,0,1,0-.16q0-.51.43-.59a.58.58,0,0,1,.41.18,12.77,12.77,0,0,1,1.42,2.83,2.5,2.5,0,0,1,.18.52q0,.43-.38.43a.4.4,0,0,1-.4-.29c-.43-.67-.85-1.35-1.22-2a3.8,3.8,0,0,1-.36.27c-.56.32-1,.61-1.48.83a7.12,7.12,0,0,1-1.37.65,4,4,0,0,1-1.12.14,1,1,0,0,1-.32-.05.29.29,0,0,1-.2-.23s0-.11,0-.2a2.43,2.43,0,0,1,.4-1.13,23,23,0,0,1,1.62-2.38c.16-.22.31-.43.45-.63a14.15,14.15,0,0,1-1.66.65,1.9,1.9,0,0,1-.34.13h-.11a.57.57,0,0,1-.34-.56.41.41,0,0,1,.2-.32,1.53,1.53,0,0,1,.32-.13,16.21,16.21,0,0,0,2.63-1,1.47,1.47,0,0,1,.52-.2.43.43,0,0,1,.25.09.41.41,0,0,1,.18.23v.05S430.19,5,430.19,5Z"/><path d="M444.33,16.19a.67.67,0,0,1-.59-.36.56.56,0,0,1-.29-.36,1.05,1.05,0,0,1-.05-.38.79.79,0,0,1,.86-.81.71.71,0,0,1,.36.14c.29.13.45.45.45,1S444.82,16.19,444.33,16.19ZM445.81,4a29.07,29.07,0,0,0-.74,4.68q-.19,2.32-.22,3.19c0,.43-.22.63-.54.63s-.5-.18-.5-.54c0-.11,0-.63.07-1.58.05-1.19.11-2.07.18-2.68.11-1.12.25-2.16.43-3.1a.84.84,0,0,1-.05-.31,2.62,2.62,0,0,1,.05-.32,3.42,3.42,0,0,1,.27-.72,1,1,0,0,1,.68-.4c.32,0,.49.2.49.58A5.15,5.15,0,0,1,445.81,4Z"/></g></g></svg>