<svg xmlns="http://www.w3.org/2000/svg" viewBox="0 0 615.15 126.95"><defs><style>.cls-1{fill:#6d943d;}.cls-2{fill:#96b94c;}.cls-3{fill:#86a242;}.cls-4{fill:#b1cb76;}.cls-5{fill:#8e7061;}.cls-6{fill:#a58374;}</style></defs><title>kv-clover</title><g id="圖層_2" data-name="圖層 2"><g id="圖層_1-2" data-name="圖層 1"><path class="cls-1" d="M441.17,46c.75,4.39.1,8.93-.15,13.34-.27,4.79-.44,9.6-.46,14.4a139.13,139.13,0,0,0,2.44,29.1c.52,2.52,1.19,5,1.83,7.47.57,2.21,1.53,4.85,1.1,7.13a.89.89,0,0,1-1.46.39c-1.54-1.27-2.31-3.69-2.89-5.53a57,57,0,0,1-1.59-7c-.85-4.72-1.36-9.48-1.74-14.26a217.61,217.61,0,0,1-.09-29.56c.29-5.1.23-10.66,2-15.52.16-.44.93-.56,1,0Z"/><path class="cls-1" d="M443.93,50A45.34,45.34,0,0,1,440,45.17c-1.07-1.51-2.41-3.21-2.58-5.11-.05-.55.65-.7,1-.41,1.33,1.12,2,2.94,3,4.37a40.8,40.8,0,0,0,3.73,4.77c.73.81-.46,2-1.22,1.21Z"/><path class="cls-1" d="M446.3,43.81c-1.77,1.06-3.52,2.16-5.21,3.35-1.38,1-2.74,2.46-4.49,2.67a.54.54,0,0,1-.52-.68c.47-1.69,2.31-2.75,3.67-3.72a37.09,37.09,0,0,1,5.58-3.28,1,1,0,0,1,1,1.66Z"/><path class="cls-2" d="M488.15,23.39a21.26,21.26,0,0,1-2,16,17.32,17.32,0,0,1-13.48,8.5,31.24,31.24,0,0,1-6.94-.63l-18.21-3a3.87,3.87,0,0,1-1.67-.54c-1-.69-1.15-2.08-1.2-3.29-.39-8.19-.74-16.62,2-24.34S456.06,1.44,464.24,1c8.6-.48,16.74,7.32,16.63,15.92C484.38,16,487.25,19.89,488.15,23.39Z"/><path class="cls-2" d="M415.43,10.62c-3.57-2-8.23-1.27-11.55,1.1a17.54,17.54,0,0,0-6.37,10.15c-1.31,5.31-.62,11.4,3,15.5,4.44,5,11.81,5.81,18.48,6.29,5.06.37,10.18.73,15.18-.13A7.16,7.16,0,0,0,438,42a7.71,7.71,0,0,0,1.84-3.55,66.81,66.81,0,0,0,2.79-21.59c-.12-3.16-.5-6.44-2.12-9.15a15.67,15.67,0,0,0-6.91-5.8C429.77.13,425.29-.72,421.37.76S414.44,6.54,415.43,10.62Z"/><path class="cls-2" d="M466.62,79.28a3.44,3.44,0,0,0-2.28.67,3.93,3.93,0,0,0-.75,1.45,10.85,10.85,0,0,1-12.93,6.33c-5.74-1.79-8.83-8.06-10-14a44.06,44.06,0,0,1,3-26.56l20.28,3.63c4.12.74,8.57,1.65,11.34,4.79A16.11,16.11,0,0,1,478,60.81c1.43,3.85,2.4,8.27.61,12C476.54,77.08,471.38,79,466.62,79.28Z"/><path class="cls-2" d="M398.71,67.69a15.7,15.7,0,0,1,0-8.31A17,17,0,0,1,408.92,48c9.39-3.66,19.94-2.41,29.78-.27a102.09,102.09,0,0,1-2.12,18.35,34.94,34.94,0,0,1-4.07,11.4c-2.14,3.44-5.45,6.33-9.42,7.16s-8.55-.75-10.53-4.28c-.92-1.64-1.37-3.71-3-4.7a12.63,12.63,0,0,0-2.82-.94C402.85,73.42,399.92,71.62,398.71,67.69Z"/><path class="cls-1" d="M482,17c-6.15,1.78-11.78,5.42-16.91,9.16-5.29,3.84-9.73,8.37-14.41,12.88a.27.27,0,0,1-.43-.33,31.05,31.05,0,0,1,6-6.91,86.21,86.21,0,0,1,8-6.51c5.31-3.81,11.17-7.24,17.52-9A.36.36,0,0,1,482,17Z"/><path class="cls-1" d="M464.07,80.22a125.22,125.22,0,0,1-9.56-14.54c-1.46-2.55-2.86-5.13-4.23-7.73-1.29-2.44-3.09-5.06-3.73-7.76-.06-.23.26-.46.43-.25,1.68,2,2.67,4.72,3.87,7q2.1,4,4.33,8a139.92,139.92,0,0,0,9.49,14.81c.26.34-.33.8-.6.46Z"/><path class="cls-1" d="M410.87,74.92a173.9,173.9,0,0,0,14.71-12.25q3.42-3.2,6.65-6.58c1.08-1.12,2.14-2.27,3.19-3.42.89-1,1.73-2.36,2.95-2.94a.33.33,0,0,1,.48.37c-.37,1.27-1.53,2.23-2.39,3.19-1,1.17-2.09,2.32-3.17,3.45-2.27,2.41-4.64,4.73-7.07,7a148.09,148.09,0,0,1-14.85,12.06c-.53.37-1-.48-.5-.86Z"/><path class="cls-1" d="M433.52,37.14c-2.92-4.5-6.06-8.83-9.28-13.12A127.33,127.33,0,0,1,415,10.88c-.33-.59.51-1,.89-.52,3.15,4.33,6.06,8.83,9.26,13.13s6.32,8.65,9.22,13.16c.33.53-.5,1-.84.49Z"/><path class="cls-3" d="M439.45,49.76a67,67,0,0,1-1.61,17.45c-1,4.93-2.31,10-6.17,13.52a15.32,15.32,0,0,1-12.26,4c-3.75-.54-8-3.26-8.42-7.32a.3.3,0,0,1,.55-.15,10.75,10.75,0,0,0,3.78,5,10.88,10.88,0,0,0,6.23,1.7,14.88,14.88,0,0,0,11.3-5.82c2.87-3.72,3.79-8.81,4.63-13.32a109.16,109.16,0,0,0,1.44-15.09.27.27,0,0,1,.53,0Z"/><path class="cls-3" d="M411,76a14.12,14.12,0,0,1-11.67-19c3.24-8.41,13.32-11.55,21.51-12.14a44.41,44.41,0,0,1,18.52,2.66c.65.24.37,1.27-.28,1a44,44,0,0,0-17.95-2.66c-5.36.33-10.95,1.53-15.46,4.59-4.76,3.24-7.45,8.75-6.2,14.51A13.74,13.74,0,0,0,411,75.45c.31,0,.24.59-.08.55Z"/><path class="cls-3" d="M438.05,42.38c-5.14,2.62-11.94,3.27-17.59,2.53-5.86-.77-11.48-3.24-16.67-6-4.67-2.44-7.75-6.22-8.06-11.61s2.31-10.23,5.76-14,9.58-7.71,14.63-4.2a.48.48,0,0,1-.49.83c-5-2.83-10,.27-13.45,4.06-3.29,3.63-5.78,8.33-5.49,13.35a12.6,12.6,0,0,0,2.13,6.42A15.83,15.83,0,0,0,405,38.5c4.65,2.33,9.53,4.51,14.7,5.36a31.92,31.92,0,0,0,9,.13,91.32,91.32,0,0,0,9.12-2.11c.29-.07.5.35.21.5Z"/><path class="cls-3" d="M438.09,42.21c.58-2.84,1.53-5.6,2.1-8.45a73.14,73.14,0,0,0,1.25-9.08c.41-5.56.09-11.52-2.9-16.4-2.51-4.1-7-7.37-12-6.92a12.07,12.07,0,0,0-10.35,8.52.42.42,0,0,1-.82-.22C417.36,2.38,426-1.43,432.73,1.85,441.29,6,442.8,16.47,442.11,25a76.23,76.23,0,0,1-1.2,8.65,42.76,42.76,0,0,1-2.38,8.77c-.11.26-.5.06-.44-.19Z"/><path class="cls-3" d="M444.74,42.74c-1.4-10.94-.56-22.84,6.64-31.73,5.55-6.86,17-12.84,24.9-6.12,3.48,3,5.61,8.15,4.25,12.67a.48.48,0,0,1-.93-.26A12.31,12.31,0,0,0,475.82,6c-3.77-3.43-9-3.39-13.55-1.73C453.43,7.45,447.84,16.08,445.9,25a55.6,55.6,0,0,0-.57,17.79c.05.38-.54.37-.59,0Z"/><path class="cls-3" d="M480.75,15.91c4.06.25,7.4,3.77,8.63,7.46,1.55,4.68.26,9.89-2.34,13.93-5.2,8.06-15.13,11.51-24.38,10.91a50.42,50.42,0,0,1-18-5.09c-.57-.27-.07-1.12.5-.85,10.72,5,23.67,7.59,34.33,1,4.62-2.85,8.32-7.31,9.36-12.73,1.22-6.38-1.9-12.18-8.21-14-.36-.1-.31-.71.1-.68Z"/><path class="cls-3" d="M445.27,48.19c5.81.84,11.56,2,17.32,3.17,2.73.53,5.48,1,8.19,1.66a17.34,17.34,0,0,1,5.82,2.2c3.69,2.42,4.6,7,4.25,11.14a16.07,16.07,0,0,1-5.57,11.23c-3.4,2.75-8.44,4-12.58,2.28-.57-.24-.16-1.13.41-1a12.53,12.53,0,0,0,13.77-4.73c3-4.17,4.22-11.39,1.17-15.86-2.93-4.28-9.93-4.61-14.52-5.55-6.15-1.26-12.32-2.48-18.39-4.07-.33-.08-.18-.54.13-.49Z"/><path class="cls-3" d="M464.16,79.92c.52,7.31-10.39,12.35-16.08,8.34-3.24-2.28-4.73-6.61-5.75-10.26a45.11,45.11,0,0,1-1.5-13.73,67.07,67.07,0,0,1,2.72-16.09.51.51,0,0,1,1,.27c-2.81,9.79-4,20.49-.9,30.37,1.55,4.88,4.13,10.31,10.13,9.71,4.47-.44,9.7-3.61,9.6-8.61a.4.4,0,0,1,.79,0Z"/><path class="cls-4" d="M443.91,115.45a88.18,88.18,0,0,1-2.72-9.52.24.24,0,0,1,.47-.13,88.49,88.49,0,0,1,2.9,9.47.34.34,0,0,1-.65.18Z"/><path class="cls-4" d="M440.27,102.53a11.55,11.55,0,0,1,.13-3.11.15.15,0,0,1,.29,0,11.15,11.15,0,0,1,.13,3.11.28.28,0,0,1-.55,0Z"/><path class="cls-4" d="M439.74,96.39a8.62,8.62,0,0,0-.47-3,.2.2,0,0,1,.36-.16,5.33,5.33,0,0,1,.6,3.19c0,.31-.52.31-.49,0Z"/><path class="cls-4" d="M438.88,91.08c-.25-3.51-.66-7.08-.57-10.6,0-.23.37-.3.41-.06.5,3.52.52,7.12.69,10.66,0,.35-.51.35-.53,0Z"/><path class="cls-4" d="M432.43,61.77a40.12,40.12,0,0,1-.23,10.67c-.05.24-.39.17-.41-.06-.26-3.49.07-7.1.06-10.61a.29.29,0,0,1,.58,0Z"/><path class="cls-4" d="M428,69a64,64,0,0,1-.35,9c0,.2-.32.13-.34-.05a65,65,0,0,1,.27-8.93c0-.27.43-.27.42,0Z"/><path class="cls-4" d="M424.26,71c-.13,3.21-.26,6.94-1.65,9.88a.19.19,0,0,1-.36-.1c.36-3.29,1.42-6.45,1.67-9.78,0-.21.35-.22.34,0Z"/><path class="cls-4" d="M418.19,75.87c-.21.45-.41.9-.61,1.35a3.48,3.48,0,0,1-.65,1.14.18.18,0,0,1-.3-.13,3.18,3.18,0,0,1,.42-1.21c.21-.48.43-1,.65-1.43s.64,0,.49.28Z"/><path class="cls-4" d="M411.2,71.66c-2.22-.65-4.57-1-6.76-1.7a.21.21,0,0,1,.06-.41,23.63,23.63,0,0,1,6.87,1.51.31.31,0,0,1-.17.6Z"/><path class="cls-4" d="M413.91,67.18c-3.05-.83-6.21-1.51-9.18-2.62a.17.17,0,0,1,.09-.33c3.12.55,6.19,1.58,9.24,2.41a.28.28,0,0,1-.15.54Z"/><path class="cls-4" d="M420.15,63c-3.78-1.42-7.72-2.38-11.49-3.79a.2.2,0,0,1,.1-.38,61.92,61.92,0,0,1,11.53,3.69c.29.11.16.59-.14.48Z"/><path class="cls-4" d="M423.17,59.22a55.65,55.65,0,0,1-7.6-3.07.19.19,0,0,1,.15-.35,54.93,54.93,0,0,1,7.6,2.88c.32.14.19.66-.15.54Z"/><path class="cls-4" d="M426.24,55.33c-2.05-.76-4.2-1.42-6.17-2.37-.25-.12-.07-.51.19-.44,2.08.57,4.11,1.48,6.13,2.24.35.13.2.7-.15.57Z"/><path class="cls-4" d="M447.86,60.27c-1.33,2.8-2.3,5.74-3.62,8.53-.09.18-.35,0-.31-.13A37.24,37.24,0,0,1,447.42,60c.15-.29.58,0,.44.25Z"/><path class="cls-4" d="M450.52,64.33q-1,2.81-1.79,5.69c-.52,1.91-.83,3.92-1.51,5.77-.08.21-.43.2-.42-.06.17-3.88,1.82-8,3.19-11.55.12-.33.65-.19.53.15Z"/><path class="cls-4" d="M453.2,70.79c-.49,3.13-.69,6.35-1.38,9.45,0,.22-.37.16-.38,0a45.91,45.91,0,0,1,1.21-9.55c.07-.37.61-.21.55.15Z"/><path class="cls-4" d="M456.73,78.6a51.58,51.58,0,0,1-1.22,6.4c-.08.27-.54.24-.52-.08a53.43,53.43,0,0,1,1.09-6.5c.08-.43.73-.25.65.18Z"/><path class="cls-4" d="M471.74,75.47a21.47,21.47,0,0,1-6.7-2.69c-.16-.11-.06-.42.15-.34a59,59,0,0,0,6.7,2.46.29.29,0,0,1-.15.57Z"/><path class="cls-4" d="M470.09,67.83c-2.6-.84-5.26-1.57-7.8-2.56-.22-.09-.14-.42.09-.36,2.65.68,5.24,1.64,7.83,2.48.28.09.16.53-.12.44Z"/><path class="cls-4" d="M472.36,62.14c-4.18-.54-8.49-.83-12.61-1.75a.19.19,0,0,1,.05-.37c4.21.18,8.46,1,12.64,1.59.3,0,.23.57-.08.53Z"/><path class="cls-4" d="M457.86,57.08a21,21,0,0,1-2.51-.07.28.28,0,0,1,0-.55,23.31,23.31,0,0,1,2.51-.06.34.34,0,0,1,0,.68Z"/><path class="cls-4" d="M469,44.18c-3.82-.63-8.08-1.5-11.46-3.49a.2.2,0,0,1,.16-.37c3.85,1.13,7.45,2.64,11.44,3.38.32.06.18.54-.14.48Z"/><path class="cls-4" d="M474.8,41.14c-3.83-1.15-8-2.65-11.21-5.12a.19.19,0,0,1,.19-.33c3.73,1.75,7.2,3.7,11.17,4.93.32.1.19.62-.15.52Z"/><path class="cls-4" d="M480.15,36.24A29.52,29.52,0,0,1,469.82,32a.14.14,0,0,1,.15-.24,53.66,53.66,0,0,0,10.31,4,.25.25,0,0,1-.13.49Z"/><path class="cls-4" d="M482.9,31.63a77.86,77.86,0,0,1-8.38-3.49.18.18,0,0,1,.14-.33,78,78,0,0,1,8.39,3.29c.33.13.18.67-.15.53Z"/><path class="cls-4" d="M482,27.67a49.86,49.86,0,0,1-3.94-3.15.24.24,0,0,1,.29-.37,47.17,47.17,0,0,1,4,3c.33.26,0,.83-.34.57Z"/><path class="cls-4" d="M473.6,10.73c-1.39,2.5-2.66,5.13-4.25,7.51a.18.18,0,0,1-.31-.19c1.17-2.61,2.71-5.08,4.1-7.59.16-.29.62,0,.46.27Z"/><path class="cls-4" d="M467.84,9.68c-1.1,2.18-2.12,4.41-3,6.68-.78,1.93-1.33,4-2.29,5.87-.12.23-.43.06-.39-.17a27.75,27.75,0,0,1,2.2-6.22c.93-2.19,2-4.33,3.06-6.43.16-.29.6,0,.45.27Z"/><path class="cls-4" d="M461.18,11.93a56.75,56.75,0,0,0-3,7.32c-.77,2.34-1.16,4.82-2,7.13-.07.2-.41.18-.4-.06a26.7,26.7,0,0,1,1.81-7.54,56.33,56.33,0,0,1,3-7.16c.18-.37.72,0,.54.31Z"/><path class="cls-4" d="M454,18.85a95.86,95.86,0,0,0-3.47,12.54.26.26,0,0,1-.51-.07c.25-4.3,1.77-8.68,3.37-12.64.15-.36.76-.21.61.17Z"/><path class="cls-4" d="M434.38,34.31a26.71,26.71,0,0,1,4.42-8.94c.13-.17.35.05.28.22-.67,1.5-1.53,2.92-2.25,4.4s-1.3,3-2.07,4.48c-.11.21-.44.06-.38-.16Z"/><path class="cls-4" d="M432.12,30.13c.56-3.12,1.12-6.24,1.7-9.35a65,65,0,0,1,1.93-9.3c.05-.15.3-.13.29,0a64,64,0,0,1-1.56,9.11c-.63,3.21-1.28,6.42-1.92,9.62-.06.29-.49.17-.44-.12Z"/><path class="cls-4" d="M429.39,22.12c.24-2.56.43-5.11.57-7.67s.08-5.15.37-7.69a.18.18,0,0,1,.35,0c.38,5-.31,10.34-.77,15.36,0,.33-.55.33-.52,0Z"/><path class="cls-4" d="M424.36,17.65c-.19-3.06-.53-6.15-.48-9.22,0-.22.37-.28.4,0,.44,3.06.51,6.18.71,9.27,0,.4-.61.4-.63,0Z"/><path class="cls-4" d="M430.55,38.48c-4.59,1.08-9.84,2.23-14.57,1.75-.23,0-.33-.39-.06-.44,2.22-.33,4.49-.33,6.72-.58a70.46,70.46,0,0,0,7.75-1.32c.38-.08.54.5.16.59Z"/><path class="cls-4" d="M425,34.57c-2.75.37-5.51.68-8.28.89a47.74,47.74,0,0,1-8.86.22.2.2,0,0,1,0-.4c2.81-.37,5.71-.29,8.54-.49s5.68-.49,8.51-.87c.36-.05.45.6.09.65Z"/><path class="cls-4" d="M421.27,29.5c-4.33.55-9.17.86-13.44-.24a.2.2,0,0,1,.05-.4c4.53.19,8.85.66,13.39.16.31,0,.3.45,0,.48Z"/><path class="cls-4" d="M417.65,25.24a102,102,0,0,1-11.73-.16.18.18,0,0,1,0-.35,104.28,104.28,0,0,1,11.73-.15.33.33,0,0,1,0,.66Z"/><path class="cls-4" d="M414,18.71c-2.23-.41-4.52-.72-6.7-1.34-.25-.07-.22-.5.06-.47,2.29.2,4.57.72,6.82,1.14.45.08.26.75-.18.67Z"/><path class="cls-1" d="M150.11,60.81c-.65,3.77-.09,7.67.13,11.47.23,4.13.38,8.26.4,12.39a120.78,120.78,0,0,1-2.1,25c-.45,2.16-1,4.29-1.58,6.43-.49,1.9-1.32,4.17-.94,6.13a.75.75,0,0,0,1.25.33c1.33-1.08,2-3.17,2.49-4.76a50.77,50.77,0,0,0,1.37-6c.73-4.06,1.16-8.16,1.49-12.27a187.66,187.66,0,0,0,.08-25.43c-.25-4.39-.2-9.18-1.7-13.35-.14-.38-.81-.49-.89,0Z"/><path class="cls-1" d="M147.73,64.25a36.35,36.35,0,0,0,3.37-4.15c.92-1.3,2.07-2.77,2.22-4.4,0-.47-.56-.6-.85-.35-1.14,1-1.75,2.53-2.57,3.76a36.46,36.46,0,0,1-3.21,4.1c-.63.7.39,1.74,1,1Z"/><path class="cls-1" d="M145.7,58.93c1.52.91,3,1.86,4.47,2.88,1.2.84,2.37,2.12,3.87,2.3a.47.47,0,0,0,.45-.59c-.4-1.45-2-2.37-3.16-3.19a32.06,32.06,0,0,0-4.79-2.83.83.83,0,0,0-.84,1.43Z"/><path class="cls-2" d="M109.69,41.36a18.3,18.3,0,0,0,1.75,13.79A14.92,14.92,0,0,0,123,62.47a27.4,27.4,0,0,0,6-.55l15.66-2.62a3.44,3.44,0,0,0,1.44-.46c.86-.6,1-1.79,1-2.84.34-7,.64-14.3-1.74-20.94s-8.11-12.59-15.15-13c-7.39-.42-14.4,6.29-14.31,13.69C112.93,35,110.47,38.35,109.69,41.36Z"/><path class="cls-2" d="M172.25,30.37a9.62,9.62,0,0,1,9.94.95,15.06,15.06,0,0,1,5.48,8.73c1.13,4.58.54,9.82-2.59,13.34-3.82,4.29-10.16,5-15.89,5.41-4.36.32-8.76.63-13.06-.11a6.2,6.2,0,0,1-3.26-1.31,6.57,6.57,0,0,1-1.58-3.05,57.27,57.27,0,0,1-2.4-18.58c.1-2.72.42-5.54,1.82-7.87a13.5,13.5,0,0,1,5.95-5c3.26-1.54,7.11-2.27,10.49-1S173.1,26.87,172.25,30.37Z"/><path class="cls-2" d="M128.22,89.45a3,3,0,0,1,1.95.57,3.32,3.32,0,0,1,.65,1.25,9.33,9.33,0,0,0,11.12,5.45c4.95-1.54,7.6-6.94,8.63-12A37.91,37.91,0,0,0,148,61.86L130.57,65c-3.54.63-7.37,1.42-9.75,4.12a13.84,13.84,0,0,0-2.4,4.46c-1.23,3.31-2.06,7.11-.52,10.3C119.68,87.55,124.12,89.2,128.22,89.45Z"/><path class="cls-2" d="M186.64,79.47a13.42,13.42,0,0,0,0-7.14,14.63,14.63,0,0,0-8.78-9.82c-8.07-3.15-17.15-2.08-25.62-.23a88.14,88.14,0,0,0,1.83,15.78,30.21,30.21,0,0,0,3.5,9.81A13.1,13.1,0,0,0,165.67,94c3.41.72,7.35-.64,9.06-3.68.79-1.41,1.18-3.2,2.55-4a11.19,11.19,0,0,1,2.43-.81C183.08,84.41,185.6,82.86,186.64,79.47Z"/><path class="cls-1" d="M115,35.88c5.29,1.53,10.13,4.66,14.55,7.88S137.92,51,142,54.85a.24.24,0,0,0,.37-.29,26.76,26.76,0,0,0-5.19-6,74,74,0,0,0-6.88-5.6,48.69,48.69,0,0,0-15.08-7.73.31.31,0,0,0-.16.6Z"/><path class="cls-1" d="M130.41,90.26a107.85,107.85,0,0,0,8.22-12.51q1.88-3.3,3.64-6.65c1.11-2.1,2.66-4.36,3.21-6.68.05-.2-.22-.4-.37-.22-1.44,1.71-2.29,4.06-3.32,6-1.21,2.31-2.45,4.61-3.74,6.88a120.71,120.71,0,0,1-8.16,12.74c-.22.29.29.69.52.4Z"/><path class="cls-1" d="M176.18,85.7a150.11,150.11,0,0,1-12.66-10.54c-2-1.83-3.86-3.73-5.72-5.66-.93-1-1.84-2-2.74-3-.77-.85-1.49-2-2.54-2.52a.28.28,0,0,0-.41.31,8.06,8.06,0,0,0,2,2.75c.9,1,1.8,2,2.73,3,2,2.08,4,4.07,6.08,6a127.28,127.28,0,0,0,12.78,10.38c.45.32.86-.42.43-.74Z"/><path class="cls-1" d="M156.69,53.19c2.51-3.87,5.22-7.6,8-11.29a107.84,107.84,0,0,0,7.95-11.3.44.44,0,0,0-.76-.45c-2.71,3.73-5.21,7.6-8,11.3s-5.44,7.44-7.93,11.32c-.29.45.43.87.72.42Z"/><path class="cls-3" d="M151.59,64.05a57.43,57.43,0,0,0,1.39,15c.89,4.25,2,8.6,5.31,11.63a13.1,13.1,0,0,0,10.54,3.46c3.22-.46,6.86-2.8,7.24-6.3a.25.25,0,0,0-.47-.12A8.47,8.47,0,0,1,167,93.5a12.81,12.81,0,0,1-9.72-5c-2.47-3.19-3.26-7.58-4-11.46a92.72,92.72,0,0,1-1.24-13,.23.23,0,0,0-.46,0Z"/><path class="cls-3" d="M176.11,86.63a12.15,12.15,0,0,0,10-16.36c-2.79-7.24-11.46-9.94-18.5-10.44a38.25,38.25,0,0,0-15.94,2.28c-.55.21-.32,1.1.24.89a37.94,37.94,0,0,1,15.44-2.29c4.61.29,9.43,1.32,13.3,3.95A12,12,0,0,1,186,77.15a11.81,11.81,0,0,1-10,9c-.27,0-.21.51.07.48Z"/><path class="cls-3" d="M152.79,57.7c4.43,2.25,10.27,2.81,15.14,2.18,5-.66,9.88-2.79,14.34-5.13,4-2.11,6.67-5.35,6.94-10s-2-8.8-5-12.08S176,26,171.67,29.07a.41.41,0,0,0,.41.71c4.33-2.43,8.62.23,11.58,3.49s5,7.17,4.72,11.49a10.87,10.87,0,0,1-1.83,5.52,13.6,13.6,0,0,1-5.34,4.08A44.73,44.73,0,0,1,168.57,59a27.19,27.19,0,0,1-7.75.11A78.27,78.27,0,0,1,153,57.27c-.24-.06-.42.3-.18.43Z"/><path class="cls-3" d="M152.76,57.55c-.5-2.44-1.32-4.81-1.81-7.27a63.87,63.87,0,0,1-1.07-7.8c-.36-4.79-.08-9.92,2.49-14.12,2.16-3.53,6-6.34,10.28-5.95a10.38,10.38,0,0,1,8.91,7.33.36.36,0,0,0,.7-.19,10.8,10.8,0,0,0-14.89-6.72c-7.36,3.6-8.66,12.58-8.07,19.9a64.48,64.48,0,0,0,1,7.45,36.14,36.14,0,0,0,2,7.53c.1.23.43.06.38-.16Z"/><path class="cls-3" d="M147,58c1.21-9.41.48-19.65-5.71-27.3-4.78-5.9-14.65-11-21.43-5.26-3,2.55-4.83,7-3.66,10.89a.42.42,0,0,0,.81-.22,10.56,10.56,0,0,1,3.25-9.75c3.24-3,7.71-2.92,11.65-1.49,7.61,2.76,12.42,10.19,14.09,17.82A48,48,0,0,1,146.53,58c0,.33.47.32.51,0Z"/><path class="cls-3" d="M116.06,34.92c-3.5.22-6.37,3.25-7.42,6.43-1.34,4-.24,8.5,2,12,4.47,6.94,13,9.9,21,9.39a43.48,43.48,0,0,0,15.48-4.38c.49-.23.06-1-.43-.74-9.22,4.32-20.37,6.54-29.54.88a17,17,0,0,1-8-10.95c-1-5.49,1.63-10.48,7.06-12,.31-.09.27-.61-.08-.59Z"/><path class="cls-3" d="M146.58,62.7c-5,.72-9.94,1.75-14.9,2.72-2.35.47-4.71.9-7.05,1.43a15.16,15.16,0,0,0-5,1.89c-3.17,2.08-4,6-3.66,9.59A13.82,13.82,0,0,0,120.76,88c2.93,2.37,7.26,3.48,10.83,2,.49-.2.13-1-.36-.84a10.76,10.76,0,0,1-11.84-4.06c-2.55-3.6-3.63-9.81-1-13.65s8.54-4,12.49-4.78c5.3-1.08,10.6-2.13,15.83-3.5.28-.07.15-.46-.12-.42Z"/><path class="cls-3" d="M130.33,90c-.45,6.29,8.94,10.63,13.83,7.18,2.79-2,4.07-5.69,5-8.84a38.86,38.86,0,0,0,1.3-11.81,59.13,59.13,0,0,0-2.34-13.84.45.45,0,0,0-.86.23c2.42,8.43,3.47,17.63.77,26.13-1.33,4.2-3.55,8.87-8.71,8.36C135.43,97,130.92,94.3,131,90a.34.34,0,0,0-.68,0Z"/><path class="cls-4" d="M147.76,120.57a78.6,78.6,0,0,0,2.33-8.19.21.21,0,0,0-.41-.11,75.71,75.71,0,0,0-2.48,8.14c-.11.36.45.51.56.16Z"/><path class="cls-4" d="M150.88,109.45a9.62,9.62,0,0,0-.11-2.68.13.13,0,0,0-.25,0,10,10,0,0,0-.11,2.68.24.24,0,0,0,.47,0Z"/><path class="cls-4" d="M151.34,104.17a7.47,7.47,0,0,1,.41-2.61.17.17,0,0,0-.31-.13,4.48,4.48,0,0,0-.52,2.74c0,.27.45.27.42,0Z"/><path class="cls-4" d="M152.08,99.6c.21-3,.57-6.09.49-9.12,0-.2-.32-.26-.35,0-.43,3-.45,6.12-.6,9.17,0,.3.44.3.46,0Z"/><path class="cls-4" d="M157.63,74.38a34.82,34.82,0,0,0,.19,9.18c.05.21.35.15.36,0,.22-3-.06-6.11-.05-9.13a.25.25,0,0,0-.5,0Z"/><path class="cls-4" d="M161.45,80.63a55.2,55.2,0,0,0,.3,7.72c0,.17.28.11.29,0a54.75,54.75,0,0,0-.23-7.68.18.18,0,1,0-.36,0Z"/><path class="cls-4" d="M164.66,82.31c.11,2.75.22,6,1.42,8.5a.17.17,0,0,0,.31-.09c-.31-2.83-1.22-5.55-1.44-8.41,0-.19-.3-.19-.29,0Z"/><path class="cls-4" d="M169.88,86.52l.53,1.15a2.81,2.81,0,0,0,.56,1,.15.15,0,0,0,.26-.1,2.87,2.87,0,0,0-.37-1l-.56-1.23c-.13-.28-.55,0-.42.25Z"/><path class="cls-4" d="M175.89,82.89c1.91-.56,3.94-.83,5.82-1.46a.18.18,0,0,0-.05-.36,20.48,20.48,0,0,0-5.91,1.31c-.32.1-.19.61.14.51Z"/><path class="cls-4" d="M173.56,79c2.63-.72,5.35-1.31,7.9-2.26a.15.15,0,0,0-.08-.28c-2.68.48-5.32,1.36-7.95,2.08a.24.24,0,0,0,.13.46Z"/><path class="cls-4" d="M168.19,75.42c3.26-1.22,6.65-2,9.89-3.26a.17.17,0,1,0-.09-.32A53.43,53.43,0,0,0,168.08,75c-.25.1-.15.51.11.41Z"/><path class="cls-4" d="M165.6,72.18a46.82,46.82,0,0,0,6.54-2.64.17.17,0,0,0-.13-.3,47,47,0,0,0-6.54,2.49c-.28.11-.16.56.13.45Z"/><path class="cls-4" d="M163,68.84c1.76-.65,3.61-1.22,5.3-2,.22-.1.07-.44-.16-.38-1.79.5-3.54,1.27-5.28,1.93-.3.11-.17.6.14.49Z"/><path class="cls-4" d="M144.35,73.09c1.15,2.41,2,4.94,3.12,7.34.07.16.3,0,.27-.11a32,32,0,0,0-3-7.44c-.13-.26-.5,0-.38.21Z"/><path class="cls-4" d="M142.07,76.58q.85,2.43,1.54,4.9c.44,1.64.71,3.37,1.3,5,.06.18.37.17.36,0-.15-3.34-1.57-6.85-2.74-10-.11-.28-.56-.16-.46.13Z"/><path class="cls-4" d="M139.76,82.14c.42,2.7.6,5.47,1.18,8.13a.17.17,0,0,0,.33,0,40,40,0,0,0-1-8.22c-.07-.31-.53-.17-.48.13Z"/><path class="cls-4" d="M136.72,88.86a44.11,44.11,0,0,0,1.05,5.5c.07.24.47.21.45-.06a44.07,44.07,0,0,0-.94-5.59c-.07-.37-.62-.21-.56.15Z"/><path class="cls-4" d="M123.81,86.17a18.61,18.61,0,0,0,5.76-2.31c.14-.1.06-.37-.12-.3a49.19,49.19,0,0,1-5.77,2.12.25.25,0,0,0,.13.49Z"/><path class="cls-4" d="M125.23,79.59c2.23-.71,4.53-1.34,6.71-2.2a.16.16,0,0,0-.08-.31c-2.27.59-4.5,1.42-6.74,2.14-.23.08-.13.45.11.37Z"/><path class="cls-4" d="M123.27,74.7c3.6-.46,7.31-.71,10.86-1.51a.16.16,0,0,0,0-.31c-3.62.15-7.28.87-10.87,1.36-.26,0-.2.49.06.46Z"/><path class="cls-4" d="M135.75,70.34a17.27,17.27,0,0,0,2.16,0,.24.24,0,0,0,0-.47,17.26,17.26,0,0,0-2.16-.06.29.29,0,0,0,0,.58Z"/><path class="cls-4" d="M126.21,59.25c3.29-.54,7-1.29,9.86-3a.18.18,0,0,0-.14-.32c-3.31,1-6.41,2.27-9.84,2.9-.28.05-.16.47.12.42Z"/><path class="cls-4" d="M121.17,56.63a30.08,30.08,0,0,0,9.65-4.4.16.16,0,0,0-.16-.28,76.19,76.19,0,0,1-9.61,4.24c-.28.08-.16.53.12.44Z"/><path class="cls-4" d="M116.58,52.42a25.7,25.7,0,0,0,8.88-3.68.12.12,0,0,0-.13-.21A45.57,45.57,0,0,1,116.46,52a.22.22,0,0,0,.12.43Z"/><path class="cls-4" d="M114.21,48.45a67.71,67.71,0,0,0,7.21-3,.15.15,0,0,0-.12-.28A67.51,67.51,0,0,0,114.08,48c-.28.12-.16.58.13.46Z"/><path class="cls-4" d="M115,45.05a40.35,40.35,0,0,0,3.39-2.72.2.2,0,0,0-.25-.31,42.06,42.06,0,0,0-3.43,2.53c-.29.22,0,.72.29.5Z"/><path class="cls-4" d="M122.21,30.47c1.19,2.15,2.29,4.41,3.65,6.46a.16.16,0,0,0,.27-.16c-1-2.25-2.33-4.38-3.53-6.53-.14-.26-.53,0-.39.23Z"/><path class="cls-4" d="M127.16,29.56c1,1.88,1.83,3.8,2.61,5.75.67,1.66,1.15,3.46,2,5,.11.2.37,0,.34-.14a24.11,24.11,0,0,0-1.9-5.36Q129,32,127.55,29.34c-.14-.26-.52,0-.39.22Z"/><path class="cls-4" d="M132.89,31.5a46.55,46.55,0,0,1,2.58,6.3c.66,2,1,4.14,1.72,6.13.06.17.35.16.34,0A22.73,22.73,0,0,0,136,37.4a47.73,47.73,0,0,0-2.61-6.17c-.16-.31-.62,0-.47.27Z"/><path class="cls-4" d="M139.09,37.46a80.82,80.82,0,0,1,3,10.78.22.22,0,0,0,.44-.06,35.59,35.59,0,0,0-2.9-10.87c-.13-.31-.65-.18-.52.15Z"/><path class="cls-4" d="M156,50.75a22.82,22.82,0,0,0-3.8-7.68c-.11-.15-.3,0-.24.18.57,1.3,1.32,2.52,1.94,3.79s1.11,2.61,1.77,3.85a.18.18,0,0,0,.33-.14Z"/><path class="cls-4" d="M157.9,47.16c-.49-2.68-1-5.37-1.46-8a56.67,56.67,0,0,0-1.67-8c0-.13-.26-.12-.25,0A56.61,56.61,0,0,0,155.87,39c.54,2.76,1.1,5.52,1.65,8.28,0,.25.42.14.38-.11Z"/><path class="cls-4" d="M160.24,40.26q-.3-3.28-.49-6.59c-.12-2.2-.06-4.43-.31-6.62a.15.15,0,0,0-.3,0c-.33,4.33.26,8.9.66,13.21,0,.29.47.29.44,0Z"/><path class="cls-4" d="M164.57,36.42c.17-2.63.45-5.29.41-7.93,0-.19-.31-.24-.34,0-.38,2.63-.44,5.32-.61,8,0,.35.52.35.54,0Z"/><path class="cls-4" d="M159.25,54.35c3.95.92,8.46,1.91,12.54,1.5.19,0,.28-.34.05-.37-1.91-.29-3.87-.29-5.79-.51a62.56,62.56,0,0,1-6.66-1.13c-.33-.07-.47.43-.14.51Z"/><path class="cls-4" d="M164,51c2.36.32,4.74.59,7.12.77a40.45,40.45,0,0,0,7.62.18.17.17,0,0,0,0-.34c-2.42-.32-4.91-.25-7.35-.42s-4.88-.43-7.32-.75c-.31,0-.39.52-.07.56Z"/><path class="cls-4" d="M167.23,46.62c3.73.47,7.89.74,11.56-.21a.18.18,0,0,0,0-.35c-3.89.17-7.61.58-11.52.15-.26,0-.26.38,0,.41Z"/><path class="cls-4" d="M170.34,43a89.31,89.31,0,0,0,10.09-.13.15.15,0,1,0,0-.3,89.3,89.3,0,0,0-10.09-.14.29.29,0,0,0,0,.57Z"/><path class="cls-4" d="M173.53,37.33c1.92-.35,3.89-.62,5.77-1.15.21-.06.18-.43-.06-.41-2,.18-3.93.63-5.87,1-.38.07-.22.64.16.57Z"/><path class="cls-5" d="M.32,126.75s-6.7-7.51,41.55-7.51,45.57-29.12,71-18.79,59,28.18,96.51,0,73.72,13.15,100.52,9.39,26.81,18.79,67,7.52,60.32,9.39,80.42-6.58,92.4,1.43,103.21,5.64c0,0,17.93,5,34,5s20.55,5.36,20.55,5.36Z"/><path class="cls-6" d="M94.63,118.66c1.28-.8,2.56-1.57,3.86-2.32a14.11,14.11,0,0,1,2-1.1,8.9,8.9,0,0,1,2.21-.6l0,.09a8.93,8.93,0,0,1-1.81,1.41,14,14,0,0,1-2.06.91c-1.38.59-2.77,1.16-4.18,1.7Z"/><path class="cls-6" d="M199.18,118.66q1.9-1.2,3.86-2.32a13.57,13.57,0,0,1,2-1.1,8.78,8.78,0,0,1,2.21-.6l0,.09a8.66,8.66,0,0,1-1.81,1.41,13.45,13.45,0,0,1-2,.91c-1.38.59-2.77,1.16-4.18,1.7Z"/><path class="cls-6" d="M231.34,120q1.92-1.2,3.87-2.32a14,14,0,0,1,2-1.1,8.86,8.86,0,0,1,2.22-.6l0,.09a8.93,8.93,0,0,1-1.81,1.41,13.9,13.9,0,0,1-2.05.91c-1.38.59-2.78,1.16-4.18,1.7Z"/><path class="cls-6" d="M401.57,122.68q1.9-1.2,3.86-2.32a13.57,13.57,0,0,1,2-1.1,8.78,8.78,0,0,1,2.21-.6l0,.09a8.66,8.66,0,0,1-1.81,1.41,13.45,13.45,0,0,1-2,.91c-1.38.59-2.77,1.16-4.18,1.7Z"/><path class="cls-6" d="M212.58,110.62c1.27-.8,2.56-1.58,3.86-2.32a14.11,14.11,0,0,1,2-1.1,8.9,8.9,0,0,1,2.21-.6l0,.09a8.54,8.54,0,0,1-1.81,1.4,14.06,14.06,0,0,1-2.06.92c-1.38.59-2.77,1.16-4.18,1.7Z"/><path class="cls-6" d="M286.3,118.66q1.9-1.2,3.86-2.32a13.57,13.57,0,0,1,2-1.1,8.9,8.9,0,0,1,2.21-.6l0,.09a8.66,8.66,0,0,1-1.81,1.41,13.45,13.45,0,0,1-2.05.91c-1.38.59-2.77,1.16-4.18,1.7Z"/><path class="cls-6" d="M423,122.68c1.07-.58,2.14-1.14,3.23-1.67a10,10,0,0,1,1.63-.76,5.91,5.91,0,0,1,1.85-.25l0,.09a5.74,5.74,0,0,1-1.5,1.09,10.23,10.23,0,0,1-1.72.58c-1.15.36-2.31.7-3.48,1Z"/><path class="cls-6" d="M114.59,125.72q-2.06-1-4.06-2a15.12,15.12,0,0,1-2-1,8.77,8.77,0,0,1-1.71-1.53l.06-.08a8.25,8.25,0,0,1,2.16.75,14.13,14.13,0,0,1,1.89,1.22q1.88,1.26,3.7,2.58Z"/><path class="cls-6" d="M262,119q-2-1-4-2a14.51,14.51,0,0,1-2-1.05,8.77,8.77,0,0,1-1.71-1.53l0-.09a9,9,0,0,1,2.17.75,15.28,15.28,0,0,1,1.89,1.23q1.86,1.26,3.69,2.58Z"/><path class="cls-6" d="M157.48,125.72q-2.05-1-4.06-2a14.4,14.4,0,0,1-2-1,8.23,8.23,0,0,1-1.71-1.53l.05-.08a8.25,8.25,0,0,1,2.16.75,13,13,0,0,1,1.89,1.22q1.88,1.26,3.7,2.58Z"/><path class="cls-6" d="M165.89,125.48c-.4-.62-.77-1.26-1.12-1.91a3.75,3.75,0,0,1-.49-1,2.53,2.53,0,0,1,0-1.19l.1,0a2.5,2.5,0,0,1,.81.85,3.5,3.5,0,0,1,.31,1.06c.18.71.34,1.43.47,2.17Z"/><path class="cls-6" d="M174.52,127c-.16-.72-.29-1.45-.39-2.18a3.35,3.35,0,0,1-.12-1.09,2.55,2.55,0,0,1,.42-1.1h.1a2.46,2.46,0,0,1,.48,1.08,3.74,3.74,0,0,1-.08,1.1c-.08.73-.18,1.46-.31,2.19Z"/><path class="cls-6" d="M246.9,124.27c-.16-.72-.29-1.45-.39-2.18a3.36,3.36,0,0,1-.13-1.09,2.41,2.41,0,0,1,.43-1.1h.1a2.38,2.38,0,0,1,.47,1.08,3.73,3.73,0,0,1-.07,1.1c-.08.73-.18,1.46-.31,2.19Z"/><path class="cls-6" d="M386.29,124.27c-.16-.72-.29-1.45-.39-2.18a3.35,3.35,0,0,1-.12-1.09,2.41,2.41,0,0,1,.43-1.1h.1a2.5,2.5,0,0,1,.47,1.08,3.43,3.43,0,0,1-.08,1.1c-.07.73-.18,1.46-.31,2.19Z"/><path class="cls-6" d="M186.31,124.14c-.42-.87-.81-1.75-1.18-2.64a5.88,5.88,0,0,1-.51-1.34,3.79,3.79,0,0,1,0-1.5l.1,0a3.72,3.72,0,0,1,.85,1.24,6,6,0,0,1,.33,1.4c.19.94.36,1.89.51,2.84Z"/><path class="cls-6" d="M233.22,109.4c-.42-.87-.81-1.75-1.18-2.64a6.25,6.25,0,0,1-.51-1.34,3.66,3.66,0,0,1,0-1.51l.09,0a3.82,3.82,0,0,1,.85,1.24,6.07,6.07,0,0,1,.33,1.4q.3,1.41.51,2.85Z"/><path class="cls-6" d="M272.09,112.08c-.42-.87-.81-1.75-1.18-2.64a6.06,6.06,0,0,1-.51-1.34,3.83,3.83,0,0,1,0-1.51l.1,0a3.93,3.93,0,0,1,.85,1.24,6.07,6.07,0,0,1,.33,1.4c.2.94.36,1.89.51,2.85Z"/><path class="cls-6" d="M368.6,125.48c-.42-.87-.82-1.75-1.18-2.64a5.91,5.91,0,0,1-.52-1.34,3.79,3.79,0,0,1,0-1.5l.09,0a3.75,3.75,0,0,1,.86,1.24,5.94,5.94,0,0,1,.32,1.4c.2.94.37,1.89.51,2.84Z"/><path class="cls-6" d="M468.46,120c.77-.58,1.56-1.14,2.36-1.67a5.9,5.9,0,0,1,1.21-.77,3.87,3.87,0,0,1,1.48-.29l0,.09a4,4,0,0,1-1,1.08,6.21,6.21,0,0,1-1.31.6c-.89.37-1.78.72-2.69,1Z"/><path class="cls-6" d="M512.69,121.36c.77-.58,1.56-1.14,2.36-1.67a6.19,6.19,0,0,1,1.21-.77,3.9,3.9,0,0,1,1.48-.29l0,.09a3.71,3.71,0,0,1-1,1.08,6.21,6.21,0,0,1-1.31.6c-.89.37-1.78.72-2.69,1Z"/><path class="cls-6" d="M487.22,122.71c.78-.59,1.56-1.14,2.36-1.68a6.19,6.19,0,0,1,1.21-.77,3.94,3.94,0,0,1,1.48-.29l.05.09a3.87,3.87,0,0,1-1.05,1.08,6.21,6.21,0,0,1-1.31.6c-.88.37-1.78.73-2.69,1.05Z"/><path class="cls-6" d="M483.2,117.34c.77-.58,1.56-1.14,2.36-1.67a6.19,6.19,0,0,1,1.21-.77,3.94,3.94,0,0,1,1.48-.29l.05.09a3.87,3.87,0,0,1-1.05,1.08,5.72,5.72,0,0,1-1.31.59c-.88.38-1.78.73-2.69,1.06Z"/><path class="cls-6" d="M463.76,124.14c-.42-.87-.81-1.75-1.18-2.64a5.91,5.91,0,0,1-.52-1.34,4,4,0,0,1,0-1.5l.1,0a3.72,3.72,0,0,1,.85,1.24,6,6,0,0,1,.33,1.4c.19.94.36,1.89.51,2.84Z"/><path class="cls-6" d="M213.12,124.14c-.42-.87-.81-1.75-1.18-2.64a5.91,5.91,0,0,1-.52-1.34,4,4,0,0,1,0-1.5l.1,0a3.87,3.87,0,0,1,.85,1.24,5.94,5.94,0,0,1,.32,1.4c.2.94.37,1.89.51,2.84Z"/><path class="cls-6" d="M278.79,124.14q-.63-1.31-1.17-2.64a5.47,5.47,0,0,1-.52-1.34,3.61,3.61,0,0,1,0-1.5l.09,0a3.58,3.58,0,0,1,.85,1.24,6,6,0,0,1,.33,1.4c.2.94.37,1.89.51,2.84Z"/><path class="cls-6" d="M223.84,120.12c-.42-.87-.81-1.75-1.18-2.64a5.91,5.91,0,0,1-.52-1.34,4,4,0,0,1,0-1.51l.1,0a3.78,3.78,0,0,1,.85,1.23,6.16,6.16,0,0,1,.33,1.41c.19.94.36,1.88.51,2.84Z"/><path class="cls-6" d="M245.29,110.74c-.42-.87-.82-1.75-1.18-2.64a6.29,6.29,0,0,1-.52-1.34,3.84,3.84,0,0,1,0-1.51l.09,0a3.86,3.86,0,0,1,.86,1.24,6.06,6.06,0,0,1,.32,1.4q.3,1.41.51,2.85Z"/><path class="cls-6" d="M341.79,125.48c-.42-.87-.81-1.75-1.18-2.64a5.91,5.91,0,0,1-.52-1.34,4,4,0,0,1,0-1.5l.1,0a3.87,3.87,0,0,1,.85,1.24,6,6,0,0,1,.33,1.4c.19.94.36,1.89.51,2.84Z"/><path class="cls-6" d="M467.78,116.1c-.42-.87-.81-1.75-1.18-2.64a5.88,5.88,0,0,1-.51-1.34,3.83,3.83,0,0,1,0-1.51l.1,0a3.93,3.93,0,0,1,.85,1.24,6.07,6.07,0,0,1,.33,1.4q.28,1.41.51,2.85Z"/><path class="cls-6" d="M500,117.44c-.42-.87-.81-1.75-1.18-2.64a5.91,5.91,0,0,1-.52-1.34,4,4,0,0,1,0-1.51l.1,0a4.1,4.1,0,0,1,.85,1.24,6.07,6.07,0,0,1,.33,1.4c.19.94.36,1.89.5,2.85Z"/><path class="cls-6" d="M123.09,122.3c-.71-.25-1.41-.53-2.09-.83a3.28,3.28,0,0,1-1-.47,2.39,2.39,0,0,1-.73-1l0-.09a2.47,2.47,0,0,1,1.18.18,3.37,3.37,0,0,1,.91.65c.59.45,1.16.92,1.73,1.42Z"/><path class="cls-6" d="M332.18,121c-.71-.25-1.41-.53-2.09-.83a3.53,3.53,0,0,1-1-.47,2.54,2.54,0,0,1-.73-1l.05-.09a2.47,2.47,0,0,1,1.18.18,3.57,3.57,0,0,1,.91.64c.59.46,1.17.93,1.73,1.43Z"/><path class="cls-6" d="M416.62,125c-.71-.25-1.41-.53-2.09-.82a3.55,3.55,0,0,1-1-.48,2.39,2.39,0,0,1-.73-1l.05-.08a2.54,2.54,0,0,1,1.19.17,3.49,3.49,0,0,1,.9.65c.59.45,1.17.92,1.73,1.42Z"/><path class="cls-6" d="M447.45,122.3c-.71-.25-1.41-.53-2.09-.83a3.28,3.28,0,0,1-1-.47,2.39,2.39,0,0,1-.73-1l.05-.09a2.47,2.47,0,0,1,1.18.18,3.37,3.37,0,0,1,.91.65c.59.45,1.17.92,1.73,1.42Z"/><path class="cls-6" d="M256.81,105.26c.61-.47,1.22-.91,1.85-1.32a3.71,3.71,0,0,1,1-.59,2.53,2.53,0,0,1,1.21-.1l.05.09a2.64,2.64,0,0,1-.81.9,3.43,3.43,0,0,1-1.05.41c-.71.26-1.43.49-2.17.7Z"/><path class="cls-6" d="M392.18,121.34q.92-.69,1.86-1.32a3.65,3.65,0,0,1,1-.59,2.49,2.49,0,0,1,1.2-.1l.05.09a2.65,2.65,0,0,1-.8.91,4,4,0,0,1-1.05.41c-.71.25-1.44.49-2.17.69Z"/><path class="cls-6" d="M433.73,122.68q.91-.69,1.86-1.32a3.65,3.65,0,0,1,1-.59,2.49,2.49,0,0,1,1.2-.1l.05.09a2.65,2.65,0,0,1-.8.91,4,4,0,0,1-1.05.41c-.71.25-1.44.49-2.17.69Z"/><path class="cls-6" d="M453.84,122.68c.6-.46,1.22-.9,1.85-1.32a4,4,0,0,1,1-.59,2.53,2.53,0,0,1,1.21-.1l0,.09a2.56,2.56,0,0,1-.8.91,3.82,3.82,0,0,1-1.05.41c-.71.25-1.43.49-2.17.69Z"/></g></g></svg>