<svg xmlns="http://www.w3.org/2000/svg" viewBox="0 0 14.54 14.71"><defs><style>.cls-1{fill:#a8e059;}.cls-2{fill:#fef7f3;}</style></defs><title>leaf-right</title><g id="圖層_2" data-name="圖層 2"><g id="圖層_1-2" data-name="圖層 1"><path class="cls-1" d="M4,.84C6.5-.91,14,.61,14,.61S12.85,8.15,10.35,9.9A5.53,5.53,0,0,1,4,.84Z"/><path d="M1.19,11.43l.21.31a6.4,6.4,0,0,0,8.9,1.57c2.73-1.91,3.86-9.06,4-9.87a.86.86,0,0,0-.68-1C12.8,2.31,5.69.93,3,2.84A6.41,6.41,0,0,0,.46,9.73Zm8.12.46a4.67,4.67,0,0,1-6.5-1.14,5.09,5.09,0,0,1-.3-.5A23.87,23.87,0,0,1,10,6.8a.87.87,0,1,0-.42-1.68A25.52,25.52,0,0,0,2,8.5,4.69,4.69,0,0,1,4,4.25,7,7,0,0,1,7.6,3.57,30.74,30.74,0,0,1,12.43,4C11.92,6.82,10.76,10.88,9.31,11.89Z"/><path class="cls-2" d="M6.64,14.71a6.64,6.64,0,0,1-5.45-2.83L1,11.56l0,0L.23,9.83a6.69,6.69,0,0,1,2.59-7.2c2.82-2,10-.57,10.83-.4a1.11,1.11,0,0,1,.88,1.25c-.12.82-1.27,8.06-4.09,10A6.54,6.54,0,0,1,6.64,14.71Zm-5.22-3.4.18.29a6.18,6.18,0,0,0,8.56,1.51c2.64-1.85,3.75-8.9,3.87-9.7a.6.6,0,0,0-.48-.69c-.79-.17-7.8-1.53-10.44.32A6.19,6.19,0,0,0,.7,9.66ZM6.65,13a5.12,5.12,0,0,1-.87-.08,4.87,4.87,0,0,1-3.17-2,4,4,0,0,1-.32-.52l-.1-.19.17-.13a24.79,24.79,0,0,1,7.53-3.5.6.6,0,0,0,.38-.28.62.62,0,0,0,.07-.46.63.63,0,0,0-.28-.38.65.65,0,0,0-.47-.07A25.82,25.82,0,0,0,2.13,8.7L1.78,9l0-.43A4.94,4.94,0,0,1,3.81,4.05,7.1,7.1,0,0,1,7.6,3.32a30.79,30.79,0,0,1,4.88.44l.25.05-.05.25c-.56,3.05-1.74,7-3.23,8h0A4.88,4.88,0,0,1,6.65,13ZM2.83,10.32l.19.29a4.42,4.42,0,0,0,6.15,1.08c1.23-.87,2.39-4.43,3-7.47a28.68,28.68,0,0,0-4.54-.4,6.75,6.75,0,0,0-3.5.64A4.45,4.45,0,0,0,2.22,8,26.22,26.22,0,0,1,9.47,4.88,1.11,1.11,0,1,1,10,7,24,24,0,0,0,2.83,10.32Z"/></g></g></svg>