<svg xmlns="http://www.w3.org/2000/svg" viewBox="0 0 14.73 14.15"><defs><style>.cls-1{fill:#a8e059;}.cls-2{fill:#fef7f3;}</style></defs><title>leaf-left</title><g id="圖層_2" data-name="圖層 2"><g id="圖層_1-2" data-name="圖層 1"><path class="cls-1" d="M6.18,10C3.61,8.34,2.2.86,2.2.86S9.59-1,12.16.69a5.53,5.53,0,0,1-6,9.3Z"/><path d="M13.68,10.61a6.41,6.41,0,0,0-2.13-8.48C8.75.33,1.7,2,.91,2.18a.86.86,0,0,0-.64,1c.15.81,1.56,7.9,4.36,9.7a6.38,6.38,0,0,0,3.45,1,6.46,6.46,0,0,0,1.37-.15,6.32,6.32,0,0,0,3.11-1.68ZM12.45,9.15a15,15,0,0,0-2-1.71A18.84,18.84,0,0,0,5.57,5a.86.86,0,1,0-.49,1.65,16.39,16.39,0,0,1,6.43,4,4.68,4.68,0,0,1-5.94.75c-1.49-1-2.82-5-3.44-7.75,2.8-.6,7-1.05,8.48-.1A4.67,4.67,0,0,1,12.45,9.15Z"/><path class="cls-2" d="M8.08,14.15A6.6,6.6,0,0,1,4.5,13.09C1.61,11.24.17,4,0,3.23A1.11,1.11,0,0,1,.85,1.94c.8-.2,8-1.87,10.83,0a6.65,6.65,0,0,1,2.21,8.81l0,0-1.11,1.47A6.63,6.63,0,0,1,9.5,14,6.85,6.85,0,0,1,8.08,14.15ZM7.58,1.54A30.9,30.9,0,0,0,1,2.43a.6.6,0,0,0-.46.7c.15.8,1.55,7.8,4.26,9.54a6.11,6.11,0,0,0,4.62.84,6.24,6.24,0,0,0,3-1.61l1.07-1.43a6.15,6.15,0,0,0-2.05-8.13A7.43,7.43,0,0,0,7.58,1.54Zm.5,10.88a4.85,4.85,0,0,1-2.65-.78c-1.53-1-2.87-4.88-3.54-7.91l-.06-.25.25,0c3-.64,7.13-1,8.67-.06a5,5,0,0,1,1.94,5.87l-.14.36-.27-.28a14.39,14.39,0,0,0-2-1.67A18.6,18.6,0,0,0,5.5,5.26a.61.61,0,0,0-.76.41.62.62,0,0,0,.41.77,16.55,16.55,0,0,1,6.55,4.07l.15.17-.16.17a4.9,4.9,0,0,1-2.56,1.46A5.35,5.35,0,0,1,8.08,12.42ZM2.43,3.87c.7,3,2,6.53,3.27,7.35a4.42,4.42,0,0,0,5.47-.55A16.44,16.44,0,0,0,5,6.91a1.11,1.11,0,0,1,.65-2.13,19.16,19.16,0,0,1,4.92,2.46,14.11,14.11,0,0,1,1.77,1.45,4.46,4.46,0,0,0-1.86-4.9C9.2,3,5.47,3.25,2.43,3.87Z"/></g></g></svg>