<svg xmlns="http://www.w3.org/2000/svg" viewBox="0 0 38.58 28.32"><defs><style>.cls-1{fill:#fff;}</style></defs><title>look</title><g id="圖層_2" data-name="圖層 2"><g id="圖層_1-2" data-name="圖層 1"><path class="cls-1" d="M3.86,18.65a.64.64,0,0,1-.36-1.18L7.36,14.9A.64.64,0,0,1,8.07,16L4.21,18.54A.64.64,0,0,1,3.86,18.65Z"/><path class="cls-1" d="M3.21,21.86a.64.64,0,0,1-.36-1.18l3.86-2.57a.64.64,0,0,1,.71,1.07L3.57,21.75A.64.64,0,0,1,3.21,21.86Z"/><path class="cls-1" d="M38.44,18.5h0a8.16,8.16,0,0,0-.71-2.18,0,0,0,0,0,0,0c-4.13-12.69-4.82-13.72-5-14.06C31.25.06,26.86,0,26.36,0a.64.64,0,1,0,0,1.29c1.16,0,4.35.3,5.25,1.64.27.41,1.13,2.37,3.82,10.49a8.28,8.28,0,0,0-5.21-1.84,8.36,8.36,0,0,0-6.8,3.5,5.79,5.79,0,0,0-4.13-1.58,5.79,5.79,0,0,0-4.14,1.58,8.32,8.32,0,0,0-12-1.67C5.83,5.29,6.69,3.34,7,2.93c.9-1.34,4.1-1.64,5.25-1.64a.64.64,0,0,0,0-1.29c-.5,0-4.89.06-6.32,2.22-.23.34-.92,1.38-5,14.06,0,0,0,0,0,0a8.16,8.16,0,0,0-.71,2.18h0A8.08,8.08,0,0,0,0,19.93a8.36,8.36,0,1,0,15.84-3.7,4.33,4.33,0,0,1,3.45-1.45,4.33,4.33,0,0,1,3.45,1.45,8.35,8.35,0,1,0,15.84,3.7A8.08,8.08,0,0,0,38.44,18.5ZM8.36,27a7.07,7.07,0,1,1,7.07-7.07A7.07,7.07,0,0,1,8.36,27Zm21.86,0a7.07,7.07,0,1,1,7.07-7.07A7.07,7.07,0,0,1,30.22,27Z"/><path class="cls-1" d="M25.72,18a.64.64,0,0,1-.36-1.18l3.86-2.57a.64.64,0,0,1,.71,1.07l-3.86,2.57A.64.64,0,0,1,25.72,18Z"/><path class="cls-1" d="M25.08,21.22A.64.64,0,0,1,24.72,20l3.86-2.57a.64.64,0,1,1,.71,1.07l-3.86,2.57A.64.64,0,0,1,25.08,21.22Z"/></g></g></svg>