<svg xmlns="http://www.w3.org/2000/svg" viewBox="0 0 5.15 31.99"><defs><style>.cls-1{fill:#fef7f3;}</style></defs><title>root</title><g id="圖層_2" data-name="圖層 2"><g id="圖層_1-2" data-name="圖層 1"><path d="M4.8,6.54a7.74,7.74,0,0,1-1-1.41A11.51,11.51,0,0,0,2.94,6V5.88A9.24,9.24,0,0,0,1.22.52,11.77,11.77,0,0,1,.29,2.33a7.34,7.34,0,0,1,.92,3.55V31.74H2.94V10.49A5.48,5.48,0,0,1,4.59,6.74Z"/><path class="cls-1" d="M3.19,32H1V5.88A7,7,0,0,0,.07,2.45L0,2.32.08,2.2A11.78,11.78,0,0,0,1,.42L1.16,0l.26.37a9.6,9.6,0,0,1,1.76,5L3.6,5l.23-.22L4,5A7.22,7.22,0,0,0,5,6.37l.17.17-.39.38a5.22,5.22,0,0,0-1.57,3.57Zm-1.73-.5H2.69v-21A5.74,5.74,0,0,1,4.4,6.57l0,0a7.81,7.81,0,0,1-.73-1c-.23.23-.42.44-.59.64l-.44.53V5.88A9,9,0,0,0,1.27,1a12.06,12.06,0,0,1-.69,1.3,7.57,7.57,0,0,1,.88,3.54Z"/></g></g></svg>