<svg xmlns="http://www.w3.org/2000/svg" viewBox="0 0 18.28 134.08"><defs><style>.cls-1{fill:#6d943d;}.cls-2{fill:#b1cb76;}</style></defs><title>root-kv</title><g id="圖層_2" data-name="圖層 2"><g id="圖層_1-2" data-name="圖層 1"><path class="cls-1" d="M9.57,11.08c-1.29,7.48-.18,15.23.25,22.76.46,8.19.75,16.39.8,24.59.09,16.66-.8,33.33-4.18,49.67-.88,4.3-2,8.52-3.13,12.76-1,3.77-2.6,8.27-1.86,12.17a1.51,1.51,0,0,0,2.49.66c2.63-2.16,3.94-6.29,4.93-9.44a98.68,98.68,0,0,0,2.72-11.88c1.45-8.05,2.31-16.19,3-24.33a372.83,372.83,0,0,0,.15-50.47c-.49-8.71-.38-18.21-3.37-26.49-.27-.76-1.6-1-1.76,0Z"/><path class="cls-1" d="M4.85,17.91a76.55,76.55,0,0,0,6.69-8.23c1.81-2.59,4.1-5.49,4.4-8.73C16,0,14.83-.25,14.24.25c-2.26,1.92-3.47,5-5.1,7.46a69.43,69.43,0,0,1-6.36,8.13c-1.26,1.4.78,3.46,2.07,2.07Z"/><path class="cls-1" d="M.81,7.36c3,1.8,6,3.68,8.89,5.71,2.37,1.67,4.69,4.2,7.67,4.56a.93.93,0,0,0,.89-1.16c-.8-2.89-4-4.71-6.26-6.35A65.49,65.49,0,0,0,2.48,4.51C.59,3.61-1,6.26.81,7.36Z"/><path class="cls-2" d="M4.9,129.65c1.6-5.35,3.64-10.75,4.63-16.25a.42.42,0,0,0-.8-.22c-2.16,5.15-3.38,10.8-4.94,16.16a.58.58,0,0,0,1.11.31Z"/><path class="cls-2" d="M11.1,107.59c0-1.68.26-3.68-.22-5.31a.26.26,0,0,0-.49,0c-.48,1.64-.23,3.63-.23,5.31a.47.47,0,0,0,.94,0Z"/><path class="cls-2" d="M12,97.11a14.71,14.71,0,0,1,.81-5.18.34.34,0,0,0-.62-.26,9,9,0,0,0-1,5.44c0,.53.88.53.83,0Z"/><path class="cls-2" d="M13.48,88.05c.42-6,1.12-12.08,1-18.1,0-.39-.65-.52-.71-.1-.85,6-.88,12.15-1.18,18.2,0,.59.87.59.91,0Z"/></g></g></svg>