<svg xmlns="http://www.w3.org/2000/svg" viewBox="0 0 42 42"><defs><style>.cls-1{fill:#f78481;}.cls-2{fill:#fff;}</style></defs><title>set_c</title><g id="圖層_2" data-name="圖層 2"><g id="圖層_1-2" data-name="圖層 1"><path class="cls-1" d="M40.07,21l1.84-4.81a1.31,1.31,0,0,0-.4-1.49l-4-3.24-.81-5.08a1.31,1.31,0,0,0-1.09-1.09l-5.08-.81L27.3.49a1.31,1.31,0,0,0-1.49-.4L21,1.93,16.19.09a1.31,1.31,0,0,0-1.49.4l-3.24,4-5.08.81A1.32,1.32,0,0,0,5.29,6.38l-.81,5.08-4,3.24a1.31,1.31,0,0,0-.4,1.49L1.93,21,.09,25.81a1.31,1.31,0,0,0,.4,1.49l4,3.24.81,5.08a1.31,1.31,0,0,0,1.09,1.09l5.08.81,3.24,4a1.31,1.31,0,0,0,1.49.4L21,40.07l4.81,1.84a1.31,1.31,0,0,0,1.49-.4l3.24-4,5.08-.81a1.31,1.31,0,0,0,1.09-1.09l.81-5.08,4-3.24a1.31,1.31,0,0,0,.4-1.49Z"/><path class="cls-2" d="M15,20.08c0-4.8,2.92-7.68,6.64-7.68a5.67,5.67,0,0,1,4.18,1.86l-1.26,1.48a3.92,3.92,0,0,0-2.88-1.32c-2.54,0-4.3,2.12-4.3,5.58s1.64,5.64,4.24,5.64a4.29,4.29,0,0,0,3.26-1.56l1.24,1.46a5.81,5.81,0,0,1-4.58,2.12C17.81,27.66,15,24.9,15,20.08Z"/></g></g></svg>