<svg xmlns="http://www.w3.org/2000/svg" viewBox="0 0 40.16 32"><defs><style>.cls-1{fill:#fff;}</style></defs><title>sound</title><g id="圖層_2" data-name="圖層 2"><g id="圖層_1-2" data-name="圖層 1"><rect class="cls-1" x="33.61" y="4.37" width="6.14" height="2.04" transform="translate(2.22 19.06) rotate(-30)"/><rect class="cls-1" x="35.66" y="13.57" width="2.04" height="6.14" transform="translate(3.94 40.09) rotate(-60.02)"/><rect class="cls-1" x="34.02" y="9.99" width="6.14" height="2.05"/><path class="cls-1" d="M24.43,0a.85.85,0,0,0-.31.06L7.42,6.74H4.21a4.21,4.21,0,1,0,0,8.42H7.34l3.78,15a2.54,2.54,0,0,0,3.1,1.79l1.26-.34a2.51,2.51,0,0,0,1.63-3.51l-2.46-5.85a4.19,4.19,0,0,1-.42-1.59L14,17.81l10.07,4a.85.85,0,0,0,.31.06,4.22,4.22,0,0,0,4.21-4.21V4.21A4.22,4.22,0,0,0,24.43,0Zm-17,13.58H3.79a2.22,2.22,0,0,1-2.21-2.21v-.74A2.22,2.22,0,0,1,3.79,8.42H7.48Zm8.11,15.18a.84.84,0,0,1,0,.72.82.82,0,0,1-.55.46l-1.26.34a.85.85,0,0,1-1-.59L9.26,15.9l3,1.22.24,3.62a5.77,5.77,0,0,0,.57,2.18Zm8-8.95L8.42,13.75V8.15L23.59,2.09ZM27,17.69a2.53,2.53,0,0,1-1.68,2.37V1.84A2.53,2.53,0,0,1,27,4.21Z"/></g></g></svg>