<svg xmlns="http://www.w3.org/2000/svg" viewBox="0 0 54.37 68.03"><defs><style>.cls-1{fill:#6d943d;}.cls-2{fill:#96b94c;}.cls-3{fill:#86a242;}.cls-4{fill:#b1cb76;}</style></defs><title>tab-clover</title><g id="圖層_2" data-name="圖層 2"><g id="圖層_1-2" data-name="圖層 1"><path class="cls-1" d="M28.17,26.51c-.43,2.53-.06,5.14.08,7.68.16,2.76.26,5.53.27,8.3a80.46,80.46,0,0,1-1.41,16.77c-.3,1.45-.69,2.87-1.06,4.31a10.08,10.08,0,0,0-.63,4.11.51.51,0,0,0,.84.22,6.79,6.79,0,0,0,1.66-3.19,33,33,0,0,0,.92-4c.49-2.72.78-5.46,1-8.21a125.53,125.53,0,0,0,.05-17c-.17-2.94-.13-6.15-1.14-8.94-.09-.26-.54-.33-.6,0Z"/><path class="cls-1" d="M26.58,28.81A26,26,0,0,0,28.84,26a6.63,6.63,0,0,0,1.48-2.95c0-.32-.37-.41-.57-.24A11.31,11.31,0,0,0,28,25.37a24.06,24.06,0,0,1-2.15,2.74c-.42.47.26,1.17.7.7Z"/><path class="cls-1" d="M25.21,25.25c1,.61,2,1.24,3,1.93.8.57,1.58,1.42,2.59,1.54a.31.31,0,0,0,.3-.39c-.27-1-1.33-1.59-2.11-2.14a21.92,21.92,0,0,0-3.21-1.89.56.56,0,0,0-.56,1Z"/><path class="cls-2" d="M1.09,13.48a12.27,12.27,0,0,0,1.18,9.24A10,10,0,0,0,10,27.62a17.92,17.92,0,0,0,4-.36L24.53,25.5a2.31,2.31,0,0,0,1-.31,2.35,2.35,0,0,0,.69-1.9c.22-4.72.42-9.58-1.17-14S19.59.83,14.87.56A9.45,9.45,0,0,0,5.29,9.74C3.26,9.22,1.61,11.46,1.09,13.48Z"/><path class="cls-2" d="M43,6.12a6.42,6.42,0,0,1,6.66.63,10.07,10.07,0,0,1,3.67,5.85c.76,3.06.36,6.57-1.73,8.93-2.56,2.88-6.81,3.35-10.65,3.63a36.32,36.32,0,0,1-8.75-.07A4.16,4.16,0,0,1,30,24.21a4.42,4.42,0,0,1-1.06-2A38.41,38.41,0,0,1,27.35,9.72a11,11,0,0,1,1.22-5.28,9,9,0,0,1,4-3.34,9.15,9.15,0,0,1,7-.67C41.84,1.29,43.57,3.77,43,6.12Z"/><path class="cls-2" d="M13.51,45.69a2,2,0,0,1,1.31.38,2.19,2.19,0,0,1,.43.84,6.26,6.26,0,0,0,7.45,3.65c3.31-1,5.09-4.65,5.78-8a25.37,25.37,0,0,0-1.71-15.3L15.08,29.3c-2.38.42-4.94,1-6.53,2.76a9.28,9.28,0,0,0-1.61,3c-.82,2.22-1.38,4.77-.35,6.9C7.79,44.42,10.76,45.52,13.51,45.69Z"/><path class="cls-2" d="M52.64,39a9,9,0,0,0,0-4.79,9.78,9.78,0,0,0-5.88-6.57c-5.41-2.11-11.49-1.39-17.16-.16a58.67,58.67,0,0,0,1.23,10.57,20.15,20.15,0,0,0,2.34,6.57,8.79,8.79,0,0,0,5.43,4.13,5.69,5.69,0,0,0,6.07-2.47c.53-.94.79-2.14,1.71-2.71A7.32,7.32,0,0,1,48,43C50.26,42.31,51.94,41.28,52.64,39Z"/><path class="cls-1" d="M4.66,9.81a32.5,32.5,0,0,1,9.75,5.28,79.71,79.71,0,0,1,8.3,7.43.16.16,0,0,0,.25-.19,17.85,17.85,0,0,0-3.48-4,49.26,49.26,0,0,0-4.61-3.75A32.45,32.45,0,0,0,4.77,9.41a.21.21,0,0,0-.11.4Z"/><path class="cls-1" d="M15,46.23a71.51,71.51,0,0,0,5.51-8.38c.84-1.47,1.65-3,2.44-4.45a20.64,20.64,0,0,0,2.15-4.47c0-.14-.15-.27-.25-.15a21.69,21.69,0,0,0-2.23,4c-.81,1.55-1.64,3.09-2.5,4.61A80.57,80.57,0,0,1,14.63,46c-.15.2.19.47.35.27Z"/><path class="cls-1" d="M45.63,43.18a100.88,100.88,0,0,1-8.48-7.06q-2-1.84-3.83-3.79-.93-1-1.84-2a6.4,6.4,0,0,0-1.7-1.69.19.19,0,0,0-.27.21,5.38,5.38,0,0,0,1.38,1.84q.9,1,1.82,2c1.31,1.39,2.68,2.73,4.08,4a85.05,85.05,0,0,0,8.56,7c.3.22.58-.28.29-.5Z"/><path class="cls-1" d="M32.58,21.4c1.68-2.59,3.49-5.09,5.35-7.56a73.14,73.14,0,0,0,5.33-7.57c.19-.34-.29-.6-.51-.3-1.81,2.5-3.49,5.09-5.34,7.57s-3.64,5-5.31,7.58c-.19.3.29.58.48.28Z"/><path class="cls-3" d="M29.16,28.68a38.51,38.51,0,0,0,.93,10.06c.6,2.85,1.33,5.76,3.56,7.79a8.82,8.82,0,0,0,7.07,2.32c2.16-.31,4.59-1.87,4.85-4.22a.17.17,0,0,0-.32-.09,5.67,5.67,0,0,1-5.77,3.87A8.58,8.58,0,0,1,33,45c-1.65-2.14-2.18-5.08-2.67-7.68a62.14,62.14,0,0,1-.83-8.7.15.15,0,0,0-.3,0Z"/><path class="cls-3" d="M45.58,43.8a8.14,8.14,0,0,0,6.73-11c-1.87-4.85-7.68-6.66-12.39-7a25.61,25.61,0,0,0-10.68,1.53c-.37.14-.21.73.16.6a25.42,25.42,0,0,1,10.34-1.54,17.81,17.81,0,0,1,8.91,2.65,8,8,0,0,1,3.57,8.37,7.92,7.92,0,0,1-6.69,6c-.18,0-.14.34,0,.32Z"/><path class="cls-3" d="M30,24.42a18.23,18.23,0,0,0,10.14,1.46,29.37,29.37,0,0,0,9.61-3.43,7.87,7.87,0,0,0,4.64-6.69A11.41,11.41,0,0,0,51,7.67c-2-2.21-5.52-4.44-8.43-2.42a.28.28,0,0,0,.28.48c2.9-1.63,5.77.15,7.75,2.34a10.84,10.84,0,0,1,3.16,7.69,7.22,7.22,0,0,1-1.22,3.7A9.11,9.11,0,0,1,49,22.19a30,30,0,0,1-8.47,3.09,18.24,18.24,0,0,1-5.19.08,52.67,52.67,0,0,1-5.26-1.21c-.17,0-.29.2-.12.29Z"/><path class="cls-3" d="M29.95,24.32c-.34-1.64-.88-3.23-1.21-4.87A42.69,42.69,0,0,1,28,14.23C27.78,11,28,7.58,29.69,4.77c1.45-2.36,4-4.25,6.89-4a7,7,0,0,1,6,4.91A.25.25,0,0,0,43,5.57a7.24,7.24,0,0,0-10-4.5c-4.93,2.41-5.8,8.43-5.41,13.33a43.92,43.92,0,0,0,.7,5,24.68,24.68,0,0,0,1.37,5c.07.15.29,0,.26-.11Z"/><path class="cls-3" d="M26.11,24.63c.81-6.31.32-13.16-3.83-18.29-3.2-4-9.81-7.39-14.35-3.52a7.29,7.29,0,0,0-2.45,7.3A.28.28,0,0,0,6,10,7.08,7.08,0,0,1,8.2,3.44c2.17-2,5.16-2,7.8-1,5.09,1.85,8.32,6.83,9.43,11.94a31.86,31.86,0,0,1,.33,10.25c0,.22.32.22.34,0Z"/><path class="cls-3" d="M5.36,9.17c-2.34.15-4.26,2.17-5,4.3a9.56,9.56,0,0,0,1.35,8c3,4.64,8.72,6.63,14,6.29a29,29,0,0,0,10.37-2.93c.33-.16,0-.65-.29-.49-6.18,2.89-13.64,4.38-19.79.59A11.35,11.35,0,0,1,.69,17.61,6.67,6.67,0,0,1,5.41,9.56c.21-.06.18-.41-.05-.39Z"/><path class="cls-3" d="M25.8,27.77c-3.35.49-6.66,1.17-10,1.83-1.57.31-3.16.6-4.72,1a10.16,10.16,0,0,0-3.35,1.27c-2.13,1.39-2.65,4-2.45,6.42a9.27,9.27,0,0,0,3.21,6.48A7.37,7.37,0,0,0,15.76,46c.33-.14.09-.65-.24-.56a7.22,7.22,0,0,1-7.93-2.72c-1.71-2.41-2.43-6.57-.67-9.14s5.72-2.66,8.37-3.2c3.54-.73,7.1-1.43,10.6-2.34.19,0,.1-.31-.08-.29Z"/><path class="cls-3" d="M14.92,46.06c-.3,4.22,6,7.12,9.27,4.81,1.87-1.32,2.73-3.81,3.31-5.92A26,26,0,0,0,28.37,37a39,39,0,0,0-1.57-9.27.3.3,0,0,0-.57.16c1.62,5.64,2.32,11.81.52,17.5-.89,2.81-2.38,5.94-5.84,5.6-2.57-.26-5.59-2.08-5.53-5,0-.3-.44-.29-.46,0Z"/><path class="cls-4" d="M26.59,66.53a51.2,51.2,0,0,0,1.56-5.48.14.14,0,0,0-.27-.08,51.41,51.41,0,0,0-1.67,5.46.19.19,0,0,0,.37.1Z"/><path class="cls-4" d="M28.69,59.09a6.58,6.58,0,0,0-.08-1.79.09.09,0,0,0-.17,0,6.57,6.57,0,0,0-.08,1.79.16.16,0,0,0,.32,0Z"/><path class="cls-4" d="M29,55.55a4.94,4.94,0,0,1,.27-1.75.12.12,0,0,0-.21-.09,3,3,0,0,0-.34,1.83c0,.18.3.18.28,0Z"/><path class="cls-4" d="M29.49,52.49c.14-2,.38-4.08.33-6.11,0-.13-.22-.17-.24,0-.29,2-.3,4.1-.4,6.14,0,.2.3.2.31,0Z"/><path class="cls-4" d="M33.2,35.6a23.25,23.25,0,0,0,.13,6.15c0,.14.23.1.24,0,.15-2,0-4.09,0-6.12a.17.17,0,0,0-.34,0Z"/><path class="cls-4" d="M35.76,39.78A37.25,37.25,0,0,0,36,45c0,.12.18.07.19,0A37.05,37.05,0,0,0,36,39.78c0-.16-.25-.16-.24,0Z"/><path class="cls-4" d="M37.91,40.91a15.14,15.14,0,0,0,1,5.69.11.11,0,0,0,.21-.06c-.21-1.9-.82-3.72-1-5.64,0-.12-.2-.13-.19,0Z"/><path class="cls-4" d="M41.41,43.73l.35.77a2,2,0,0,0,.37.66.1.1,0,0,0,.17-.07,1.9,1.9,0,0,0-.24-.7l-.38-.82c-.09-.19-.37,0-.28.16Z"/><path class="cls-4" d="M45.44,41.3c1.28-.37,2.63-.56,3.89-1a.12.12,0,0,0,0-.24,13.64,13.64,0,0,0-4,.87.18.18,0,0,0,.1.34Z"/><path class="cls-4" d="M43.88,38.72c1.76-.48,3.58-.87,5.29-1.51a.1.1,0,0,0-.05-.19c-1.8.32-3.57.91-5.33,1.39a.16.16,0,0,0,.09.31Z"/><path class="cls-4" d="M40.28,36.3c2.18-.82,4.45-1.37,6.62-2.19a.11.11,0,0,0-.06-.22A35.75,35.75,0,0,0,40.21,36c-.17.07-.1.34.08.28Z"/><path class="cls-4" d="M38.54,34.13a31.63,31.63,0,0,0,4.38-1.77.11.11,0,0,0-.09-.2,31.39,31.39,0,0,0-4.38,1.66c-.19.08-.11.38.08.31Z"/><path class="cls-4" d="M36.78,31.89c1.18-.44,2.42-.82,3.55-1.36.14-.07,0-.29-.11-.25-1.2.33-2.37.85-3.54,1.29-.2.08-.12.4.09.33Z"/><path class="cls-4" d="M24.31,34.74c.77,1.61,1.33,3.31,2.09,4.91,0,.1.2,0,.18-.07a21.24,21.24,0,0,0-2-5c-.09-.17-.33,0-.25.15Z"/><path class="cls-4" d="M22.78,37.07c.38,1.08.73,2.17,1,3.28s.48,2.26.87,3.33c0,.12.25.12.24,0A22.71,22.71,0,0,0,23.09,37c-.07-.19-.38-.11-.31.08Z"/><path class="cls-4" d="M21.24,40.8c.28,1.8.4,3.66.79,5.44a.11.11,0,0,0,.22,0,26.62,26.62,0,0,0-.7-5.5c0-.21-.35-.12-.32.09Z"/><path class="cls-4" d="M19.2,45.3A30.25,30.25,0,0,0,19.9,49c0,.16.31.14.3,0a30.67,30.67,0,0,0-.63-3.75c0-.25-.42-.14-.37.1Z"/><path class="cls-4" d="M10.55,43.49a12.36,12.36,0,0,0,3.86-1.55c.09-.06,0-.24-.08-.2a33.32,33.32,0,0,1-3.87,1.42.17.17,0,0,0,.09.33Z"/><path class="cls-4" d="M11.5,39.09c1.5-.48,3-.9,4.5-1.48a.11.11,0,0,0-.06-.2c-1.52.39-3,.95-4.51,1.43-.16.05-.09.3.07.25Z"/><path class="cls-4" d="M10.19,35.81c2.41-.31,4.9-.48,7.27-1a.11.11,0,0,0,0-.21c-2.43.1-4.88.58-7.28.91-.17,0-.13.33,0,.31Z"/><path class="cls-4" d="M18.55,32.89a12.22,12.22,0,0,0,1.45,0,.16.16,0,0,0,0-.32,12.22,12.22,0,0,0-1.45,0,.19.19,0,0,0,0,.39Z"/><path class="cls-4" d="M12.16,25.46a19.46,19.46,0,0,0,6.61-2,.12.12,0,0,0-.09-.21,65,65,0,0,1-6.59,1.95c-.19,0-.11.31.08.28Z"/><path class="cls-4" d="M8.79,23.71a20.12,20.12,0,0,0,6.46-2.95.11.11,0,0,0-.11-.19A49.82,49.82,0,0,1,8.7,23.41a.15.15,0,0,0,.08.3Z"/><path class="cls-4" d="M5.71,20.89a17.12,17.12,0,0,0,5.95-2.47.08.08,0,0,0-.08-.14A30.73,30.73,0,0,1,5.63,20.6c-.18,0-.11.33.08.29Z"/><path class="cls-4" d="M4.12,18.23a46,46,0,0,0,4.83-2A.1.1,0,0,0,8.87,16,45.6,45.6,0,0,0,4,17.92c-.19.08-.11.39.09.31Z"/><path class="cls-4" d="M4.63,15.95A27.56,27.56,0,0,0,6.9,14.13a.14.14,0,0,0-.16-.21,27.08,27.08,0,0,0-2.3,1.7c-.19.15,0,.48.19.33Z"/><path class="cls-4" d="M9.48,6.18c.8,1.44,1.53,3,2.44,4.33a.11.11,0,0,0,.18-.11C11.43,8.9,10.54,7.47,9.75,6c-.09-.17-.36,0-.26.15Z"/><path class="cls-4" d="M12.8,5.58c.63,1.26,1.22,2.54,1.75,3.85.45,1.11.77,2.32,1.32,3.38.07.13.25,0,.23-.1a16.27,16.27,0,0,0-1.27-3.59c-.54-1.26-1.13-2.49-1.77-3.7-.09-.17-.35,0-.26.15Z"/><path class="cls-4" d="M16.64,6.88a32.26,32.26,0,0,1,1.73,4.22c.44,1.35.67,2.78,1.15,4.11,0,.12.23.11.23,0a15.39,15.39,0,0,0-1-4.35A33,33,0,0,0,17,6.69c-.1-.21-.41,0-.31.18Z"/><path class="cls-4" d="M20.79,10.86a55.2,55.2,0,0,1,2,7.23.15.15,0,0,0,.29,0,23.81,23.81,0,0,0-1.94-7.28c-.09-.21-.43-.12-.35.1Z"/><path class="cls-4" d="M32.08,19.77a15.41,15.41,0,0,0-2.55-5.15c-.08-.1-.2,0-.16.12.38.87.88,1.68,1.3,2.54s.74,1.75,1.19,2.58a.12.12,0,0,0,.22-.09Z"/><path class="cls-4" d="M33.39,17.36c-.33-1.8-.65-3.6-1-5.39a38,38,0,0,0-1.11-5.35c0-.09-.17-.08-.17,0a37.16,37.16,0,0,0,.9,5.25c.36,1.85.74,3.7,1.1,5.55,0,.17.29.1.26-.07Z"/><path class="cls-4" d="M35,12.75q-.2-2.21-.33-4.42c-.08-1.47,0-3-.21-4.43a.1.1,0,0,0-.2,0,54.09,54.09,0,0,0,.44,8.85c0,.19.32.19.3,0Z"/><path class="cls-4" d="M37.86,10.17c.11-1.76.3-3.54.27-5.31,0-.13-.21-.17-.23,0-.25,1.76-.29,3.56-.41,5.34,0,.24.35.23.37,0Z"/><path class="cls-4" d="M34.29,22.18a26.8,26.8,0,0,0,8.4,1c.13,0,.19-.23,0-.25-1.28-.19-2.59-.19-3.87-.34a41.56,41.56,0,0,1-4.47-.76c-.22,0-.32.29-.09.34Z"/><path class="cls-4" d="M37.48,19.92c1.59.22,3.17.39,4.77.52a27.48,27.48,0,0,0,5.11.13.11.11,0,0,0,0-.23c-1.62-.22-3.29-.17-4.92-.28s-3.27-.29-4.9-.5c-.21,0-.26.34-.05.37Z"/><path class="cls-4" d="M39.64,17a21.23,21.23,0,0,0,7.74-.14.12.12,0,0,0,0-.23,49.18,49.18,0,0,1-7.71.09c-.18,0-.17.26,0,.28Z"/><path class="cls-4" d="M41.72,14.54a60.19,60.19,0,0,0,6.76-.09.1.1,0,0,0,0-.2,60.19,60.19,0,0,0-6.76-.09.19.19,0,0,0,0,.38Z"/><path class="cls-4" d="M43.86,10.78c1.29-.24,2.6-.41,3.86-.77.15,0,.12-.29,0-.27-1.32.12-2.63.42-3.93.66-.25,0-.15.43.11.39Z"/></g></g></svg>