<svg xmlns="http://www.w3.org/2000/svg" viewBox="0 0 319.07 57.38"><defs><style>.cls-1{fill:#333;}</style></defs><title>text</title><g id="圖層_2" data-name="圖層 2"><g id="圖層_1-2" data-name="圖層 1"><path class="cls-1" d="M4.91,2.18a11.94,11.94,0,0,1-1.28-.1C2.94,2,2.53,2,2.37,2c-.73,0-1.1.45-1.1,1.33v4.4c0,.45,0,2.16.1,5.1s.1,4.51.1,4.75,0,.79.08,1.41.08,1,.08,1a1.28,1.28,0,0,1-.2.65.69.69,0,0,1-.49.29c-.45,0-.67-.35-.69-1C.16,17.74.12,16.57.12,16.33c0-1.47,0-3.53-.06-6.16S0,6.1,0,5.77C0,5.61,0,5,0,4V2.24Q0,1,.82.84A13.42,13.42,0,0,1,3.53.65c1.34,0,2,.26,2,.79S5.34,2.18,4.91,2.18Z"/><path class="cls-1" d="M15.83,12.82a15.75,15.75,0,0,1-2.32.57h-.14c-.08,0-.16-.08-.24-.22a.45.45,0,0,1-.1-.33.71.71,0,0,1,.27-.55,17.09,17.09,0,0,1,1.88-.65,3.47,3.47,0,0,1-.69-1.79c0-.49,0-1,0-1.59-.73.18-1.45.35-2.1.49a10,10,0,0,1-1.16.2c-.22,0-.41,0-.55,0s-.43-.2-.47-.57c0-.16.12-.31.41-.45s.35-.12.61-.2q2.75-.49,5.38-1.16.12-.55.18-1a9,9,0,0,0,.1-1.35c0-.12,0-.24,0-.35A28.62,28.62,0,0,1,13,4.53c-.31,0-.45-.18-.45-.59a.46.46,0,0,1,.43-.51,19.53,19.53,0,0,0,3.73-.71,2.75,2.75,0,0,1-.08-.35A8.75,8.75,0,0,0,16,1.06a2.16,2.16,0,0,1-.12-.35.54.54,0,0,1,.45-.43h.14c.18,0,.35.18.47.51a3.16,3.16,0,0,1,.61,1.35c0,.12,0,.24.06.33,1-.24,2.14-.53,3.4-.9.29,0,.45.08.49.22s0,.16,0,.24a.71.71,0,0,1-.26.29,11,11,0,0,1-2.65,1.1,7.56,7.56,0,0,1-.82.18c0,.16,0,.31,0,.45a9.09,9.09,0,0,1-.25,2.28C20.5,5.63,22.76,5,24.4,4.42a.33.33,0,0,1,.29.16s0,.1,0,.18a.61.61,0,0,1-.18.39,12.91,12.91,0,0,1-3.77,1.55,2,2,0,0,1,.22.88A4.81,4.81,0,0,1,20.2,10c-.12.16-.22.29-.33.41a.85.85,0,0,0,.33-.06,7.78,7.78,0,0,1,1.73-.24.63.63,0,0,1,.35.2.64.64,0,0,1,.14.33c0,.16-.12.29-.37.39-.94.29-2.12.63-3.57,1,0,.55,0,1.08,0,1.59v1.2a54.88,54.88,0,0,0,5.81-1.75.39.39,0,0,1,.29.14s0,.1,0,.16a.53.53,0,0,1-.18.37c-.77.65-2.75,1.41-5.93,2.28,0,.61,0,1.18,0,1.69,0,1.35-.06,2.36-.14,3.08-.1.35-.29.53-.53.53s-.35-.14-.35-.43c0-.71.08-1.65.08-2.83,0-.51,0-1.1,0-1.81-1.45.41-2.81.75-4.12,1l-1,.2-.53,0c-.29,0-.43-.2-.47-.59,0-.14.12-.29.39-.43a5.71,5.71,0,0,1,.61-.18c1.75-.35,3.47-.75,5.14-1.24V13.64c0-.41,0-.86-.06-1.3ZM19.77,7c-.61.18-1.24.35-1.92.49s-1.59.39-2.34.55a.25.25,0,0,0,0,.1,10.38,10.38,0,0,0-.08,1.41,3.49,3.49,0,0,0,.39,1.3,3.43,3.43,0,0,0,.22.55l2.08-.55.18-.12a5.34,5.34,0,0,0,.82-.84,4.74,4.74,0,0,0,.73-1.77,3.94,3.94,0,0,0,0-.49A1.39,1.39,0,0,0,19.77,7Z"/><path class="cls-1" d="M33.67,17.84a31.3,31.3,0,0,0,5.28,1.45c.69.12,1.47.24,2.32.33s1.35.08,1.92.08a14.19,14.19,0,0,0,1.75-.12,8.45,8.45,0,0,0,1.65-.33,4.86,4.86,0,0,1,1-.14c.22,0,.35.06.37.18a.56.56,0,0,1-.06.27,1.92,1.92,0,0,1-.31.22,14.84,14.84,0,0,1-5.18.82,30.17,30.17,0,0,1-10.29-2.16,17.43,17.43,0,0,1-1.85-.86,5.15,5.15,0,0,1-.86-.59.29.29,0,0,1-.1-.27.66.66,0,0,1,.2-.49.47.47,0,0,1,.33-.12,1.15,1.15,0,0,1,.31.08c.33.16.69.35,1.14.55a4.3,4.3,0,0,0,.59-2.28,1.56,1.56,0,0,0-.37-.88,1.46,1.46,0,0,1-.26-.77,2.49,2.49,0,0,1,.59-1.43,1,1,0,0,0,.26-.47,2.9,2.9,0,0,0-.26-1c-.16-.29-.35-.63-.53-1,0-.29.18-.45.55-.45a.64.64,0,0,1,.37.18A3,3,0,0,1,33,10.76a4.31,4.31,0,0,1-.79,2,3.16,3.16,0,0,1,.61,1.85A3.81,3.81,0,0,1,32,17.1,16.18,16.18,0,0,0,33.67,17.84Zm-.61-11a.91.91,0,0,1-.63-.37,4.27,4.27,0,0,0-1.77-.9c-.16-.06-.26-.1-.29-.14a.74.74,0,0,1,0-.33.93.93,0,0,1,0-.2c0-.2.22-.31.53-.33a2.8,2.8,0,0,1,1.22.35,4.16,4.16,0,0,1,1.22,1,1.34,1.34,0,0,1,.08.39C33.38,6.69,33.26,6.85,33.05,6.85Zm11,4.59a7.72,7.72,0,0,1-1.61.71,5.84,5.84,0,0,1-.65.2c0,.67-.06,1.28-.1,1.85,2.41-.59,4.28-1.12,5.63-1.57a.39.39,0,0,1,.31.16s0,.1,0,.16a.7.7,0,0,1-.2.41c-.73.55-2.59,1.2-5.59,1.94a.9.9,0,0,1-.29.06c-.12,1-.29,1.81-.45,2.59,0,.33-.2.49-.47.49s-.41-.16-.41-.49c.12-.84.25-1.61.35-2.34l-3.38.79c-.45.08-.78.12-1,.14a2.5,2.5,0,0,1-.53,0q-.37,0-.43-.55c0-.14.1-.29.35-.41s.35-.12.61-.2c1.55-.29,3-.61,4.48-1,.06-.57.1-1.16.12-1.79a25.22,25.22,0,0,1-2.51.73,3.05,3.05,0,0,1-.65.16h-.1a.5.5,0,0,1-.26-.47.38.38,0,0,1,.16-.27l.18-.06A13,13,0,0,1,37.4,10a2.75,2.75,0,0,0-.9-1.47c-.08,0-.1-.12-.1-.26a.49.49,0,0,1,.2-.37.7.7,0,0,1,.37-.1,1.19,1.19,0,0,1,.27,0,1.9,1.9,0,0,1,.37.35,4.24,4.24,0,0,1,.61-.29,15.1,15.1,0,0,1,2.43-.75c0-.08,0-.14,0-.2-.08-.47-.14-.92-.2-1.33l-1.61.51a2.7,2.7,0,0,1-.51.1,2.64,2.64,0,0,1-.39,0c-.2,0-.31-.14-.33-.41,0-.1.08-.2.29-.33l.43-.12c.65-.16,1.3-.37,2-.57-.06-.29-.12-.55-.2-.82A.82.82,0,0,1,40,3.73c.06-.27.2-.41.41-.43h.12q.3,0,.49.49c.08.24.14.49.22.75,1-.35,1.81-.65,2.43-.9a16.69,16.69,0,0,0,1.61-2.24c-1,.16-3.44.71-7.44,1.69a2.37,2.37,0,0,1-.67.12v.27a6.79,6.79,0,0,1-.18,1.45A6,6,0,0,1,36.54,6a1.83,1.83,0,0,1-.26.49.53.53,0,0,1-.45.16c-.18,0-.26-.1-.26-.31a2.19,2.19,0,0,1,.14-.55,5,5,0,0,0,.37-1.14,4.89,4.89,0,0,0,.1-.9A5.18,5.18,0,0,0,36,2.36.82.82,0,0,1,35.87,2,.6.6,0,0,1,36,1.51a.43.43,0,0,1,.31-.14.63.63,0,0,1,.35.14,1.27,1.27,0,0,1,.24.35c0,.16.06.33.1.49a1.88,1.88,0,0,1,.45-.16c1.33-.35,3.3-.77,5.91-1.26A14.55,14.55,0,0,1,46,.51l.24,0a.53.53,0,0,1,.29.43c0,.71-.69,1.67-2.08,2.89L44,4.24a.62.62,0,0,1-.31.14,11.48,11.48,0,0,1-2.26,1c.08.41.14.88.2,1.37,0,.1,0,.2,0,.29.2,0,.43-.06.63-.1l1.2-.06h.49c1.26.12,1.92.71,1.92,1.81a3.29,3.29,0,0,1-1.75,2.71Zm-5.42-1.12c.82-.2,1.55-.41,2.22-.61,0-.61-.08-1.2-.14-1.79A18,18,0,0,0,38,8.79a.44.44,0,0,0,.06.1,4.64,4.64,0,0,1,.33,1.47A1.59,1.59,0,0,0,38.64,10.31Zm2.26,1.61V11c0-.27,0-.53,0-.77l-2,.59a4.53,4.53,0,0,1-.51.1c0,.14,0,.29,0,.41,0,.41,0,.79,0,1.2C39.31,12.37,40.13,12.15,40.9,11.93Zm.92-.29c.41-.12.77-.27,1.14-.41l.37-.12a4,4,0,0,0,1.43-1.55,2.39,2.39,0,0,0,.18-.84,1.34,1.34,0,0,0-1.39-1.18c-.61,0-1.24.08-1.86.16,0,.57.06,1.14.1,1.67a4.79,4.79,0,0,0,.82-.31,2,2,0,0,1,.75-.24.19.19,0,0,1,.14.06.38.38,0,0,1,.12.14.39.39,0,0,1-.14.24,6.63,6.63,0,0,1-1.28.57L41.8,10c0,.33,0,.63,0,.94Z"/><path class="cls-1" d="M59,6.56A13.16,13.16,0,0,1,62.67,6a3.2,3.2,0,0,1,1.57.39,1.43,1.43,0,0,1,.84.77,2.17,2.17,0,0,1,.2.92A4.31,4.31,0,0,1,64.67,10a7.3,7.3,0,0,1-1.39,1.61,1.54,1.54,0,0,0,.22.16.72.72,0,0,1,.12.33c0,.14-.12.27-.33.37-.67.16-1.55.39-2.61.63.06.61.14,1.35.24,2.16,3.4-.59,6.08-1.12,8-1.57a.35.35,0,0,1,.29.16s0,.08,0,.14a.49.49,0,0,1-.18.35c-1,.57-3.71,1.22-8.07,2,0,.65,0,1.33,0,2.1,0,.47,0,1.16,0,2.06,0,.24-.08.49-.1.71s-.27.57-.53.57-.49-.2-.49-.57,0-.77,0-1.3c0-.8.06-1.3.06-1.51v-1.9c-2.12.37-4.16.71-6.08,1-.65.08-1.12.12-1.41.14s-.37,0-.51,0-.41-.2-.45-.53c0-.16.12-.29.39-.41a5.6,5.6,0,0,1,.57-.2c2.55-.33,5-.71,7.44-1.14,0-.65-.12-1.35-.22-2.08-.27.06-.53.12-.77.16-.67.18-1.14.31-1.39.35a.43.43,0,0,1-.39.37.49.49,0,0,1-.47-.33,15.63,15.63,0,0,1-.86-4.77c0-.59,0-1.24,0-2a.51.51,0,0,1,.57-.39.5.5,0,0,1,.47.43c0,.08,0,.14,0,.18A16.31,16.31,0,0,1,59,6.56ZM57.22,6a.3.3,0,0,1-.29-.2,8.27,8.27,0,0,1-.1-1.45V4.3a2.66,2.66,0,0,1-.53.06,18.75,18.75,0,0,1-2.39.16h-.75A.43.43,0,0,1,52.78,4v-.2a.77.77,0,0,1,.47-.49.79.79,0,0,0,.33,0,28.5,28.5,0,0,0,3.14-.16,1.12,1.12,0,0,1-.06-.35,2.54,2.54,0,0,0-.33-.75A4.46,4.46,0,0,1,56,1.67a.76.76,0,0,1-.12-.43A.36.36,0,0,1,56.08,1a.65.65,0,0,1,.41-.14.58.58,0,0,1,.33.18,1.76,1.76,0,0,1,.47.61,2.8,2.8,0,0,1,.37,1,4.28,4.28,0,0,0,0,.53c.47-.06,1-.12,1.45-.2,1.2-.16,2.43-.39,3.69-.63a4.08,4.08,0,0,0-.29-1,.88.88,0,0,1-.22-.53.73.73,0,0,1,.14-.49,1,1,0,0,1,.33-.1.71.71,0,0,1,.37.1,1.63,1.63,0,0,1,.24.39,3.78,3.78,0,0,1,.47,1.45q1.07-.21,2.2-.49A9.47,9.47,0,0,0,67,1.37a1.21,1.21,0,0,1,.39.1c.14.1.22.2.22.29a.77.77,0,0,1-.1.31,1.43,1.43,0,0,1-.37.24c-1,.29-2.06.57-3.24.82a5,5,0,0,1-.18,1,5,5,0,0,1-.43.88A1.16,1.16,0,0,1,63,5.4a.59.59,0,0,1-.41.18c-.16,0-.24-.12-.24-.33a1.28,1.28,0,0,1,.14-.43,5.92,5.92,0,0,0,.33-1,2.94,2.94,0,0,0,.08-.57,5.22,5.22,0,0,1-.82.16q-2.11.43-4.34.73a12.6,12.6,0,0,1-.06,1.53C57.63,5.93,57.49,6,57.22,6Zm1.18,4.61A9.89,9.89,0,0,1,57,11a8.13,8.13,0,0,0,.18,1,7.33,7.33,0,0,0,.16.86,38.77,38.77,0,0,1,4.57-1.1.66.66,0,0,1,.12-.16,7.8,7.8,0,0,0,2-2.43A4.12,4.12,0,0,0,64.3,8c0-.61-.51-.94-1.49-.94a14.88,14.88,0,0,0-6.08,1.53v.22a11.21,11.21,0,0,0,.12,1.49,38.36,38.36,0,0,1,4.53-1.22,8,8,0,0,1,1.18-.14.62.62,0,0,1,.22.12,1,1,0,0,1,.08.22c0,.08-.08.16-.22.22C61.67,9.76,60.26,10.13,58.41,10.62Z"/><path class="cls-1" d="M77.38,17.55c0,1,0,1.57,0,1.79q0,1.19-.79,1.41a13.64,13.64,0,0,1-2.71.18c-1.37,0-2-.27-2-.77s.2-.75.65-.75a12.64,12.64,0,0,1,1.28.1c.67.06,1.1.1,1.26.1q1.1,0,1.1-1.35v-4.4c0-.45,0-2.14-.1-5.1s-.1-4.51-.1-4.75,0-.79-.08-1.41-.08-1-.08-1A1.12,1.12,0,0,1,76,.94a.63.63,0,0,1,.49-.29c.43,0,.65.35.69,1,.08,2.16.12,3.34.12,3.57,0,1.51,0,3.55.06,6.16s.06,4.1.06,4.4Z"/><path class="cls-1" d="M100.45,3a7.81,7.81,0,0,1-.57,1.2c-.41.65-1,1.47-1.61,2.45,0,.08-.08.12-.1.16a.48.48,0,0,1,.27.22A18.51,18.51,0,0,1,98.6,9.4c0,2.71,0,5.28-.08,7.71,0,1-.06,2-.08,2.81-.06.24-.2.39-.41.39s-.39-.16-.39-.47c0-.79,0-2.26,0-4.38v-6c0-.65,0-1.24,0-1.81-.41.61-.84,1.24-1.28,1.85s-.88,1.26-1.37,2a.41.41,0,0,1-.37.22c-.24,0-.37-.1-.37-.33a.56.56,0,0,1,.14-.37c.22-.39.53-.88.92-1.49s1.06-1.71,1.79-2.92c.57-1,1.18-2,1.83-3,.2-.39.41-.77.59-1.16l.2-.37a1.65,1.65,0,0,1,.51-.08.44.44,0,0,1,.39.43A1.44,1.44,0,0,1,100.45,3Zm6.42,5.06c-.49.2-1,.41-1.43.57A43.88,43.88,0,0,0,108,15a16.5,16.5,0,0,0,2.65,4.22c0-.65,0-1.53-.1-2.61a.21.21,0,0,1,.2-.22.59.59,0,0,1,.45.24,10.47,10.47,0,0,1,.49,2.18,10.13,10.13,0,0,1,.12,1.53,1.31,1.31,0,0,1-.18.45.43.43,0,0,1-.31.14,1.41,1.41,0,0,1-.9-.39A19.52,19.52,0,0,1,107,15.8a45,45,0,0,1-2.61-6.28A4.88,4.88,0,0,1,104.2,9a10.24,10.24,0,0,1-1.16.33,10.57,10.57,0,0,1-1.59.18H101a.4.4,0,0,1-.39-.45V8.85a.64.64,0,0,1,.43-.43,1.34,1.34,0,0,0,.31,0,10.15,10.15,0,0,0,2.61-.37q-.64-2.08-1.16-4.65a7.4,7.4,0,0,1-.16-1.37.43.43,0,0,1,.33-.41h.18a.44.44,0,0,1,.33.24c.47,1.57,1,3.22,1.45,5a6.73,6.73,0,0,0,.27.84,30.41,30.41,0,0,0,4.36-1.9l.57-.35a1.08,1.08,0,0,1,.41.1c.14.12.22.22.22.31a1.14,1.14,0,0,1-.08.31.88.88,0,0,1-.37.29A19.4,19.4,0,0,1,106.87,8.05Zm1-6.26a8.69,8.69,0,0,1,1.22.84,4.28,4.28,0,0,1,1,1,.67.67,0,0,1,.12.39c0,.16-.1.29-.22.33h-.06c-.08,0-.2-.06-.39-.22L107.71,3c-.49-.27-1-.53-1.41-.82-.16,0-.25-.22-.25-.53s.2-.37.49-.39A2.85,2.85,0,0,1,107.85,1.79Z"/><path class="cls-1" d="M131.06,7.71c-.88.77-3.14,1.69-6.81,2.75q-.61.18-1.16.31a1.29,1.29,0,0,1-.12.37c-.31.49-.65,1-1,1.49a.77.77,0,0,1,.22.16,1.15,1.15,0,0,1,.2.45c0,.51,0,1,0,1.45a8.24,8.24,0,0,1-.27,2c-.12,1-.18,1.65-.22,1.94a4.6,4.6,0,0,0,.08,1.1,13.24,13.24,0,0,0,3-3.16c.1-.22.24-.35.41-.35a.43.43,0,0,1,.33.45,1.34,1.34,0,0,1-.1.39,10,10,0,0,1-2.3,3.22,3,3,0,0,1-1.69.75c-.35,0-.59-.45-.71-1.3,0-.39,0-.75,0-1.1a11.09,11.09,0,0,1,.22-1.9,8,8,0,0,0,.29-2,8.56,8.56,0,0,0-.08-1.16v-.18a40.56,40.56,0,0,1-3.85,3.93c-.45.37-.86.71-1.18,1a.78.78,0,0,1-.39.2c-.25,0-.37-.14-.37-.35a.52.52,0,0,1,.22-.45,36.23,36.23,0,0,0,5.57-6.05c.12-.16.22-.33.33-.49-1.08.33-2.1.61-3.08.86l-1.18.2a5,5,0,0,1-.53,0c-.29,0-.43-.2-.47-.57,0-.16.12-.31.39-.43l.61-.2c2.08-.45,4.12-1,6.08-1.59.16-.9.31-1.81.39-2.71-1,.29-1.94.57-2.9.82a3.23,3.23,0,0,1-.81.14h-.1a.55.55,0,0,1-.37-.55.42.42,0,0,1,.22-.33,2.38,2.38,0,0,1,.73-.18c1.18-.29,2.28-.57,3.28-.88,0-.33,0-.65,0-1,0-.49,0-1-.08-1.47-1.1.31-2.14.57-3.12.82-.35.08-.59.12-.73.14a2.43,2.43,0,0,1-.51,0q-.43,0-.49-.55c0-.16.12-.33.41-.47a4.18,4.18,0,0,1,.59-.18c1.26-.24,2.51-.55,3.69-.88A12.55,12.55,0,0,0,123.38,1a1.14,1.14,0,0,1-.14-.47c0-.1.08-.2.24-.29a1.37,1.37,0,0,1,.53-.1c.12,0,.22.12.33.37A10,10,0,0,1,124.78,2c1.55-.41,2.79-.8,3.73-1.14a.35.35,0,0,1,.29.16s0,.1,0,.16a.61.61,0,0,1-.18.39A11.69,11.69,0,0,1,124.91,3c0,.35,0,.67,0,1,0,.53,0,1,0,1.45.65-.2,1.24-.41,1.81-.63a4.71,4.71,0,0,1,1.16-.33.58.58,0,0,1,.26.08.35.35,0,0,1,.2.22.65.65,0,0,1-.2.39,7.59,7.59,0,0,1-2,.84c-.45.16-.88.29-1.28.41,0,.41-.06.8-.1,1.14q-.18,1-.31,1.59c2.75-.82,4.91-1.55,6.48-2.18a.44.44,0,0,1,.33.14v.18A.54.54,0,0,1,131.06,7.71Zm3.36,13.17a.35.35,0,0,1-.31.29h-.47a4.23,4.23,0,0,1-1.18-.35,9.26,9.26,0,0,1-2.53-1.69,19.44,19.44,0,0,1-3-3.06c-.78-.92-1.63-2-2.57-3.32a.38.38,0,0,1-.14-.27.69.69,0,0,1,.14-.45.41.41,0,0,1,.35-.16.5.5,0,0,1,.31.1,6.84,6.84,0,0,1,.51.53c.41.49.86,1,1.33,1.61a14.1,14.1,0,0,0,1.41-1.49c.35-.43.71-.88,1.08-1.37a.25.25,0,0,1,.25-.16.5.5,0,0,1,.31.1.63.63,0,0,1,.29.39A.87.87,0,0,1,130,12a9.19,9.19,0,0,1-1.45,1.75,12.12,12.12,0,0,1-1.18,1c.45.57.9,1.1,1.37,1.61A20,20,0,0,0,133.24,20c.29.14.55.29.82.45S134.43,20.71,134.43,20.88Z"/><path class="cls-1" d="M144.84,12.82a15.75,15.75,0,0,1-2.32.57h-.14c-.08,0-.16-.08-.24-.22a.45.45,0,0,1-.1-.33.71.71,0,0,1,.27-.55,17.09,17.09,0,0,1,1.88-.65,3.47,3.47,0,0,1-.69-1.79c0-.49,0-1,0-1.59-.73.18-1.45.35-2.1.49a10,10,0,0,1-1.16.2c-.22,0-.41,0-.55,0s-.43-.2-.47-.57c0-.16.12-.31.41-.45s.35-.12.61-.2q2.75-.49,5.38-1.16.12-.55.18-1a9,9,0,0,0,.1-1.35c0-.12,0-.24,0-.35a28.62,28.62,0,0,1-3.87.67c-.31,0-.45-.18-.45-.59a.46.46,0,0,1,.43-.51,19.53,19.53,0,0,0,3.73-.71,2.75,2.75,0,0,1-.08-.35,8.75,8.75,0,0,0-.55-1.3,2.16,2.16,0,0,1-.12-.35.54.54,0,0,1,.45-.43h.14c.18,0,.35.18.47.51a3.16,3.16,0,0,1,.61,1.35c0,.12,0,.24.06.33,1-.24,2.14-.53,3.4-.9.29,0,.45.08.49.22s0,.16,0,.24a.71.71,0,0,1-.26.29,11,11,0,0,1-2.65,1.1,7.56,7.56,0,0,1-.82.18c0,.16,0,.31,0,.45a9.09,9.09,0,0,1-.25,2.28c2.94-.71,5.2-1.35,6.83-1.92a.33.33,0,0,1,.29.16s0,.1,0,.18a.61.61,0,0,1-.18.39,12.91,12.91,0,0,1-3.77,1.55,2,2,0,0,1,.22.88A4.81,4.81,0,0,1,149.2,10c-.12.16-.22.29-.33.41a.85.85,0,0,0,.33-.06,7.78,7.78,0,0,1,1.73-.24.63.63,0,0,1,.35.2.64.64,0,0,1,.14.33c0,.16-.12.29-.37.39-.94.29-2.12.63-3.57,1,0,.55,0,1.08,0,1.59v1.2a54.88,54.88,0,0,0,5.81-1.75.39.39,0,0,1,.29.14s0,.1,0,.16a.53.53,0,0,1-.18.37c-.77.65-2.75,1.41-5.93,2.28,0,.61,0,1.18,0,1.69,0,1.35-.06,2.36-.14,3.08-.1.35-.29.53-.53.53s-.35-.14-.35-.43c0-.71.08-1.65.08-2.83,0-.51,0-1.1,0-1.81-1.45.41-2.81.75-4.12,1l-1,.2-.53,0c-.29,0-.43-.2-.47-.59,0-.14.12-.29.39-.43a5.71,5.71,0,0,1,.61-.18c1.75-.35,3.47-.75,5.14-1.24V13.64c0-.41,0-.86-.06-1.3ZM148.77,7c-.61.18-1.24.35-1.92.49s-1.59.39-2.34.55a.25.25,0,0,0,0,.1,10.38,10.38,0,0,0-.08,1.41,3.49,3.49,0,0,0,.39,1.3,3.43,3.43,0,0,0,.22.55l2.08-.55.18-.12a5.34,5.34,0,0,0,.82-.84,4.74,4.74,0,0,0,.73-1.77,3.94,3.94,0,0,0,0-.49A1.39,1.39,0,0,0,148.77,7Z"/><path class="cls-1" d="M162.67,17.84a31.34,31.34,0,0,0,5.28,1.45c.69.12,1.47.24,2.32.33s1.35.08,1.92.08a14.19,14.19,0,0,0,1.75-.12,8.45,8.45,0,0,0,1.65-.33,4.84,4.84,0,0,1,1-.14c.22,0,.35.06.37.18a.57.57,0,0,1-.06.27,2,2,0,0,1-.31.22,14.84,14.84,0,0,1-5.18.82,30.17,30.17,0,0,1-10.29-2.16,17.43,17.43,0,0,1-1.85-.86,5.19,5.19,0,0,1-.86-.59.29.29,0,0,1-.1-.27.66.66,0,0,1,.2-.49.47.47,0,0,1,.33-.12,1.15,1.15,0,0,1,.31.08c.33.16.69.35,1.14.55a4.3,4.3,0,0,0,.59-2.28,1.56,1.56,0,0,0-.37-.88,1.46,1.46,0,0,1-.26-.77,2.48,2.48,0,0,1,.59-1.43,1,1,0,0,0,.26-.47,2.93,2.93,0,0,0-.26-1c-.16-.29-.35-.63-.53-1,0-.29.18-.45.55-.45a.64.64,0,0,1,.37.18,3.05,3.05,0,0,1,.77,2.12,4.32,4.32,0,0,1-.79,2,3.16,3.16,0,0,1,.61,1.85A3.8,3.8,0,0,1,161,17.1,16.38,16.38,0,0,0,162.67,17.84Zm-.61-11a.91.91,0,0,1-.63-.37,4.27,4.27,0,0,0-1.77-.9c-.16-.06-.26-.1-.29-.14a.74.74,0,0,1,0-.33.93.93,0,0,1,0-.2c0-.2.22-.31.53-.33a2.8,2.8,0,0,1,1.22.35,4.16,4.16,0,0,1,1.22,1,1.34,1.34,0,0,1,.08.39C162.38,6.69,162.26,6.85,162.06,6.85Zm11,4.59a7.72,7.72,0,0,1-1.61.71,5.84,5.84,0,0,1-.65.2c0,.67-.06,1.28-.1,1.85,2.41-.59,4.28-1.12,5.63-1.57a.39.39,0,0,1,.31.16s0,.1,0,.16a.7.7,0,0,1-.2.41c-.73.55-2.59,1.2-5.59,1.94a.9.9,0,0,1-.29.06c-.12,1-.29,1.81-.45,2.59,0,.33-.2.49-.47.49s-.41-.16-.41-.49c.12-.84.25-1.61.35-2.34l-3.38.79c-.45.08-.77.12-1,.14a2.5,2.5,0,0,1-.53,0q-.37,0-.43-.55c0-.14.1-.29.35-.41s.35-.12.61-.2c1.55-.29,3-.61,4.48-1,.06-.57.1-1.16.12-1.79a25.29,25.29,0,0,1-2.51.73,3.05,3.05,0,0,1-.65.16h-.1a.5.5,0,0,1-.26-.47.38.38,0,0,1,.16-.27l.18-.06A13,13,0,0,1,166.4,10a2.75,2.75,0,0,0-.9-1.47c-.08,0-.1-.12-.1-.26a.49.49,0,0,1,.2-.37.71.71,0,0,1,.37-.1,1.19,1.19,0,0,1,.27,0,1.9,1.9,0,0,1,.37.35,4.24,4.24,0,0,1,.61-.29,15.1,15.1,0,0,1,2.43-.75c0-.08,0-.14,0-.2-.08-.47-.14-.92-.2-1.33l-1.61.51a2.7,2.7,0,0,1-.51.1,2.65,2.65,0,0,1-.39,0c-.2,0-.31-.14-.33-.41,0-.1.08-.2.29-.33l.43-.12c.65-.16,1.3-.37,2-.57-.06-.29-.12-.55-.2-.82a.82.82,0,0,1-.08-.31c.06-.27.2-.41.41-.43h.12q.3,0,.49.49c.08.24.14.49.22.75,1-.35,1.81-.65,2.43-.9a16.79,16.79,0,0,0,1.61-2.24c-1,.16-3.45.71-7.44,1.69a2.37,2.37,0,0,1-.67.12v.27A6.79,6.79,0,0,1,166,4.93,6,6,0,0,1,165.54,6a1.81,1.81,0,0,1-.27.49.53.53,0,0,1-.45.16c-.18,0-.26-.1-.26-.31a2.15,2.15,0,0,1,.14-.55,5,5,0,0,0,.37-1.14,4.89,4.89,0,0,0,.1-.9A5.14,5.14,0,0,0,165,2.36a.82.82,0,0,1-.14-.41.6.6,0,0,1,.18-.45.43.43,0,0,1,.31-.14.63.63,0,0,1,.35.14,1.27,1.27,0,0,1,.24.35c0,.16.06.33.1.49a1.88,1.88,0,0,1,.45-.16c1.33-.35,3.3-.77,5.91-1.26A14.55,14.55,0,0,1,175,.51l.24,0a.53.53,0,0,1,.29.43c0,.71-.69,1.67-2.08,2.89l-.49.39a.62.62,0,0,1-.31.14,11.48,11.48,0,0,1-2.26,1c.08.41.14.88.2,1.37,0,.1,0,.2,0,.29.2,0,.43-.06.63-.1l1.2-.06h.49c1.26.12,1.92.71,1.92,1.81a3.29,3.29,0,0,1-1.75,2.71Zm-5.42-1.12c.82-.2,1.55-.41,2.22-.61,0-.61-.08-1.2-.14-1.79a17.92,17.92,0,0,0-2.75.88.44.44,0,0,0,.06.1,4.64,4.64,0,0,1,.33,1.47A1.59,1.59,0,0,0,167.64,10.31Zm2.26,1.61V11c0-.27,0-.53,0-.77l-2,.59a4.43,4.43,0,0,1-.51.1c0,.14,0,.29,0,.41,0,.41,0,.79,0,1.2C168.32,12.37,169.13,12.15,169.91,11.93Zm.92-.29c.41-.12.78-.27,1.14-.41l.37-.12a4,4,0,0,0,1.43-1.55,2.37,2.37,0,0,0,.18-.84,1.35,1.35,0,0,0-1.39-1.18c-.61,0-1.24.08-1.86.16,0,.57.06,1.14.1,1.67a4.79,4.79,0,0,0,.82-.31,2.05,2.05,0,0,1,.75-.24.19.19,0,0,1,.14.06.37.37,0,0,1,.12.14.39.39,0,0,1-.14.24,6.63,6.63,0,0,1-1.28.57l-.41.14c0,.33,0,.63,0,.94Z"/><path class="cls-1" d="M189,14l.75-.12q.31-1.25.61-2.87c.12-.65.25-1.33.35-2a13.59,13.59,0,0,0,.18-1.67,29.92,29.92,0,0,0-3.71.79.6.6,0,0,1-.49-.18.87.87,0,0,1-.16-.55,20.17,20.17,0,0,1,2.06-6.12.41.41,0,0,1,.41-.24c.26,0,.41.18.41.39a7.5,7.5,0,0,1-.65,2.18c.45-.06.9-.12,1.33-.2.73-.12,1.33-.24,1.73-.35a.43.43,0,0,1,.31.14s0,.08,0,.16a.56.56,0,0,1-.2.37,7,7,0,0,1-1.71.51l-1.47.29a.76.76,0,0,1-.26,0h-.1A12.78,12.78,0,0,0,187.68,7,32.45,32.45,0,0,1,191,6.34h.31a.71.71,0,0,1,.57.71v.49a31.14,31.14,0,0,1-1.26,6.2c1.71-.33,3.24-.65,4.55-.94,0-.26,0-.55,0-.86,0-.84,0-1.59.06-2.28-.53.24-1.18.53-1.94.82a.38.38,0,0,1-.41-.35V10a.38.38,0,0,1,.16-.27,8.11,8.11,0,0,1,1.3-.61c.43-.12.73-.22.9-.29,0-.86,0-1.57.08-2.18,0-.2,0-.43,0-.63l-1.83.67a.44.44,0,0,1-.45-.37V6.18a.38.38,0,0,1,.16-.27,12.32,12.32,0,0,1,1.34-.51l.88-.22A20.32,20.32,0,0,1,196.06,2a10.88,10.88,0,0,0-2.77.77c-.2,0-.33-.2-.33-.53a.42.42,0,0,1,.24-.39,11.36,11.36,0,0,1,1.49-.57A8.67,8.67,0,0,1,196.36,1c.45,0,.69.33.69.9a13.39,13.39,0,0,1-.43,2.26,32.63,32.63,0,0,0-.41,5.3c-.06,1-.1,2.06-.12,3.16.82-.16,1.53-.35,2.16-.51a.39.39,0,0,1,.29.14s0,.08,0,.14a.64.64,0,0,1-.16.39c-1.14.65-4.1,1.45-8.87,2.34-.59.12-1.14.22-1.67.31a5.55,5.55,0,0,1-.47,1.2,17.6,17.6,0,0,1-2.94,4.55.43.43,0,0,1-.29.14.4.4,0,0,1-.43-.45,1,1,0,0,1,.33-.59,23.27,23.27,0,0,0,2.57-4.63c-1.59.31-3.1.57-4.53.82a15,15,0,0,1-1.51.2,5.3,5.3,0,0,1-.55,0c-.27,0-.41-.2-.45-.59,0-.16.12-.31.39-.43l.61-.2c2.08-.29,4.1-.61,6-1,0-.18,0-.43.08-.71s.12-1,.24-1.75a22.93,22.93,0,0,0,.1-2.36.48.48,0,0,1,.37-.49h.22a.34.34,0,0,1,.31.22,1,1,0,0,1,.1.45c0,.61-.06,1.41-.16,2.41q-.18,1.13-.37,2.08C188,14.23,188.55,14.15,189,14ZM185.78,1.57a.43.43,0,0,1,.41.24,1.89,1.89,0,0,1,.08.27.7.7,0,0,1-.22.51,12.16,12.16,0,0,1-3,1.24v0c0,.31,0,.69,0,1.18s0,1.16,0,1.65a12.67,12.67,0,0,0,1.73-.82,1.08,1.08,0,0,1,.41-.16.55.55,0,0,1,.25.06.45.45,0,0,1,.18.22.66.66,0,0,1-.18.43,2.94,2.94,0,0,1-.69.43,17,17,0,0,1-1.67.75c0,.57,0,1.16,0,1.77v1.2A12.85,12.85,0,0,0,185,9.5a.9.9,0,0,1,.41-.22.85.85,0,0,1,.31.08.45.45,0,0,1,.18.22.67.67,0,0,1-.18.45,2.87,2.87,0,0,1-.79.57,16,16,0,0,1-1.83,1v.35c0,.53,0,.94,0,1.26,0,.65-.16,1-.45,1s-.39-.31-.43-1a7.42,7.42,0,0,1-.08-1.18c0-.88-.08-2-.12-3.34,0-.94-.06-2.06-.12-3.32,0-.24,0-.67,0-1.33a1,1,0,0,1-.33,0,.59.59,0,0,1-.45-.16.54.54,0,0,1-.18-.41.4.4,0,0,1,.31-.43,9.19,9.19,0,0,0,1.49-.27,9.19,9.19,0,0,0,2.83-1.2Zm6.4,14.21a.61.61,0,0,1,.2.08,18.42,18.42,0,0,1,4.2,3.49,2.52,2.52,0,0,1,.84,1.22c0,.29-.12.45-.35.45a.68.68,0,0,1-.41-.22c-.41-.33-.94-.77-1.57-1.37a25.68,25.68,0,0,0-3.49-2.81.39.39,0,0,1-.08-.24v-.14a.49.49,0,0,1,.18-.35.7.7,0,0,1,.31-.12Z"/><path class="cls-1" d="M209.34,12.82a15.75,15.75,0,0,1-2.32.57h-.14c-.08,0-.16-.08-.24-.22a.45.45,0,0,1-.1-.33.71.71,0,0,1,.27-.55,17.09,17.09,0,0,1,1.88-.65A3.47,3.47,0,0,1,208,9.85c0-.49,0-1,0-1.59-.73.18-1.45.35-2.1.49a10,10,0,0,1-1.16.2c-.22,0-.41,0-.55,0s-.43-.2-.47-.57c0-.16.12-.31.41-.45s.35-.12.61-.2q2.75-.49,5.38-1.16.12-.55.18-1a9,9,0,0,0,.1-1.35c0-.12,0-.24,0-.35a28.62,28.62,0,0,1-3.87.67c-.31,0-.45-.18-.45-.59a.46.46,0,0,1,.43-.51,19.53,19.53,0,0,0,3.73-.71,2.75,2.75,0,0,1-.08-.35,8.75,8.75,0,0,0-.55-1.3,2.16,2.16,0,0,1-.12-.35.54.54,0,0,1,.45-.43H210c.18,0,.35.18.47.51a3.16,3.16,0,0,1,.61,1.35c0,.12,0,.24.06.33,1-.24,2.14-.53,3.4-.9.29,0,.45.08.49.22S215,2,215,2a.71.71,0,0,1-.26.29,11,11,0,0,1-2.65,1.1,7.56,7.56,0,0,1-.82.18c0,.16,0,.31,0,.45a9.09,9.09,0,0,1-.25,2.28c2.94-.71,5.2-1.35,6.83-1.92a.33.33,0,0,1,.29.16s0,.1,0,.18a.61.61,0,0,1-.18.39,12.91,12.91,0,0,1-3.77,1.55,2,2,0,0,1,.22.88A4.81,4.81,0,0,1,213.7,10c-.12.16-.22.29-.33.41a.85.85,0,0,0,.33-.06,7.78,7.78,0,0,1,1.73-.24.63.63,0,0,1,.35.2.64.64,0,0,1,.14.33c0,.16-.12.29-.37.39-.94.29-2.12.63-3.57,1,0,.55,0,1.08,0,1.59v1.2a54.88,54.88,0,0,0,5.81-1.75.39.39,0,0,1,.29.14s0,.1,0,.16a.53.53,0,0,1-.18.37c-.77.65-2.75,1.41-5.93,2.28,0,.61,0,1.18,0,1.69,0,1.35-.06,2.36-.14,3.08-.1.35-.29.53-.53.53s-.35-.14-.35-.43c0-.71.08-1.65.08-2.83,0-.51,0-1.1,0-1.81-1.45.41-2.81.75-4.12,1l-1,.2-.53,0c-.29,0-.43-.2-.47-.59,0-.14.12-.29.39-.43a5.71,5.71,0,0,1,.61-.18c1.75-.35,3.47-.75,5.14-1.24V13.64c0-.41,0-.86-.06-1.3ZM213.27,7c-.61.18-1.24.35-1.92.49s-1.59.39-2.34.55a.25.25,0,0,0,0,.1A10.38,10.38,0,0,0,209,9.52a3.49,3.49,0,0,0,.39,1.3,3.43,3.43,0,0,0,.22.55l2.08-.55.18-.12a5.34,5.34,0,0,0,.82-.84,4.74,4.74,0,0,0,.73-1.77,3.94,3.94,0,0,0,0-.49A1.39,1.39,0,0,0,213.27,7Z"/><path class="cls-1" d="M226.54,6.6a9.86,9.86,0,0,0,2.59-1.28,2,2,0,0,1,.73-.45.64.64,0,0,1,.33.39,3.47,3.47,0,0,1-.31,1.16c-.12.37-.26.75-.45,1.2-.29.65-.55,1.28-.82,1.85a4.68,4.68,0,0,1,.47.45,7.07,7.07,0,0,0,2.34,2,.26.26,0,0,1,.14.24.46.46,0,0,1-.1.22,1.29,1.29,0,0,1-.18.22.68.68,0,0,1-.31.06,3.18,3.18,0,0,1-1.67-.94,5.64,5.64,0,0,1-1.1-1.1.09.09,0,0,0,0,.06c0,.33.08.65.14,1,.12.9.25,1.86.41,2.92a15.42,15.42,0,0,1,.12,1.81,9.1,9.1,0,0,1-.12,1.51c-.1.41-.18.71-.27,1s-.24.57-.45.57-.43-.14-.43-.39.08-.41.14-.73a8.17,8.17,0,0,0,.16-1.35,43.05,43.05,0,0,0-.33-4.32c0-.24-.06-.47-.1-.69-1.24,2.65-2.41,4.89-3.51,6.73a.62.62,0,0,1-.57.41c-.22,0-.35-.12-.37-.29a.33.33,0,0,1,.08-.24q3.73-8,5.5-11.93a8.12,8.12,0,0,1-3.61,1.49c-.43,0-.63-.2-.63-.61s.16-.43.49-.51A7.08,7.08,0,0,0,226.54,6.6Zm1.2-3.42a4.61,4.61,0,0,1-1.28-.47c-.14-.06-.2-.18-.2-.39a.69.69,0,0,1,.08-.37.57.57,0,0,1,.53-.29c.82.29,1.79.59,2.94.94a.45.45,0,0,1,.27.41c0,.31-.14.47-.37.47A8.21,8.21,0,0,1,227.74,3.18Zm5.77,16.29q-.24,0-.49-.55a25.8,25.8,0,0,1-.78-3.55,19.61,19.61,0,0,1-.26-3c0-.45.16-.67.51-.69s.53.16.53.47a4.32,4.32,0,0,0,0,.55,17.34,17.34,0,0,1,4.57-1.81,11.52,11.52,0,0,1,3.1-.51c.45,0,.67.53.67,1.45a22.77,22.77,0,0,1-.75,4.89,12.87,12.87,0,0,1-.65,1.85,1.61,1.61,0,0,1-1.49,1.14,1.92,1.92,0,0,1-1.24-.57,1.05,1.05,0,0,1-.27-.29c-.47.1-1,.22-1.45.35-.29.08-.55.18-.82.26l-.31,0a.54.54,0,0,1-.31-.14.63.63,0,0,1-.08-.18A.54.54,0,0,1,233.51,19.47Zm4.61-17.33A13.77,13.77,0,0,1,236,3.42,16.43,16.43,0,0,1,233.1,4.5a.57.57,0,0,1-.22,0,.34.34,0,0,1-.31-.2.87.87,0,0,1-.12-.49.44.44,0,0,1,.26-.39c.61-.2,1.12-.37,1.55-.49,1-.37,1.88-.71,2.67-1.08a5.12,5.12,0,0,1,.84-.45.45.45,0,0,1,.2-.06.56.56,0,0,1,.31.16c0,.06,0,.12,0,.2A.75.75,0,0,1,238.12,2.14Zm-4.89,12.94a6.13,6.13,0,0,0,.1.75l.2-.06a28.57,28.57,0,0,0,2.69-1.06c0-.27,0-.53-.06-.77a5.36,5.36,0,0,0-.33-1.26l-.51.2a10.73,10.73,0,0,1-2.2.86C233.17,14.21,233.19,14.66,233.23,15.08Zm.65-6.79c-.26-1-.49-1.83-.65-2.51a.57.57,0,0,1,.16-.31.37.37,0,0,1,.33-.18l.29,0a.89.89,0,0,1,.35.33c0,.16.08.37.14.61a13.82,13.82,0,0,1,3.24-1.35h.12a.66.66,0,0,1,.49.18.85.85,0,0,1,.29.65,4,4,0,0,1-.47,1.53l-.12.24a.27.27,0,0,1,.08.06s0,.08,0,.16a.88.88,0,0,1-.18.45,8.4,8.4,0,0,1-1.59,1.39,9,9,0,0,1-2.12,1.18.41.41,0,0,1-.16.06.33.33,0,0,1-.29-.18.67.67,0,0,1-.1-.43c0-.12.08-.22.25-.31a2,2,0,0,0,.2-.1C234.1,9.4,234,8.89,233.88,8.3Zm.06,10.29a.6.6,0,0,1,.08.22.35.35,0,0,1,.22-.22,2.28,2.28,0,0,1,.86-.29c.18,0,.43-.08.71-.16a9,9,0,0,0,.43-2.49q-1.19.55-2.38,1a1.44,1.44,0,0,1-.39.12A16.93,16.93,0,0,0,233.94,18.59Zm.79-11c.12.77.22,1.35.29,1.75l0,0a20.8,20.8,0,0,0,1.71-1.2,19.79,19.79,0,0,0,1-2.26,10.09,10.09,0,0,0-3.08,1.26A3.57,3.57,0,0,0,234.73,7.58Zm2.89,10.07a1.89,1.89,0,0,1,.41-.1.83.83,0,0,1,.24,0,.27.27,0,0,1,.18.29.55.55,0,0,1-.22.47,2.45,2.45,0,0,1-.37.22,1.41,1.41,0,0,0,.51.16,10.59,10.59,0,0,0,.67-1.2,19.13,19.13,0,0,0,1.24-4.14,15.75,15.75,0,0,0,.1-1.59v-.43a15.42,15.42,0,0,0-3.69,1,8.66,8.66,0,0,1,.29,1.06c0,.33.06.63.08.94.33-.16.65-.31,1-.47a2.28,2.28,0,0,1,.86-.39.62.62,0,0,1,.26.06.56.56,0,0,1,.18.22.53.53,0,0,1-.18.39,6.14,6.14,0,0,1-1.49.9l-.59.29a14.4,14.4,0,0,1-.41,2.59C237,17.84,237.28,17.76,237.63,17.65Z"/><path class="cls-1" d="M248.88,6.71a3,3,0,0,1,1.57.39,3,3,0,0,1,1,2.34l.24,8.62q0,.46-.73.49a5.59,5.59,0,0,1-2-.43c-.45.14-1,.29-1.53.45-.39.06-.73.1-1.06.12a.68.68,0,0,1-.08.24.49.49,0,0,1-.35.18.34.34,0,0,1-.29-.12.57.57,0,0,1-.16-.41c0-.73,0-1.73,0-3s0-2.63,0-3.77,0-2.39.06-3.73c0-.65,0-1.37,0-2.12a1.18,1.18,0,0,1,0-.26.35.35,0,0,1,0-.14s0,0-.06,0a4.78,4.78,0,0,1-.51,0c-.29,0-.43-.18-.45-.55,0-.14.12-.29.37-.41s.35-.12.59-.2c.65-.16,1.3-.35,1.94-.57a17.77,17.77,0,0,0,2.12-.77.36.36,0,0,1,.29.14s0,.08,0,.16a.59.59,0,0,1-.16.37,6,6,0,0,1-2.1,1.08c-.39.16-.75.29-1.08.39a.29.29,0,0,1,.06.08,1.94,1.94,0,0,1,.1.61c0,.33,0,.79,0,1.37A7.44,7.44,0,0,1,248.88,6.71Zm1.73,10.85c0-1.88,0-3.55,0-5-.22.1-.49.2-.77.31-1.06.37-2.14.71-3.28,1a.28.28,0,0,1-.16,0c0,.49,0,1.06,0,1.71s0,1.47,0,2.16c.26,0,.53-.06.82-.1a10.68,10.68,0,0,0,2.3-.65h.18a.36.36,0,0,1,.31.18.94.94,0,0,0,.06.18.51.51,0,0,1-.1.33A3.53,3.53,0,0,1,250.61,17.55Zm-.12-8.11c-.14-1.18-.75-1.79-1.83-1.79a3.8,3.8,0,0,0-1,.24c-.37.16-.75.35-1.12.53a2.21,2.21,0,0,0,0,.37c-.08,1.45-.12,2.57-.14,3.36V13a34.28,34.28,0,0,0,3.75-1.2l.45-.14C250.53,10.84,250.51,10.11,250.49,9.44Zm10.36.94c0-1.67.06-3.75.14-6.26,0-.41,0-.63-.1-.63a13.18,13.18,0,0,0-2.1.73q-1.35.49-2.69.86a8,8,0,0,1-2.16.35h-.33A.72.72,0,0,1,253,5.1a.85.85,0,0,1-.14-.55,16.65,16.65,0,0,0,1.57-4,.68.68,0,0,1,.53-.22.57.57,0,0,1,.25.1.51.51,0,0,1,.16.41,2.82,2.82,0,0,1-.33,1c-.57,1.43-.9,2.26-1,2.49a13.57,13.57,0,0,0,4-.84c.88-.29,1.77-.61,2.69-1a2.68,2.68,0,0,1,.55-.1c.16,0,.35.22.51.63A3.53,3.53,0,0,1,262,4.16c0,.65,0,1.67-.06,3-.08,2.41-.12,4.44-.12,6.16q0,3.36.06,7.28a.7.7,0,0,1-.35.53l-.39.08a3.68,3.68,0,0,1-2.14-.88,9.6,9.6,0,0,1-1.81-2,.8.8,0,0,1-.08-.37c0-.2.08-.31.29-.31a.75.75,0,0,1,.43.18A20.46,20.46,0,0,0,261,20.2c-.08-1.79-.14-4.16-.14-7.14C260.82,12.33,260.82,11.44,260.84,10.38ZM258,13.17a.83.83,0,0,1-.37-.1c-.24-.12-.55-.27-.9-.47a13.93,13.93,0,0,1-2.39-1.43l-.31-.31a.55.55,0,0,1-.06-.24.4.4,0,0,1,.12-.29.48.48,0,0,1,.24-.2l.25,0a.92.92,0,0,1,.29.1c.12.08.29.2.49.33a15.24,15.24,0,0,0,1.71,1.1c.35.2.67.43,1,.63a.81.81,0,0,1,.22.51c0,.22-.08.35-.22.39Z"/><path class="cls-1" d="M283.85,20.59a1.63,1.63,0,0,1-.51-.14c-.65-.41-1.35-.86-2.08-1.39a22.17,22.17,0,0,1-3.81-3.42v.12a12.36,12.36,0,0,1-.55,4.08,1.94,1.94,0,0,1-1.65,1.43,1.56,1.56,0,0,1-1.1-.53,4.06,4.06,0,0,1-.49-.63.76.76,0,0,1-.14-.39c0-.29.12-.45.39-.45,0,0,.12.06.24.18.41.57.75.86,1.06.86s.49-.35.77-1a9.11,9.11,0,0,0,.53-3.3,7.88,7.88,0,0,0-.27-2.06,6.55,6.55,0,0,1-.45,1A20.69,20.69,0,0,1,274,17.69q-.73.95-1.41,1.77c-.29.37-.59.71-.88,1.08a8.49,8.49,0,0,1-.82.77.65.65,0,0,1-.35.12c-.1-.06-.14-.12-.14-.18a.68.68,0,0,1,.08-.31,1.45,1.45,0,0,1,.39-.61,9.8,9.8,0,0,1,1.06-1.41c.61-.77,1.22-1.61,1.88-2.47.37-.53.71-1.1,1-1.67s.47-1,.63-1.43a.4.4,0,0,1,.37-.29h.08c-.18-.33-.37-.61-.55-.88l-.55-.65c0,.06,0,.12,0,.16a3.45,3.45,0,0,1-.49,1.24,14.92,14.92,0,0,1-1.69,2.45c-.47.61-.92,1.14-1.33,1.61s-.55.67-.84,1a5.76,5.76,0,0,1-.75.67.72.72,0,0,1-.35.16c-.1-.08-.14-.14-.14-.22a.62.62,0,0,1,.08-.27,1.57,1.57,0,0,1,.37-.59c.22-.33.55-.73,1-1.24.57-.69,1.14-1.43,1.75-2.24a12.67,12.67,0,0,0,1-1.49,7.64,7.64,0,0,0,.57-1.3.47.47,0,0,1,.39-.29h.06a7.94,7.94,0,0,0-1.18-.86.41.41,0,0,1-.22-.18,6.33,6.33,0,0,1-1.3,2.47,10.47,10.47,0,0,1-1.55,1.65,12.2,12.2,0,0,1-1.67,1.28.78.78,0,0,1-.2.12.62.62,0,0,1-.29.08c-.16,0-.24-.12-.24-.33a.46.46,0,0,1,.16-.35,12.71,12.71,0,0,0,2.12-1.85,11.2,11.2,0,0,0,1.43-1.85,10.29,10.29,0,0,0,.67-1.35,8.27,8.27,0,0,1-1.12.16c0,.33-.18.49-.45.49s-.43-.12-.43-.37a10.32,10.32,0,0,0-.43-2.1c-.41-1.18-.75-2.16-1-3a.49.49,0,0,1,.18-.33.43.43,0,0,1,.33-.16l.27,0a.64.64,0,0,1,.35.31c.1.24.22.59.39,1.08a14.6,14.6,0,0,1,2.53-1,2.32,2.32,0,0,0,.53-.18,8.15,8.15,0,0,0,1-1.1,4.39,4.39,0,0,0,1-1.41c-.65.24-1.39.47-2.24.71a2.72,2.72,0,0,1-.88.14.71.71,0,0,1-.65-.71,2.32,2.32,0,0,1,.2-.67A8.67,8.67,0,0,1,272.6.12a.3.3,0,0,1,.26-.12L273,0a.44.44,0,0,1,.29.43,7.72,7.72,0,0,1-.71,2c.73-.29,1.47-.51,2.16-.71a3,3,0,0,1,.88-.16c.41,0,.63.22.65.53a3.76,3.76,0,0,1-1.33,2.38c.45-.12.88-.22,1.3-.31a17.2,17.2,0,0,1,2.24-.2h.29a.71.71,0,0,1,.45.2.74.74,0,0,1,.29.55,3.05,3.05,0,0,1-.41,1.43,6.44,6.44,0,0,1-.59.92.38.38,0,0,0,0,.16.45.45,0,0,1-.18.39,17.37,17.37,0,0,1-4.44,2,6,6,0,0,1,1.77,1.26,7.33,7.33,0,0,1,1.3,2.08c.08.29.14.53.18.75a11.7,11.7,0,0,0,1.71-1.88c.37-.47.73-1,1.1-1.51a.26.26,0,0,1,.27-.18.42.42,0,0,1,.31.12.52.52,0,0,1,.31.39,1,1,0,0,1-.18.53,9.25,9.25,0,0,1-1.51,1.92,14.33,14.33,0,0,1-1.41,1.22.3.3,0,0,0,.06.08,27.94,27.94,0,0,0,3.71,3.38q1.22.92,2.32,1.77a.81.81,0,0,1,.37.65.38.38,0,0,1-.29.39ZM273,8.75c.37-.08.73-.16,1.06-.26a.35.35,0,0,1-.06-.2c0-.27,0-.53,0-.82a9.25,9.25,0,0,0-.18-1.65,31.73,31.73,0,0,0-3.26,1.26.15.15,0,0,1-.12,0,.92.92,0,0,0,.08.29c.16.71.31,1.3.39,1.75A17.73,17.73,0,0,0,273,8.75Zm1.85-1.94a12.83,12.83,0,0,1-.06,1.33.79.79,0,0,0,0,.12,13.28,13.28,0,0,0,2-.79,13.72,13.72,0,0,0,1-1.26,4.4,4.4,0,0,0,.69-1.26c0-.06-.08-.1-.2-.1a14.18,14.18,0,0,0-3.45.67.39.39,0,0,0-.18.08A3.49,3.49,0,0,1,274.9,6.81Z"/><path class="cls-1" d="M292.75,6.83a2.56,2.56,0,0,1-.49.82c-.27.37-.59.75-1,1.18a1,1,0,0,1,.14.53c-.06.94-.08,1.65-.08,2.16l-.06,2.43c0,.77-.06,1.41-.1,1.9a8.27,8.27,0,0,1-.55,2.81c-.08.35-.27.53-.53.53s-.33-.18-.33-.53a10.11,10.11,0,0,0,.37-2.39l.12-1.92,0-2.12c0-.71,0-1.49,0-2.32-.39.47-.79.92-1.2,1.35s-.75.88-1.18,1.41a.46.46,0,0,1-.39.22c-.22,0-.35-.1-.35-.33a.56.56,0,0,1,.14-.37c.2-.24.47-.59.82-1s.92-1.18,1.57-2,1.06-1.37,1.63-2.08c.16-.27.33-.53.51-.79a1.1,1.1,0,0,0,.16-.35,1.65,1.65,0,0,1,.51-.08.41.41,0,0,1,.33.41A1.3,1.3,0,0,1,292.75,6.83ZM291.9,4a7.89,7.89,0,0,1-1,1.1l-2.53,2.57a.84.84,0,0,1-.33.06c-.14,0-.2-.06-.2-.16a.8.8,0,0,1,.1-.41,1.33,1.33,0,0,1,.2-.31c.12-.16.25-.33.37-.47s1-1.18,2.89-3.24a.59.59,0,0,1,.33-.12.52.52,0,0,1,.35.18.57.57,0,0,1,.12.41C292.16,3.71,292.06,3.83,291.9,4Zm6.65,10.31a.39.39,0,0,1,.31.16.66.66,0,0,1,.08.29.28.28,0,0,1-.18.24l-1.77.55c0,.37-.06.75-.1,1.18s-.14.69-.22,1c.75-.24,1.55-.49,2.38-.82a2,2,0,0,1,.39-.16,2,2,0,0,1,.43.08c.16.12.25.22.25.33a1.2,1.2,0,0,1-.1.35,2.8,2.8,0,0,1-.39.29,23.89,23.89,0,0,1-2.32.77,23,23,0,0,1-2.59.61c-.37,0-.71.06-1.08.08h-.33a.4.4,0,0,1-.39-.43v-.22a.73.73,0,0,1,.43-.43l.31,0a9.55,9.55,0,0,0,2.16-.29,1.64,1.64,0,0,1,.06-.39c.06-.37.12-.73.16-1.14a5.35,5.35,0,0,1,0-.59c-.61.18-1.22.37-1.88.53a.49.49,0,0,1-.51-.43v-.12a.42.42,0,0,1,.18-.33,13.74,13.74,0,0,1,2.16-.65c0-.29-.1-.53-.14-.73a.91.91,0,0,1-.12-.39.71.71,0,0,1,.14-.47,1.21,1.21,0,0,1,.33-.1.5.5,0,0,1,.31.1,2.84,2.84,0,0,1,.26.37,6.37,6.37,0,0,1,.16,1A12,12,0,0,1,298.54,14.27Zm.53-5.79a6.89,6.89,0,0,1-2.32,1c-.71.2-1.37.41-2,.57a3.39,3.39,0,0,1-.41.08,4.89,4.89,0,0,1-.51,0c-.22,0-.35-.18-.39-.51,0-.14.1-.27.33-.39l.57-.18c.73-.16,1.47-.33,2.2-.53A24.28,24.28,0,0,0,299,7.83a.32.32,0,0,1,.26.14s0,.08,0,.14A.53.53,0,0,1,299.07,8.48Zm-.77,2.18a.4.4,0,0,1,.35.2,1,1,0,0,1,.08.22.56.56,0,0,1-.2.41,11.35,11.35,0,0,1-3.06,1.14,8.1,8.1,0,0,1-1.45.22.44.44,0,0,1-.39-.16.6.6,0,0,1-.16-.39.32.32,0,0,1,.26-.35,13.1,13.1,0,0,0,1.53-.24,12.44,12.44,0,0,0,2.88-1Zm1.14-6.14a6.53,6.53,0,0,0,.26,1.55,4.61,4.61,0,0,0,.2.88.4.4,0,0,1-.33.41.46.46,0,0,1-.47-.33A4,4,0,0,1,298.75,6a7.87,7.87,0,0,1-1.3.77,10.7,10.7,0,0,1-2.92,1h-.16a.6.6,0,0,1-.43-.1.51.51,0,0,1-.31-.49c0-.41,0-.92.08-1.55a5.49,5.49,0,0,1,.2-1.35.49.49,0,0,1,.43-.39h.1a.49.49,0,0,1,.45.49c-.14,1.22-.2,2-.2,2.45a7.51,7.51,0,0,0,1.45-.47c0-.53,0-1.08,0-1.63a18.24,18.24,0,0,0-.33-2.94c0-.29.2-.45.57-.47a.38.38,0,0,1,.35.24A7.51,7.51,0,0,1,297.08,4c0,.71,0,1.37,0,2a12.43,12.43,0,0,0,1.3-.73c.1-.06.18-.12.26-.16a.76.76,0,0,1,0-.2c0-.57,0-1.18,0-1.83a.49.49,0,0,1,.55-.37.45.45,0,0,1,.43.37A12.93,12.93,0,0,0,299.44,4.53Zm5.71.79a9.59,9.59,0,0,1-1.16,1,.86.86,0,0,1-.25.16,4.22,4.22,0,0,1,.33,1.59,16.48,16.48,0,0,1-.22,2.83c-.16.82-.35,1.53-.53,2.18-.08.31-.16.59-.24.84a12.92,12.92,0,0,0,1.37,1.94c.14.22.45.65.94,1.26a7.7,7.7,0,0,1,.82,1.41,2.45,2.45,0,0,1,.08.51.35.35,0,0,1-.26.35.57.57,0,0,1-.41-.2c-.41-.51-.79-1-1.18-1.53-.55-.65-1.06-1.3-1.55-2a2.73,2.73,0,0,1-.26-.41q-.37.86-.67,1.53a12.92,12.92,0,0,1-1,1.79.67.67,0,0,1-.31.14.41.41,0,0,1-.29-.1.26.26,0,0,1-.08-.22.77.77,0,0,1,.18-.41A31.75,31.75,0,0,0,302,14.33a16.7,16.7,0,0,1-1.24-2.39,4.5,4.5,0,0,1-.41-1.45.36.36,0,0,1,.35-.39.45.45,0,0,1,.39.18,4.37,4.37,0,0,1,.69,1.18,12.55,12.55,0,0,0,.69,1.39c.16-.65.31-1.37.43-2.12a9.37,9.37,0,0,0,.18-1.9,4.62,4.62,0,0,0-.31-1.77.19.19,0,0,1-.1.06,3.07,3.07,0,0,1-1.28.37.44.44,0,0,1-.22,0c-.37-.06-.55-.33-.55-.82a2.53,2.53,0,0,1,.08-.59c.1-.31.22-.67.35-1.12s.18-.75.27-1.12.14-.63.18-.88a.4.4,0,0,1,.43-.31c.35,0,.53.16.55.41V3.2a6.53,6.53,0,0,1-.24,1.08c-.16.53-.31,1-.45,1.49a5.7,5.7,0,0,1-.25.71,6.32,6.32,0,0,0,3.34-2.28.62.62,0,0,1,.26-.2l.12,0a.48.48,0,0,1,.41.45,1,1,0,0,1-.08.35Z"/><path class="cls-1" d="M318.23,12a16.68,16.68,0,0,1-2.06,3.08.63.63,0,0,1-.47.22c-.37,0-.55-.18-.55-.57a.82.82,0,0,1,.22-.57,13.36,13.36,0,0,0,1.9-2.92c.1-1.39.49-2.08,1.18-2.08.41,0,.61.24.61.69A5.73,5.73,0,0,1,318.23,12Z"/><path class="cls-1" d="M23.38,42.34A10.84,10.84,0,0,1,20.07,44a15.91,15.91,0,0,0,.65,1.63c.41,1.24.79,2.43,1.14,3.55.12-.22.24-.45.39-.69.41-.75.75-1.49,1.06-2.2s.49-1.14.67-1.59a.48.48,0,0,1,.47-.22c.08,0,.12,0,.16,0a.41.41,0,0,1,.29.39,5.94,5.94,0,0,1-.53,1.75c-.39.94-.9,2-1.53,3.26-.18.29-.35.55-.51.84A18.86,18.86,0,0,0,23.07,53,10.56,10.56,0,0,0,24,54.84c0-1.43-.12-2.83-.22-4.26,0-.29.06-.45.22-.47s.37.2.47.57a43.09,43.09,0,0,1,.39,4.83,2.64,2.64,0,0,1-.14.84c-.1.33-.22.49-.39.49a.85.85,0,0,1-.63-.43,8.82,8.82,0,0,1-1.22-1.94,21.48,21.48,0,0,1-1-2.55.25.25,0,0,1,0,.06c-.49.63-.94,1.2-1.39,1.71-.29.33-.51.61-.69.84a.57.57,0,0,1-.16.14l-.2,0a.29.29,0,0,1-.22-.29.49.49,0,0,1,.08-.31,3.36,3.36,0,0,1,.47-.75c.22-.39.57-.94,1-1.63.25-.37.47-.73.69-1.14-.12-.37-.22-.75-.33-1.14-.31-1-.67-2.12-1.12-3.38-.18-.41-.41-.94-.65-1.63-.69.24-1.47.51-2.32.75l-2.55.71c0,1.06,0,2.06,0,3v.59c1.1-.82,2.16-1.57,3.2-2.26a1,1,0,0,1,.22-.08.36.36,0,0,1,.2.08.4.4,0,0,1,.1.29,1.55,1.55,0,0,1-.08.22,15.61,15.61,0,0,1-2,1.92L14.08,51l0,4.44c0,.45-.14.67-.41.67A3.86,3.86,0,0,1,11.78,55l-1.18-.92c-.35-.27-.51-.49-.51-.67a2.3,2.3,0,0,1,.57-1,14.52,14.52,0,0,1,2.43-2.2c0-.63,0-1.26,0-1.92s0-1.41,0-2.16c-.73.2-1.41.39-2.06.55s-.92.2-1.16.24a5,5,0,0,1-.53,0c-.29,0-.43-.2-.45-.59,0-.14.12-.29.37-.41a3,3,0,0,1,.61-.2q1.65-.4,3.24-.86v-.24a4.7,4.7,0,0,0-.1-.94c0-.26.22-.41.57-.41s.55.2.55.61v.69c.73-.2,1.45-.41,2.14-.65s1.59-.47,2.3-.71l0,0a8.77,8.77,0,0,1-.45-1.83.52.52,0,0,1,.55-.53c.22,0,.39.16.51.45.14.57.31,1.1.47,1.59,1.45-.49,2.65-.94,3.61-1.37a.46.46,0,0,1,.37.18s0,.08,0,.16A.66.66,0,0,1,23.38,42.34ZM11.31,53.43a20.35,20.35,0,0,0,1.85,1.43c0-1-.06-2-.08-3.06A15.66,15.66,0,0,0,11.31,53.43Zm1-14.27a.8.8,0,0,1-.29-.67.72.72,0,0,1,.35-.39h.29a13.2,13.2,0,0,1,4.34.69.57.57,0,0,1,.26.35.54.54,0,0,1-.39.57C15.55,39.53,14,39.34,12.35,39.16Zm9.87-1.65a8.67,8.67,0,0,1,1.16.88,5.38,5.38,0,0,1,1,1,1,1,0,0,1,.12.51.45.45,0,0,1-.24.41h-.1c-.08,0-.2-.08-.39-.24-.69-.53-1.28-1-1.73-1.24s-.9-.61-1.3-.9c-.2-.08-.29-.27-.29-.59S20.65,37,21,37A2.66,2.66,0,0,1,22.21,37.51Z"/><path class="cls-1" d="M35.05,38.89a7.48,7.48,0,0,1-.53,1.24c-.41.69-.92,1.57-1.53,2.59l-.2.33a7.09,7.09,0,0,1,.53,2.77,40.88,40.88,0,0,1-.53,6.67c-.12.86-.29,1.67-.45,2.41-.08.29-.22.45-.45.45s-.45-.18-.45-.51A22.54,22.54,0,0,1,32,51a28.15,28.15,0,0,0,.26-3.79V45.87a8.67,8.67,0,0,0-.16-1.65c-.33.49-.63,1-1,1.49s-.84,1.3-1.3,2.12a.46.46,0,0,1-.37.22c-.24,0-.37-.1-.37-.33a.56.56,0,0,1,.14-.37c.2-.41.49-.92.88-1.55q.64-1.19,1.71-3.06c.55-1,1.14-2.1,1.77-3.2.18-.39.37-.79.55-1.2.06-.12.12-.24.18-.39a1.93,1.93,0,0,1,.53-.08.44.44,0,0,1,.39.45A1.23,1.23,0,0,1,35.05,38.89Zm.39,16.17c-.2,0-.31-.16-.31-.47a33.83,33.83,0,0,0,.45-4.2l.12-7.11c0-1.06,0-2.22.08-3.49a.46.46,0,0,1,.53-.53.4.4,0,0,1,.41.33c.12,0,.22-.1.33-.14a5.43,5.43,0,0,1,2-.35,2.39,2.39,0,0,1,1.22.24,1.37,1.37,0,0,1,.63,1.26,10.1,10.1,0,0,1-.9,3.55l.18.06a.49.49,0,0,1,.18.24.66.66,0,0,1-.18.43,5.48,5.48,0,0,1-1,1.1,31.46,31.46,0,0,1-2.51,1.92s-.06,0-.08,0c0,.77-.06,1.43-.08,2a20.7,20.7,0,0,1-.57,4.69C35.83,54.9,35.66,55.06,35.44,55.06Zm2.81-9.46a21.85,21.85,0,0,0,1.28-3.08c-.59.35-1.3.77-2.16,1.26-.37.22-.63.37-.75.43l0,2.45v.24A13.67,13.67,0,0,0,38.25,45.6Zm1-3.67a4.66,4.66,0,0,1,.51-.16,5.79,5.79,0,0,0,.14-1.1.71.71,0,0,0-.79-.73,3.59,3.59,0,0,0-.82.14,2.83,2.83,0,0,0-.9.26l-.65.24c0,.88-.06,1.57-.06,2.06l0,.69A21.9,21.9,0,0,1,39.23,41.93Zm6,13.82a.55.55,0,0,1-.08-.29c0-.16.08-.27.2-.27.43,0,1,.47,1.65,1.26,0-.65-.12-1.51-.2-2.61-.1-1.43-.18-3.47-.22-6.12,0-1.18,0-2.37.06-3.51a12,12,0,0,1-2.16,1.2,3.92,3.92,0,0,1-1.26.31.58.58,0,0,1-.43-.18.59.59,0,0,1-.16-.39.45.45,0,0,1,.1-.33.51.51,0,0,1,0-.24c0-.33,0-.75,0-1.3,0-.77,0-1.28,0-1.53,0-.67,0-1.22,0-1.65a11.64,11.64,0,0,0-.22-1.77.54.54,0,0,1,.2-.43.84.84,0,0,1,.33-.06.5.5,0,0,1,.45.43,4.84,4.84,0,0,1,.49-.2,7.43,7.43,0,0,1,1.55-.18l.84,0A3.39,3.39,0,0,1,47,38a.82.82,0,0,1,.73.73c0,.27,0,.61,0,1,0,.73-.12,2.08-.2,4,0,1.1-.06,2.41-.06,3.89s0,2.83.12,4.46c.14,2.16.29,3.61.41,4.38,0,.53-.22.82-.67.84C46.45,57.38,45.75,56.83,45.22,55.75Zm.18-14.9a11.82,11.82,0,0,1,1.33-.31c0-.53,0-1.08.08-1.61,0-.12-.29-.18-.82-.18h-.53a3.87,3.87,0,0,0-1.9.53c0,.27.06.53.1.77,0,.49,0,1,0,1.55A10.21,10.21,0,0,1,45.41,40.85Zm-1.16,3.61a8.92,8.92,0,0,0,2.41-1.22c0-.67,0-1.35.06-2a18,18,0,0,0-3,1.2c0,.41,0,.9,0,1.45a4.77,4.77,0,0,0-.06.71v0C43.82,44.58,44,44.52,44.25,44.46Z"/><path class="cls-1" d="M55.37,43.62a9.34,9.34,0,0,1,.77,2.49v.18c0,.08-.08.14-.2.2a.26.26,0,0,1-.2.08.37.37,0,0,1-.33-.2c-.73-1.43-1.59-3.28-2.57-5.52,0,0,0-.1,0-.18a.53.53,0,0,1,.06-.22.6.6,0,0,1,.55-.31.59.59,0,0,1,.33.14,6.43,6.43,0,0,1,.61,1,4.48,4.48,0,0,0,.18.43l1.33-.55,1.73-.49c-.16-.37-.29-.71-.41-1a.67.67,0,0,1,.14-.31.46.46,0,0,1,.33-.16l.27,0a.56.56,0,0,1,.31.31,9.15,9.15,0,0,1,.37.88c1.14-.33,2.26-.59,3.32-.84q0-.43-.06-1.1a2.45,2.45,0,0,1,0-.39c0-.08,0-.14,0-.18l-.73.16a38.76,38.76,0,0,1-4,.67,15.66,15.66,0,0,1-1.67.1H55a.41.41,0,0,1-.41-.47v-.22a.86.86,0,0,1,.47-.47,1.65,1.65,0,0,0,.35,0,25.78,25.78,0,0,0,3.79-.31c1.47-.2,3-.49,4.75-.88l.63-.18a.83.83,0,0,1,.35.1.36.36,0,0,1,.18.27.77.77,0,0,1-.08.26.67.67,0,0,1-.31.22c-.63.2-1.33.39-2.06.55a3.13,3.13,0,0,1,.26,1.59v0l.47-.1a22,22,0,0,1,3.18-.41c.53,0,.84.2.9.61a2.62,2.62,0,0,1-.41,1.3,8,8,0,0,1-1.43,1.85s0,.06.06.06,0,.1,0,.18a.88.88,0,0,1-.18.45A24.11,24.11,0,0,1,62,44.72a23.94,23.94,0,0,1-2.85.88,2,2,0,0,1,.14.77,9.29,9.29,0,0,1-.16,1.69c-.1.41-.22.79-.35,1.18l1.49-.12c.67,0,1.28-.12,1.86-.2a4.9,4.9,0,0,0-.43-1.67,4.5,4.5,0,0,0-.57-1,.52.52,0,0,1,0-.25.53.53,0,0,1,.18-.37.42.42,0,0,1,.31-.12.57.57,0,0,1,.41.2,4.87,4.87,0,0,1,.88,1.67,7.13,7.13,0,0,1,.27,1.41c1.12-.14,2.06-.31,2.81-.47A11.56,11.56,0,0,0,67.09,48a7.59,7.59,0,0,1,1.22-.35.48.48,0,0,1,.33.2,1,1,0,0,1,.22.49.42.42,0,0,1-.31.39,3.12,3.12,0,0,1-1.39.37,16.91,16.91,0,0,1-1.83.33q-1.16.18-2.2.31A7.41,7.41,0,0,1,62,53.65c-.27.37-.51.69-.75,1l.35.12a18.32,18.32,0,0,0,2.1.55.42.42,0,0,1,.1.31.63.63,0,0,1-.63.49h-.2a6.06,6.06,0,0,1-1.79-.43l-.65-.26a11.25,11.25,0,0,1-2.2,1.53,1,1,0,0,1-.45.16c-.29,0-.45-.12-.49-.33a.4.4,0,0,1,.22-.39A10,10,0,0,0,59.69,55c-.27-.16-.49-.33-.67-.45a3.93,3.93,0,0,1-1.59-2.89,4,4,0,0,1,.14-1.14c-1.08.18-2,.37-2.75.57q-.89.24-2,.61a1.74,1.74,0,0,1-.67.14c-.2,0-.35-.16-.39-.53a.5.5,0,0,1,.14-.41,1.8,1.8,0,0,1,.51-.29,12.19,12.19,0,0,1,1.71-.55,32.66,32.66,0,0,1,3.63-.67c0-.24.1-.49.14-.73a10.69,10.69,0,0,0,.33-2,2,2,0,0,0,0-.35,1.2,1.2,0,0,1-.08-.43v-.06l-.92.2a.38.38,0,0,1-.51-.16.67.67,0,0,1-.14-.49q0-.21.31-.37c.69-.16,1.33-.33,1.88-.47v0a9.61,9.61,0,0,0-.45-2c-.12-.33-.24-.61-.35-.88-1,.29-2,.59-3,.92C55.08,42.93,55.23,43.3,55.37,43.62Zm3,7.73a3,3,0,0,0,1.33,2.49c.24.16.49.31.73.45a7.53,7.53,0,0,0,1.1-1.69,7.82,7.82,0,0,0,.65-2.67l-1.59.2c-.77.08-1.47.18-2.1.27A4.58,4.58,0,0,0,58.37,51.35ZM59,41.73a11.86,11.86,0,0,1,.55,2.63c.55-.14,1.06-.31,1.53-.47a13.3,13.3,0,0,1,.59-2.67l.12-.63c-.9.22-1.88.49-2.9.77A2.45,2.45,0,0,0,59,41.73ZM62.75,41a13.4,13.4,0,0,1-.82,2.34l-.22.41,2-.67c.26-.12.49-.2.65-.29a10.63,10.63,0,0,0,2-3,26.82,26.82,0,0,0-3.53.61C62.81,40.55,62.79,40.75,62.75,41Z"/><path class="cls-1" d="M78.83,42.34c0,1.14,0,2.2,0,3.18s0,2.3.06,3.65v3.77c0,.82,0,1.49,0,2s-.16.9-.41.9-.43-.31-.47-.88S78,53.71,78,53c0-1.35-.06-3.06-.12-5.18v-.2c-.41.08-.84.18-1.3.31a7,7,0,0,1-.22.88c-.18.51-.41,1.1-.65,1.77-.18.41-.39.79-.59,1.16a7.44,7.44,0,0,1-.61.94,4.06,4.06,0,0,0-.26.45.42.42,0,0,1-.16.16l-.22,0c-.12,0-.2-.1-.22-.31a.47.47,0,0,1,.08-.29c0-.08.08-.22.16-.41s.26-.53.43-.9.47-1.08.71-1.71c.12-.41.26-.82.39-1.2a2.45,2.45,0,0,0,.1-.27l-1.22.39c-.14,0-.29-.1-.41-.31a.48.48,0,0,1-.12-.35c0-.16.1-.26.35-.35a11.71,11.71,0,0,1,2.3-.77c.67-.14,1.16-.24,1.47-.29,0-.82,0-1.69,0-2.61a5.54,5.54,0,0,1-1.3.79,2.51,2.51,0,0,1-1.08.31.56.56,0,0,1-.47-.2,1.94,1.94,0,0,1-.18-1,8.18,8.18,0,0,1,.1-1.16q.06-.7.06-1.28c0-.1,0-.2,0-.29a.31.31,0,0,1,.31-.35.75.75,0,0,1,.65.31,2,2,0,0,1,.06.55c0,.2,0,.43,0,.71s-.08.51-.12.77a6.83,6.83,0,0,0-.06.9,21,21,0,0,0,2-1,.16.16,0,0,1,.08-.08,2,2,0,0,1,0-.35V40.48A.59.59,0,0,1,78,40a.69.69,0,0,1,.33-.08c.29,0,.45.16.47.49C78.79,40.93,78.81,41.56,78.83,42.34Zm4,.71a7.66,7.66,0,0,1-1,.73,6,6,0,0,1-1.41.63.49.49,0,0,1-.2,0,.26.26,0,0,1-.26-.16.57.57,0,0,1-.1-.41.32.32,0,0,1,.22-.31l.75-.26c.47-.2.92-.41,1.33-.61a3.27,3.27,0,0,1,.41-.22.38.38,0,0,1,.16,0,.49.49,0,0,1,.27.14s0,.08,0,.14A.68.68,0,0,1,82.84,43.05Zm4,9.74a.73.73,0,0,1-.39-.1,14.42,14.42,0,0,1-2.81-1.75.3.3,0,0,1-.16-.24.55.55,0,0,1,.06-.2,2.43,2.43,0,0,1,.22-.24.47.47,0,0,1,.18-.06,1.88,1.88,0,0,1,.29,0,23.22,23.22,0,0,1,2.57,1.61c0-.33,0-.63,0-1,0-1.1-.06-2.12-.1-3a6.72,6.72,0,0,1-.84.31q-2.11.76-4,1.41a7.36,7.36,0,0,1-.82.18c-.22,0-.41,0-.55,0s-.43-.2-.47-.59c0-.14.12-.29.39-.41a2.89,2.89,0,0,1,.63-.2A47.17,47.17,0,0,0,85.58,47c.37-.12.71-.24,1.06-.39-.08-1.06-.1-1.92-.1-2.57a.47.47,0,0,1,.49-.53c.33,0,.51.2.53.57,0,.59,0,1.3,0,2.16q1.77-.7,2.94-1.28a.39.39,0,0,1,.31.16s0,.08,0,.14a.53.53,0,0,1-.2.35,9,9,0,0,1-3,1.79l.14,3.2c0,1.35.08,2.57.08,3.67a7.07,7.07,0,0,1-.26,2c-.2.55-.45.84-.71.84A2.78,2.78,0,0,1,85,56.3a1.56,1.56,0,0,1-.49-.86c0-.24.1-.35.33-.35l1.81,1c.12,0,.2-.65.2-1.92C86.86,53.74,86.84,53.29,86.84,52.8Zm-.75-15.6a3.64,3.64,0,0,1,1.57-.75.55.55,0,0,1,.59.59,4.61,4.61,0,0,1-.45,1.26,53.76,53.76,0,0,1-4.63,7.36q-.61.92-1.22,1.71a.62.62,0,0,1-.53.33c-.2,0-.33-.14-.33-.41a.47.47,0,0,1,.06-.18c1.43-2,2.61-3.79,3.51-5.26-1.06-.27-2.22-.53-3.49-.82a.77.77,0,0,1-.22-.59.74.74,0,0,1,.31-.31h.22a6,6,0,0,1,3.28,1,.43.43,0,0,1,.16.22,24.59,24.59,0,0,0,1.77-3.53,5.55,5.55,0,0,1-2.89,1.49H83c-.31-.08-.57-.63-.82-1.65a8.25,8.25,0,0,1-.06-1,.91.91,0,0,1,.08-.41.6.6,0,0,1,.45-.16.86.86,0,0,1,.33.08,6.37,6.37,0,0,1,.29,1.43c0,.47.12.71.25.73A10.14,10.14,0,0,0,86.08,37.2Z"/><path class="cls-1" d="M98.39,53.84a33.59,33.59,0,0,0,5.26,1.53l2.41.31c.69,0,1.33.08,1.9.08a14.74,14.74,0,0,0,1.79-.12,15.41,15.41,0,0,0,1.65-.37,4,4,0,0,1,1-.16c.2,0,.33.06.35.18a.57.57,0,0,1-.08.27,3,3,0,0,1-.27.22,14.06,14.06,0,0,1-5.24.88,30.22,30.22,0,0,1-10.4-2.22c-.65-.29-1.28-.59-1.85-.9a6.44,6.44,0,0,1-.88-.61.41.41,0,0,1-.08-.27.66.66,0,0,1,.2-.49.46.46,0,0,1,.33-.12,1.13,1.13,0,0,1,.31.08l1.51.75s.06,0,.1,0a3.6,3.6,0,0,0,.69-2.22,1.79,1.79,0,0,0-.37-.92,1.41,1.41,0,0,1-.27-.77A2.75,2.75,0,0,1,97,47.52c.16-.2.27-.35.27-.47a2.15,2.15,0,0,0-.35-.84c-.22-.24-.47-.53-.71-.86,0-.29.18-.45.53-.45a.75.75,0,0,1,.41.18,2.21,2.21,0,0,1,1,1.83,4.62,4.62,0,0,1-.79,2A3.52,3.52,0,0,1,98,50.86a3.3,3.3,0,0,1-.86,2.43C97.56,53.49,98,53.67,98.39,53.84Zm.2-10.42a1,1,0,0,1-.71-.45,4.36,4.36,0,0,0-1.94-1.1,1.52,1.52,0,0,1-.33-.16.74.74,0,0,1,0-.33.93.93,0,0,1,0-.2.53.53,0,0,1,.53-.35,2.68,2.68,0,0,1,1.37.47,4.58,4.58,0,0,1,1.34,1.22,1.18,1.18,0,0,1,.08.37C98.9,43.26,98.8,43.42,98.6,43.42Zm8.17-2.63a26.28,26.28,0,0,1-4.06,1A12.22,12.22,0,0,1,101,42h-.51a.45.45,0,0,1-.43-.49v-.27c0-.2.18-.35.47-.47a1.85,1.85,0,0,0,.35,0,15.18,15.18,0,0,0,3.87-.53,35.92,35.92,0,0,0,4.81-1.47,6.33,6.33,0,0,1,.61-.24,1.47,1.47,0,0,1,.39.08c.12.1.2.2.2.29a1.16,1.16,0,0,1-.08.26.82.82,0,0,1-.33.27A24.71,24.71,0,0,1,106.77,40.79Zm-.73,3a13.66,13.66,0,0,1-2,.59,6,6,0,0,1-.83.08H103c-.24,0-.35-.18-.35-.45v-.22a.73.73,0,0,1,.39-.41,1.68,1.68,0,0,0,.35,0,6.56,6.56,0,0,0,1.77-.27,16.79,16.79,0,0,0,2.2-.77l.31-.14a1.5,1.5,0,0,1,.37.08c.12.12.2.2.2.29a.79.79,0,0,1-.08.27.78.78,0,0,1-.35.24A9.87,9.87,0,0,1,106,43.75Zm0,2.73a12.41,12.41,0,0,1-2,.63,6.08,6.08,0,0,1-.82.08H103c-.25,0-.35-.18-.35-.45v-.2a.7.7,0,0,1,.39-.43,1.9,1.9,0,0,0,.35,0,5.72,5.72,0,0,0,1.75-.29,15,15,0,0,0,2.2-.84l.31-.16a.82.82,0,0,1,.35.1c.14.1.22.2.22.29a.78.78,0,0,1-.08.27,1.76,1.76,0,0,1-.35.24A8.51,8.51,0,0,1,106.08,46.48Zm4,4a4.53,4.53,0,0,1-1.69,1.75c-.29.2-.59.39-.88.57a11.12,11.12,0,0,1-2.38,1.08q-.06.46-.43.49a.37.37,0,0,1-.43-.41,11.73,11.73,0,0,0-.41-2.1c-.37-1.2-.67-2.2-.94-3a.46.46,0,0,1,.16-.33.49.49,0,0,1,.35-.2l.27,0a.76.76,0,0,1,.35.33l.06.18a20.26,20.26,0,0,1,2.85-.18,7.87,7.87,0,0,1,2.18.31q1.1.37,1.1.86A2,2,0,0,1,110.07,50.43Zm-5.59-12.35a1,1,0,0,1-.25-.69.64.64,0,0,1,.33-.37h.31a4.6,4.6,0,0,1,2.26.59.79.79,0,0,1,.26.35.49.49,0,0,1-.37.55C106.26,38.36,105.42,38.22,104.49,38.08Zm1.45,14.35.79-.35.43-.22.06,0a5.23,5.23,0,0,0,1.24-.86c.49-.45.73-.73.73-.82a4.24,4.24,0,0,0-2.2-.45c-.79,0-1.67,0-2.61,0q.12.55.31,1.22c.16.73.27,1.35.35,1.79C105.36,52.63,105.67,52.51,105.93,52.43Z"/><path class="cls-1" d="M121.3,39.12a10,10,0,0,1-.57,1.33c-.41.73-1,1.63-1.61,2.69l0,0a10.36,10.36,0,0,1,.47,3.3,58.69,58.69,0,0,1-.43,7.26c-.08,1-.2,1.83-.33,2.63q-.12.43-.49.43c-.29,0-.41-.16-.41-.49a38.86,38.86,0,0,1,.35-4.12,33.47,33.47,0,0,0,.25-4.14V46.5a14.24,14.24,0,0,0-.16-2.12c-.39.61-.78,1.24-1.18,1.88s-.88,1.37-1.37,2.22a.49.49,0,0,1-.37.2c-.25,0-.37-.1-.37-.33a.48.48,0,0,1,.14-.35c.2-.41.53-1,.94-1.63.45-.84,1-1.9,1.79-3.2.57-1.06,1.2-2.16,1.86-3.32.2-.43.39-.86.59-1.26l.2-.41a1.55,1.55,0,0,1,.51-.08.46.46,0,0,1,.39.47A1.46,1.46,0,0,1,121.3,39.12Zm3.83,2.22a19.88,19.88,0,0,1-1.2,2.34c-.33.57-.63,1.08-.92,1.55s-.39.63-.59.94a3.71,3.71,0,0,1-.55.67.66.66,0,0,1-.41.16.28.28,0,0,1-.18-.26.77.77,0,0,1,.1-.35,2,2,0,0,1,.25-.53,7.16,7.16,0,0,1,.69-1.18l1.22-2.12a15.63,15.63,0,0,0,.69-1.43c.16-.45.29-.86.39-1.2a.55.55,0,0,1,.41-.33h.12a.52.52,0,0,1,.33.51A4.79,4.79,0,0,1,125.13,41.34Zm.71,5.77-1.41.47a1.41,1.41,0,0,1-.53.12.36.36,0,0,1-.35-.22.77.77,0,0,1-.12-.45c0-.12.12-.26.39-.39a7.6,7.6,0,0,1,1.16-.39l1.77-.61a20.31,20.31,0,0,1,2.3-.71,5.42,5.42,0,0,1,1.55-.24,1.08,1.08,0,0,1,.75.31,1.37,1.37,0,0,1,.35.94,24.52,24.52,0,0,1-.51,4.36,32.26,32.26,0,0,1-1.33,4.63c-.47,1.06-1,1.59-1.45,1.59-.82,0-1.39-.69-1.67-1.92a2,2,0,0,1-.08-.57.51.51,0,0,1,.2-.49.94.94,0,0,1,.27,0,.28.28,0,0,1,.22.12,13.21,13.21,0,0,0,.63,1.51.7.7,0,0,0,.51.31c.2,0,.49-.53.82-1.59.35-1.22.69-2.71,1-4.44a26,26,0,0,0,.37-3.61c0-.08-.1-.14-.31-.14a5.73,5.73,0,0,0-1.63.37,14,14,0,0,1-1.39.47,1.11,1.11,0,0,1-.22.1,1.48,1.48,0,0,1-.14.49c-.24.71-.55,1.49-.92,2.3a45.52,45.52,0,0,1-3.18,6c-.35.51-.65.94-.9,1.3a.72.72,0,0,1-.39.18c-.2,0-.33-.12-.33-.33a.58.58,0,0,1,.2-.45A51,51,0,0,0,125.6,48c.12-.33.25-.65.35-1A.18.18,0,0,1,125.85,47.11Zm8.58-4c0,.14-.12.22-.29.27h-.43a3,3,0,0,1-.84-.22,6,6,0,0,1-1.75-1.08,10.56,10.56,0,0,1-2.1-1.92c-.55-.57-1.16-1.26-1.81-2.08-.1-.12-.16-.2-.16-.29a.62.62,0,0,1,.16-.45.38.38,0,0,1,.33-.14.55.55,0,0,1,.31.08,4.42,4.42,0,0,1,.37.35l1,1.2c.37.45.77.9,1.18,1.3a12,12,0,0,0,3.1,2.34l.55.29C134.31,42.87,134.43,43,134.43,43.11Z"/><path class="cls-1" d="M140,42.3A8.74,8.74,0,0,0,142.47,41c.35-.29.57-.45.69-.45a.52.52,0,0,1,.35.37,3.68,3.68,0,0,1-.31,1.18c-.1.35-.25.75-.43,1.24s-.49,1.14-.69,1.67l0,0q.24.24.61.67a7.46,7.46,0,0,0,2.36,2.2.28.28,0,0,1,.12.27.47.47,0,0,1-.08.2,1.27,1.27,0,0,1-.18.22.68.68,0,0,1-.31.06,3.06,3.06,0,0,1-1.71-1,6,6,0,0,1-1.33-1.51.35.35,0,0,0,0,.1.38.38,0,0,0,0,.14c0,.33.1.65.16,1,.12.9.24,1.9.39,3,.06.67.1,1.28.1,1.81a12.83,12.83,0,0,1-.1,1.55c-.08.37-.16.69-.24.94s-.27.57-.47.57-.41-.14-.41-.39a6.39,6.39,0,0,1,.14-.73,8,8,0,0,0,.16-1.37c0-1-.12-2.51-.33-4.38,0-.22-.06-.45-.08-.65a73.62,73.62,0,0,1-3.36,6.81.67.67,0,0,1-.59.37c-.2,0-.33-.12-.33-.29a.54.54,0,0,1,.06-.24q3.58-8,5.28-12a7.5,7.5,0,0,1-3.4,1.49c-.45,0-.65-.2-.65-.61s.16-.43.49-.51A5.07,5.07,0,0,0,140,42.3Zm1.14-3.42a4.35,4.35,0,0,1-1.24-.51.37.37,0,0,1-.22-.37.82.82,0,0,1,.08-.39.62.62,0,0,1,.55-.29c.77.29,1.69.61,2.79,1a.44.44,0,0,1,.29.43c0,.29-.16.45-.39.45A7.08,7.08,0,0,1,141.17,38.87Zm5.4,8.42a.5.5,0,0,1-.55-.43v-.18a.38.38,0,0,1,.1-.22c0-.65,0-1.22,0-1.73a6.62,6.62,0,0,0-.26-1.55,6,6,0,0,0-.61-1.53,1.52,1.52,0,0,1-.29-.75.59.59,0,0,1,.25-.45.85.85,0,0,1,.31-.08.56.56,0,0,1,.41.22.33.33,0,0,0,.06.12,12,12,0,0,1,2-.9,11.39,11.39,0,0,1,2.9-.37,2.76,2.76,0,0,1,1.37.31,1.53,1.53,0,0,1,.65.73,1.71,1.71,0,0,1,.16.75,4.77,4.77,0,0,1-.45,1.67A9.67,9.67,0,0,1,151,45.46a.6.6,0,0,1-.31.12c-.61.29-1.3.59-2.08.9a9.27,9.27,0,0,1-.41,1.65,33.6,33.6,0,0,1-1.45,3.4c-.41.82-.75,1.55-1.08,2.2-.25.45-.49.92-.73,1.39a10.14,10.14,0,0,1-.63.94,1,1,0,0,1-.49.22.34.34,0,0,1-.2-.31.85.85,0,0,1,.1-.41,2.8,2.8,0,0,1,.29-.77c.2-.47.49-1,.86-1.73.49-.94,1-2,1.47-3.08.29-.67.57-1.37.82-2.08.1-.33.18-.65.26-.94A7,7,0,0,1,146.57,47.29Zm5-4.65a3.4,3.4,0,0,0,.43-1.16.92.92,0,0,0-1-1,11.13,11.13,0,0,0-4.57,1.2,12.09,12.09,0,0,1,.43,1.55,15.44,15.44,0,0,1,.26,2.69c.41-.18.92-.39,1.49-.59.73-.25,1.28-.43,1.63-.53A11.44,11.44,0,0,0,151.61,42.65Zm-1.29,11.42a2.91,2.91,0,0,1-1-2c-.06-.73-.08-1.57-.08-2.53A13.18,13.18,0,0,0,149,47a.48.48,0,0,1,.39-.35h.1A.46.46,0,0,1,150,47a14.85,14.85,0,0,1,.16,2.28c0,.57,0,1.43.12,2.53a1.88,1.88,0,0,0,1,1.51,3.73,3.73,0,0,0,1.79.37,4.54,4.54,0,0,0,1.77-.45,10.18,10.18,0,0,0-1.08-4.36c0-.2.06-.35.2-.39a.71.71,0,0,1,.45.24c.88.84,1.33,2.41,1.37,4.69,0,.55-.22.84-.65.86a6.42,6.42,0,0,1-2.36.45A4.14,4.14,0,0,1,150.32,54.06Z"/><path class="cls-1" d="M162,42.6a9.86,9.86,0,0,0,2.59-1.28,2,2,0,0,1,.73-.45.64.64,0,0,1,.33.39,3.47,3.47,0,0,1-.31,1.16c-.12.37-.26.75-.45,1.2-.29.65-.55,1.28-.82,1.85a4.68,4.68,0,0,1,.47.45,7.07,7.07,0,0,0,2.34,2,.26.26,0,0,1,.14.24.46.46,0,0,1-.1.22,1.29,1.29,0,0,1-.18.22.68.68,0,0,1-.31.06,3.18,3.18,0,0,1-1.67-.94,5.64,5.64,0,0,1-1.1-1.1.09.09,0,0,0,0,.06c0,.33.08.65.14,1,.12.9.25,1.86.41,2.92a15.42,15.42,0,0,1,.12,1.81,9.1,9.1,0,0,1-.12,1.51c-.1.41-.18.71-.27,1s-.24.57-.45.57-.43-.14-.43-.39.08-.41.14-.73a8.17,8.17,0,0,0,.16-1.35,43.05,43.05,0,0,0-.33-4.32c0-.24-.06-.47-.1-.69-1.24,2.65-2.41,4.89-3.51,6.73a.62.62,0,0,1-.57.41c-.22,0-.35-.12-.37-.29a.33.33,0,0,1,.08-.24q3.73-8,5.5-11.93a8.12,8.12,0,0,1-3.61,1.49c-.43,0-.63-.2-.63-.61s.16-.43.49-.51A7.08,7.08,0,0,0,162,42.6Zm1.2-3.42a4.61,4.61,0,0,1-1.28-.47c-.14-.06-.2-.18-.2-.39a.69.69,0,0,1,.08-.37.57.57,0,0,1,.53-.29c.82.29,1.79.59,2.94.94a.45.45,0,0,1,.27.41c0,.31-.14.47-.37.47A8.21,8.21,0,0,1,163.24,39.18ZM169,55.47q-.24,0-.49-.55a25.8,25.8,0,0,1-.78-3.55,19.61,19.61,0,0,1-.26-3c0-.45.16-.67.51-.69s.53.16.53.47a4.32,4.32,0,0,0,0,.55,17.34,17.34,0,0,1,4.57-1.81,11.52,11.52,0,0,1,3.1-.51c.45,0,.67.53.67,1.45a22.77,22.77,0,0,1-.75,4.89,12.87,12.87,0,0,1-.65,1.85A1.61,1.61,0,0,1,174,55.75a1.92,1.92,0,0,1-1.24-.57,1.05,1.05,0,0,1-.27-.29c-.47.1-1,.22-1.45.35-.29.08-.55.18-.82.26l-.31,0a.54.54,0,0,1-.31-.14.63.63,0,0,1-.08-.18A.54.54,0,0,1,169,55.47Zm4.61-17.33a13.77,13.77,0,0,1-2.12,1.28,16.43,16.43,0,0,1-2.89,1.08.57.57,0,0,1-.22,0,.34.34,0,0,1-.31-.2.87.87,0,0,1-.12-.49.44.44,0,0,1,.26-.39c.61-.2,1.12-.37,1.55-.49,1-.37,1.88-.71,2.67-1.08a5.12,5.12,0,0,1,.84-.45.45.45,0,0,1,.2-.06.56.56,0,0,1,.31.16c0,.06,0,.12,0,.2A.75.75,0,0,1,173.62,38.14Zm-4.89,12.94a6.13,6.13,0,0,0,.1.75l.2-.06a28.57,28.57,0,0,0,2.69-1.06c0-.27,0-.53-.06-.77a5.36,5.36,0,0,0-.33-1.26l-.51.2a10.73,10.73,0,0,1-2.2.86C168.66,50.21,168.68,50.66,168.72,51.08Zm.65-6.79c-.26-1-.49-1.83-.65-2.51a.57.57,0,0,1,.16-.31.37.37,0,0,1,.33-.18l.29,0a.89.89,0,0,1,.35.33c0,.16.08.37.14.61a13.82,13.82,0,0,1,3.24-1.35h.12a.66.66,0,0,1,.49.18.85.85,0,0,1,.29.65,4,4,0,0,1-.47,1.53l-.12.24a.27.27,0,0,1,.08.06s0,.08,0,.16a.88.88,0,0,1-.18.45,8.4,8.4,0,0,1-1.59,1.39,9,9,0,0,1-2.12,1.18.41.41,0,0,1-.16.06.33.33,0,0,1-.29-.18.67.67,0,0,1-.1-.43c0-.12.08-.22.25-.31a2,2,0,0,0,.2-.1C169.6,45.4,169.5,44.89,169.38,44.3Zm.06,10.29a.6.6,0,0,1,.08.22.35.35,0,0,1,.22-.22,2.28,2.28,0,0,1,.86-.29c.18,0,.43-.08.71-.16a9,9,0,0,0,.43-2.49q-1.19.55-2.38,1a1.44,1.44,0,0,1-.39.12A16.93,16.93,0,0,0,169.44,54.59Zm.79-11c.12.77.22,1.35.29,1.75l0,0a20.8,20.8,0,0,0,1.71-1.2,19.79,19.79,0,0,0,1-2.26,10.09,10.09,0,0,0-3.08,1.26A3.57,3.57,0,0,0,170.23,43.58Zm2.89,10.07a1.89,1.89,0,0,1,.41-.1.83.83,0,0,1,.24,0,.27.27,0,0,1,.18.29.55.55,0,0,1-.22.47,2.45,2.45,0,0,1-.37.22,1.41,1.41,0,0,0,.51.16,10.59,10.59,0,0,0,.67-1.2,19.13,19.13,0,0,0,1.24-4.14,15.75,15.75,0,0,0,.1-1.59v-.43a15.42,15.42,0,0,0-3.69,1,8.66,8.66,0,0,1,.29,1.06c0,.33.06.63.08.94.33-.16.65-.31,1-.47a2.28,2.28,0,0,1,.86-.39.62.62,0,0,1,.26.06.56.56,0,0,1,.18.22.53.53,0,0,1-.18.39,6.14,6.14,0,0,1-1.49.9l-.59.29a14.4,14.4,0,0,1-.41,2.59C172.45,53.84,172.78,53.76,173.13,53.65Z"/><path class="cls-1" d="M184.19,53.43a32.49,32.49,0,0,0,5.36,1.45c.73.12,1.53.24,2.39.33s1.37.08,1.94.08a15.22,15.22,0,0,0,1.81-.12,7.65,7.65,0,0,0,1.67-.35,4.19,4.19,0,0,1,1-.16c.2,0,.33.06.35.2a.87.87,0,0,1-.08.29l-.27.22a15.06,15.06,0,0,1-5.3.84A30.37,30.37,0,0,1,182.58,54a16.14,16.14,0,0,1-1.87-.9,3.85,3.85,0,0,1-.88-.57.33.33,0,0,1-.1-.29.55.55,0,0,1,.2-.45.44.44,0,0,1,.33-.14.77.77,0,0,1,.31.1c.41.16.9.41,1.51.71a.22.22,0,0,0,.14.06,5,5,0,0,0,.53-2.47,1.88,1.88,0,0,0-.33-.86,1.17,1.17,0,0,1-.33-.75,2.55,2.55,0,0,1,.63-1.45.93.93,0,0,0,.29-.47,3.38,3.38,0,0,0-.37-1.08c-.18-.33-.41-.69-.69-1.1,0-.31.2-.47.57-.47a.72.72,0,0,1,.39.2,3.05,3.05,0,0,1,1,2.3,4.32,4.32,0,0,1-.82,2,3.11,3.11,0,0,1,.61,1.85,4.61,4.61,0,0,1-.67,2.67Zm0-10.72a1,1,0,0,1-.73-.45,4.72,4.72,0,0,0-1.92-1.08,1.19,1.19,0,0,1-.37-.14.79.79,0,0,1,0-.33.7.7,0,0,1,0-.18c.06-.2.24-.33.57-.37a2.67,2.67,0,0,1,1.37.47,4.29,4.29,0,0,1,1.35,1.16,1.31,1.31,0,0,1,.08.41C184.52,42.54,184.42,42.71,184.21,42.71Zm11.17,1.67c-.49.69-1.75,1.47-3.77,2.36a6.23,6.23,0,0,0,.53.51,22.79,22.79,0,0,0,3.36,3.1c.73.59,1.45,1.14,2.14,1.63a.7.7,0,0,1,.31.55.32.32,0,0,1-.25.35h-.08a1.14,1.14,0,0,1-.45-.12c-.61-.35-1.24-.75-1.94-1.24a19.65,19.65,0,0,1-4.14-3.69,2.13,2.13,0,0,1-.29-.41c-.12.43-.25.86-.37,1.26a30,30,0,0,1-1.69,3.75,10.41,10.41,0,0,1-.63,1,1.07,1.07,0,0,1-.45.2c-.14,0-.2-.1-.2-.31a1.53,1.53,0,0,1,.18-.51,13.47,13.47,0,0,1,.61-1.41,27.64,27.64,0,0,0,1.39-3.59l.06-.27c-.61.27-1.2.51-1.75.71-.33.12-.55.18-.69.22a5.12,5.12,0,0,1-.53,0c-.29,0-.45-.2-.49-.57,0-.16.12-.31.41-.45l.61-.2c1-.33,1.88-.69,2.77-1.08a22,22,0,0,0,.35-3.18v-.12c-.86.37-1.71.71-2.57,1a2.49,2.49,0,0,1-.84.27h-.12a.62.62,0,0,1-.37-.59c0-.12.08-.22.25-.33a2.22,2.22,0,0,1,.69-.29c1.41-.49,2.67-1,3.81-1.51q.31-.55.61-1.16a5.16,5.16,0,0,0,.65-1.92,4.44,4.44,0,0,0-.06-.69,3.54,3.54,0,0,1-.14-.75c0-.29.16-.43.49-.45H193c.16,0,.29.1.41.31a6,6,0,0,1,.14,1.43,5.19,5.19,0,0,1-.59,2.26c-.06.1-.1.18-.14.27l.75-.43a2.73,2.73,0,0,1,1.14-.49.44.44,0,0,1,.29.1.35.35,0,0,1,.18.2.66.66,0,0,1-.18.45,9.38,9.38,0,0,1-2,1.18c-.51.24-1,.49-1.51.69a.09.09,0,0,0,0,.06v.39a17.5,17.5,0,0,1-.29,2.75,31.85,31.85,0,0,0,4.08-2.08.58.58,0,0,1,.37.14c0,.06,0,.12,0,.18A.67.67,0,0,1,195.38,44.38Zm-5-4a.46.46,0,0,1-.35.16,1.21,1.21,0,0,1-.65-.2,2.37,2.37,0,0,1-.75-.59,4.64,4.64,0,0,1-.53-.94.84.84,0,0,1-.1-.37.54.54,0,0,1,.53-.59.41.41,0,0,1,.41.27,2.6,2.6,0,0,0,1.26,1.63.41.41,0,0,1,.29.37A.32.32,0,0,1,190.39,40.34Z"/><path class="cls-1" d="M202.1,51a.52.52,0,0,1,.39.16l.67,1c.43.75.92,1.57,1.47,2.47a.48.48,0,0,1,.12.35.37.37,0,0,1-.29.35.55.55,0,0,1-.39-.12A11.73,11.73,0,0,1,202,52.31a3.47,3.47,0,0,1-.31-.63.81.81,0,0,1-.06-.31C201.66,51.17,201.82,51,202.1,51Zm1.16-7.3q2.2-1.9,3.49-1.9c.12,0,.18.12.2.31,0,1.1-1.08,3-3.22,5.65q1.32-.73,3.18-1.9a2.44,2.44,0,0,1,.9-.41.41.41,0,0,1,.47.41,3.51,3.51,0,0,1-.69,1.92,4.84,4.84,0,0,1-1.06,1.14.59.59,0,0,1-.33.12.2.2,0,0,1-.2-.22.32.32,0,0,1,.1-.24c.49-.86.9-1.61,1.2-2.22-2.08,1.79-3.59,2.73-4.55,2.83a.34.34,0,0,1-.39-.37,1.73,1.73,0,0,1,.39-.94c.88-1.53,1.92-3.24,3.14-5.12A7,7,0,0,1,202.19,45c-.22,0-.35-.2-.35-.51a18.67,18.67,0,0,0,2.75-6.24.56.56,0,0,1,.55-.35.49.49,0,0,1,.39.43A15.57,15.57,0,0,1,203.27,43.69ZM204.2,50a.51.51,0,0,1,.37.16c.12.16.29.45.51.82.37.63.75,1.33,1.2,2.06a.89.89,0,0,1,.08.29.29.29,0,0,1-.2.27.35.35,0,0,1-.27-.1,8.8,8.8,0,0,1-1.75-2.32,2.42,2.42,0,0,1-.26-.51.8.8,0,0,1-.06-.29C203.82,50.23,204,50.11,204.2,50Zm4.36,2.2c0,.08-.08.14-.12.14a.41.41,0,0,1-.22.06c-.27,0-.65-.24-1.16-.75a6.45,6.45,0,0,1-1-1.39.37.37,0,0,1-.12-.29.64.64,0,0,1,.12-.25l.22-.12.14,0a.58.58,0,0,1,.25.08q.12.18.37.49a5,5,0,0,0,1.53,1.63.26.26,0,0,1,.14.24A.45.45,0,0,1,208.57,52.25Zm10-7.89-2.14-1.79c-.69-.59-1.41-1.26-2.18-2a1.89,1.89,0,0,1-.49-.51A33.91,33.91,0,0,1,212,43.58c-.53.88-1,1.69-1.43,2.43-.29.49-.57,1-.9,1.47a7.28,7.28,0,0,1-.79,1,.58.58,0,0,1-.39.16.21.21,0,0,1-.16-.22.76.76,0,0,1,.08-.33,2.89,2.89,0,0,1,.39-.88q.37-.76,1-1.9c.61-1,1.24-2.16,1.88-3.38a22.83,22.83,0,0,0,1-2.26q.37-1.1.61-2a.54.54,0,0,1,.43-.35h.14a.57.57,0,0,1,.39.59,3.9,3.9,0,0,1-.25,1s0,0,.08,0a5.49,5.49,0,0,1,.82.69c.65.61,1.67,1.57,3.08,2.83.73.65,1.32,1.2,1.77,1.61.12.16.24.29.35.41a.71.71,0,0,1,.18.35.37.37,0,0,1-.41.43.62.62,0,0,1-.16,0A11.88,11.88,0,0,1,218.54,44.36Zm-4.18,10.7a8.78,8.78,0,0,1-1.12.2h0a.44.44,0,0,1-.43.41c-.29,0-.43-.14-.43-.39a15.31,15.31,0,0,0-.35-2.14c-.31-1.22-.57-2.26-.82-3.1a.56.56,0,0,1,.16-.31.45.45,0,0,1,.35-.18l.29,0a.84.84,0,0,1,.33.33c0,.08.06.18.1.31A4.59,4.59,0,0,0,213,50a16.48,16.48,0,0,1,3-.27,2.66,2.66,0,0,1,1.3.27,1.44,1.44,0,0,1,.67,1.35,3.58,3.58,0,0,1-.63,1.77,5.86,5.86,0,0,1-.77.82l-.18.1A11.74,11.74,0,0,1,214.36,55.06Zm.79-9a18.22,18.22,0,0,1-2.06.61,6.12,6.12,0,0,1-.86.08H212a.4.4,0,0,1-.39-.43v-.22a.69.69,0,0,1,.41-.47,1.63,1.63,0,0,0,.33,0,6.34,6.34,0,0,0,1.85-.29,17.53,17.53,0,0,0,2.34-.86l.31-.14a1.48,1.48,0,0,1,.39.08.39.39,0,0,1,.2.27.75.75,0,0,1-.1.31.66.66,0,0,1-.35.27A12.74,12.74,0,0,1,215.15,46Zm-2.28,6.24c.12.82.22,1.45.29,1.94a8.27,8.27,0,0,0,.94-.18,7.38,7.38,0,0,0,1.9-.82,3.85,3.85,0,0,0,.94-1.77c0-.37-.35-.57-.92-.57a7.7,7.7,0,0,0-1.24.12,6.58,6.58,0,0,0-1.37.22l-.73.14C212.7,51.64,212.79,51.94,212.87,52.27Z"/><path class="cls-1" d="M230.84,48.82a15.75,15.75,0,0,1-2.32.57h-.14c-.08,0-.16-.08-.24-.22a.45.45,0,0,1-.1-.33.71.71,0,0,1,.27-.55,17.09,17.09,0,0,1,1.88-.65,3.47,3.47,0,0,1-.69-1.79c0-.49,0-1,0-1.59-.73.18-1.45.35-2.1.49a10,10,0,0,1-1.16.2c-.22,0-.41,0-.55,0s-.43-.2-.47-.57c0-.16.12-.31.41-.45s.35-.12.61-.2q2.75-.49,5.38-1.16.12-.55.18-1a9,9,0,0,0,.1-1.35c0-.12,0-.24,0-.35a28.62,28.62,0,0,1-3.87.67c-.31,0-.45-.18-.45-.59a.46.46,0,0,1,.43-.51,19.53,19.53,0,0,0,3.73-.71,2.75,2.75,0,0,1-.08-.35,8.65,8.65,0,0,0-.55-1.3,2.08,2.08,0,0,1-.12-.35.53.53,0,0,1,.45-.43h.14c.18,0,.35.18.47.51a3.16,3.16,0,0,1,.61,1.35c0,.12,0,.24.06.33,1-.24,2.14-.53,3.4-.9.29,0,.45.08.49.22s0,.16,0,.24a.71.71,0,0,1-.26.29,11,11,0,0,1-2.65,1.1,7.61,7.61,0,0,1-.82.18c0,.16,0,.31,0,.45a9.09,9.09,0,0,1-.25,2.28c2.94-.71,5.2-1.35,6.83-1.92a.33.33,0,0,1,.29.16s0,.1,0,.18a.61.61,0,0,1-.18.39,12.91,12.91,0,0,1-3.77,1.55,2,2,0,0,1,.22.88A4.81,4.81,0,0,1,235.2,46c-.12.16-.22.29-.33.41a.85.85,0,0,0,.33-.06,7.79,7.79,0,0,1,1.73-.24.62.62,0,0,1,.35.2.64.64,0,0,1,.14.33c0,.16-.12.29-.37.39-.94.29-2.12.63-3.57,1,0,.55,0,1.08,0,1.59v1.2a55,55,0,0,0,5.81-1.75.39.39,0,0,1,.29.14s0,.1,0,.16a.53.53,0,0,1-.18.37c-.77.65-2.75,1.41-5.93,2.28,0,.61,0,1.18,0,1.69,0,1.35-.06,2.36-.14,3.08-.1.35-.29.53-.53.53s-.35-.14-.35-.43c0-.71.08-1.65.08-2.83,0-.51,0-1.1,0-1.81-1.45.41-2.81.75-4.12,1l-1,.2-.53,0c-.29,0-.43-.2-.47-.59,0-.14.12-.29.39-.43a5.71,5.71,0,0,1,.61-.18c1.75-.35,3.47-.75,5.14-1.24V49.64c0-.41,0-.86-.06-1.3ZM234.78,43c-.61.18-1.24.35-1.92.49s-1.59.39-2.34.55a.25.25,0,0,0,0,.1,10.38,10.38,0,0,0-.08,1.41,3.49,3.49,0,0,0,.39,1.3,3.43,3.43,0,0,0,.22.55l2.08-.55.18-.12a5.34,5.34,0,0,0,.82-.84,4.74,4.74,0,0,0,.73-1.77,3.94,3.94,0,0,0,0-.49A1.39,1.39,0,0,0,234.78,43Z"/><path class="cls-1" d="M248.67,53.84A31.3,31.3,0,0,0,254,55.28c.69.12,1.47.24,2.32.33s1.35.08,1.92.08a14.19,14.19,0,0,0,1.75-.12,8.45,8.45,0,0,0,1.65-.33,4.86,4.86,0,0,1,1-.14c.22,0,.35.06.37.18a.56.56,0,0,1-.06.27,1.92,1.92,0,0,1-.31.22,14.84,14.84,0,0,1-5.18.82,30.17,30.17,0,0,1-10.29-2.16,17.43,17.43,0,0,1-1.85-.86,5.15,5.15,0,0,1-.86-.59.29.29,0,0,1-.1-.27.66.66,0,0,1,.2-.49.47.47,0,0,1,.33-.12,1.15,1.15,0,0,1,.31.08c.33.16.69.35,1.14.55a4.3,4.3,0,0,0,.59-2.28,1.56,1.56,0,0,0-.37-.88,1.46,1.46,0,0,1-.26-.77,2.49,2.49,0,0,1,.59-1.43,1,1,0,0,0,.26-.47,2.9,2.9,0,0,0-.26-1c-.16-.29-.35-.63-.53-1,0-.29.18-.45.55-.45a.64.64,0,0,1,.37.18,3,3,0,0,1,.77,2.12,4.31,4.31,0,0,1-.79,2,3.16,3.16,0,0,1,.61,1.85A3.81,3.81,0,0,1,247,53.1,16.18,16.18,0,0,0,248.67,53.84Zm-.61-11a.91.91,0,0,1-.63-.37,4.27,4.27,0,0,0-1.77-.9c-.16-.06-.26-.1-.29-.14a.74.74,0,0,1,0-.33.93.93,0,0,1,0-.2c0-.2.22-.31.53-.33a2.8,2.8,0,0,1,1.22.35,4.16,4.16,0,0,1,1.22,1,1.34,1.34,0,0,1,.08.39C248.39,42.69,248.26,42.85,248.06,42.85Zm11,4.59a7.72,7.72,0,0,1-1.61.71,5.84,5.84,0,0,1-.65.2c0,.67-.06,1.28-.1,1.85,2.41-.59,4.28-1.12,5.63-1.57a.39.39,0,0,1,.31.16s0,.1,0,.16a.7.7,0,0,1-.2.41c-.73.55-2.59,1.2-5.59,1.94a.9.9,0,0,1-.29.06c-.12,1-.29,1.81-.45,2.59,0,.33-.2.49-.47.49s-.41-.16-.41-.49c.12-.84.25-1.61.35-2.34l-3.38.79c-.45.08-.78.12-1,.14a2.5,2.5,0,0,1-.53,0q-.37,0-.43-.55c0-.14.1-.29.35-.41s.35-.12.61-.2c1.55-.29,3-.61,4.48-1,.06-.57.1-1.16.12-1.79a25.22,25.22,0,0,1-2.51.73,3.05,3.05,0,0,1-.65.16h-.1a.5.5,0,0,1-.26-.47.38.38,0,0,1,.16-.27l.18-.06A13,13,0,0,1,252.4,46a2.75,2.75,0,0,0-.9-1.47c-.08,0-.1-.12-.1-.26a.49.49,0,0,1,.2-.37.7.7,0,0,1,.37-.1,1.19,1.19,0,0,1,.27,0,1.9,1.9,0,0,1,.37.35,4.24,4.24,0,0,1,.61-.29,15.1,15.1,0,0,1,2.43-.75c0-.08,0-.14,0-.2-.08-.47-.14-.92-.2-1.33l-1.61.51a2.7,2.7,0,0,1-.51.1,2.64,2.64,0,0,1-.39,0c-.2,0-.31-.14-.33-.41,0-.1.08-.2.29-.33l.43-.12c.65-.16,1.3-.37,2-.57-.06-.29-.12-.55-.2-.82a.82.82,0,0,1-.08-.31c.06-.27.2-.41.41-.43h.12q.3,0,.49.49c.08.24.14.49.22.75,1-.35,1.81-.65,2.43-.9a16.69,16.69,0,0,0,1.61-2.24c-1,.16-3.44.71-7.44,1.69a2.37,2.37,0,0,1-.67.12v.27a6.79,6.79,0,0,1-.18,1.45,6,6,0,0,1-.41,1.06,1.83,1.83,0,0,1-.26.49.53.53,0,0,1-.45.16c-.18,0-.26-.1-.26-.31a2.19,2.19,0,0,1,.14-.55,5,5,0,0,0,.37-1.14,4.89,4.89,0,0,0,.1-.9,5.18,5.18,0,0,0-.16-1.39.82.82,0,0,1-.14-.41.6.6,0,0,1,.18-.45.43.43,0,0,1,.31-.14.63.63,0,0,1,.35.14,1.27,1.27,0,0,1,.24.35c0,.16.06.33.1.49a1.88,1.88,0,0,1,.45-.16c1.33-.35,3.3-.77,5.91-1.26a14.55,14.55,0,0,1,2.59-.41l.24,0a.53.53,0,0,1,.29.43c0,.71-.69,1.67-2.08,2.89l-.49.39a.62.62,0,0,1-.31.14,11.48,11.48,0,0,1-2.26,1c.08.41.14.88.2,1.37,0,.1,0,.2,0,.29.2,0,.43-.06.63-.1l1.2-.06h.49c1.26.12,1.92.71,1.92,1.81a3.29,3.29,0,0,1-1.75,2.71Zm-5.42-1.12c.82-.2,1.55-.41,2.22-.61,0-.61-.08-1.2-.14-1.79a18,18,0,0,0-2.75.88.44.44,0,0,0,.06.1,4.64,4.64,0,0,1,.33,1.47A1.59,1.59,0,0,0,253.65,46.31Zm2.26,1.61V47c0-.27,0-.53,0-.77l-2,.59a4.53,4.53,0,0,1-.51.1c0,.14,0,.29,0,.41,0,.41,0,.79,0,1.2C254.32,48.37,255.13,48.15,255.91,47.93Zm.92-.29c.41-.12.77-.27,1.14-.41l.37-.12a4,4,0,0,0,1.43-1.55,2.39,2.39,0,0,0,.18-.84,1.34,1.34,0,0,0-1.39-1.18c-.61,0-1.24.08-1.86.16,0,.57.06,1.14.1,1.67a4.79,4.79,0,0,0,.82-.31,2,2,0,0,1,.75-.24.19.19,0,0,1,.14.06.38.38,0,0,1,.12.14.39.39,0,0,1-.14.24,6.63,6.63,0,0,1-1.28.57l-.41.14c0,.33,0,.63,0,.94Z"/><path class="cls-1" d="M270.38,42.71a2.32,2.32,0,0,1,2.55,2.73l.24,8.62q0,.46-.73.49a5.59,5.59,0,0,1-2-.43c-.45.14-1,.29-1.53.45-.39.06-.73.1-1.06.12a.68.68,0,0,1-.08.24.49.49,0,0,1-.35.18.34.34,0,0,1-.29-.12.57.57,0,0,1-.16-.41c0-.73,0-1.73,0-3s0-2.63,0-3.77,0-2.39.06-3.73c0-.65,0-1.37,0-2.12a1.18,1.18,0,0,1,0-.26.35.35,0,0,1,0-.14s0,0-.06,0a4.75,4.75,0,0,1-.51,0c-.29,0-.43-.18-.45-.55,0-.14.12-.29.37-.41s.35-.12.59-.2c.65-.16,1.3-.35,1.94-.57A17.77,17.77,0,0,0,271,39.1a.36.36,0,0,1,.29.14s0,.08,0,.16a.59.59,0,0,1-.16.37,6,6,0,0,1-2.1,1.08c-.39.16-.75.29-1.08.39a.29.29,0,0,1,.06.08,1.91,1.91,0,0,1,.1.61c0,.33,0,.79,0,1.37A7.43,7.43,0,0,1,270.38,42.71Zm1.73,10.85c0-1.88,0-3.55,0-5-.22.1-.49.2-.77.31-1.06.37-2.14.71-3.28,1a.28.28,0,0,1-.16,0c0,.49,0,1.06,0,1.71s0,1.47,0,2.16c.26,0,.53-.06.82-.1A10.68,10.68,0,0,0,271,53h.18a.36.36,0,0,1,.31.18.88.88,0,0,0,.06.18.52.52,0,0,1-.1.33A3.53,3.53,0,0,1,272.11,53.55ZM272,45.44c-.14-1.18-.75-1.79-1.83-1.79a3.8,3.8,0,0,0-1,.24c-.37.16-.75.35-1.12.53a2.21,2.21,0,0,0,0,.37c-.08,1.45-.12,2.57-.14,3.36V49a34.28,34.28,0,0,0,3.75-1.2l.45-.14C272,46.84,272,46.11,272,45.44Zm10.36.94c0-1.67.06-3.75.14-6.26,0-.41,0-.63-.1-.63a13.21,13.21,0,0,0-2.1.73q-1.34.49-2.69.86a8,8,0,0,1-2.16.35h-.33a.72.72,0,0,1-.65-.33.85.85,0,0,1-.14-.55,16.69,16.69,0,0,0,1.57-4,.68.68,0,0,1,.53-.22.57.57,0,0,1,.25.1.51.51,0,0,1,.16.41,2.84,2.84,0,0,1-.33,1c-.57,1.43-.9,2.26-1,2.49a13.57,13.57,0,0,0,4-.84c.88-.29,1.77-.61,2.69-1a2.7,2.7,0,0,1,.55-.1c.16,0,.35.22.51.63a3.53,3.53,0,0,1,.16,1.16c0,.65,0,1.67-.06,3-.08,2.41-.12,4.44-.12,6.16q0,3.36.06,7.28a.7.7,0,0,1-.35.53l-.39.08a3.68,3.68,0,0,1-2.14-.88,9.63,9.63,0,0,1-1.81-2,.81.81,0,0,1-.08-.37c0-.2.08-.31.29-.31a.76.76,0,0,1,.43.18,20.46,20.46,0,0,0,3.18,2.36c-.08-1.79-.14-4.16-.14-7.14C282.32,48.33,282.32,47.44,282.34,46.38Zm-2.81,2.79a.83.83,0,0,1-.37-.1c-.24-.12-.55-.27-.9-.47a13.88,13.88,0,0,1-2.38-1.43l-.31-.31a.55.55,0,0,1-.06-.24.4.4,0,0,1,.12-.29.48.48,0,0,1,.25-.2l.24,0a.92.92,0,0,1,.29.1c.12.08.29.2.49.33a15.24,15.24,0,0,0,1.71,1.1c.35.2.67.43,1,.63a.81.81,0,0,1,.22.51c0,.22-.08.35-.22.39Z"/><path class="cls-1" d="M293.83,38.06a7.22,7.22,0,0,1-.59,1.33c-.41.67-.9,1.47-1.51,2.41q.09,1,.12,2.75a48,48,0,0,1-.67,8.24c-.16,1.1-.33,2.1-.53,3-.08.27-.22.41-.43.41s-.37-.16-.37-.47a28.49,28.49,0,0,1,.65-4.69,28.65,28.65,0,0,0,.39-4.71V43.07l-1.45,2.14c-.43.65-.9,1.39-1.43,2.24a.46.46,0,0,1-.37.22c-.24,0-.37-.1-.37-.33a.56.56,0,0,1,.14-.37c.25-.43.57-1,1-1.63.49-.84,1.12-1.9,1.88-3.2.63-1.08,1.3-2.2,2-3.38.22-.41.43-.84.63-1.26.06-.12.12-.24.18-.39a1.92,1.92,0,0,1,.53-.08.44.44,0,0,1,.39.45A1.39,1.39,0,0,1,293.83,38.06ZM294.18,54c-.18,0-.26-.1-.26-.29a.65.65,0,0,1,.08-.24c.16-.65.35-1.35.51-2.08a14.47,14.47,0,0,0,.39-2.51c0-.24,0-.47,0-.71a5.3,5.3,0,0,1-.12-.77c0-.24.14-.39.45-.41h.18c.12,0,.24.1.37.29a8.75,8.75,0,0,1,.1,1.49,12.32,12.32,0,0,1-.37,2.87c-.2.69-.43,1.39-.69,2.08A.76.76,0,0,1,294.18,54Zm1.69-.29a.37.37,0,0,1,.31-.14.49.49,0,0,1,.29.1,9.52,9.52,0,0,0,1,2c.33.41.63.63.9.63.69,0,1.06-2.18,1.06-6.5v-.94a28.31,28.31,0,0,0-.14-2.83c-.06-.71-.12-1.37-.2-1.94a4.18,4.18,0,0,1-.08-.61.59.59,0,0,1,.12-.31.46.46,0,0,1,.31-.16.55.55,0,0,1,.57.43c0,.18.1.41.14.69l.37-.27a10.13,10.13,0,0,0,2.94-4.14,33.89,33.89,0,0,1-4.71,2.71,5.74,5.74,0,0,1-2.06.57c-.69,0-1-.39-1-1.18a8.19,8.19,0,0,1,.65-2.59,13.09,13.09,0,0,1,1.08-2.41.59.59,0,0,1,.45-.27l.16,0a.87.87,0,0,1,.29.18.71.71,0,0,1,.06.33,21.78,21.78,0,0,1-.84,2.34,9.66,9.66,0,0,0-.84,2.43c0,.08.08.1.2.1a7.25,7.25,0,0,0,2.47-1.12,23.34,23.34,0,0,0,2.53-1.51,5,5,0,0,1,1.69-.63H304a.56.56,0,0,1,.47.57,3.66,3.66,0,0,1-.22,1.18,7.57,7.57,0,0,1-1,1.9,9.16,9.16,0,0,1-2.45,2.28,1.84,1.84,0,0,1-.57.29c0,.37.06.75.1,1.16l.06,2.08c0,.47,0,.9,0,1.28,0,2,0,3.3-.1,4.08a9.46,9.46,0,0,1-.78,3.06,1.33,1.33,0,0,1-1.06.73c-.65,0-1.3-.55-2-1.63a6.19,6.19,0,0,1-.67-1.33.54.54,0,0,1-.1-.31A.51.51,0,0,1,295.87,53.69Zm9.68-.18a.44.44,0,0,1-.24.08,1,1,0,0,1-.27,0,2.68,2.68,0,0,1-.49-.79,20.82,20.82,0,0,1-2-4.83,1.67,1.67,0,0,1,0-.43.58.58,0,0,1,.08-.24,1,1,0,0,1,.26-.22s.12,0,.24,0a.49.49,0,0,1,.33.27c.41,1,.84,2.12,1.24,3.24s.84,2.14,1,2.67v.1A.33.33,0,0,1,305.56,53.51Z"/></g></g></svg>