<svg xmlns="http://www.w3.org/2000/svg" viewBox="0 0 379 71.82"><defs><style>.cls-1{fill:#f56e62;}.cls-2{fill:none;stroke:#e05e3b;stroke-miterlimit:10;stroke-width:0.5px;}</style></defs><title>title</title><g id="圖層_2" data-name="圖層 2"><g id="圖層_1-2" data-name="圖層 1"><path class="cls-1" d="M-254.16-99.26v3.4h-29.48v17.08h-6.95V-95.86H-320v-3.4h29.41v-9.22h-25.33v-3.41h17.46c-1.58-3.55-3.7-7.71-6-11.79l1.43-1.21h-14.66v-3.4h27v-8.62h-20.71v-3.4h20.71v-9.14h7v9.14h21.39v3.4h-21.39v8.62H-256v3.4h-17.54l4.92,2.12a57.55,57.55,0,0,1-9.23,10.88h19.81v3.41h-25.55v9.22Zm-27.44-12.63a56.37,56.37,0,0,0,5.14-13H-301.4a58.38,58.38,0,0,1,10.2,10.74l-3.7,2.26Z" transform="translate(320 150)"/><path class="cls-1" d="M-232.85-94.42V-111h-9.45v-3.4h16v19.81c4.16,6.19,13.68,6.72,20.41,6.72a277,277,0,0,0,31.6-1.89l-2.72,7.41c-8.09.53-20.11.61-29.25.38-13.69-.3-19.81-5.52-23-11.41a65.91,65.91,0,0,1-9.53,14.81l-4.61-4.69A61.78,61.78,0,0,0-232.85-94.42ZM-241.46-132l1.43-2.35c4.23,2.12,9.9,5.37,13.91,9.08L-231-119.9A108.83,108.83,0,0,0-241.46-132Zm2.34-15.2,1.36-2.19A54,54,0,0,1-223.85-141l-4.76,5.37A131.91,131.91,0,0,0-239.12-147.19Zm36,7.64h6.5v5.82h16.48v3.4h-16.48v4.54h14.89v20h-14.89v4.69H-177v3.4h-19.65v7.94h-6.5v-7.94h-19v-3.4h19v-4.69h-14.74v-20h14.74v-4.54h-17v-3.4h17Zm24.57-6v10.28h-6.35v-6.88h-30.47v6.88h-6.35v-10.28Zm-24.57,22.9h-8.69v5h8.69Zm0,8h-8.69v5.6h8.69Zm15.35-8h-8.85v5h8.85Zm0,8h-8.85v5.6h8.85Z" transform="translate(320 150)"/><path class="cls-1" d="M-146.83-138.64h-18.52V-142h18.52v-7.33h6.8V-142h16v-7.33h6.81V-142h18.44v3.41h-18.44v6.87h-6.81v-6.87h-16v6.87h-6.8Zm11.11,43h-29.55V-99h29.55v-7.11H-155.9v-23.74h47v23.74h-19.73V-99h29.86v3.4h-29.86v16.17h-7.11Zm19.88-24.19v-6.65h-33.11v6.65Zm0,10.28v-6.88h-33.11v6.88Z" transform="translate(320 150)"/><path class="cls-1" d="M-55.52-131.77h-33v-3.4h16.1c-2.64-4.38-6.2-9.82-8.24-12.55l1.89-2A70.46,70.46,0,0,1-66.1-139.4l-4.84,4.23h15.42Zm-29.71,17.39h25.4v3.18h-25.4Zm.08-10.28h25.4v3.25h-25.4Zm0,21.17h25.32v23.2H-66V-84.6H-78.65v5.3h-6.5Zm6.5,15.42H-66v-12H-78.65ZM-21-124.51v3.4H-35.41v42h-7v-42H-56.65v-3.4h14.28v-24.64h7v24.64Z" transform="translate(320 150)"/><path class="cls-1" d="M-10.09-85.28H55.75v3.48H-10.09ZM-8.43-114H19.16v-4.46H-4.27v-3.25H19.16v-4.39H-1.93v-3.25H19.16v-4.15H-9v-3.41h28.2v-4H-1.48v-3.25H19.16v-5.22h6.65v5.22H47.13v7.25h8.24v3.41H47.13v7.4H25.81v4.39H50.08v3.25H25.81V-114H54.39v3.4H-8.43ZM-1-107.35H47.13v18.22H-1ZM19.39-100v-4.08H5.48V-100Zm0,7.64V-97H5.48v4.61Zm21.24-44.53v-4H25.81v4Zm0,7.56v-4.15H25.81v4.15Zm0,29.33v-4.08H25.81V-100Zm0,7.64V-97H25.81v4.61Z" transform="translate(320 150)"/><path class="cls-2" d="M-251.16-99.26v3.4h-29.48v17.08h-6.95V-95.86H-317v-3.4h29.41v-9.22h-25.33v-3.41h17.46c-1.58-3.55-3.7-7.71-6-11.79l1.43-1.21h-14.66v-3.4h27v-8.62h-20.71v-3.4h20.71v-9.14h7v9.14h21.39v3.4h-21.39v8.62H-253v3.4h-17.54l4.92,2.12a57.55,57.55,0,0,1-9.23,10.88h19.81v3.41h-25.55v9.22Zm-27.44-12.63a56.37,56.37,0,0,0,5.14-13H-298.4a58.38,58.38,0,0,1,10.2,10.74l-3.7,2.26Z" transform="translate(320 150)"/><path class="cls-2" d="M-229.85-94.42V-111h-9.45v-3.4h16v19.81c4.16,6.19,13.68,6.72,20.41,6.72a277,277,0,0,0,31.6-1.89l-2.72,7.41c-8.09.53-20.11.61-29.25.38-13.69-.3-19.81-5.52-23-11.41a65.91,65.91,0,0,1-9.53,14.81l-4.61-4.69A61.78,61.78,0,0,0-229.85-94.42ZM-238.46-132l1.43-2.35c4.23,2.12,9.9,5.37,13.91,9.08L-228-119.9A108.83,108.83,0,0,0-238.46-132Zm2.34-15.2,1.36-2.19A54,54,0,0,1-220.85-141l-4.76,5.37A131.91,131.91,0,0,0-236.12-147.19Zm36,7.64h6.5v5.82h16.48v3.4h-16.48v4.54h14.89v20h-14.89v4.69H-174v3.4h-19.65v7.94h-6.5v-7.94h-19v-3.4h19v-4.69h-14.74v-20h14.74v-4.54h-17v-3.4h17Zm24.57-6v10.28h-6.35v-6.88h-30.47v6.88h-6.35v-10.28Zm-24.57,22.9h-8.69v5h8.69Zm0,8h-8.69v5.6h8.69Zm15.35-8h-8.85v5h8.85Zm0,8h-8.85v5.6h8.85Z" transform="translate(320 150)"/><path class="cls-2" d="M-143.83-138.64h-18.52V-142h18.52v-7.33h6.8V-142h16v-7.33h6.81V-142h18.44v3.41h-18.44v6.87h-6.81v-6.87h-16v6.87h-6.8Zm11.11,43h-29.55V-99h29.55v-7.11H-152.9v-23.74h47v23.74h-19.73V-99h29.86v3.4h-29.86v16.17h-7.11Zm19.88-24.19v-6.65h-33.11v6.65Zm0,10.28v-6.88h-33.11v6.88Z" transform="translate(320 150)"/><path class="cls-2" d="M-52.52-131.77h-33v-3.4h16.1c-2.64-4.38-6.2-9.82-8.24-12.55l1.89-2A70.46,70.46,0,0,1-63.1-139.4l-4.84,4.23h15.42Zm-29.71,17.39h25.4v3.18h-25.4Zm.08-10.28h25.4v3.25h-25.4Zm0,21.17h25.32v23.2H-63V-84.6H-75.65v5.3h-6.5Zm6.5,15.42H-63v-12H-75.65ZM-18-124.51v3.4H-32.41v42h-7v-42H-53.65v-3.4h14.28v-24.64h7v24.64Z" transform="translate(320 150)"/><path class="cls-2" d="M-7.09-85.28H58.75v3.48H-7.09ZM-5.43-114H22.16v-4.46H-1.27v-3.25H22.16v-4.39H1.07v-3.25H22.16v-4.15H-6v-3.41h28.2v-4H1.52v-3.25H22.16v-5.22h6.65v5.22H50.13v7.25h8.24v3.41H50.13v7.4H28.81v4.39H53.08v3.25H28.81V-114H57.39v3.4H-5.43ZM2-107.35H50.13v18.22H2ZM22.39-100v-4.08H8.48V-100Zm0,7.64V-97H8.48v4.61Zm21.24-44.53v-4H28.81v4Zm0,7.56v-4.15H28.81v4.15Zm0,29.33v-4.08H28.81V-100Zm0,7.64V-97H28.81v4.61Z" transform="translate(320 150)"/></g></g></svg>