<svg xmlns="http://www.w3.org/2000/svg" viewBox="0 0 54.45 46.5"><defs><style>.cls-1{fill:#96b94c;}.cls-2{fill:#fef7f3;}</style></defs><title>Watering-device</title><g id="圖層_2" data-name="圖層 2"><g id="圖層_1-2" data-name="圖層 1"><path class="cls-1" d="M26.71,16.52c0,2.87,2,12.8,13.26,13.22a.79.79,0,0,0,.82-.75c.15-2.74-1.25-12-13.32-13.18A.7.7,0,0,0,26.71,16.52Z"/><path d="M53.12,24.46,52.66,24V10.48A10.47,10.47,0,0,0,44.56.27a.92.92,0,1,0-.41,1.79,8.64,8.64,0,0,1,6.67,8.41V22.16l-3.09-3.09V10.48a5.55,5.55,0,0,0-9.47-3.92L36.73,8.07,34.55,5.88l1.52-1.52a8.61,8.61,0,0,1,4.14-2.3A.92.92,0,0,0,39.8.27a10.44,10.44,0,0,0-5,2.79L33.24,4.6a3.7,3.7,0,0,0-4.95.25L12.79,20.34a3.7,3.7,0,0,0,0,5.22l6.26,6.26-10.51.7-5.17-3a2.08,2.08,0,0,0-3.12,1.8v9.78a2.06,2.06,0,0,0,1,1.8,2.06,2.06,0,0,0,2.08,0l5.17-3,20,1.33,3.91,3.91a3.7,3.7,0,0,0,5.22,0L53.12,29.68A3.7,3.7,0,0,0,53.12,24.46ZM39.55,7.85a3.71,3.71,0,0,1,6.34,2.63v6.75L38,9.37ZM51.82,28.38,36.33,43.87a1.86,1.86,0,0,1-2.62,0l-8.13-8.13a.92.92,0,1,0-1.3,1.3l2.25,2.25L8.39,38.08a.92.92,0,0,0-.52.12L2.45,41.33a.24.24,0,0,1-.37-.21V31.34a.24.24,0,0,1,.37-.21l5.41,3.13a.91.91,0,0,0,.52.12l12.4-.83.5.5a.92.92,0,1,0,1.3-1.3l-8.49-8.49a1.86,1.86,0,0,1,0-2.62L29.58,6.14a1.86,1.86,0,0,1,2.62,0L51.82,25.76A1.86,1.86,0,0,1,51.82,28.38Z"/><path class="cls-2" d="M35,46.5a3.91,3.91,0,0,1-2.79-1.15L28.39,41.5,8.6,40.18,3.49,43.13a2.35,2.35,0,0,1-2.33,0,2.31,2.31,0,0,1-1.16-2V31.34a2.33,2.33,0,0,1,3.49-2L8.6,32.27l9.89-.66-5.87-5.87a4,4,0,0,1,0-5.57L28.11,4.67a3.93,3.93,0,0,1,5.1-.4l1.38-1.38A10.69,10.69,0,0,1,39.74,0a1.17,1.17,0,0,1,.53,2.28,8.35,8.35,0,0,0-4,2.24L34.9,5.88l1.83,1.83,1.34-1.34a5.8,5.8,0,0,1,9.9,4.1V19l2.59,2.59V10.48a8.39,8.39,0,0,0-6.48-8.17A1.17,1.17,0,0,1,43.22.9,1.17,1.17,0,0,1,44.62,0a10.72,10.72,0,0,1,8.29,10.45V23.89l.39.39a3.95,3.95,0,0,1,0,5.57L37.8,45.35A3.91,3.91,0,0,1,35,46.5ZM8.48,39.68h.08l20,1.34,4,4a3.44,3.44,0,0,0,4.87,0L52.94,29.5a3.45,3.45,0,0,0,0-4.87l-.54-.54V10.48a10.22,10.22,0,0,0-7.9-10,.67.67,0,1,0-.3,1.3,8.89,8.89,0,0,1,6.87,8.66V22.76l-3.59-3.59V10.48a5.3,5.3,0,0,0-9-3.75l-1.7,1.7L34.19,5.88l1.7-1.7a8.86,8.86,0,0,1,4.27-2.37A.67.67,0,0,0,40.36.6a.66.66,0,0,0-.5-.08,10.19,10.19,0,0,0-4.91,2.73L33.25,4.94l-.17-.14A3.43,3.43,0,0,0,28.46,5L13,20.51a3.45,3.45,0,0,0,0,4.87L19.62,32l-11.14.74-5.24-3A1.83,1.83,0,0,0,.5,31.34v9.78a1.81,1.81,0,0,0,.91,1.58,1.84,1.84,0,0,0,1.83,0Zm26.54,5A2.09,2.09,0,0,1,33.53,44L25.4,35.92a.67.67,0,0,0-.94.94l2.72,2.72L8.37,38.33a.68.68,0,0,0-.38.09L2.58,41.54a.49.49,0,0,1-.74-.43V31.33a.5.5,0,0,1,.74-.43L8,34a.65.65,0,0,0,.38.09l12.51-.83.58.58a.67.67,0,0,0,.95-.94l-8.49-8.49a2.11,2.11,0,0,1,0-3L29.41,6a2.16,2.16,0,0,1,3,0L52,25.58a2.11,2.11,0,0,1,0,3L36.51,44A2.09,2.09,0,0,1,35,44.67ZM24.93,35.23a1.17,1.17,0,0,1,.83.34l8.13,8.13a1.64,1.64,0,0,0,2.27,0L51.65,28.2a1.61,1.61,0,0,0,0-2.27L32,6.32a1.64,1.64,0,0,0-2.27,0L14.27,21.81a1.61,1.61,0,0,0,0,2.27l8.49,8.49a1.17,1.17,0,0,1-1.65,1.65l-.42-.42L8.4,34.62a1.17,1.17,0,0,1-.66-.15L2.33,31.34v9.77L7.74,38a1.18,1.18,0,0,1,.66-.15L25.88,39,24.1,37.22a1.17,1.17,0,0,1,.83-2ZM46.14,17.83,37.68,9.37l1.7-1.7a4,4,0,0,1,6.77,2.8ZM38.39,9.37l7.26,7.26V10.48A3.47,3.47,0,0,0,39.73,8Z"/><path d="M40.58,31.87l-1.42-1.42a1.57,1.57,0,0,0,.05-.46c-.07-2-.61-7-3.92-10.31S27,15.84,25,15.76a1.58,1.58,0,0,0-1.64,1.64c.08,2,.61,7,3.92,10.31s8.31,3.85,10.31,3.92h.18l1.53,1.53a.92.92,0,1,0,1.3-1.3Zm-12-5.45c-2.72-2.72-3.27-6.88-3.38-8.81,1.93.1,6.09.66,8.81,3.38a13,13,0,0,1,3.26,7.56l-6.73-6.73a.92.92,0,0,0-1.3,1.3l6.52,6.52A12.79,12.79,0,0,1,28.56,26.41Z"/><path class="cls-2" d="M39.93,33.68a1.16,1.16,0,0,1-.83-.34l-1.45-1.45h-.08c-2-.08-7.1-.62-10.48-4s-3.92-8.45-4-10.47a1.83,1.83,0,0,1,1.9-1.9c2,.08,7.1.62,10.47,4S39.39,28,39.46,30a1.76,1.76,0,0,1,0,.39l1.32,1.32a1.17,1.17,0,0,1-.83,2Zm-2.09-2.31.08.08L39.46,33a.69.69,0,0,0,.94,0,.67.67,0,0,0,0-.94l-1.52-1.52,0-.14A1.3,1.3,0,0,0,39,30c-.07-2-.59-6.88-3.85-10.14S26.94,16.09,25,16a1.29,1.29,0,0,0-1,.39,1.34,1.34,0,0,0-.39,1c.07,2,.6,6.89,3.85,10.14s8.18,3.78,10.14,3.85h.26ZM36.46,30l-.74-.11a13,13,0,0,1-7.33-3.29c-2.73-2.73-3.33-6.79-3.45-9v-.28l.28,0c2.18.12,6.25.72,9,3.45a13.23,13.23,0,0,1,3.34,7.71l.09.72L30.35,22a.66.66,0,0,0-.47-.2h0a.67.67,0,0,0-.47,1.14Zm-11-12.11c.13,1.85.72,5.8,3.29,8.36a12,12,0,0,0,6.28,3l-6-6a1.17,1.17,0,0,1,.82-2h0a1.16,1.16,0,0,1,.83.34l6.2,6.2a12.24,12.24,0,0,0-3.09-6.68C31.25,18.59,27.3,18,25.45,17.87Z"/></g></g></svg>